<svg width="40" height="40" viewBox="0 0 40 40" fill="none" xmlns="http://www.w3.org/2000/svg">
<path fill-rule="evenodd" clip-rule="evenodd" d="M20 40C31.0457 40 40 31.0457 40 20C40 8.9543 31.0457 0 20 0C8.9543 0 0 8.9543 0 20C0 31.0457 8.9543 40 20 40ZM31.6663 20C31.6663 26.4433 26.443 31.6667 19.9997 31.6667C13.5564 31.6667 8.33301 26.4433 8.33301 20C8.33301 13.5567 13.5564 8.33333 19.9997 8.33333C26.443 8.33333 31.6663 13.5567 31.6663 20ZM28.4251 18.5477C27.8251 20.1994 25.9997 21.0519 24.3481 20.4519C22.6964 19.8519 21.8439 18.0266 22.4439 16.3749C23.0439 14.7233 24.8692 13.8707 26.5209 14.4707C28.1725 15.0707 29.0251 16.8961 28.4251 18.5477ZM21.4506 28.427C23.1023 29.027 24.9276 28.1745 25.5276 26.5228C26.1276 24.8711 25.2751 23.0458 23.6234 22.4458C21.9717 21.8458 20.1464 22.6983 19.5464 24.35C18.9464 26.0016 19.7989 27.827 21.4506 28.427ZM20.4514 15.651C19.8514 17.3027 18.0261 18.1552 16.3744 17.5552C14.7228 16.9552 13.8702 15.1299 14.4702 13.4782C15.0702 11.8265 16.8956 10.974 18.5472 11.574C20.1989 12.174 21.0514 13.9993 20.4514 15.651ZM13.476 25.5296C15.1276 26.1297 16.953 25.2771 17.553 23.6255C18.153 21.9738 17.3005 20.1485 15.6488 19.5484C13.9971 18.9484 12.1718 19.801 11.5718 21.4526C10.9718 23.1043 11.8243 24.9296 13.476 25.5296ZM21.4587 20C21.4587 20.8054 20.8057 21.4584 20.0003 21.4584C19.1949 21.4584 18.542 20.8054 18.542 20C18.542 19.1946 19.1949 18.5417 20.0003 18.5417C20.8057 18.5417 21.4587 19.1946 21.4587 20Z" fill="white"/>
</svg>
