<?xml version="1.0" encoding="utf-8"?>
<!-- Generator: Adobe Illustrator 25.0.1, SVG Export Plug-In . SVG Version: 6.00 Build 0)  -->
<svg version="1.1" id="Layer_1" xmlns="http://www.w3.org/2000/svg" xmlns:xlink="http://www.w3.org/1999/xlink" x="0px" y="0px"
	 viewBox="0 0 48 48" style="enable-background:new 0 0 48 48;" xml:space="preserve">
<style type="text/css">
	.st0{display:none;}
	.st1{display:inline;}
	.st2{fill:none;stroke:#0B82C6;stroke-width:1.4;stroke-miterlimit:10;}
	.st3{display:inline;fill:none;}
	.st4{fill:#0B82C6;}
	.st5{fill:none;}
</style>
<g class="st0">
	<g class="st1">
		<g>
			<g>
				<g>
					<path class="st2" d="M11.6,15.4c1.4,0,2.6-0.5,3.6-1.5c1-1,1.5-2.2,1.5-3.6c0-1.4-0.5-2.6-1.5-3.6c-1-1-2.2-1.5-3.6-1.5
						C10.2,5.3,9,5.8,8,6.8c-1,1-1.5,2.2-1.5,3.6c0,1.4,0.5,2.6,1.5,3.6C9,14.9,10.2,15.4,11.6,15.4z"/>
				</g>
				<g>
					<path class="st2" d="M18.6,23.4c1.5,1.5,3.3,2.2,5.4,2.2c2.1,0,3.9-0.7,5.4-2.2c1.5-1.5,2.2-3.3,2.2-5.4c0-2.1-0.7-3.9-2.2-5.4
						c-1.5-1.5-3.3-2.2-5.4-2.2c-2.1,0-3.9,0.7-5.4,2.2c-1.5,1.5-2.2,3.3-2.2,5.4S17.1,21.9,18.6,23.4z"/>
				</g>
				<g>
					<path class="st2" d="M36.4,15.4c1.4,0,2.6-0.5,3.6-1.5c1-1,1.5-2.2,1.5-3.6c0-1.4-0.5-2.6-1.5-3.6c-1-1-2.2-1.5-3.6-1.5
						c-1.4,0-2.6,0.5-3.6,1.5c-1,1-1.5,2.2-1.5,3.6c0,1.4,0.5,2.6,1.5,3.6C33.8,14.9,35,15.4,36.4,15.4z"/>
				</g>
				<g>
					<path class="st2" d="M41.5,16.4c-0.1,0-0.4,0.1-0.9,0.4c-0.5,0.3-1.1,0.6-1.9,0.8c-0.8,0.3-1.6,0.4-2.4,0.4
						c-0.9,0-1.8-0.2-2.6-0.5c0.1,0.5,0.1,0.9,0.1,1.3c0,1.8-0.5,3.5-1.6,5.1c2.1,0.1,3.9,0.9,5.3,2.5h2.7c1.1,0,2-0.3,2.7-0.8
						c0.7-0.5,1.1-1.3,1.1-2.4C44,18.7,43.2,16.4,41.5,16.4z"/>
				</g>
				<g>
					<path class="st2" d="M37.6,33.4c-0.1-0.8-0.3-1.5-0.5-2.2c-0.2-0.7-0.5-1.3-0.9-1.9c-0.4-0.6-0.8-1.2-1.2-1.6
						c-0.5-0.4-1-0.8-1.7-1.1c-0.7-0.3-1.4-0.4-2.2-0.4c-0.1,0-0.4,0.1-0.9,0.4c-0.4,0.3-0.9,0.6-1.4,1c-0.5,0.4-1.2,0.7-2.1,1
						C25.8,28.8,24.9,29,24,29c-0.9,0-1.8-0.1-2.7-0.4c-0.9-0.3-1.6-0.6-2.1-1c-0.5-0.4-1-0.7-1.4-1c-0.4-0.3-0.7-0.4-0.9-0.4
						c-0.8,0-1.5,0.1-2.2,0.4c-0.7,0.3-1.2,0.6-1.7,1.1c-0.5,0.4-0.9,1-1.2,1.6c-0.4,0.6-0.6,1.3-0.9,1.9c-0.2,0.7-0.4,1.4-0.5,2.2
						c-0.1,0.8-0.2,1.5-0.3,2.2c0,0.7-0.1,1.4-0.1,2.1c0,1.6,0.5,2.8,1.4,3.8c1,0.9,2.2,1.4,3.8,1.4h17.3c1.6,0,2.9-0.5,3.8-1.4
						c1-0.9,1.4-2.2,1.4-3.8c0-0.7,0-1.4-0.1-2.1C37.9,34.9,37.8,34.1,37.6,33.4z"/>
				</g>
				<g>
					<path class="st2" d="M15.8,24c-1.1-1.5-1.6-3.2-1.6-5.1c0-0.4,0-0.8,0.1-1.3c-0.9,0.3-1.8,0.5-2.6,0.5c-0.8,0-1.6-0.1-2.4-0.4
						c-0.8-0.3-1.4-0.6-1.9-0.8c-0.5-0.3-0.8-0.4-0.9-0.4c-1.6,0-2.5,2.3-2.5,7c0,1,0.4,1.8,1.1,2.4c0.7,0.5,1.7,0.8,2.7,0.8h2.7
						C11.9,24.9,13.6,24.1,15.8,24z"/>
				</g>
			</g>
		</g>
	</g>
	<rect class="st3" width="48" height="48"/>
</g>
<g class="st0">
	<g class="st1">
		<g>
			<g>
				<g>
					<path class="st4" d="M25.3,41.8c-2.6,0-4.7-1.9-4.7-4.2c0-1.9,1.6-3.7,3.7-4c0.3-0.1,0.6-0.1,0.9-0.1c2.2,0,4.1,1.4,4.6,3.3
						l0,0.2l0.2,0c2.6,0,5-1.1,6.5-2.9l0.4-0.5h-1.6c-0.2,0-0.4-0.1-0.5-0.3c-0.1-0.1-0.1-0.3-0.1-0.4l0-11c0-0.4,0.2-0.8,0.6-0.8
						h1.3v-2.4c0-6.2-5.6-11.2-12.4-11.2s-12.4,5-12.4,11.2v2.4h1.3c0.4,0,0.6,0.4,0.6,0.8v10.9c0,0.2,0,0.3-0.1,0.5
						c-0.1,0.1-0.3,0.2-0.5,0.2H9.5c-1.1,0-2.1-0.4-2.7-1.2c-0.6-0.6-0.9-1.4-0.9-2.2v-5.6c0-1.9,1.6-3.5,3.6-3.5h0.8v-2.4
						c0-6.9,6.2-12.5,13.9-12.5s13.9,5.6,13.9,12.5v2.4h0.2c2.2,0,3.7,2.1,3.7,3.9v5.6c0,1.6-1.2,2.7-3.2,2.8l-0.1,0l-1,1.3
						c-1.8,2.1-4.6,3.4-7.6,3.4h-0.2l-0.1,0.2c-0.1,0.8-0.5,1.4-1.1,2C27.8,41.3,26.6,41.7,25.3,41.8z M25.2,34.7
						c-0.8,0-1.6,0.3-2.2,0.8c-0.6,0.5-0.9,1.3-0.9,2c0.1,1.6,1.5,2.9,3.2,2.9c0.9,0,1.7-0.3,2.3-0.9c0.6-0.5,0.9-1.2,0.8-2
						C28.4,36,27,34.7,25.2,34.7L25.2,34.7z M36.1,32.3h2.3c1,0,2.1-0.4,2.1-1.6v-5.6c0-1.1-0.8-2.7-2.1-2.7h-2.3V32.3z M9.5,22.4
						c-1.2,0-2.1,1-2.1,2.2v5.6c0,0.5,0.2,1,0.5,1.4c0.4,0.4,1,0.7,1.6,0.7h2.8v-9.9H9.5z"/>
				</g>
			</g>
		</g>
	</g>
	<rect class="st3" width="48" height="48"/>
</g>
<g>
	<g id="XMLID_1543_">
		<g>
			<g id="XMLID_13_">
				<g id="XMLID_14_">
					<path class="st4" d="M39.3,5.7h-28C9.4,5.7,7.9,7.2,7.9,9v30c0,1.8,1.5,3.3,3.4,3.3h28c0.4,0,0.7-0.3,0.7-0.7
						c0-0.2-0.1-0.4-0.2-0.5c-1.2-1.1-1.2-3,0-4.1c0.1-0.1,0.2-0.3,0.2-0.5v-30C40.1,6.1,39.8,5.7,39.3,5.7L39.3,5.7z M29.2,7.2h4.4
						v6L32,11.6c-0.1-0.1-0.3-0.2-0.5-0.2c-0.2,0-0.4,0.1-0.5,0.2l-1.7,1.6L29.2,7.2z M15.2,7.2c4.2,0,8.4,0,12.5,0v7.7
						c0,0.3,0.2,0.5,0.5,0.7c0.3,0.1,0.6,0,0.8-0.2l2.4-2.3l2.4,2.3c0.1,0.1,0.3,0.2,0.5,0.2c0.1,0,0.2,0,0.3-0.1
						c0.3-0.1,0.5-0.4,0.5-0.7V7.2h3.5v28.5H15.2h-1.5h-2.4c-0.7,0-1.4,0.2-1.9,0.6L9.4,9c0-1,0.9-1.9,1.9-1.9c0.8,0,1.6,0,2.4,0
						C14.2,7.2,14.7,7.2,15.2,7.2z M11.3,40.8c-1.1,0-1.9-0.8-1.9-1.9c0-1,0.9-1.9,1.9-1.9h26.6c-0.6,1.2-0.6,2.5,0,3.7H11.3z"/>
				</g>
			</g>
		</g>
	</g>
	<rect y="0" class="st5" width="48" height="48"/>
</g>
<g class="st0">
	<g class="st1">
		<path class="st4" d="M-50.1,67c-0.1,0-0.2,0-0.3-0.1c-0.3-0.1-0.5-0.4-0.5-0.7v-6.4h-1.7c-1.7,0-3.1-1.4-3.1-3.1V40.2
			c0-1.7,1.4-3.1,3.1-3.1h20.6l9.1-9.1c0.1-0.1,0.3-0.2,0.5-0.2s0.4,0.1,0.5,0.2l5,5c0.3,0.3,0.3,0.8,0,1.1l-9.1,9.1v13.5
			c0,1.7-1.4,3.1-3.1,3.1h-13.8l-6.8,7C-49.7,66.9-49.9,67-50.1,67z M-52.5,38.7c-0.9,0-1.6,0.7-1.6,1.6v16.4c0,0.9,0.7,1.6,1.6,1.6
			h2.4c0.4,0,0.8,0.3,0.8,0.8v5.3l5.7-5.8c0.1-0.1,0.3-0.2,0.6-0.2H-29c0.9,0,1.6-0.7,1.6-1.6V44.7l-4.2,4.2
			c-0.1,0.1-0.2,0.1-0.3,0.2l-8.5,3.5c-0.1,0-0.2,0.1-0.3,0.1c-0.1,0-0.1,0-0.1,0c-0.1,0-0.2,0-0.3-0.1c-0.3-0.2-0.4-0.9,0-1.7
			l3.3-7.8c0.1-0.1,0.1-0.2,0.2-0.3l4.2-4.2H-52.5z M-39.2,50.5l5.7-2.4l-3.3-3.3L-39.2,50.5z M-36,43.4l3.9,3.9l10.5-10.5l-3.9-3.9
			L-36,43.4z M-24.4,31.8l3.9,3.9l2.2-2.2l-3.9-3.9L-24.4,31.8z"/>
	</g>
	<rect x="-60.1" y="23.4" class="st3" width="48" height="48"/>
</g>
</svg>
