<svg width="32" height="28" viewBox="0 0 32 28" fill="none" xmlns="http://www.w3.org/2000/svg">
<path fill-rule="evenodd" clip-rule="evenodd" d="M0 2.79028C0 1.68571 0.895431 0.790283 2 0.790283H24C25.1046 0.790283 26 1.68571 26 2.79028V3.09629L24.2588 4.87402H0V2.79028ZM22.2587 6.91614H0V25.3359C0 26.4405 0.89543 27.3359 2 27.3359H24C25.1046 27.3359 26 26.4405 26 25.3359V11.7596L18.774 19.1372L18.7706 19.1337L18.7714 19.1406L14.607 19.7477C14.2531 19.7993 13.8822 19.4294 13.9318 19.0744L14.5288 14.8087L14.5353 14.8095L14.5314 14.8055L22.2587 6.91614ZM3 3.85315C3.55228 3.85315 4 3.39601 4 2.83209C4 2.26818 3.55228 1.81104 3 1.81104C2.44772 1.81104 2 2.26818 2 2.83209C2 3.39601 2.44772 3.85315 3 3.85315ZM6 3.85315C6.55228 3.85315 7 3.39601 7 2.83209C7 2.26818 6.55228 1.81104 6 1.81104C5.44772 1.81104 5 2.26818 5 2.83209C5 3.39601 5.44772 3.85315 6 3.85315ZM10 2.83209C10 3.39601 9.55228 3.85315 9 3.85315C8.44772 3.85315 8 3.39601 8 2.83209C8 2.26818 8.44772 1.81104 9 1.81104C9.55228 1.81104 10 2.26818 10 2.83209Z" fill="white"/>
<path fill-rule="evenodd" clip-rule="evenodd" d="M27.9731 2.52544C28.3596 2.13089 28.9861 2.13089 29.3726 2.52544L30.8016 3.98439C31.188 4.37895 31.188 5.01865 30.8016 5.41321L30.0871 6.14268L27.2586 3.25492L27.9731 2.52544ZM26.5517 3.97667L29.3802 6.86449L18.7738 17.6936L18.7736 17.6938L18.7734 17.6937L15.966 18.2669C15.6198 18.3376 15.3146 18.026 15.3838 17.6725L15.9453 14.8062L15.9451 14.806L26.5517 3.97667Z" fill="white"/>
</svg>
