<svg width="21" height="21" viewBox="0 0 21 21" fill="none" xmlns="http://www.w3.org/2000/svg">
<path d="M14.9503 7.03915L13.235 5.35915C13.0068 5.13287 12.8507 4.84659 12.7854 4.53505C12.7202 4.22352 12.7487 3.90013 12.8674 3.60415L13.7021 1.55665C13.8261 1.25755 14.0376 1.00107 14.3102 0.819558C14.5827 0.638041 14.904 0.539604 15.2336 0.536652L19.0623 0.536652C19.2865 0.538393 19.508 0.584552 19.7135 0.672351C19.919 0.76015 20.1042 0.887774 20.258 1.04754C20.4119 1.2073 20.5311 1.39589 20.6085 1.60197C20.686 1.80805 20.72 2.02734 20.7086 2.24665C19.7974 16.5941 7.39239 19.4891 2.64479 20.0366C2.41165 20.0621 2.17565 20.0388 1.95233 19.9685C1.72901 19.8982 1.52343 19.7823 1.3491 19.6286C1.17478 19.4749 1.03566 19.2867 0.940906 19.0765C0.846152 18.8663 0.797908 18.6389 0.799348 18.4091L0.799347 14.7866C0.800324 14.4634 0.900018 14.1478 1.0856 13.8805C1.27119 13.6132 1.53418 13.4064 1.84076 13.2866L3.93123 12.4691C4.23222 12.349 4.5627 12.3183 4.88137 12.381C5.20005 12.4437 5.49281 12.5969 5.72307 12.8216L7.43833 14.5016C7.43833 14.5016 14.1233 13.5341 14.9503 7.03915Z" fill="#0B82C6"/>
</svg>
