<?xml version="1.0" encoding="utf-8"?>
<!-- Generator: Adobe Illustrator 24.0.0, SVG Export Plug-In . SVG Version: 6.00 Build 0)  -->
<svg version="1.1" id="Layer_1"
	xmlns="http://www.w3.org/2000/svg"
	xmlns:xlink="http://www.w3.org/1999/xlink" x="0px" y="0px" viewBox="0 0 672 514" style="enable-background:new 0 0 672 514;" xml:space="preserve">
	<style type="text/css">
	.st0{fill:none;stroke:#0B82C6;stroke-width:5;}
	.st1{fill:url(#SVGID_1_);}
	.st2{fill:url(#SVGID_2_);}
	.st3{fill:url(#SVGID_3_);}
	.st4{opacity:0.5;clip-path:url(#SVGID_6_);}
	.st5{fill:#FFFFFF;}
	.st6{clip-path:url(#SVGID_9_);}
	.st7{fill:#FCFDFE;}
	.st8{fill:url(#SVGID_10_);}
	.st9{fill:#97A6B7;}
	.st10{fill:url(#SVGID_11_);}
	.st11{fill:url(#SVGID_12_);}
	.st12{fill:url(#SVGID_13_);}
	.st13{opacity:0.3;fill:#D8DEE8;}
	.st14{fill:url(#SVGID_14_);}
	.st15{opacity:0.17;fill:#FFFFFF;}
	.st16{opacity:0.81;enable-background:new    ;}
	.st17{opacity:0.81;fill:url(#SVGID_15_);enable-background:new    ;}
	.st18{opacity:0.45;fill:url(#SVGID_16_);}
	.st19{opacity:0.81;fill:url(#SVGID_17_);enable-background:new    ;}
	.st20{opacity:0.18;fill:url(#SVGID_18_);}
	.st21{opacity:0.81;fill:url(#SVGID_19_);enable-background:new    ;}
	.st22{opacity:0.18;fill:url(#SVGID_20_);}
	.st23{opacity:0.81;fill:url(#SVGID_21_);enable-background:new    ;}
	.st24{opacity:0.18;fill:url(#SVGID_22_);}
	.st25{enable-background:new    ;}
	.st26{fill:url(#SVGID_23_);}
	.st27{fill:url(#SVGID_24_);}
	.st28{opacity:0.82;}
	.st29{opacity:0.81;fill:url(#SVGID_25_);enable-background:new    ;}
	.st30{opacity:0.27;fill:#FFFFFF;}
	.st31{fill:url(#SVGID_26_);}
	.st32{fill:url(#SVGID_27_);}
	.st33{fill:url(#SVGID_28_);}
	.st34{fill:#C2C2C2;}
	.st35{fill:url(#SVGID_29_);}
	.st36{fill:url(#SVGID_30_);}
	.st37{fill:url(#SVGID_31_);}
	.st38{fill:url(#SVGID_32_);}
	.st39{fill:url(#SVGID_33_);}
	.st40{fill:url(#SVGID_34_);}
	.st41{fill:url(#SVGID_35_);}
	.st42{fill:#D5DBE2;}
	.st43{fill:url(#SVGID_36_);}
	.st44{fill:url(#SVGID_37_);}
	.st45{fill:url(#SVGID_38_);}
	.st46{fill:url(#SVGID_39_);}
	.st47{fill:url(#SVGID_40_);}
	.st48{opacity:0.3;fill:url(#SVGID_41_);}
	.st49{fill:url(#SVGID_42_);}
	.st50{opacity:0.3;}
	.st51{fill:url(#SVGID_43_);}
	.st52{fill:url(#SVGID_44_);}
	.st53{fill:url(#SVGID_45_);}
	.st54{fill:url(#SVGID_46_);}
	.st55{fill:#D8DEE8;}
	.st56{fill:#F4F7FA;}
	.st57{fill:#26264F;}
	.st58{fill:url(#SVGID_47_);}
	.st59{opacity:0.45;fill:#FFFFFF;}
	.st60{fill:none;stroke:url(#SVGID_48_);stroke-miterlimit:10;}
	.st61{opacity:0.6;fill:#FFFFFF;}
	.st62{opacity:0.74;fill:#51DEE5;}
	.st63{opacity:0.74;fill:#F4F40F;}
	.st64{opacity:0.74;fill:#DD0B61;}
	.st65{fill:url(#SVGID_49_);}

	.rotate-cog {
		animation: rotate-cog 5s linear infinite;
		transform-origin: center;
    	transform-box: fill-box;
	}

	.scale {
		animation: scale 2s alternate infinite;
		transform-origin: center;
    	transform-box: fill-box;	
	}

	.scale-2 {
		animation: scale-2 2s alternate infinite;
		animation-delay: -1s;
		transform-origin: center;
    	transform-box: fill-box;	
	}

	@keyframes rotate-cog {
		from {
			transform: rotate(0deg)
		}

		to {
			transform: rotate(360deg)
		}
	}

	@keyframes scale {
		from {
			transform: scale(.3)
		}

		to {
			transform: rotate(1)
		}
	}

	@keyframes scale-2 {
		from {
			transform: scale(.3)
		}

		to {
			transform: rotate(1)
		}
	}
	</style>
	<path id="frame" class="st0" d="M33.9,54.1c0-7.1,5.5-13,12.6-13.5l593-38c7.8-0.5,14.4,5.7,14.4,13.5v481c0,7.5-6,13.5-13.5,13.5
	h-593c-7.5,0-13.5-6-13.5-13.5V54.1z"/>
	<linearGradient id="SVGID_1_" gradientUnits="userSpaceOnUse" x1="49.4447" y1="190.0934" x2="275.9722" y2="342.3503" gradientTransform="matrix(0.9849 0.1732 -0.1732 0.9849 33.0728 -82.7993)">
		<stop offset="0" style="stop-color:#CAAFEE"/>
		<stop offset="1" style="stop-color:#6E55DE"/>
	</linearGradient>
	<path class="st1" d="M70.5,130.1c-6.8,35.5-1.7,102.2,45.5,139.3c47.2,37.1,141.1-87.6,89.9-91.7C127,171.3,87,43,70.5,130.1z"/>
	<linearGradient id="SVGID_2_" gradientUnits="userSpaceOnUse" x1="125.3787" y1="225.7833" x2="217.4666" y2="332.9059" gradientTransform="matrix(0.9734 -0.229 0.229 0.9734 -57.4746 50.543)">
		<stop offset="1.598750e-02" style="stop-color:#FFC2A9"/>
		<stop offset="1" style="stop-color:#FF9595"/>
	</linearGradient>
	<path class="st2" d="M280.1,211.4c0,0-95.9,28.5-170.5-28.9C35,125.1-54.1,234.3,41.8,367.8c95.9,133.5,283.3,65.7,322.5,28.2
	C403.5,358.5,402.5,175.2,280.1,211.4z"/>
	<linearGradient id="SVGID_3_" gradientUnits="userSpaceOnUse" x1="277.4199" y1="443.7653" x2="660.8601" y2="115.9533">
		<stop offset="0" style="stop-color:#6E55DE"/>
		<stop offset="1" style="stop-color:#CAAFEE"/>
	</linearGradient>
	<path class="st3" d="M153,316.6c0,0-90.1,197.1,190,191.1c306.3-6.6,394.8-272.3,282.2-364.5C512.5,50.9,415.4,256.2,330.9,271.6
	C246.3,287,178,255,153,316.6z"/>
	<g id="leaves">
		<g>
			<g>
				<defs>
					<path id="SVGID_4_" d="M396.8,193c-14.4-2.4-28.8-65.3-3.1-91.3c10.7-10.9,23-9.8,31.6-24.7c7.7-13.3,1.3-20.1,7.2-35.5
					c8.3-21.7,33.7-41.6,51.6-35.7c9,3,17.6,13,18.1,24.6c0.4,9.3-8.8,16.6-6.6,18.9c1.8,1.9,7.4-3.1,10.9-1.1
					c5.2,2.9,5.2,20.5-2.9,33.4c-13.9,22.1-43,16.5-48.1,33.6c-3.2,10.9,7.5,16.9,3.1,27.8c-3.9,9.6-14,9.4-29.1,19
					C405.8,177.1,404.6,194.2,396.8,193z"/>
				</defs>

				<linearGradient id="SVGID_5_" gradientUnits="userSpaceOnUse" x1="430.2307" y1="27.198" x2="363.5322" y2="199.6463" gradientTransform="matrix(1 0 0 1 41.8936 0)">
					<stop offset="0" style="stop-color:#AA80F9"/>
					<stop offset="0.9964" style="stop-color:#6165D7"/>
				</linearGradient>
				<use xlink:href="#SVGID_4_" style="overflow:visible;fill:url(#SVGID_5_);"/>
				<clipPath id="SVGID_6_">
					<use xlink:href="#SVGID_4_" style="overflow:visible;"/>
				</clipPath>
				<g class="st4">
					<path class="st5" d="M397.7,206.3c-0.3,0-0.6-0.2-0.7-0.5c-0.1-0.3,0-0.5,0.1-0.8c0.1-0.4,0.1-1.9,0.2-3.6
					c0.2-9.4,0.6-34.4,13.9-71.2C427.9,83.8,458.6,36,502.3-12c0.3-0.3,0.7-0.3,1,0c0.3,0.3,0.3,0.7,0,1
					c-47,51.5-103.3,130.2-104.7,212.5c-0.1,3.7-0.1,4.4-0.8,4.7C397.8,206.2,397.7,206.3,397.7,206.3z"/>
					<path class="st5" d="M435.4,82.5c-0.4,0-0.7-0.3-0.8-0.6c0-0.4,0.2-0.8,0.6-0.8c32.9-3.9,53.4-10.8,64.9-15.9
					c12.4-5.5,17.1-10.2,17.1-10.2c0.3-0.3,0.7-0.3,1,0c0.3,0.3,0.3,0.7,0,1c-0.2,0.2-4.8,4.9-17.4,10.5
					C489.4,71.6,468.7,78.6,435.4,82.5C435.5,82.5,435.4,82.5,435.4,82.5z"/>
					<path class="st5" d="M454.2,50.7c-0.1,0-0.3,0-0.4-0.1c-7.6-4.9-11.1-16.5-10.2-34.4c0.6-13.2,3.5-25.2,3.5-25.3
					c0.1-0.4,0.5-0.6,0.9-0.5c0.4,0.1,0.6,0.5,0.5,0.9c-0.1,0.5-11.2,47.1,6,58.2c0.3,0.2,0.4,0.7,0.2,1
					C454.6,50.5,454.4,50.7,454.2,50.7z"/>
					<path class="st5" d="M409,139.5c-0.2,0-0.4-0.1-0.6-0.2c-9.7-10.5-12.2-25.7-12.5-36.5c-0.4-11.7,1.6-21.1,1.6-21.2
					c0.1-0.4,0.5-0.6,0.9-0.6c0.4,0.1,0.6,0.5,0.6,0.9c0,0.1-1.9,9.3-1.5,20.9c0.3,10.6,2.7,25.4,12.1,35.6c0.3,0.3,0.3,0.8,0,1
					C409.3,139.4,409.2,139.5,409,139.5z"/>
				</g>
			</g>
		</g>
		<g>
			<g>
				<defs>
					<path id="SVGID_7_" d="M399.2,194.5c0.5-29.2,6.1-50.7,11-64.5c3.8-10.8,10.2-25.7,18.5-25.9c4-0.1,5.5,3.3,9.7,3
					c7.9-0.5,10.5-13,17.2-20.9c11.5-13.6,40.2-20.2,56.7-6.9c19.9,16,13.9,54-0.7,62.9c-8.6,5.3-21,0.7-22.8,5.5
					c-1.8,4.9,10.3,10.4,9.4,18.7c-0.9,8.5-15.1,13.3-16,13.6c-17.2,5.5-27-6.4-44.6-5.9C428.1,174.2,414.9,178.1,399.2,194.5z"/>
				</defs>

				<linearGradient id="SVGID_8_" gradientUnits="userSpaceOnUse" x1="440.3924" y1="113.3813" x2="373.3485" y2="188.3738" gradientTransform="matrix(1 0 0 1 41.8936 0)">
					<stop offset="3.597120e-03" style="stop-color:#E38DDD"/>
					<stop offset="1" style="stop-color:#9571F6"/>
				</linearGradient>
				<use xlink:href="#SVGID_7_" style="overflow:visible;fill:url(#SVGID_8_);"/>
				<clipPath id="SVGID_9_">
					<use xlink:href="#SVGID_7_" style="overflow:visible;"/>
				</clipPath>
				<g class="st6">
					<g>
						<path class="st7" d="M391,216.4l0.4,0.1c17.4-66.4,72.3-115.2,146.9-130.6l-0.1-0.4c-35.3,7.3-67.4,22.8-92.9,44.7
						C418.6,153.2,399.8,183,391,216.4z"/>
						<path class="st7" d="M392.2,114.8c9.2,16.3,15.2,45.6,13.4,65.1l0.4,0c1.9-19.6-4.1-49-13.4-65.4L392.2,114.8z"/>
						<path class="st7" d="M394.6,203.4l0.4,0.2c5.2-8.8,14.7-14.6,28.1-17.2c9.9-1.9,21.6-2.2,34.8-0.7l0-0.4
						c-13.3-1.5-25.1-1.2-35,0.7C409.4,188.7,399.9,194.6,394.6,203.4z"/>
						<path class="st7" d="M449,127.2l0.4,0.2c10.7-16,10.4-36.3,8.2-50.5l-0.4,0.1C459.3,91.1,459.7,111.2,449,127.2z"/>
						<path class="st7" d="M486.1,103.2l0.1,0.4c20.9-5.8,42.1,2.7,52.9,8.3l0.2-0.4C528.5,105.9,507.2,97.4,486.1,103.2z"/>
					</g>
				</g>
			</g>
		</g>
	</g>
	<linearGradient id="SVGID_10_" gradientUnits="userSpaceOnUse" x1="512.1213" y1="369.4031" x2="650.1065" y2="462.1476" gradientTransform="matrix(0.9759 -0.2184 0.2184 0.9759 -53.5308 140.1738)">
		<stop offset="1.598750e-02" style="stop-color:#FFC2A9"/>
		<stop offset="1" style="stop-color:#FF9595"/>
	</linearGradient>
	<path class="st8" d="M530.1,415.4c13.3-15.8,46-25.2,50.3-62.4c4.3-37.2,84.9,7.8,55,84.4C605.5,514.1,482.9,471.6,530.1,415.4z"/>
	<g id="monitor">
		<g>
			<path class="st9" d="M411.3,430.7c-6-2-10.5-7.1-11.8-13.4l-8.8-43.4l-75.1,2.7l-9.2,45.2c-1.3,6.3,3.9,12.7,9.9,15l31.4,12.3
			c5.8,2.3,12.1,3.2,18.4,2.7l66.4-5.7c1.9-0.2,3.5-1.7,3.7-3.6c0.2-2,1.6-4.2-0.3-4.8L411.3,430.7z"/>
			<linearGradient id="SVGID_11_" gradientUnits="userSpaceOnUse" x1="364.3771" y1="512.0827" x2="373.7378" y2="421.5956">
				<stop offset="0" style="stop-color:#444B8C"/>
				<stop offset="0.9964" style="stop-color:#26264F"/>
			</linearGradient>
			<path class="st10" d="M412.1,428c-6-2-10.5-7-11.8-13.2l-8.8-42.9l-73.2,2.6l-9.2,44.7c-1.3,6.3,2.1,12.5,8.1,14.8l31.4,12.1
			c5.8,2.3,12.1,3.2,18.3,2.6l66.3-5.6c1.9-0.2,3.5-1.7,3.7-3.6s-0.9-3.8-2.8-4.4L412.1,428z"/>
		</g>
		<g>
			<linearGradient id="SVGID_12_" gradientUnits="userSpaceOnUse" x1="299.4156" y1="259.6068" x2="200.6076" y2="271.0477">
				<stop offset="0" style="stop-color:#444B8C"/>
				<stop offset="0.3946" style="stop-color:#383C74"/>
				<stop offset="0.9964" style="stop-color:#26264F"/>
			</linearGradient>
			<path class="st11" d="M162.3,402.7c-8.1,0.5-14.8-4.8-14.8-11.8V139.4c0-7,6.7-12.4,14.8-12l376.5,16.3c6,0.3,10.8,5.3,10.8,11.2
			v213.9c0,5.9-4.8,11.1-10.8,11.4L162.3,402.7z"/>
			<linearGradient id="SVGID_13_" gradientUnits="userSpaceOnUse" x1="467.5782" y1="78.1556" x2="202.3574" y2="481.707">
				<stop offset="0" style="stop-color:#444B8C"/>
				<stop offset="0.9964" style="stop-color:#26264F"/>
			</linearGradient>
			<path class="st12" d="M165.7,402.7c-8.1,0.5-14.8-4.8-14.8-11.8V139.4c0-7,6.7-12.4,14.8-12l376.5,16.3c6,0.3,10.8,5.3,10.8,11.2
			v213.9c0,5.9-4.8,11.1-10.8,11.4L165.7,402.7z"/>
			<path class="st13" d="M542.2,148.7l-376.5-15.5c-4.4-0.2-7.9,2.7-7.9,6.4v195.6v55.3c0,3.7,3.5,6.5,7.9,6.3l376.5-21.6
			c3.2-0.2,5.8-2.9,5.8-6.1v-48.9V154.7C547.9,151.5,545.4,148.8,542.2,148.7z"/>
			<linearGradient id="SVGID_14_" gradientUnits="userSpaceOnUse" x1="162.5961" y1="256.3775" x2="544.418" y2="256.3775">
				<stop offset="0" style="stop-color:#53D8FF"/>
				<stop offset="1" style="stop-color:#3840F7"/>
			</linearGradient>
			<path class="st14" d="M165.7,375.5c-1.7,0.1-3.1-1-3.1-2.5V139.8c0-1.4,1.4-2.6,3.1-2.5l376.5,14.9c1.2,0,2.3,1.1,2.3,2.3v199.9
			c0,1.2-1,2.3-2.3,2.4L165.7,375.5z"/>
		</g>
		<path class="st15" d="M502.8,364.7c-31.7-19.6-9.6-75.3-45.1-103.3c-35.9-28.2-86.3,6.4-111.4-22.8c-18.7-21.8,3.2-48-14.7-68.5
		c-28-32.1-99.7,12-132.6-19.6c-4.7-4.5-9.4-11.3-12.1-22.2l-21.2-0.9c-8.1-0.4-14.8,5-14.8,12v251.6c0,7,6.7,12.3,14.8,11.8
		l376.5-22.4c6-0.4,10.8-5.5,10.8-11.4V365C528,373.5,512.7,370.8,502.8,364.7z"/>
	</g>
	<g class="st16">
		<linearGradient id="SVGID_15_" gradientUnits="userSpaceOnUse" x1="320.8242" y1="212.453" x2="379.8083" y2="212.453">
			<stop offset="0" style="stop-color:#FFFFFF"/>
			<stop offset="1" style="stop-color:#51E2FE"/>
		</linearGradient>
		<path class="st17" d="M320.8,186v52.6l59,0.4v-51.1L320.8,186z M378.9,238.1l-57.1-0.5v-50.6l57.1,1.9V238.1z"/>
		<g>
			<linearGradient id="SVGID_16_" gradientUnits="userSpaceOnUse" x1="321.7698" y1="212.4799" x2="378.8626" y2="212.4799">
				<stop offset="0" style="stop-color:#FFFFFF"/>
				<stop offset="1" style="stop-color:#51E2FE"/>
			</linearGradient>
			<polygon class="st18" points="378.9,188.6 378.9,238.1 321.8,237.5 321.8,186.9 		"/>
		</g>
	</g>
	<g>
		<linearGradient id="SVGID_17_" gradientUnits="userSpaceOnUse" x1="186.0319" y1="200.7232" x2="290.8257" y2="200.7232">
			<stop offset="0" style="stop-color:#FFFFFF"/>
			<stop offset="1" style="stop-color:#51E2FE"/>
		</linearGradient>
		<path class="st19" d="M186,156.2v89l104.8-2.2v-84.5L186,156.2z M288.3,241.6l-100.7,2v-85.8l100.7,2.2V241.6z"/>
		<linearGradient id="SVGID_18_" gradientUnits="userSpaceOnUse" x1="187.5685" y1="201.0918" x2="288.2574" y2="201.0918">
			<stop offset="0" style="stop-color:#01064A"/>
			<stop offset="0.5957" style="stop-color:#0D8CB5"/>
			<stop offset="0.9946" style="stop-color:#15E8FF"/>
		</linearGradient>
		<polygon class="st20" points="288.3,160 288.3,241.6 187.6,244.4 187.6,157.8 	"/>
	</g>
	<g>
		<linearGradient id="SVGID_19_" gradientUnits="userSpaceOnUse" x1="436.4511" y1="328.9685" x2="526.3511" y2="328.9685">
			<stop offset="0" style="stop-color:#FFFFFF"/>
			<stop offset="1" style="stop-color:#51E2FE"/>
		</linearGradient>
		<path class="st21" d="M436.5,291.8v79.8l89.9-5.5v-79.8L436.5,291.8z M524.8,364.8l-86.3,5.3v-76.8l86.3-5.5V364.8z"/>
		<linearGradient id="SVGID_20_" gradientUnits="userSpaceOnUse" x1="438.5036" y1="328.9147" x2="524.8145" y2="328.9147">
			<stop offset="0" style="stop-color:#01064A"/>
			<stop offset="0.5957" style="stop-color:#0D8CB5"/>
			<stop offset="0.9946" style="stop-color:#15E8FF"/>
		</linearGradient>
		<polygon class="st22" points="524.8,287.8 524.8,364.8 438.5,370.1 438.5,293.3 	"/>
	</g>
	<g>
		<linearGradient id="SVGID_21_" gradientUnits="userSpaceOnUse" x1="297.9092" y1="305.4603" x2="387.8093" y2="305.4603">
			<stop offset="0" style="stop-color:#FFFFFF"/>
			<stop offset="1" style="stop-color:#51E2FE"/>
		</linearGradient>
		<path class="st23" d="M297.9,264.6v82.5l89.9-3.3v-79.9L297.9,264.6z M386.3,342.4l-86.3,3.1v-79.5l86.3-0.8V342.4z"/>
		<linearGradient id="SVGID_22_" gradientUnits="userSpaceOnUse" x1="299.9618" y1="305.4066" x2="386.2726" y2="305.4066">
			<stop offset="0" style="stop-color:#01064A"/>
			<stop offset="0.5957" style="stop-color:#0D8CB5"/>
			<stop offset="0.9946" style="stop-color:#15E8FF"/>
		</linearGradient>
		<polygon class="st24" points="386.3,265.3 386.3,342.4 300,345.5 300,266.1 	"/>
	</g>
	<g id="credit">
		<path class="st5" d="M366.4,297.4c0-2.3-1-3.3-3.3-3.3c-10.6,0-21.2,0-31.7,0c-2.4,0-3.3,1-3.3,3.4c0,6.4,0,12.8,0,19.3
		c0,2.5,0.9,3.4,3.5,3.5c5.2,0,10.5,0,15.7,0c5.2,0,10.5,0,15.7,0c2.6,0,3.5-0.9,3.5-3.4C366.5,310.3,366.5,303.9,366.4,297.4z
		 M331.6,295.7c10.4,0,20.9,0,31.4,0c1.8,0,2,0.3,1.7,2.3h-34.8C329.4,296,329.6,295.7,331.6,295.7z M364.8,299.7v3.4h-35.1v-3.4
		H364.8z M364.9,317.3c0,1.4-1,1.4-2,1.4c-8.4,0-16.8,0-25.2,0c-2.1,0-4.3,0-6.4,0c-1,0-1.7-0.3-1.7-1.4c0-4.1,0-8.2,0-12.4h35.2
		C364.9,309.1,364.9,313.2,364.9,317.3z"/>
		<path class="st5" d="M357.6,291.2c-0.1,0.4-0.5,0.8-0.8,1.2c-0.2-0.4-0.6-0.8-0.7-1.2c-0.1-0.8-0.1-1.6,0-2.4
		c0.1-1.5-0.6-2.1-2.1-2.1c-6.8,0.1-13.6,0-20.4,0c-3.6,0-7.2,0-10.8,0c-1.5,0-2,0.6-2,2c0,6.4,0,12.7,0,19.1c0,1.5,0.6,2.1,2,2
		c0.9-0.1,1.8-0.1,2.7,0c0.4,0,0.7,0.4,1,0.7c-0.3,0.3-0.6,0.8-0.9,0.8c-1.4,0.1-2.8,0.1-4.2-0.1c-1.5-0.2-2.2-1.4-2.2-2.8
		c0-6.8,0-13.5,0-20.3c0-1.9,1.2-2.9,3.4-2.9c5.3,0,10.6,0,15.9,0c5.1,0,10.1,0,15.2,0c3.1,0,3.9,0.9,3.9,3.9
		C357.7,289.9,357.8,290.6,357.6,291.2z"/>
		<path class="st5" d="M357.4,307.2c-2.1,0-3.8,1.6-3.8,3.7c0,2.1,1.6,3.8,3.7,3.8c2.1,0,3.8-1.6,3.8-3.7
		C361.1,308.9,359.5,307.2,357.4,307.2z M357.4,313.2c-1.2,0-2.3-1-2.3-2.2c0.1-1.3,0.8-2.1,2.1-2.2c1.2-0.1,2.3,0.9,2.3,2.1
		C359.6,312.1,358.6,313.1,357.4,313.2z"/>
		<path class="st5" d="M342.9,308.8c-0.3,0.3-0.7,0.7-1,0.8c-1.6,0.1-3.1,0-4.7,0c-1.4,0-2.8,0.1-4.2,0c-0.4,0-0.8-0.4-1.2-0.6
		c0.3-0.3,0.7-0.8,1.1-0.8c3-0.1,6.1-0.1,9.1,0C342.2,308.2,342.5,308.6,342.9,308.8z"/>
		<path class="st5" d="M342.9,313c-0.3,0.2-0.7,0.6-1,0.6c-1.6,0.1-3.1,0-4.7,0c-1.5,0-2.9,0.1-4.4,0c-0.4,0-0.7-0.5-1-0.8
		c0.3-0.2,0.7-0.6,1-0.6c3-0.1,6.1-0.1,9.1,0C342.2,312.3,342.5,312.8,342.9,313z"/>
	</g>

	<g id="price_tag">
		<linearGradient id="SVGID_24_" gradientUnits="userSpaceOnUse" x1="212.3222" y1="200.2893" x2="262.037" y2="200.2893">
			<stop offset="0" style="stop-color:#FFFFFF"/>
			<stop offset="1" style="stop-color:#DBDBDB"/>
		</linearGradient>
		<path class="st27" d="M253.9,193.8c-0.3,0-0.5,0-0.8,0c-0.4,0-0.6-0.2-0.6-0.5c0-0.3,0.2-0.6,0.6-0.6c0.9,0,1.8-0.2,2.6-0.5
		c3.5-1.3,5.7-4.9,5.1-8.8c-0.5-3.6-3.6-6.6-7.3-6.9c-3.4-0.3-6.7,1.5-8.1,4.7c-1.4,3.1-0.8,6.7,1.6,9.2c0.1,0.1,0.3,0.3,0.3,0.5
		c0,0.2-0.1,0.4-0.3,0.6c-0.2,0.2-0.5,0.1-0.7-0.1c-0.3-0.3-0.6-0.5-0.9-0.8c-0.1,0.5,0.2,1.1,0.8,1.3c0.6,0.2,1.3-0.1,1.5-0.7
		c0.2-0.6-0.1-1.3-0.7-1.6c-0.1,0-0.2-0.1-0.3-0.1c-0.4-0.1-0.6-0.3-0.5-0.7c0.1-0.3,0.3-0.5,0.7-0.4c1.3,0.2,2.2,1.7,1.8,3
		c-0.3,0.9-0.9,1.5-1.9,1.6c-0.9,0.2-1.7-0.2-2.3-0.9c-0.6-0.8-0.6-1.6-0.2-2.5c0.1-0.2,0.1-0.4,0-0.6c-0.3-0.7-0.6-1.5-0.8-2.2
		c-0.1-0.2-0.1-0.3-0.4-0.3c-2.7,0-5.5,0-8.2,0c-0.9,0-1.7,0.4-2.3,1c-3.4,3.4-6.8,6.8-10.1,10.1c-2.7,2.7-5.5,5.5-8.2,8.2
		c-1.5,1.5-1.5,3.4,0,4.8c4.1,4.1,8.1,8.1,12.2,12.2c1.4,1.5,3.3,1.4,4.8,0c6.1-6.1,12.2-12.2,18.3-18.3c0.8-0.8,1.1-1.6,1.1-2.7
		c0-4,0-8,0-12c0-2.1-1.3-3.4-3.4-3.4c-0.6,0-1.1,0-1.7,0c-0.4,0-0.7-0.2-0.7-0.6c0-0.3,0.2-0.6,0.6-0.6c0.9,0,1.8-0.1,2.7,0.1
		c2.1,0.3,3.5,2.1,3.5,4.2c0,4.2,0,8.4,0,12.6c0,1.2-0.5,2.3-1.4,3.2c-3.1,3.1-6.2,6.2-9.3,9.3c-3,3-6,6-9,9c-1.9,1.9-4.5,1.9-6.4,0
		c-4.1-4.1-8.2-8.2-12.3-12.3c-1.8-1.8-1.8-4.4,0-6.2c6.2-6.2,12.4-12.4,18.5-18.6c0.9-0.9,1.9-1.3,3.2-1.3c2.6,0,5.2,0,7.7,0h0.4
		c0.1-0.8,0.1-1.6,0.2-2.4c0.7-4.4,4.6-7.6,9-7.6c4.5,0,8.3,3.2,9.1,7.5C262.9,188.3,259.2,193.2,253.9,193.8z"/>
	</g>
	<g id="setting_icon" class="rotate-cog">
		<path class="st5" d="M504.9,325.3c-0.4,0-0.8,0-1.2,0c-0.5,0-0.6-0.1-0.8-0.6c-0.3-0.9-0.6-1.8-1-2.6c-0.2-0.5-0.7-1.1-0.7-1.6
		c0.1-0.5,0.7-0.9,1.1-1.3c1.3-1.4,1.3-3.4,0-4.8c-0.7-0.8-1.5-1.6-2.3-2.3c-1.4-1.3-3.4-1.3-4.8,0c-0.4,0.4-0.8,0.9-1.1,1.2
		c-1.3-0.5-2.3-1.1-3.4-1.5c-1.5-0.6-1.5-0.5-1.5-2.2c0-2.1-1.5-3.5-3.5-3.6c-1.1,0-2.1,0-3.2,0c-1.9,0.1-3.3,1.4-3.4,3.3
		c0,0.5,0,1,0,1.4c0,0.2-0.2,0.5-0.3,0.6c-1.5,0.6-2.9,1.2-4.6,1.8c-0.3-0.4-0.7-0.8-1.1-1.3c-1.3-1.2-3.3-1.3-4.6,0
		c-0.8,0.8-1.6,1.6-2.4,2.4c-1.3,1.4-1.3,3.4,0,4.8c0.4,0.4,0.9,0.8,1.2,1.1c-0.5,1.2-1,2.2-1.4,3.3c-0.6,1.5-0.6,1.6-2.2,1.6
		c-2,0.1-3.4,1.4-3.5,3.4c0,1.1,0,2.1,0,3.2c0.1,2,1.5,3.4,3.5,3.5c0.5,0,1.1,0,1.6,0c0.7,1.6,1.3,3.2,2,5c-0.4,0.3-0.9,0.7-1.3,1.2
		c-1.3,1.4-1.2,3.3,0,4.7c0.5,0.5,1,1,1.5,1.5c2.5,2.5,3.9,2.6,6.5,0.1c0.4-0.3,0.6-0.4,1-0.1c0.8,0.4,1.6,0.9,2.4,1.1
		c1.4,0.3,1.9,1,1.8,2.5c-0.1,1.9,1.4,3.3,3.3,3.3c1.1,0,2.2,0,3.3,0c1.7,0,2.9-1.1,3.3-2.8c0.1-0.6,0-1.3,0.1-1.9
		c0-0.2,0.2-0.6,0.4-0.6c1.4-0.6,2.9-1.2,4.6-1.8c0.3,0.3,0.6,0.8,1.1,1.2c1.3,1.3,3.3,1.3,4.7,0c0.8-0.8,1.6-1.6,2.4-2.4
		c1.3-1.4,1.3-3.4,0-4.8c-0.4-0.4-0.9-0.8-1.2-1c0.7-1.8,1.4-3.3,2.1-5c0.5,0,1.1,0,1.7,0c1.9-0.1,3.3-1.5,3.4-3.5
		c0-1.1,0-2.1,0-3.2C508.2,326.8,506.8,325.4,504.9,325.3z M505.2,331.6c0,0.5-0.2,0.8-0.7,0.8c-0.8,0-1.6,0-2.5,0
		c-0.9,0-1.4,0.3-1.6,1.2c-0.5,2.2-1.3,4.1-2.5,6c-0.4,0.7-0.3,1.4,0.3,2c0.6,0.6,1.2,1.3,1.9,1.9c0.3,0.3,0.3,0.6,0,0.9
		c-0.6,0.6-1.3,1.3-1.9,1.9c-0.3,0.3-0.6,0.3-0.9,0c-0.6-0.6-1.2-1.2-1.8-1.8c-0.7-0.7-1.3-0.7-2.2-0.2c-1.7,1.1-3.6,1.9-5.6,2.4
		c-1.1,0.2-1.4,0.7-1.5,1.8c0,0.8,0,1.6,0,2.4c0,0.5-0.2,0.7-0.7,0.7c-0.8,0-1.7,0-2.5,0c-0.6,0-0.7-0.2-0.7-0.8c0-0.8,0-1.5,0-2.3
		c0-1-0.4-1.6-1.5-1.8c-2-0.5-3.9-1.3-5.7-2.4c-0.8-0.5-1.4-0.4-2.1,0.2c-0.6,0.6-1.2,1.2-1.8,1.8c-0.4,0.4-0.7,0.4-1.1,0
		c-0.6-0.6-1.1-1.2-1.7-1.7c-0.4-0.4-0.4-0.7,0-1c0.6-0.6,1.2-1.2,1.7-1.8c0.7-0.7,0.7-1.3,0.2-2.1c-1.2-1.8-2-3.7-2.4-5.8
		c-0.2-0.9-0.8-1.3-1.7-1.4c-0.8,0-1.6,0-2.5,0c-0.5,0-0.7-0.2-0.7-0.7c0-0.9,0-1.7,0-2.6c0-0.5,0.2-0.7,0.7-0.7c0.8,0,1.6,0,2.4,0
		c1,0,1.6-0.5,1.8-1.5c0.4-2,1.2-3.9,2.3-5.6c0.6-1,0.5-1.6-0.3-2.4c-0.6-0.6-1.2-1.2-1.7-1.8c-0.1-0.1-0.2-0.5-0.1-0.6
		c0.8-0.8,1.6-1.6,2.6-2.6c0.6,0.7,1.2,1.4,1.8,2c1,1.1,1.5,1.1,2.7,0.3c1.6-1,3.4-1.7,5.3-2.2c1.1-0.3,1.5-0.7,1.6-1.9
		c0-0.7,0-1.5,0-2.2c0-0.6,0.2-0.8,0.8-0.8c0.7,0,1.5,0,2.2,0c0.6,0,0.9,0.2,0.9,0.9c0,0.7,0,1.5,0,2.2c0,1.1,0.5,1.6,1.5,1.8
		c1.9,0.4,3.7,1.2,5.4,2.2c1.2,0.7,1.7,0.7,2.7-0.3c0.5-0.5,1-1,1.5-1.5c0.3-0.3,0.6-0.4,0.9,0c0.6,0.7,1.3,1.3,1.9,1.9
		c0.3,0.3,0.3,0.6,0,0.9c-0.6,0.6-1.2,1.2-1.8,1.8c-0.8,0.8-0.8,1.4-0.3,2.3c1.1,1.7,1.9,3.6,2.3,5.6c0.2,1,0.8,1.4,1.8,1.4
		c0.8,0,1.6,0,2.4,0c0.5,0,0.7,0.2,0.7,0.7C505.2,330,505.2,330.8,505.2,331.6z"/>
		<path class="st5" d="M484.2,320.6c-5.3,0-9.8,4.4-9.8,9.8c0,5.4,4.4,9.8,9.7,9.8c5.4,0,9.8-4.4,9.8-9.7
		C493.9,325,489.5,320.6,484.2,320.6z M484.2,337.1c-3.7,0-6.7-3-6.7-6.7c0-3.7,3-6.7,6.6-6.7c3.7,0,6.7,3,6.7,6.7
		C490.9,334,487.9,337,484.2,337.1z"/>
	</g>
	<g id="money_icon" class="st28">
		<path class="st5" d="M360.1,219c-0.3,3.6-2.6,5.9-6.2,6.4c-0.2,0-0.3,0.1-0.6,0.1v3.2h-2.8v-3.2c-3.8-0.4-5.9-2.7-6.7-6.3
		c1.4-0.4,2.8-0.7,4.3-1.1c0.1,0.3,0.2,0.7,0.3,1c0.7,2.2,3.2,3.3,5.3,2.3c0.9-0.4,1.4-1.2,1.4-2.2c0-0.9-0.3-1.7-1.2-2.1
		c-1.1-0.5-2.3-0.9-3.4-1.4c-0.8-0.3-1.6-0.6-2.3-1c-2.3-1.1-3.5-3-3.5-5.5c0-2.6,0.9-4.8,3.3-6.2c0.8-0.4,1.7-0.6,2.6-0.9v-2.4h2.8
		v2.5c3.2,0.4,5.1,2.2,6,5.3c-1.3,0.5-2.5,1-3.8,1.6c-0.2-0.4-0.3-0.8-0.5-1.1c-0.6-1.1-1.4-2-2.8-2.1c-1.8-0.1-3.1,1.3-2.7,3
		c0.1,0.6,0.5,1,1,1.3c0.9,0.4,1.9,0.8,2.8,1.2c1.1,0.5,2.2,0.9,3.3,1.4C359.2,214,360.4,216.3,360.1,219z"/>
	</g>
	<g id="globe_box" class="scale-2">
	<g id="globe">
		<linearGradient id="SVGID_49_" gradientUnits="userSpaceOnUse" x1="227.6894" y1="292.6975" x2="254.4926" y2="292.6975">
			<stop offset="0" style="stop-color:#FFFFFF"/>
			<stop offset="1" style="stop-color:#DBDBDB"/>
		</linearGradient>
		<path class="st65" d="M241.1,279.3c-7.4,0-13.4,6-13.4,13.4c0,7.4,6,13.4,13.4,13.4c7.4,0,13.4-6,13.4-13.4
		C254.5,285.3,248.5,279.3,241.1,279.3z M239.4,281.5c0.3-0.2,0.5-0.3,0.8-0.4v5.3c-1.3-0.1-2.6-0.2-3.9-0.3c0.4-1.1,0.8-2,1.4-2.9
		C238.2,282.5,238.7,281.9,239.4,281.5z M236.6,281.9c-0.9,1.2-1.5,2.5-2,4c-0.9-0.2-1.7-0.4-2.6-0.6
		C233.3,283.7,234.8,282.6,236.6,281.9z M229.4,291.3c0.2-1.6,0.7-3,1.5-4.4c0.1-0.1,0.1-0.2,0.3-0.1c0.9,0.2,1.9,0.5,2.8,0.7
		c0,0,0.1,0,0.2,0c-0.3,1.5-0.5,2.9-0.6,4.4h-4.2C229.4,291.7,229.4,291.5,229.4,291.3z M231.1,298.5c-0.1,0-0.1,0-0.2-0.1
		c-0.8-1.5-1.3-3-1.5-4.7c0,0,0-0.1,0-0.1c0,0,0,0,0,0h4.2c0.1,1.4,0.2,2.9,0.6,4.3c-0.4,0.1-0.9,0.2-1.3,0.3
		C232.2,298.2,231.7,298.4,231.1,298.5z M231.9,300c0.9-0.2,1.8-0.4,2.7-0.6c0.3,0.7,0.6,1.5,0.9,2.2c0.3,0.7,0.7,1.3,1.2,2
		C234.8,302.8,233.2,301.6,231.9,300z M235.3,293.5h4.9v3.7c-1.5,0.1-2.9,0.2-4.4,0.3C235.5,296.3,235.3,294.9,235.3,293.5z
		 M240.2,304.2c-0.5-0.2-0.9-0.4-1.3-0.7c-0.7-0.6-1.3-1.4-1.8-2.3c-0.3-0.6-0.6-1.2-0.8-1.8c0,0,0-0.1-0.1-0.2
		c1.3-0.1,2.6-0.2,3.9-0.2V304.2z M240.2,291.9h-5c0-1.4,0.2-2.8,0.5-4.1c1.5,0.1,2.9,0.2,4.4,0.3V291.9z M251.2,286.8
		c0.9,1.5,1.4,3.2,1.6,5h-4.2c-0.1-1.5-0.2-2.9-0.5-4.3C249.1,287.3,250.2,287.1,251.2,286.8z M250.2,285.4
		c-0.9,0.2-1.8,0.4-2.7,0.5c-0.5-1.5-1.1-2.8-2-4C247.4,282.6,248.9,283.8,250.2,285.4z M241.9,281.1c0.1,0,0.2,0.1,0.3,0.1
		c0.7,0.3,1.3,0.8,1.8,1.4c0.8,1,1.4,2.2,1.8,3.4c0,0,0,0,0,0.1c-1.3,0.1-2.6,0.2-3.9,0.2V281.1z M241.9,288
		c1.5-0.1,2.9-0.2,4.4-0.3c0.3,1.3,0.5,2.7,0.5,4.1h-5V288z M246.9,293.5c-0.1,1.4-0.2,2.7-0.5,4c-1.5-0.1-2.9-0.2-4.4-0.3v-3.7
		H246.9z M243.5,303.2c-0.4,0.4-0.9,0.7-1.4,0.9c-0.1,0-0.1,0-0.2,0.1V299c1.3,0,2.6,0.1,4,0.3c-0.2,0.5-0.5,1.1-0.7,1.6
		C244.8,301.7,244.2,302.5,243.5,303.2z M245.5,303.6c0-0.1,0.1-0.1,0.1-0.1c0.9-1.1,1.5-2.4,1.9-3.8c0.1-0.2,0.1-0.2,0.3-0.2
		c0.8,0.2,1.5,0.3,2.3,0.5c0.1,0,0.1,0,0.2,0.1C248.9,301.6,247.4,302.8,245.5,303.6z M252.7,294.1c-0.2,1.6-0.7,3-1.4,4.4
		c0,0.1-0.1,0.1-0.2,0.1c-1-0.2-2-0.5-3-0.7c0,0-0.1,0-0.1,0c0.3-1.4,0.5-2.9,0.6-4.3h4.2C252.8,293.7,252.8,293.9,252.7,294.1z"/>
	</g>
		<g>
			<linearGradient id="SVGID_25_" gradientUnits="userSpaceOnUse" x1="210.2284" y1="292.6975" x2="269.2126" y2="292.6975">
				<stop offset="0" style="stop-color:#FFFFFF"/>
				<stop offset="1" style="stop-color:#51E2FE"/>
			</linearGradient>
			<path class="st29" d="M210.2,267.2v52.6l59-2.2v-52L210.2,267.2z M268.3,316.4l-57.1,2.4v-50.6l57.1-1.7V316.4z"/>
			<g>
				<polygon class="st30" points="268.3,266.5 268.3,316.4 211.2,318.8 211.2,268.2 			"/>
			</g>
		</g>
	</g>
	<g id="shopping_cart">
		<g>
			<g>
				<g>

					<linearGradient id="SVGID_26_" gradientUnits="userSpaceOnUse" x1="395.1489" y1="449.3384" x2="397.6837" y2="451.4699" gradientTransform="matrix(-1 0 0 1 644.3848 0)">
						<stop offset="0" style="stop-color:#AA80F9"/>
						<stop offset="0.9964" style="stop-color:#6165D7"/>
					</linearGradient>
					<path class="st31" d="M239.7,453.5c0,3.3,2.1,6,4.6,6c2.5,0,4.6-2.7,4.6-6c0-3.3-2.1-6-4.6-6
					C241.8,447.5,239.7,450.2,239.7,453.5z"/>

					<linearGradient id="SVGID_27_" gradientUnits="userSpaceOnUse" x1="396.7927" y1="454.1807" x2="405.956" y2="454.1807" gradientTransform="matrix(-1 0 0 1 644.3848 0)">
						<stop offset="0" style="stop-color:#AA80F9"/>
						<stop offset="0.9964" style="stop-color:#6165D7"/>
					</linearGradient>
					<path class="st32" d="M238.4,454.2c0,3.3,2.1,6,4.6,6s4.6-2.7,4.6-6c0-3.3-2.1-6-4.6-6S238.4,450.9,238.4,454.2z"/>

					<linearGradient id="SVGID_28_" gradientUnits="userSpaceOnUse" x1="399.4541" y1="454.3021" x2="403.2938" y2="454.3021" gradientTransform="matrix(-1 0 0 1 644.3848 0)">
						<stop offset="0" style="stop-color:#40447E"/>
						<stop offset="0.9964" style="stop-color:#3C3B6B"/>
					</linearGradient>
					<path class="st33" d="M241.1,454.3c0,1.4,0.9,2.5,1.9,2.5c1.1,0,1.9-1.1,1.9-2.5c0-1.4-0.9-2.5-1.9-2.5
					C242,451.8,241.1,452.9,241.1,454.3z"/>
				</g>
				<path class="st34" d="M244.3,446.8v6.6c0,1-0.8,1.8-1.8,1.8l0,0c-0.6,0-1.1-0.3-1.4-0.7l-6-8.2L244.3,446.8z"/>
			</g>
			<g>
				<g>

					<linearGradient id="SVGID_29_" gradientUnits="userSpaceOnUse" x1="444.201" y1="444.0534" x2="446.7358" y2="446.185" gradientTransform="matrix(-1 0 0 1 644.3848 0)">
						<stop offset="0" style="stop-color:#AA80F9"/>
						<stop offset="0.9964" style="stop-color:#6165D7"/>
					</linearGradient>
					<path class="st35" d="M190.7,448.2c0,3.3,2.1,6,4.6,6c2.5,0,4.6-2.7,4.6-6c0-3.3-2.1-6-4.6-6
					C192.7,442.2,190.7,444.9,190.7,448.2z"/>

					<linearGradient id="SVGID_30_" gradientUnits="userSpaceOnUse" x1="445.845" y1="448.8958" x2="455.0083" y2="448.8958" gradientTransform="matrix(-1 0 0 1 644.3848 0)">
						<stop offset="0" style="stop-color:#AA80F9"/>
						<stop offset="0.9964" style="stop-color:#6165D7"/>
					</linearGradient>
					<path class="st36" d="M189.4,448.9c0,3.3,2.1,6,4.6,6c2.5,0,4.6-2.7,4.6-6c0-3.3-2.1-6-4.6-6
					C191.4,442.9,189.4,445.6,189.4,448.9z"/>

					<linearGradient id="SVGID_31_" gradientUnits="userSpaceOnUse" x1="448.5064" y1="449.0172" x2="452.3459" y2="449.0172" gradientTransform="matrix(-1 0 0 1 644.3848 0)">
						<stop offset="0" style="stop-color:#40447E"/>
						<stop offset="0.9964" style="stop-color:#3C3B6B"/>
					</linearGradient>
					<path class="st37" d="M192,449c0,1.4,0.9,2.5,1.9,2.5c1.1,0,1.9-1.1,1.9-2.5c0-1.4-0.9-2.5-1.9-2.5
					C192.9,446.5,192,447.6,192,449z"/>
				</g>
				<path class="st34" d="M195.2,441.5v6.6c0,1-0.8,1.8-1.8,1.8l0,0c-0.6,0-1.1-0.3-1.4-0.7l-6-8.2L195.2,441.5z"/>
			</g>
			<path class="st5" d="M245,447.9c0.6,0,1.1-0.5,1.2-1.1c0.1-0.7-0.4-1.3-1.1-1.3l-58.1-6.5c-3.2-0.5-5.8-2.9-6.6-6.1L156,342.2
			c-1.3-4.8-5.5-8.3-10.5-8.6l-17.7-1.1c-0.7,0-1.2,0.5-1.3,1.1c0,0.7,0.5,1.2,1.1,1.3l17.7,1.1c3.9,0.3,7.3,3,8.3,6.9l24.3,90.6
			c1.1,4.1,4.5,7.2,8.6,7.9l58.2,6.6C244.9,447.9,244.9,447.9,245,447.9z"/>
			<path class="st5" d="M204.6,412.2c0.5,0,1-0.3,1.2-0.9l13.7-47.9c0.2-0.6-0.2-1.3-0.8-1.5c-0.6-0.2-1.3,0.2-1.5,0.8l-13.7,47.9
			c-0.2,0.6,0.2,1.3,0.8,1.5C204.3,412.2,204.4,412.2,204.6,412.2z"/>
			<path class="st5" d="M190.6,410.2c0.6,0,1.1-0.4,1.2-1l8.4-47.4c0.1-0.7-0.3-1.3-1-1.4c-0.7-0.1-1.3,0.3-1.4,1l-8.4,47.4
			c-0.1,0.7,0.3,1.3,1,1.4C190.4,410.2,190.5,410.2,190.6,410.2z"/>
			<path class="st5" d="M181.9,408.6C181.9,408.6,181.9,408.6,181.9,408.6c0.7,0,1.2-0.6,1.2-1.3l-1.9-46.9c0-0.7-0.6-1.2-1.3-1.2
			c-0.7,0-1.2,0.6-1.2,1.3l1.9,46.9C180.7,408.1,181.2,408.6,181.9,408.6z"/>
			<path class="st5" d="M223.6,413.9c0.5,0,1-0.3,1.1-0.8l16.1-47.9c0.2-0.6-0.1-1.3-0.8-1.5c-0.6-0.2-1.3,0.1-1.5,0.8l-16.1,47.9
			c-0.2,0.6,0.1,1.3,0.8,1.5C223.4,413.9,223.5,413.9,223.6,413.9z"/>

			<linearGradient id="SVGID_32_" gradientUnits="userSpaceOnUse" x1="515.9164" y1="335.054" x2="560.2549" y2="335.054" gradientTransform="matrix(-1 0 0 1 644.3848 0)">
				<stop offset="0" style="stop-color:#40447E"/>
				<stop offset="0.9964" style="stop-color:#3C3B6B"/>
			</linearGradient>
			<path class="st38" d="M86.5,339.1c0.1,0,0.1,0,0.2,0l39.5-3.3c1.3-0.1,2.3-1.3,2.2-2.6c-0.1-1.3-1.3-2.3-2.6-2.2l-39.5,3.3
			c-1.3,0.1-2.3,1.3-2.2,2.6C84.2,338.1,85.3,339.1,86.5,339.1z"/>
			<g>
				<g>

					<linearGradient id="SVGID_33_" gradientUnits="userSpaceOnUse" x1="438.1849" y1="465.7759" x2="440.7197" y2="467.9074" gradientTransform="matrix(-1 0 0 1 644.3848 0)">
						<stop offset="0" style="stop-color:#AA80F9"/>
						<stop offset="0.9964" style="stop-color:#6165D7"/>
					</linearGradient>
					<path class="st39" d="M196.7,469.9c0,3.3,2.1,6,4.6,6c2.5,0,4.6-2.7,4.6-6c0-3.3-2.1-6-4.6-6
					C198.7,463.9,196.7,466.6,196.7,469.9z"/>

					<linearGradient id="SVGID_34_" gradientUnits="userSpaceOnUse" x1="439.8287" y1="470.6182" x2="448.992" y2="470.6182" gradientTransform="matrix(-1 0 0 1 644.3848 0)">
						<stop offset="0" style="stop-color:#AA80F9"/>
						<stop offset="0.9964" style="stop-color:#6165D7"/>
					</linearGradient>
					<path class="st40" d="M195.4,470.6c0,3.3,2.1,6,4.6,6c2.5,0,4.6-2.7,4.6-6c0-3.3-2.1-6-4.6-6
					C197.4,464.6,195.4,467.3,195.4,470.6z"/>

					<linearGradient id="SVGID_35_" gradientUnits="userSpaceOnUse" x1="442.4901" y1="470.7396" x2="446.3298" y2="470.7396" gradientTransform="matrix(-1 0 0 1 644.3848 0)">
						<stop offset="0" style="stop-color:#40447E"/>
						<stop offset="0.9964" style="stop-color:#3C3B6B"/>
					</linearGradient>
					<path class="st41" d="M198.1,470.7c0,1.4,0.9,2.5,1.9,2.5c1.1,0,1.9-1.1,1.9-2.5c0-1.4-0.9-2.5-1.9-2.5
					C198.9,468.2,198.1,469.3,198.1,470.7z"/>
				</g>
				<path class="st42" d="M201.3,463.3v6.6c0,1-0.8,1.8-1.8,1.8l0,0c-0.6,0-1.1-0.3-1.4-0.7l-6-8.2L201.3,463.3z"/>
			</g>
			<g>
				<g>

					<linearGradient id="SVGID_36_" gradientUnits="userSpaceOnUse" x1="480.6536" y1="461.5244" x2="483.1884" y2="463.6559" gradientTransform="matrix(-1 0 0 1 644.3848 0)">
						<stop offset="0" style="stop-color:#AA80F9"/>
						<stop offset="0.9964" style="stop-color:#6165D7"/>
					</linearGradient>
					<path class="st43" d="M154.2,465.7c0,3.3,2.1,6,4.6,6c2.5,0,4.6-2.7,4.6-6c0-3.3-2.1-6-4.6-6
					C156.3,459.7,154.2,462.4,154.2,465.7z"/>

					<linearGradient id="SVGID_37_" gradientUnits="userSpaceOnUse" x1="482.2975" y1="466.3666" x2="491.4608" y2="466.3666" gradientTransform="matrix(-1 0 0 1 644.3848 0)">
						<stop offset="0" style="stop-color:#AA80F9"/>
						<stop offset="0.9964" style="stop-color:#6165D7"/>
					</linearGradient>
					<path class="st44" d="M152.9,466.4c0,3.3,2.1,6,4.6,6s4.6-2.7,4.6-6c0-3.3-2.1-6-4.6-6S152.9,463,152.9,466.4z"/>

					<linearGradient id="SVGID_38_" gradientUnits="userSpaceOnUse" x1="484.9589" y1="466.4879" x2="488.7984" y2="466.4879" gradientTransform="matrix(-1 0 0 1 644.3848 0)">
						<stop offset="0" style="stop-color:#40447E"/>
						<stop offset="0.9964" style="stop-color:#3C3B6B"/>
					</linearGradient>
					<path class="st45" d="M155.6,466.5c0,1.4,0.9,2.5,1.9,2.5s1.9-1.1,1.9-2.5c0-1.4-0.9-2.5-1.9-2.5S155.6,465.1,155.6,466.5z"/>
				</g>
				<path class="st42" d="M158.8,459v6.6c0,1-0.8,1.8-1.8,1.8l0,0c-0.6,0-1.1-0.3-1.4-0.7l-6-8.2L158.8,459z"/>
			</g>
			<path class="st5" d="M263,367.2c0.6,0,1.2-0.5,1.2-1.1c0-0.7-0.5-1.2-1.1-1.3l-103.5-7.4c-0.1,0-0.2,0-0.3,0l-42.8,7.3
			c-0.7,0.1-1.1,0.7-1,1.4c0.1,0.7,0.7,1.1,1.4,1l42.7-7.3L263,367.2C263,367.2,263,367.2,263,367.2z"/>
			<g>

				<linearGradient id="SVGID_39_" gradientUnits="userSpaceOnUse" x1="2075.3892" y1="349.5837" x2="2101.8452" y2="348.4335" gradientTransform="matrix(-1 0 0 1 2292.7744 0)">
					<stop offset="0" style="stop-color:#311944"/>
					<stop offset="1" style="stop-color:#893976"/>
				</linearGradient>
				<path class="st46" d="M172.9,360.8c0.4,0.1,0.7-0.2,0.8-0.6c0.9-6.4,3.5-13.4,7.3-18.2c3.4-4.3,6-6.2,10.9-7c0,0,0.1,0,0.1,0
				c10.4-1.1,10.9,23.1,10.8,26.4c-0.1,5.4,0.3,1.2,0.7,1.7c0.4,0.5,0.7,2,0.8-0.8c0.2-7.6-0.5-27.9-12.2-28.8c0,0-0.1,0-0.1,0
				c-5.6,0.7-8.5,2.8-12.3,7.6c-4,5-6.7,12.2-7.5,18.8C172.2,360.2,172.4,360.6,172.9,360.8C172.9,360.7,172.9,360.8,172.9,360.8z" />

				<linearGradient id="SVGID_40_" gradientUnits="userSpaceOnUse" x1="2069.7957" y1="390.6626" x2="2098.4863" y2="390.6626" gradientTransform="matrix(-1 0 0 1 2292.7744 0)">
					<stop offset="0" style="stop-color:#FF9085"/>
					<stop offset="1" style="stop-color:#FB6FBB"/>
				</linearGradient>
				<path class="st47" d="M220.8,416.5c-5.6,1.9-12.4,2.9-18.1,4.9c-2-8.8-5.5-17.3-8.4-25.9c5.4-11.8,10-24,16.2-35.5
				c1.4,0.4,2.8,0.8,4.3,1.2c0.6,19.2,4.4,34.3,8.2,52.6C223.2,415.4,222.4,415.9,220.8,416.5z"/>

				<linearGradient id="SVGID_41_" gradientUnits="userSpaceOnUse" x1="2079.2974" y1="390.6613" x2="2098.4854" y2="390.6613" gradientTransform="matrix(-1 0 0 1 2292.7744 0)">
					<stop offset="0" style="stop-color:#FF9085"/>
					<stop offset="1" style="stop-color:#FB6FBB"/>
				</linearGradient>
				<path class="st48" d="M194.3,395.5c5.4-11.8,10-24,16.2-35.5c0.8,0.3,1.7,0.4,2.5,0.8c0,2.6-0.6,9.6-0.8,11.5
				c-1.1,8.3-4.3,16.4-3.1,23.8c1,6,4.4,7.7,4.4,13.2c0,5.9-4.9,9.2-9.7,11.7c-0.4,0.1-0.8,0.2-1.2,0.4
				C200.6,412.6,197.1,404.1,194.3,395.5z"/>

				<linearGradient id="SVGID_42_" gradientUnits="userSpaceOnUse" x1="2111.8022" y1="385.9371" x2="2153.1541" y2="455.6087" gradientTransform="matrix(-1 0 0 1 2292.7744 0)">
					<stop offset="0" style="stop-color:#FF9085"/>
					<stop offset="1" style="stop-color:#FB6FBB"/>
				</linearGradient>
				<path class="st49" d="M210.4,360c-19.2,0.3-35.5-1-54.4-4c-8.1,20.1-13.6,39.2-19.7,59.9c21.2,0.9,45.4,2.1,66.2,5.5
				C207.4,402,206.3,379.9,210.4,360z"/>
				<g class="st50">

					<linearGradient id="SVGID_43_" gradientUnits="userSpaceOnUse" x1="2111.2214" y1="379.3437" x2="2144.9146" y2="458.4716" gradientTransform="matrix(-1 0 0 1 2292.7744 0)">
						<stop offset="0" style="stop-color:#FF9085"/>
						<stop offset="1" style="stop-color:#FB6FBB"/>
					</linearGradient>
					<path class="st51" d="M156.1,356c9.4,1.4,17.9,2.5,27.6,3.2c1.5,0.1,1.1,2.4,1.1,4.1c-0.4,9.7-18.6,9.4-21.4,20.9
					c-2.1,8.6,6.7,18.7,13.3,22.5c6.8,4,13,2.4,18.5,7c2.4,2,3.2,4.2,4.2,7.1c-20-2.9-42.6-4.1-62.9-4.9
					C142.4,395.2,148,376.1,156.1,356z"/>
				</g>

				<linearGradient id="SVGID_44_" gradientUnits="userSpaceOnUse" x1="2115.0259" y1="325.3858" x2="2103.3813" y2="424.7808" gradientTransform="matrix(-1 0 0 1 2292.7744 0)">
					<stop offset="0" style="stop-color:#311944"/>
					<stop offset="1" style="stop-color:#893976"/>
				</linearGradient>
				<path class="st52" d="M192.8,364.2c0.8-1.5-0.1,2.3,0.9-1.1c1.8-6.3,4.7-17.2,1-24.5c-1.1-2.1-3.6-4-5.9-4.6
				c-12-3.1-20.3,16.7-23,24.6c-0.9,2.6-0.1,1.5,0.5,1c0.6-0.4-0.7,4.4,1.2-1.2c1.4-3.9,10.5-27,20.8-22.7c1.9,0.8,3.9,2.5,4.9,3.8
				c4,5.1-0.1,20.2-0.7,22.3c-1.6,5.6,0.3,0.1,0.1,2.4C192.6,364.5,192.7,364.5,192.8,364.2z"/>

				<linearGradient id="SVGID_45_" gradientUnits="userSpaceOnUse" x1="2121.2258" y1="323.9173" x2="2089.5825" y2="384.1167" gradientTransform="matrix(-1 0 0 1 2292.7744 0)">
					<stop offset="0" style="stop-color:#311944"/>
					<stop offset="1" style="stop-color:#893976"/>
				</linearGradient>
				<path class="st53" d="M190.8,364.2c-0.1,1.2,0.7,2.2,1.9,2.3c1.2,0.1,2.1-0.8,2.2-2c0.1-1.2-0.7-2.2-1.9-2.2
				C191.8,362.2,190.9,363.1,190.8,364.2z"/>

				<linearGradient id="SVGID_46_" gradientUnits="userSpaceOnUse" x1="2143.1826" y1="329.4301" x2="2109.1023" y2="394.2654" gradientTransform="matrix(-1 0 0 1 2292.7744 0)">
					<stop offset="0" style="stop-color:#311944"/>
					<stop offset="1" style="stop-color:#893976"/>
				</linearGradient>
				<path class="st54" d="M164,360.2c-0.1,1.2,0.7,2.3,1.9,2.6c1.2,0.3,2-0.6,2.1-1.7c0.1-1.2-0.7-2.3-1.9-2.5
				C164.9,358.3,164.1,359,164,360.2z"/>
				<path class="st55" d="M149.1,388.3c3.5,3,7.6,6,11.3,8.8c0.7,0.5,1.3,0.5,1.8-0.2c5-6.4,10.5-12.9,15.7-19.1
				c0.7-0.9,0.5-1.5-0.4-2.1c-2.7-1.6-5.9-3.4-8.6-5.1c-0.5-0.3-0.8-0.4-1.4,0c-6.3,4.8-12.7,10-18.4,15.4
				C148.3,386.8,148.3,387.6,149.1,388.3z M169.6,374.5c0.5-0.6,1.4-1.1,2-0.5c0.7,0.6,0.4,1.6-0.1,2.2c-0.5,0.6-1.4,1.1-2,0.5
				C168.8,376.2,169.1,375.1,169.6,374.5z"/>
				<path class="st56" d="M149.1,388c3.5,3,7.6,6.1,11.3,8.8c0.7,0.5,1.3,0.5,1.8-0.2c5-6.4,10.5-12.9,15.7-19.1
				c0.7-0.9,0.5-1.5-0.4-2.1c-2.7-1.6-5.9-3.4-8.6-5.1c-0.5-0.3-0.8-0.4-1.3,0c-6.3,4.9-12.7,10-18.5,15.4
				C148.3,386.6,148.3,387.3,149.1,388z M169.6,374.3c0.5-0.6,1.4-1.1,2-0.5c0.7,0.6,0.4,1.6-0.1,2.2s-1.4,1.1-2,0.5
				C168.9,375.9,169.2,374.9,169.6,374.3z"/>
				<path class="st57" d="M173.3,373.1c0.1,0,0.1,0,0.2-0.1c0.7-1.1,1.5-2.3,2.5-3.1c2.9-2.1,6.1-2.2,9.5-2.3
				c3.3-0.1,6.1-0.3,8.5-2.7c0.6-0.6,1.2-1.5,1-2.4c-0.1-0.3-0.6-0.4-0.9-0.4c-0.1,0-0.2,0.1-0.2,0.2c0,0.1,0.1,0.1,0.2,0.2
				c0.2,0.1,0.6-0.1,0.6,0.2c0,0.8-0.2,1.2-1,2c-2.1,2.1-5,2.4-8.2,2.5c-3.3,0.1-6.7,0.3-9.6,2.4c-1.1,0.8-2,2.1-2.6,3.2
				C173.1,372.9,173.1,373,173.3,373.1C173.3,373.1,173.2,373.1,173.3,373.1z"/>
				<path class="st57" d="M171.7,375.6c0.1,0.1,0.1,0.1,0.1,0c0-0.1,0.2,0.2,0-0.3c-0.3-0.5-1.2-1.6-0.8-2.8c0.2-0.7,0.2-1.6,1.5-2.4
				c2.9-1.8,7.4-3,11-4.1c2.2-0.6,4.6-1.5,6.8-2.4c0.5-0.2,0.8-0.3,1.2-0.5c0.1,0,0.1-0.1,0.1-0.2c0-0.1-0.1-0.1-0.2-0.1
				c-0.5,0.2-0.7,0.3-1.2,0.5c-2.1,0.9-4.6,1.7-6.7,2.3c-3.6,1.1-8.2,2.3-11.1,4.1c-1.4,0.9-1.4,1.8-1.7,2.6
				c-0.4,1.3,0.6,2.6,0.9,3.1C171.8,376,171.6,375.5,171.7,375.6z"/>
				<path class="st5" d="M149.1,385.8c5.8-5.4,12.2-10.6,18.5-15.5c0.5-0.4,0.8-0.2,1.3,0c0.2,0.1,0.5,0.4,0.8,0.5
				c-0.3,0.8-0.7,1.7-1.2,2.3c-2.3,3.3-6.8,3.4-8.1,6.8c-1.2,3,1.7,5.2,1.8,8.8c0.1,1.8-1.1,5.7-2.7,7.4c-3.4-2.5-7.1-5.3-10.3-8
				C148.3,387.3,148.3,386.6,149.1,385.8z"/>
			</g>
			<path class="st42" d="M227.9,377.8c0.1,0,0.2,0,0.3-0.1l35.2-10.7c0.6-0.2,1-0.9,0.8-1.5c-0.2-0.6-0.9-1-1.5-0.8l-34.9,10.6
			l-110.9-10.8c-0.7-0.1-1.2,0.4-1.3,1.1c-0.1,0.7,0.4,1.2,1.1,1.3l111.1,10.8C227.8,377.8,227.9,377.8,227.9,377.8z"/>
			<path class="st34" d="M130.1,415.6c0.1,0,0.1,0,0.2,0l42.1-6.5l64.1,6.2c0.7,0.1,1.2-0.4,1.3-1.1c0.1-0.7-0.4-1.2-1.1-1.3
			l-64.3-6.2c-0.1,0-0.2,0-0.3,0l-42.3,6.5c-0.7,0.1-1.1,0.7-1,1.4C129,415.2,129.6,415.6,130.1,415.6z"/>
			<path class="st42" d="M206.6,422.9c0.5,0,0.9-0.3,1.1-0.7l21.3-45c0.3-0.6,0-1.3-0.6-1.6c-0.6-0.3-1.3,0-1.6,0.6l-21,44.3
			l-75.6-7.2c-0.7-0.1-1.2,0.4-1.3,1.1c-0.1,0.7,0.4,1.2,1.1,1.3l76.4,7.3C206.5,422.9,206.5,422.9,206.6,422.9z"/>
			<path class="st42" d="M206.6,422.9c0.1,0,0.2,0,0.3,0l30.1-7.6c0.3-0.1,0.6-0.3,0.8-0.6l26.3-48.1c0.3-0.6,0.1-1.3-0.5-1.6
			c-0.6-0.3-1.3-0.1-1.6,0.5L235.9,413l-29.6,7.4c-0.6,0.2-1,0.8-0.9,1.5C205.5,422.5,206,422.9,206.6,422.9z"/>
			<path class="st42" d="M220.1,394.2c0.1,0,0.2,0,0.3,0l33.1-9.7c0.6-0.2,1-0.9,0.8-1.5c-0.2-0.6-0.9-1-1.5-0.8l-32.9,9.6l-97.8-8.5
			c-0.7-0.1-1.2,0.4-1.3,1.1c-0.1,0.7,0.4,1.2,1.1,1.3l98,8.5C220.1,394.2,220.1,394.2,220.1,394.2z"/>
			<path class="st42" d="M212,411.3c0.1,0,0.2,0,0.3,0l31.7-8.9c0.6-0.2,1-0.8,0.8-1.5c-0.2-0.6-0.8-1-1.5-0.8l-31.5,8.8l-84.9-7.4
			c-0.7-0.1-1.2,0.4-1.3,1.1c-0.1,0.7,0.4,1.2,1.1,1.3l85.1,7.4C212,411.3,212,411.3,212,411.3z"/>
			<path class="st42" d="M191,421.4c0.5,0,1-0.3,1.2-0.9l13.6-45.6c0.2-0.6-0.2-1.3-0.8-1.5c-0.6-0.2-1.3,0.2-1.5,0.8l-13.6,45.6
			c-0.2,0.6,0.2,1.3,0.8,1.5C190.7,421.4,190.8,421.4,191,421.4z"/>
			<path class="st42" d="M175.9,419.9c0.6,0,1.1-0.4,1.2-1l8.2-46.2c0.1-0.7-0.3-1.3-1-1.4c-0.7-0.1-1.3,0.3-1.4,1l-8.2,46.2
			c-0.1,0.7,0.3,1.3,1,1.4C175.8,419.9,175.8,419.9,175.9,419.9z"/>
			<path class="st42" d="M158.9,418c0.6,0,1.2-0.5,1.2-1.1l2.6-45.9c0-0.7-0.5-1.2-1.1-1.3c-0.7,0-1.2,0.5-1.3,1.1l-2.6,45.9
			C157.7,417.4,158.2,418,158.9,418C158.9,418,158.9,418,158.9,418z"/>
			<path class="st42" d="M142.8,416.2C142.9,416.2,142.9,416.2,142.8,416.2c0.7,0,1.2-0.6,1.2-1.3l-2.4-46.7c0-0.7-0.6-1.2-1.3-1.1
			c-0.7,0-1.2,0.6-1.1,1.3l2.4,46.7C141.7,415.7,142.2,416.2,142.8,416.2z"/>
			<path class="st42" d="M215.7,420.6c0.4,0,0.9-0.3,1.1-0.7l22-45.7c0.3-0.6,0-1.3-0.6-1.6c-0.6-0.3-1.3,0-1.6,0.6l-22,45.7
			c-0.3,0.6,0,1.3,0.6,1.6C215.3,420.5,215.5,420.6,215.7,420.6z"/>
			<path class="st42" d="M227.9,417.5c0.4,0,0.9-0.2,1.1-0.7l23.3-46.8c0.3-0.6,0.1-1.3-0.5-1.6c-0.6-0.3-1.3-0.1-1.6,0.5l-23.3,46.8
			c-0.3,0.6-0.1,1.3,0.5,1.6C227.5,417.5,227.7,417.5,227.9,417.5z"/>
			<path class="st42" d="M201.5,465.1c0.2,0,0.3,0,0.4-0.1l43.5-17.3c0.6-0.2,0.9-0.9,0.7-1.6c-0.2-0.6-0.9-0.9-1.6-0.7l-43.2,17.1
			l-52.5-6.4c-3.7-0.5-6.8-3.1-7.8-6.7l-28.8-104.4c-1.3-4.8-5.5-8.2-10.4-8.6l-15.3-1.1c-0.7,0-1.2,0.4-1.3,1.1
			c0,0.7,0.4,1.2,1.1,1.3l15.3,1.1c3.9,0.3,7.2,3,8.3,6.8l28.8,104.4c1.3,4.6,5.1,7.9,9.8,8.5l52.8,6.4
			C201.4,465.1,201.4,465.1,201.5,465.1z"/>
		</g>

		<linearGradient id="SVGID_47_" gradientUnits="userSpaceOnUse" x1="529.4483" y1="325.6038" x2="524.6847" y2="332.9658" gradientTransform="matrix(-1 0 0 1 644.3848 0)">
			<stop offset="0" style="stop-color:#311944"/>
			<stop offset="1" style="stop-color:#A03976"/>
		</linearGradient>
		<path class="st58" d="M114.4,332.5c0.4,0,5.7-0.2,6.2,1.4c0.1,0.4,0,0.9,0,0.9c-0.3,0.9-1.4,1.3-1.6,1.3c1.8,1.1,3.9,0.8,4.9-0.4
		c0.7-0.9,0.9-2.3,0.4-3.4c-0.5-1-1.5-1.4-2.1-1.6C118.2,329.4,114.4,332.5,114.4,332.5z"/>
	</g>
	<g id="window" class="scale">
		<g id="icon" class="st25">
			<linearGradient id="SVGID_23_" gradientUnits="userSpaceOnUse" x1="429.5516" y1="199.4158" x2="463.027" y2="199.4158">
				<stop offset="0" style="stop-color:#FFFFFF"/>
				<stop offset="1" style="stop-color:#DBDBDB"/>
			</linearGradient>
			<path class="st26" d="M458.6,204.6c0.9,0,1.2-0.3,1.4-1.1c1-4.2,2-8.4,3-12.5c0.2-0.9-0.4-1.6-1.2-1.6c-5.1,0-10.1,0-15.2,0
		c-2.7,0-5.3,0-8,0c-0.3,0-0.4-0.1-0.5-0.4c-0.1-0.6-0.3-1.2-0.4-1.8c-0.4-1.7-1.6-2.6-3.3-2.6c-1.2,0-2.4,0-3.5,0
		c-0.8,0-1.3,0.4-1.3,1.1c0,0.7,0.5,1.1,1.3,1.1c1.2,0,2.4,0,3.6,0c0.6,0,0.9,0.2,1,0.8c0.9,3.8,1.8,7.7,2.7,11.5
		c0.7,2.7,1.3,5.5,2,8.2c-1.7,1.3-2.2,3-1.4,4.7c0.7,1.6,2.4,2.4,4.1,2c0.8-0.2,1.5-0.6,2-1.3c0.9-1.1,1-2.3,0.5-3.6h8.1
		c-0.1,0.5-0.2,1.1-0.1,1.6c0.1,2,2,3.6,3.9,3.4c2.2-0.3,3.6-2.2,3.3-4.2c-0.3-1.8-1.8-3-3.7-3c-3.7,0-7.5,0-11.2,0
		c-0.8,0-1.6,0-2.3,0c-0.6,0-1-0.3-1.2-0.8c-0.2-0.5-0.2-1-0.4-1.5h0.5C447.7,204.6,453.2,204.6,458.6,204.6z M451.6,202.4h-1.3
		c-0.8,0-1.6,0-2.5,0c-0.1,0-0.3-0.1-0.3-0.2c-0.1-1.3-0.2-2.7-0.3-4h4.8C451.9,199.6,451.8,201,451.6,202.4z M454.7,191.7h5.8
		c-0.3,1.4-0.7,2.8-1,4.2h-5.1C454.5,194.5,454.6,193.1,454.7,191.7z M454.2,198.2h4.7c-0.2,0.8-0.4,1.6-0.6,2.4
		c-0.1,0.5-0.2,1.1-0.4,1.6c0,0.1-0.2,0.2-0.2,0.2c-1.3,0-2.5,0-3.9,0C454,201,454.1,199.6,454.2,198.2z M452.5,191.7
		c-0.1,1.4-0.2,2.8-0.3,4.2H447c-0.1-1.4-0.2-2.8-0.3-4.2H452.5z M457,209.2c0.8,0,1.4,0.6,1.4,1.4c0,0.8-0.6,1.4-1.4,1.4
		c-0.8,0-1.4-0.7-1.4-1.4C455.6,209.8,456.3,209.1,457,209.2z M440,195.9c-0.2,0-0.3,0-0.4-0.3c-0.3-1.3-0.6-2.5-0.9-3.8
		c0-0.1,0-0.1,0-0.2h5.7c0.1,1.4,0.2,2.8,0.3,4.2c-0.1,0-0.2,0-0.3,0C443,195.9,441.5,195.9,440,195.9z M442.1,209.2
		c0.8,0,1.4,0.6,1.4,1.4c0,0.8-0.6,1.4-1.4,1.4c-0.8,0-1.4-0.6-1.4-1.4C440.7,209.8,441.3,209.2,442.1,209.2z M441.5,202.4
		c-0.1,0-0.2-0.1-0.2-0.2c-0.3-1.3-0.6-2.6-0.9-3.9c0,0,0-0.1,0-0.1h4.7c0.1,1.4,0.2,2.8,0.3,4.3C444,202.4,442.7,202.4,441.5,202.4
		z"/>
		</g>
		<g>
			<polygon class="st59" points="566.9,268.7 566.9,167.1 399.2,161 399.2,278 		"/>
			<linearGradient id="SVGID_48_" gradientUnits="userSpaceOnUse" x1="398.6852" y1="219.5366" x2="567.4241" y2="219.5366">
				<stop offset="0" style="stop-color:#FFFFFF"/>
				<stop offset="1" style="stop-color:#51E2FE"/>
			</linearGradient>
			<polygon class="st60" points="566.9,268.7 566.9,167.1 399.2,161 399.2,278 		"/>
		</g>
		<polygon class="st61" points="481.4,222.6 415.5,223.8 415.5,175 481.4,176.9 	"/>
		<polygon class="st62" points="555.9,231.6 416.6,234.8 416.6,232.8 555.9,229.7 	"/>
		<polygon class="st62" points="555.8,185.3 486.8,184.6 487,182.6 555.9,183.3 	"/>
		<polygon class="st62" points="555.8,192.9 486.8,192.2 487,190.3 555.9,191 	"/>
		<polygon class="st62" points="555.8,200.7 486.8,200 487,198.1 555.9,198.8 	"/>
		<polygon class="st62" points="555.8,208.1 486.8,207.4 487,205.4 555.9,206.1 	"/>
		<polygon class="st62" points="555.8,215.5 486.8,214.8 487,212.9 555.9,213.6 	"/>
		<polygon class="st63" points="555.9,239.8 416.6,242.9 416.6,241 555.9,237.9 	"/>
		<polygon class="st64" points="555.9,248 416.6,251.1 416.6,249.2 555.9,246 	"/>
		<polygon class="st62" points="555.9,256.1 416.6,259.3 416.6,257.4 555.9,254.2 	"/>
	</g>
	
</svg>
