<svg width="40" height="40" viewBox="0 0 40 40" fill="none" xmlns="http://www.w3.org/2000/svg">
<path d="M0 8.03579C0 5.44082 1.98518 3.27714 4.57056 3.05426L34.5706 0.468056C37.4906 0.216328 40 2.51871 40 5.44958V34.8246C40 37.6536 37.655 39.9191 34.8277 39.8216L4.82769 38.7872C2.13493 38.6943 0 36.4845 0 33.7901V8.03579Z" fill="#0B82C6"/>
<path d="M30.1501 17.5371H10.1344C8.95743 17.5371 8 18.4945 8 19.6715V23.9402C8 25.1172 8.95743 26.0746 10.1344 26.0746H13.0276V25.3632C13.0276 24.1862 13.9851 23.2288 15.162 23.2288H25.1224C26.2994 23.2288 27.2568 24.1862 27.2568 25.3632V26.0746H30.1501C31.327 26.0746 32.2844 25.1172 32.2844 23.9402V19.6715C32.2844 18.4945 31.327 17.5371 30.1501 17.5371ZM22.9881 21.0944C22.5951 21.0944 22.2766 20.7759 22.2766 20.3829C22.2766 19.9899 22.5951 19.6715 22.9881 19.6715C23.381 19.6715 23.6995 19.9899 23.6995 20.3829C23.6995 20.7759 23.381 21.0944 22.9881 21.0944ZM25.8339 21.0944C25.441 21.0944 25.1224 20.7759 25.1224 20.3829C25.1224 19.9899 25.441 19.6715 25.8339 19.6715C26.2268 19.6715 26.5453 19.9899 26.5453 20.3829C26.5453 20.7759 26.2268 21.0944 25.8339 21.0944Z" fill="white"/>
<path d="M23.6996 9.07227V11.8461H26.4734C26.1898 10.4543 25.0913 9.3559 23.6996 9.07227Z" fill="white"/>
<path d="M14.4505 9C14.0572 9 13.739 9.31821 13.739 9.71146V16.1146H26.5453V13.2687H22.988C22.5947 13.2687 22.2765 12.9505 22.2765 12.5573V9H14.4505Z" fill="white"/>
<path d="M25.1226 30.344C25.5158 30.344 25.834 30.0258 25.834 29.6326V25.3638C25.834 24.9706 25.5158 24.6523 25.1226 24.6523H15.1621C14.7689 24.6523 14.4507 24.9706 14.4507 25.3638V29.6326C14.4507 30.0258 14.7689 30.344 15.1621 30.344H25.1226ZM17.2965 26.7867H22.9882C23.3814 26.7867 23.6996 27.1049 23.6996 27.4982C23.6996 27.8914 23.3814 28.2096 22.9882 28.2096H17.2965C16.9033 28.2096 16.5851 27.8914 16.5851 27.4982C16.5851 27.1049 16.9033 26.7867 17.2965 26.7867Z" fill="white"/>
</svg>
