<svg width="32" height="32" viewBox="0 0 32 32" fill="none" xmlns="http://www.w3.org/2000/svg">
<path d="M6.45687 9.29443C7.63222 9.29443 8.63539 8.86656 9.46668 8.01045C10.2983 7.1544 10.7141 6.12127 10.7141 4.91141C10.7141 3.70166 10.2983 2.66853 9.46668 1.81236C8.63539 0.956313 7.63216 0.528198 6.45687 0.528198C5.28163 0.528198 4.2784 0.956313 3.44693 1.81236C2.61553 2.66853 2.19971 3.70142 2.19971 4.91141C2.19971 6.12151 2.61553 7.1544 3.44693 8.01045C4.2784 8.86632 5.28163 9.29443 6.45687 9.29443Z" fill="white"/>
<path d="M11.5208 16.1359C12.768 17.4196 14.2728 18.0618 16.0358 18.0618C17.7988 18.0618 19.3036 17.4196 20.5507 16.1359C21.7977 14.8514 22.4214 13.3019 22.4214 11.4871C22.4214 9.67214 21.7977 8.1227 20.5507 6.83852C19.3036 5.55433 17.7988 4.91223 16.0358 4.91223C14.2728 4.91223 12.7679 5.55445 11.5208 6.83852C10.2737 8.12252 9.6499 9.67196 9.6499 11.4871C9.6499 13.3022 10.2737 14.8515 11.5208 16.1359Z" fill="white"/>
<path d="M25.6142 9.29443C26.789 9.29443 27.7924 8.86656 28.6239 8.01045C29.4553 7.1544 29.8708 6.12127 29.8708 4.91141C29.8708 3.70166 29.4553 2.66853 28.6239 1.81236C27.7925 0.956313 26.789 0.528198 25.6142 0.528198C24.4386 0.528198 23.4354 0.956313 22.6039 1.81236C21.7727 2.66853 21.3569 3.70142 21.3569 4.91141C21.3569 6.12151 21.7728 7.1544 22.6039 8.01045C23.4354 8.86632 24.4386 9.29443 25.6142 9.29443Z" fill="white"/>
<path d="M29.9375 9.29443C29.8714 9.29443 29.6302 9.41431 29.2144 9.654C28.799 9.89381 28.2582 10.1364 27.5932 10.3818C26.9283 10.627 26.2683 10.7498 25.6145 10.7498C24.8714 10.7498 24.1347 10.6186 23.4027 10.356C23.4578 10.7781 23.4857 11.1549 23.4857 11.4859C23.4857 13.0725 23.0366 14.5334 22.1382 15.8689C23.9346 15.9261 25.4032 16.6565 26.5456 18.0608H28.7738C29.6828 18.0608 30.4478 17.8291 31.0685 17.367C31.6892 16.905 31.9998 16.2284 31.9998 15.3383C32 11.3088 31.3129 9.29419 29.9375 9.29443Z" fill="white"/>
<path d="M27.4522 23.1362C27.3358 22.4684 27.1887 21.8491 27.0113 21.2786C26.8339 20.7076 26.5955 20.1516 26.2966 19.6093C25.9971 19.0676 25.6533 18.605 25.2653 18.2225C24.8769 17.8399 24.4029 17.535 23.8432 17.3064C23.2835 17.0782 22.6652 16.9641 21.9891 16.9641C21.8781 16.9641 21.6398 17.0869 21.2739 17.3323C20.908 17.5775 20.5037 17.8519 20.06 18.154C19.6165 18.456 19.0239 18.7302 18.2806 18.9757C17.5373 19.2211 16.789 19.3439 16.0356 19.3439C15.2818 19.3439 14.5333 19.2211 13.7905 18.9757C13.0475 18.7302 12.4546 18.456 12.0111 18.154C11.5675 17.8519 11.163 17.5775 10.7972 17.3323C10.4312 17.0869 10.193 16.9641 10.082 16.9641C9.4058 16.9641 8.78775 17.0782 8.22783 17.3064C7.66791 17.535 7.19401 17.8399 6.80604 18.2225C6.41771 18.6046 6.07435 19.0676 5.77479 19.6093C5.47558 20.1516 5.23723 20.7076 5.05981 21.2786C4.88245 21.8491 4.73573 22.4684 4.61912 23.1362C4.50263 23.804 4.4251 24.4258 4.38631 25.0025C4.34746 25.579 4.32812 26.1698 4.32812 26.7748C4.32812 28.1442 4.73265 29.2259 5.54192 30.0189C6.35148 30.8118 7.42694 31.2087 8.76812 31.2087H23.3026C24.6439 31.2087 25.7192 30.8118 26.529 30.0189C27.3382 29.2259 27.7429 28.1442 27.7429 26.7748C27.7429 26.1698 27.7234 25.5791 27.6851 25.0025C27.6457 24.4258 27.5682 23.804 27.4522 23.1362Z" fill="white"/>
<path d="M9.93254 15.8692C9.0345 14.5336 8.5856 13.0726 8.58577 11.486C8.58577 11.155 8.61356 10.7784 8.66889 10.356C7.93709 10.6185 7.19986 10.7499 6.45705 10.7499C5.80295 10.7499 5.14348 10.6272 4.4782 10.3819C3.8132 10.1364 3.27256 9.89384 2.85697 9.65402C2.44121 9.41431 2.1999 9.29443 2.13344 9.29443C0.758652 9.29449 0.0712891 11.3092 0.0712891 15.3386C0.0712891 16.2288 0.381741 16.9054 1.00247 17.3674C1.62337 17.8295 2.38838 18.0608 3.2972 18.0608H5.52569C6.66773 16.6568 8.13646 15.9264 9.93254 15.8692Z" fill="white"/>
</svg>
