<svg width="100" height="100" viewBox="0 0 100 100" fill="none" xmlns="http://www.w3.org/2000/svg">
<path d="M0 0H92C96.4183 0 100 3.58172 100 8V92C100 96.4183 96.4183 100 92 100H0V0Z" fill="url(#paint0_linear_325_7273)"/>
<path d="M62.537 37.5967C60.77 40.0508 57.9077 41.6492 54.6827 41.6492H50.1577C48.5944 41.6492 47.2633 40.6457 46.7592 39.2411C46.137 39.0533 45.5268 38.8098 44.9315 38.5105C43.6705 37.8771 42.5256 37.0188 41.5177 35.9556C34.9803 37.4079 30.0874 43.2984 30.0874 50.3454V51.2665C30.0874 52.5327 31.1025 53.5592 32.3547 53.5592H67.5322C68.7843 53.5592 69.7995 52.5327 69.7995 51.2665V50.3454C69.7994 44.9015 66.8793 40.1477 62.537 37.5967Z" fill="white"/>
<path d="M39.1926 31.1293C40.167 31.1293 41.0151 30.5831 41.4546 29.7772C41.4661 29.8091 41.4779 29.8408 41.4897 29.8725C41.4933 29.882 41.4967 29.8915 41.5002 29.9011C42.5311 32.6449 44.5369 34.9451 47.1817 35.9501C47.8214 34.9223 48.9526 34.2388 50.2423 34.2388H54.7674C55.2188 34.2388 55.6388 34.11 56.0071 33.9018C56.6257 33.552 57.1818 32.6649 57.469 32.1946C57.9286 31.4421 58.2848 30.6449 58.6006 29.7758C58.778 30.1017 59.022 30.3852 59.3144 30.6073V31.7293C59.3144 34.2646 57.2746 36.3274 54.7673 36.3274H50.2422C49.3868 36.3274 48.6932 37.0288 48.6932 37.8938C48.6932 38.7589 49.3868 39.4601 50.2422 39.4601H54.7673C58.9828 39.4601 62.4124 35.9921 62.4124 31.7293V30.6073C63.0395 30.131 63.4451 29.3729 63.4451 28.5188V23.7957V21.9845C63.4451 21.1128 63.0224 20.3416 62.3733 19.8675C61.8699 13.4258 56.5253 8.33984 50.0279 8.33984C43.5304 8.33984 38.186 13.4258 37.6827 19.8674C37.0336 20.3416 36.6108 21.1128 36.6108 21.9844V28.5186C36.6108 29.9645 37.7724 31.1293 39.1926 31.1293ZM50.0279 11.4727C54.8378 11.4727 58.8051 15.1896 59.2688 19.9322C58.9644 20.1743 58.715 20.4838 58.5432 20.8389C57.0816 16.9828 53.8188 14.2981 50.0279 14.2981C46.1553 14.2981 42.9448 17.0751 41.5183 20.8235C41.5163 20.8286 41.5145 20.8338 41.5126 20.839C41.3407 20.4839 41.0914 20.1744 40.787 19.9322C41.2509 15.1896 45.2181 11.4727 50.0279 11.4727Z" fill="white"/>
<path d="M23.172 85C22.9587 85 22.74 84.968 22.516 84.904C22.3027 84.8293 22.1213 84.6853 21.972 84.472V84.68C21.972 85.2667 21.8813 85.8107 21.7 86.312C21.5187 86.824 21.2573 87.2667 20.916 87.64C20.5853 88.024 20.1747 88.3227 19.684 88.536C19.1933 88.76 18.644 88.872 18.036 88.872H17.028C15.8333 88.872 14.9053 88.504 14.244 87.768C13.5827 87.032 13.252 86.024 13.252 84.744V81.88H14.868V84.68C14.868 85.0533 14.9107 85.3893 14.996 85.688C15.0813 85.9867 15.2147 86.2427 15.396 86.456C15.588 86.6693 15.8333 86.8347 16.132 86.952C16.4413 87.0693 16.8147 87.128 17.252 87.128H17.956C18.404 87.128 18.7827 87.0587 19.092 86.92C19.412 86.792 19.668 86.6107 19.86 86.376C20.0627 86.152 20.2067 85.8853 20.292 85.576C20.3773 85.2773 20.42 84.9573 20.42 84.616V80.312H22.036V82.216C22.036 82.5573 22.1427 82.8133 22.356 82.984C22.58 83.1547 22.852 83.24 23.172 83.24H23.348C23.5827 83.24 23.7 83.5227 23.7 84.088C23.7 84.696 23.5827 85 23.348 85H23.172ZM18.276 80.072H16.468V78.44H18.276V80.072ZM24.8158 83.24C25.5304 83.24 25.8878 82.8933 25.8878 82.2V80.312H27.5198V82.312C27.5198 83.1973 27.2958 83.8693 26.8478 84.328C26.3998 84.776 25.7704 85 24.9598 85H23.3438C23.2051 85 23.1144 84.9307 23.0717 84.792C23.0184 84.6427 22.9917 84.4293 22.9917 84.152C22.9917 83.8427 23.0184 83.6133 23.0717 83.464C23.1144 83.3147 23.2051 83.24 23.3438 83.24H24.8158ZM27.2958 88.36H25.6478V86.792H27.2958V88.36ZM24.9918 88.36H23.3438V86.792H24.9918V88.36ZM29.399 85V75.08H31.031V83.24H32.455C33.1697 83.24 33.527 82.8933 33.527 82.2V75.08H35.159V82.2C35.159 82.5733 35.2763 82.84 35.511 83C35.7457 83.16 36.0283 83.24 36.359 83.24H36.583C36.8177 83.24 36.935 83.5227 36.935 84.088C36.935 84.696 36.8177 85 36.583 85H36.279C35.8843 85 35.5163 84.936 35.175 84.808C34.8443 84.6693 34.5563 84.3973 34.311 83.992C34.0443 84.3973 33.7563 84.6693 33.447 84.808C33.1377 84.936 32.807 85 32.455 85H29.399ZM38.0501 83.24C38.7648 83.24 39.1221 82.8933 39.1221 82.2V80.312H40.7541V82.312C40.7541 83.1973 40.5301 83.8693 40.0821 84.328C39.6341 84.776 39.0048 85 38.1941 85H36.5781C36.4395 85 36.3488 84.9307 36.3061 84.792C36.2528 84.6427 36.2261 84.4293 36.2261 84.152C36.2261 83.8427 36.2528 83.6133 36.3061 83.464C36.3488 83.3147 36.4395 83.24 36.5781 83.24H38.0501ZM40.2581 78.44H38.4501V76.808H40.2581V78.44ZM43.7584 77.48H45.3904V85H43.7584V77.48ZM43.6784 75.832C43.465 75.832 43.2997 75.8533 43.1824 75.896C43.065 75.9387 42.9637 76.0613 42.8784 76.264L42.5424 77.016L41.5184 76.52L42.0144 75.416C42.1104 75.2027 42.2064 75.0267 42.3024 74.888C42.3877 74.7493 42.489 74.6373 42.6064 74.552C42.7237 74.4667 42.8624 74.408 43.0224 74.376C43.1824 74.344 43.3797 74.328 43.6144 74.328H46.8464L46.7824 75.832H43.6784ZM50.9603 87.128C51.3656 87.128 51.7123 87.0693 52.0003 86.952C52.2989 86.8453 52.5443 86.696 52.7363 86.504C52.9283 86.312 53.0776 86.0827 53.1843 85.816C53.2909 85.56 53.3549 85.288 53.3763 85H52.2883C51.7336 85 51.2803 84.9413 50.9283 84.824C50.5763 84.7067 50.2989 84.536 50.0963 84.312C49.8936 84.0773 49.7496 83.7947 49.6643 83.464C49.5896 83.1333 49.5523 82.76 49.5523 82.344C49.5523 81.928 49.6109 81.5387 49.7283 81.176C49.8456 80.8027 50.0163 80.4773 50.2403 80.2C50.4749 79.9227 50.7629 79.704 51.1043 79.544C51.4456 79.3733 51.8403 79.288 52.2883 79.288C52.6509 79.288 52.9923 79.3467 53.3123 79.464C53.6429 79.5813 53.9309 79.768 54.1763 80.024C54.4216 80.28 54.6136 80.6107 54.7523 81.016C54.9016 81.4213 54.9763 81.9173 54.9763 82.504V83.24H56.2723C56.5069 83.24 56.6243 83.5227 56.6243 84.088C56.6243 84.696 56.5069 85 56.2723 85H54.9443C54.9229 85.5227 54.8163 86.0187 54.6243 86.488C54.4323 86.9573 54.1656 87.368 53.8243 87.72C53.4936 88.072 53.0936 88.3493 52.6243 88.552C52.1549 88.7653 51.6269 88.872 51.0403 88.872H49.4243L49.3283 87.128H50.9603ZM51.1203 82.232C51.1203 82.6053 51.2003 82.8667 51.3603 83.016C51.5309 83.1653 51.8616 83.24 52.3523 83.24H53.4083V82.488C53.4083 81.9333 53.3016 81.544 53.0883 81.32C52.8856 81.096 52.5976 80.984 52.2243 80.984C51.8723 80.984 51.6003 81.0907 51.4083 81.304C51.2163 81.5173 51.1203 81.8267 51.1203 82.232ZM57.4336 74.344L62.2496 72.52L62.5056 73.672L57.5136 75.592L57.4336 74.344ZM60.2336 83.24C60.5216 83.24 60.719 83.1813 60.8256 83.064C60.943 82.9467 61.0016 82.8027 61.0016 82.632C61.0016 82.472 60.9696 82.3173 60.9056 82.168C60.8523 82.008 60.7296 81.8373 60.5376 81.656L57.5136 78.632V76.808L62.8096 74.808L63.1776 76.44L59.0976 77.944L61.4496 80.328C61.9296 80.808 62.3403 81.2133 62.6816 81.544C63.0336 81.8747 63.3376 82.1467 63.5936 82.36C63.8603 82.5733 64.0896 82.744 64.2816 82.872C64.4843 82.9893 64.671 83.0747 64.8416 83.128C65.0123 83.1813 65.1776 83.2133 65.3376 83.224C65.5083 83.2347 65.7003 83.24 65.9136 83.24C66.0523 83.24 66.143 83.3147 66.1856 83.464C66.239 83.6027 66.2656 83.8107 66.2656 84.088C66.2656 84.3973 66.239 84.6267 66.1856 84.776C66.143 84.9253 66.0523 85 65.9136 85C65.5936 85 65.3003 84.984 65.0336 84.952C64.7776 84.92 64.527 84.856 64.2816 84.76C64.0363 84.6533 63.775 84.4987 63.4976 84.296C63.2203 84.0827 62.9056 83.8 62.5536 83.448C62.479 84.0027 62.239 84.4027 61.8336 84.648C61.439 84.8827 60.9696 85 60.4256 85H56.2656C56.127 85 56.0363 84.9307 55.9936 84.792C55.9403 84.6427 55.9136 84.4293 55.9136 84.152C55.9136 83.8427 55.9403 83.6133 55.9936 83.464C56.0363 83.3147 56.127 83.24 56.2656 83.24H60.2336ZM67.0263 83.24C67.7409 83.24 68.0983 82.8933 68.0983 82.2V80.312H69.7463V82.2C69.7463 82.5733 69.8583 82.84 70.0823 83C70.3169 83.16 70.5889 83.24 70.8983 83.24H71.3143C71.5596 83.24 71.6823 83.5227 71.6823 84.088C71.6823 84.696 71.5596 85 71.3143 85H70.8503C70.4449 85 70.0769 84.936 69.7463 84.808C69.4156 84.6693 69.1276 84.3973 68.8823 83.992C68.6156 84.3973 68.3276 84.6693 68.0182 84.808C67.7089 84.936 67.3783 85 67.0263 85H65.9062C65.7676 85 65.6769 84.9307 65.6342 84.792C65.5809 84.6427 65.5542 84.4293 65.5542 84.152C65.5542 83.8427 65.5809 83.6133 65.6342 83.464C65.6769 83.3147 65.7676 83.24 65.9062 83.24H67.0263ZM70.6903 78.44H69.0263V76.872H70.6903V78.44ZM68.4023 78.44H66.7383V76.872H68.4023V78.44ZM73.6005 83.24C73.2272 82.8987 72.9605 82.5627 72.8005 82.232C72.6405 81.8907 72.5605 81.5227 72.5605 81.128C72.5605 80.776 72.6245 80.4347 72.7525 80.104C72.8912 79.7733 73.0832 79.4853 73.3285 79.24C73.5845 78.984 73.8885 78.7813 74.2405 78.632C74.6032 78.472 75.0032 78.392 75.4405 78.392C75.8778 78.392 76.2618 78.472 76.5925 78.632C76.9232 78.792 77.1952 79 77.4085 79.256C77.6325 79.512 77.7978 79.8 77.9045 80.12C78.0218 80.4293 78.0805 80.7387 78.0805 81.048C78.0805 81.5173 77.9952 81.928 77.8245 82.28C77.6645 82.6213 77.4298 82.9413 77.1205 83.24H79.3445C79.5792 83.24 79.6965 83.5227 79.6965 84.088C79.6965 84.696 79.5792 85 79.3445 85H77.7285C77.2485 85 76.8112 84.9787 76.4165 84.936C76.0325 84.8933 75.7338 84.8133 75.5205 84.696C75.3712 84.7707 75.1845 84.8293 74.9605 84.872C74.7472 84.9147 74.5232 84.9467 74.2885 84.968C74.0645 84.9787 73.8405 84.9893 73.6165 85C73.4032 85 73.2218 85 73.0725 85H71.3125C71.1738 85 71.0832 84.9307 71.0405 84.792C70.9872 84.6427 70.9605 84.4293 70.9605 84.152C70.9605 83.8427 70.9872 83.6133 71.0405 83.464C71.0832 83.3147 71.1738 83.24 71.3125 83.24H73.6005ZM75.3285 80.168C74.9765 80.168 74.6885 80.2853 74.4645 80.52C74.2405 80.7547 74.1285 81.048 74.1285 81.4C74.1285 81.7413 74.2512 82.0507 74.4965 82.328C74.7525 82.5947 75.0565 82.8187 75.4085 83C75.7178 82.8187 75.9792 82.5947 76.1925 82.328C76.4165 82.0613 76.5285 81.7573 76.5285 81.416C76.5285 81.0427 76.4165 80.744 76.1925 80.52C75.9792 80.2853 75.6912 80.168 75.3285 80.168ZM76.3045 77.144H74.4965V75.512H76.3045V77.144ZM80.5118 74.344L85.3278 72.52L85.5838 73.672L80.5918 75.592L80.5118 74.344ZM83.3118 83.24C83.5998 83.24 83.7971 83.1813 83.9038 83.064C84.0211 82.9467 84.0798 82.8027 84.0798 82.632C84.0798 82.472 84.0478 82.3173 83.9838 82.168C83.9304 82.008 83.8078 81.8373 83.6158 81.656L80.5918 78.632V76.808L85.8878 74.808L86.2558 76.44L82.1758 77.944L84.5278 80.328C84.7944 80.5947 85.0131 80.84 85.1838 81.064C85.3544 81.2773 85.4878 81.4853 85.5838 81.688C85.6798 81.88 85.7438 82.0773 85.7758 82.28C85.8184 82.472 85.8398 82.6747 85.8398 82.888C85.8398 83.2613 85.7758 83.5813 85.6478 83.848C85.5304 84.1147 85.3651 84.3333 85.1518 84.504C84.9491 84.6747 84.7038 84.8027 84.4158 84.888C84.1384 84.9627 83.8344 85 83.5038 85H79.3438C79.2051 85 79.1144 84.9307 79.0717 84.792C79.0184 84.6427 78.9917 84.4293 78.9917 84.152C78.9917 83.8427 79.0184 83.6133 79.0717 83.464C79.1144 83.3147 79.2051 83.24 79.3438 83.24H83.3118Z" fill="white"/>
<defs>
<linearGradient id="paint0_linear_325_7273" x1="50" y1="0" x2="50" y2="100" gradientUnits="userSpaceOnUse">
<stop stop-color="#FF7C01"/>
<stop offset="1" stop-color="#FCAF17"/>
</linearGradient>
</defs>
</svg>
