<svg width="40" height="40" viewBox="0 0 40 40" fill="none" xmlns="http://www.w3.org/2000/svg">
<path fill-rule="evenodd" clip-rule="evenodd" d="M20 40C31.0457 40 40 31.0457 40 20C40 8.9543 31.0457 0 20 0C8.9543 0 0 8.9543 0 20C0 31.0457 8.9543 40 20 40ZM16.1061 20C16.1061 17.8577 17.8543 16.1095 19.9965 16.1095C22.1388 16.1095 23.887 17.8577 23.887 20C23.887 22.1423 22.1388 23.8905 19.9965 23.8905C17.8543 23.8905 16.1061 22.1423 16.1061 20ZM31.6655 19.4107C31.6653 19.6069 31.665 19.8034 31.665 20C31.665 20.2199 31.6654 20.4395 31.6657 20.6589C31.6678 22.0471 31.6698 23.4271 31.5892 24.8158C31.4987 26.6837 31.0755 28.3386 29.7067 29.7074C28.3408 31.0733 26.683 31.4994 24.8151 31.5899C23.4032 31.6693 22.0004 31.6678 20.5887 31.6662C20.3925 31.666 20.1961 31.6658 19.9995 31.6658C19.8032 31.6658 19.6072 31.666 19.4113 31.6662C18.0015 31.6678 16.5983 31.6693 15.1838 31.5899C13.3159 31.4994 11.6611 31.0762 10.2922 29.7074C8.92635 28.3415 8.50024 26.6837 8.40976 24.8158C8.33032 23.4038 8.33188 21.9986 8.33344 20.5883C8.33366 20.3923 8.33388 20.1962 8.33388 20C8.33388 19.8038 8.33366 19.6077 8.33344 19.4117C8.33188 18.002 8.33032 16.5987 8.40976 15.1842C8.50024 13.3163 8.92343 11.6614 10.2922 10.2926C11.6581 8.92668 13.3159 8.50056 15.1838 8.41009C16.5957 8.33065 17.9985 8.3322 19.4101 8.33377C19.6064 8.33398 19.8028 8.3342 19.9995 8.3342C20.1957 8.3342 20.3918 8.33398 20.5877 8.33377C21.9974 8.3322 23.4007 8.33065 24.8151 8.41009C26.683 8.50056 28.3379 8.92377 29.7067 10.2926C31.0726 11.6585 31.4987 13.3163 31.5892 15.1842C31.6686 16.5961 31.667 17.999 31.6655 19.4107ZM14.0105 20C14.0105 23.3127 16.6839 25.9861 19.9965 25.9861C23.3091 25.9861 25.9826 23.3127 25.9826 20C25.9826 16.6873 23.3091 14.0139 19.9965 14.0139C16.6839 14.0139 14.0105 16.6873 14.0105 20ZM24.8297 13.7687C24.8297 14.5421 25.4543 15.1667 26.2277 15.1667C26.4114 15.167 26.5933 15.131 26.763 15.0608C26.9327 14.9906 27.0869 14.8876 27.2168 14.7578C27.3466 14.6279 27.4496 14.4737 27.5198 14.304C27.5899 14.1343 27.626 13.9524 27.6257 13.7687C27.6257 12.9953 27.0011 12.3707 26.2277 12.3707C25.4543 12.3707 24.8297 12.9953 24.8297 13.7687Z" fill="white"/>
</svg>
