<?xml version="1.0" encoding="utf-8"?>
<!-- Generator: Adobe Illustrator 24.0.0, SVG Export Plug-In . SVG Version: 6.00 Build 0)  -->
<svg version="1.1" xmlns="http://www.w3.org/2000/svg" xmlns:xlink="http://www.w3.org/1999/xlink" x="0px" y="0px" width="553.1px"
	 height="101.771px" viewBox="0 0 553.1 101.771" style="enable-background:new 0 0 553.1 101.771;" xml:space="preserve">
<style type="text/css">
	.st0{fill:#FCAF17;}
	.st1{fill:#0082C6;}
	.st2{fill:url(#SVGID_1_);}
	.st3{fill:url(#SVGID_2_);}
	.st4{fill:url(#SVGID_3_);}
	.st5{fill:url(#SVGID_4_);}
	.st6{fill:url(#SVGID_5_);}
	.st7{fill:url(#SVGID_6_);}
	.st8{fill:url(#SVGID_7_);}
	.st9{fill:url(#SVGID_8_);}
	.st10{fill:url(#SVGID_9_);}
	.st11{fill:url(#SVGID_10_);}
	.st12{fill:url(#SVGID_11_);}
	.st13{fill:url(#SVGID_12_);}
</style>
<g id="Layer_1">
	<g id="Layer_1_1_">
		<g>
			<path class="st0" d="M302.9,33.271l-8.2,13.2c-2.1,4.3-5.5,4.4-7.7,0.3l-8.3-13.5h7.6h9.9H302.9z M244.7,68.971
				c0,3.2-2.7,7.3-7.3,7.3c-4,0-29.4,0-41.4,0c-0.1,0-0.1,0-0.2,0c-1.2,0-2.7,0-4.4,0c-1,0-1.6,0-1.6,0l0,0c-10.8,0-27.6,0-27.6,0
				s-6.8,0-7.4-7l-0.1-58.1h14.7l-0.1,46.7c0,3.4,3,3.6,3,3.6h9.8v-6.3c0,0,0.5-7.2,7.7-7.2c-4.4-1.1-5.6-7.3-5.7-14.9h53.7
				c3.1,0,6.8,3.3,6.8,7C244.7,46.171,244.7,68.971,244.7,68.971z M209.9,48.071h-4.3c-10.2,0-8.5,10-8.5,10c0,3.4,3.3,3.5,3.3,3.5
				h6.1c2,0,3.4-1.3,3.4-3.7V48.071z M229.9,51.171c0-1.8-1.6-3.1-3.3-3.1h-6.2c-1.1,0-2,0.4-2.6,1.2c-0.5,0.6-0.7,1.4-0.7,2.4v6.4
				c0,3.4,3.1,3.6,3.1,3.6h6.3c2,0,3.4-1.3,3.4-3.7V51.171z M133.3,33.271v25.2c0,2.4-1.5,3.7-3.4,3.7l0,0c0,0-3.1-0.2-3.1-3.6
				v-25.2h-0.1h-14.8h-0.1v25.2c0,2.4-1.5,3.7-3.4,3.7l0,0c0,0-3.1-0.2-3.1-3.6v-25.2H90.5v25.3l0,0l0,0c0,2.3-1.5,3.5-3.4,3.5h-8.8
				c0,0-3.1-0.2-3.1-3.6v-0.5l0,0v-24.7H60.4v25.2c0,2.4-1.5,3.7-3.4,3.7H38.5H18c0,0-3.1-0.2-3.1-3.6v-25.2H0.1L0,69.371
				c0.6,7,7.4,7,7.4,7s11,0,24.2,0c17.4,0,24.9,0,29.7,0c2.9,0,4.9-1.4,6.1-3.2c2.1,3.2,6.2,3.2,6.2,3.2s1,0,9.4,0l0,0
				c0.5,0,0.9,0,1.2,0c2.9,0,4.9-1.4,6.1-3.2c2.1,3.2,6.2,3.2,6.2,3.2s4.4,0,10,0l0,0c0.7,0,1.4,0,2.1,0h3.3l0,0c0.5,0,0.9,0,1.2,0
				c2.9,0,4.9-1.4,6.1-3.2c2.1,3.2,6.2,3.2,6.2,3.2s0.4,0,1.1,0l0,0h14.3c4.9,0,7.4-3.9,7.4-7.5l0.1-35.6
				C148.1,33.271,133.3,33.271,133.3,33.271z M27.2,40.371c1.3,1.3,3.4,1.3,4.6,0l4.8-4.8c1.3-1.3,1.3-3.4,0-4.6l-4.8-4.9
				c-1.3-1.3-3.4-1.3-4.6,0l-4.8,4.8c-1.3,1.3-1.3,3.4,0,4.6L27.2,40.371z M43.4,40.371c1.3,1.3,3.4,1.3,4.6,0l4.8-4.8
				c1.3-1.3,1.3-3.4,0-4.6l-4.8-4.9c-1.3-1.3-3.4-1.3-4.6,0l-4.8,4.8c-1.3,1.3-1.3,3.4,0,4.6L43.4,40.371z"/>
			<path class="st1" d="M427.2,11.371H442v65.1h-14.8V11.371z M307.3,33.171v25.2c0,2.4-1.5,3.7-3.4,3.7h-26.4c0,0-3.1-0.2-3.1-3.6
				v-25.2h-14.8v36.2c0.6,7,7.4,7,7.4,7s39.3,0,47.8,0c4.9,0,7.4-3.9,7.4-7.5v-35.7C322.1,33.171,307.3,33.171,307.3,33.171z
				 M388,64.671c-1.3,1.3-1.3,3.4,0,4.6l4.8,4.8c1.3,1.3,3.4,1.3,4.6,0l4.8-4.8c1.3-1.3,1.3-3.4,0-4.6l-4.8-4.8
				c-1.3-1.3-3.4-1.3-4.6,0L388,64.671z M388,80.971c-1.3,1.3-1.3,3.4,0,4.6l4.8,4.8c1.3,1.3,3.4,1.3,4.6,0l4.8-4.8
				c1.3-1.3,1.3-3.4,0-4.6l-4.8-4.8c-1.3-1.3-3.4-1.3-4.6,0L388,80.971z M328.7,76.371h14.8v-65.1h-14.8V76.371z M344.3,101.771
				c0,0,45.2-45.2,48-48c1.9-1.9,3.8-1.7,5.1-0.5s23.1,23.2,23.1,23.2v-20.8c0,0-12.7-12.9-20.3-20.5c-4.2-4.2-9-1.4-10.4,0.1
				l-66.6,66.6h21.1V101.771z"/>
		</g>
		<g>
			<linearGradient id="SVGID_1_" gradientUnits="userSpaceOnUse" x1="477.48" y1="32.4759" x2="531.2439" y2="32.4759">
				<stop  offset="0" style="stop-color:#FFF78F"/>
				<stop  offset="0.0543" style="stop-color:#FFF38B"/>
				<stop  offset="0.1096" style="stop-color:#FFEB7F"/>
				<stop  offset="0.1653" style="stop-color:#FFE16C"/>
				<stop  offset="0.221" style="stop-color:#FFD24D"/>
				<stop  offset="0.24" style="stop-color:#FFCC40"/>
				<stop  offset="0.3417" style="stop-color:#FEBE2D"/>
				<stop  offset="0.463" style="stop-color:#FCB31C"/>
				<stop  offset="0.5626" style="stop-color:#FCAF17"/>
				<stop  offset="0.8368" style="stop-color:#FFCC40"/>
				<stop  offset="0.858" style="stop-color:#FFD758"/>
				<stop  offset="0.8893" style="stop-color:#FFE471"/>
				<stop  offset="0.9222" style="stop-color:#FFED82"/>
				<stop  offset="0.9577" style="stop-color:#FFF38C"/>
				<stop  offset="1" style="stop-color:#FFF78F"/>
			</linearGradient>
			<path class="st2" d="M531.243,33.722c0.008,0.604-0.021,1.209-0.089,1.81c-0.362,3.231-1.82,6.328-4.08,8.665
				c2.206-3.403,2.84-7.724,1.973-11.685c-0.867-3.961-3.172-7.547-6.237-10.202c-1.767-1.53-3.783-2.762-5.923-3.697
				c-1.073-0.469-2.178-0.864-3.303-1.187c-1.143-0.328-2.252-0.665-3.442-0.766c-0.586-0.05-1.174-0.065-1.762-0.058
				c-0.81,0.01-1.62,0.05-2.42,0.12c-0.8,0.07-1.6,0.17-2.4,0.29c-0.79,0.13-1.58,0.29-2.36,0.48c-0.78,0.18-1.55,0.4-2.31,0.64
				c-0.76,0.23-1.51,0.5-2.24,0.79c-0.74,0.29-1.46,0.61-2.16,0.95c-0.71,0.34-1.4,0.7-2.07,1.09c-0.66,0.38-1.31,0.79-1.94,1.22
				c-0.63,0.43-1.24,0.88-1.82,1.35c-0.58,0.47-1.14,0.96-1.67,1.47c-0.53,0.51-1.03,1.04-1.5,1.58c-0.48,0.55-0.92,1.11-1.33,1.69
				c-0.41,0.58-0.79,1.17-1.14,1.78c-0.34,0.61-0.65,1.23-0.92,1.87c-0.27,0.64-0.51,1.29-0.7,1.95c-0.09,0.31-0.17,0.63-0.23,0.94
				c-0.07,0.32-0.13,0.64-0.18,0.96s-0.09,0.64-0.12,0.96c-0.03,0.32-0.05,0.65-0.06,0.97s-0.01,0.65,0,0.97s0.03,0.65,0.05,0.97
				c0.03,0.32,0.07,0.64,0.11,0.96c0.05,0.32,0.1,0.64,0.17,0.96c0.06,0.31,0.13,0.63,0.22,0.94c0.08,0.32,0.17,0.63,0.27,0.94
				c0.1,0.3,0.21,0.61,0.33,0.91s0.25,0.6,0.38,0.9c0.14,0.29,0.28,0.58,0.44,0.87c0.15,0.29,0.31,0.57,0.49,0.85
				c0.17,0.27,0.35,0.55,0.54,0.81c0.19,0.27,0.38,0.53,0.59,0.79c0.1,0.13,0.2,0.26,0.3,0.38c-0.06-0.03-0.11-0.07-0.16-0.11
				c-0.32-0.23-0.62-0.48-0.92-0.72c-0.3-0.25-0.59-0.5-0.87-0.76c-0.28-0.26-0.55-0.52-0.81-0.79c-0.26-0.28-0.51-0.55-0.75-0.84
				c-0.24-0.28-0.47-0.57-0.69-0.86c-0.2-0.27-0.39-0.54-0.57-0.82c-0.18-0.28-0.35-0.57-0.51-0.86c-0.16-0.29-0.31-0.59-0.46-0.89
				c-0.14-0.3-0.27-0.6-0.39-0.91s-0.23-0.62-0.33-0.93c-0.1-0.32-0.19-0.64-0.27-0.95c-0.09-0.32-0.16-0.65-0.22-0.97
				s-0.11-0.65-0.15-0.97c-0.04-0.33-0.07-0.65-0.09-0.98c-0.02-0.32-0.03-0.65-0.03-0.97c0-0.33,0.01-0.65,0.03-0.98
				c0.02-0.32,0.05-0.64,0.09-0.96c0.04-0.32,0.1-0.64,0.16-0.96c0.06-0.31,0.13-0.63,0.22-0.94c0.08-0.31,0.17-0.61,0.28-0.92
				c0.1-0.3,0.21-0.6,0.34-0.89c0.28-0.64,0.6-1.27,0.96-1.88c0.36-0.6,0.76-1.19,1.19-1.76s0.89-1.12,1.39-1.64
				c0.49-0.53,1.02-1.04,1.58-1.52c0.55-0.49,1.13-0.95,1.74-1.39c0.61-0.44,1.25-0.86,1.9-1.26c0.66-0.39,1.34-0.76,2.04-1.11
				c0.7-0.35,1.42-0.67,2.15-0.96c0.73-0.3,1.49-0.57,2.25-0.82c0.76-0.24,1.54-0.46,2.33-0.65c0.79-0.2,1.59-0.36,2.39-0.5
				c0.81-0.13,1.62-0.24,2.44-0.32s1.64-0.13,2.46-0.15c0.83-0.02,1.65-0.01,2.48,0.03c0.82,0.05,1.64,0.12,2.46,0.22
				c2.503,0.344,4.996,0.597,7.459,1.207c1.718,0.426,3.407,0.983,5.018,1.719c3.329,1.521,6.354,3.863,8.254,6.991
				C530.464,28.441,531.208,31.077,531.243,33.722z"/>
			<linearGradient id="SVGID_2_" gradientUnits="userSpaceOnUse" x1="484.7" y1="50.7459" x2="527.13" y2="50.7459">
				<stop  offset="0" style="stop-color:#FFF78F"/>
				<stop  offset="0.0543" style="stop-color:#FFF38B"/>
				<stop  offset="0.1096" style="stop-color:#FFEB7F"/>
				<stop  offset="0.1653" style="stop-color:#FFE16C"/>
				<stop  offset="0.221" style="stop-color:#FFD24D"/>
				<stop  offset="0.24" style="stop-color:#FFCC40"/>
				<stop  offset="0.3417" style="stop-color:#FEBE2D"/>
				<stop  offset="0.463" style="stop-color:#FCB31C"/>
				<stop  offset="0.5626" style="stop-color:#FCAF17"/>
				<stop  offset="0.8368" style="stop-color:#FFCC40"/>
				<stop  offset="0.858" style="stop-color:#FFD758"/>
				<stop  offset="0.8893" style="stop-color:#FFE471"/>
				<stop  offset="0.9222" style="stop-color:#FFED82"/>
				<stop  offset="0.9577" style="stop-color:#FFF38C"/>
				<stop  offset="1" style="stop-color:#FFF78F"/>
			</linearGradient>
			<path class="st3" d="M527.13,44.251c-0.04,0.08-0.09,0.15-0.13,0.23c-0.36,0.6-0.75,1.19-1.18,1.76
				c-0.42,0.57-0.88,1.13-1.36,1.66c-0.49,0.54-1,1.05-1.54,1.55c-0.54,0.5-1.11,0.98-1.7,1.44c-0.59,0.45-1.2,0.89-1.83,1.3
				c-0.64,0.42-1.29,0.81-1.96,1.18c-0.68,0.37-1.37,0.71-2.07,1.03c-0.7,0.33-1.42,0.62-2.15,0.89c-0.73,0.27-1.48,0.51-2.23,0.73
				c-0.75,0.22-1.51,0.41-2.28,0.57c-0.76,0.16-1.54,0.29-2.31,0.39c-0.78,0.11-1.56,0.18-2.33,0.22c-0.78,0.04-1.56,0.05-2.34,0.03
				c-0.78-0.02-1.55-0.07-2.32-0.16c-0.38-0.07-0.76-0.14-1.14-0.23c-0.37-0.08-0.75-0.17-1.12-0.27c-0.37-0.1-0.73-0.2-1.1-0.32
				c-0.36-0.11-0.72-0.23-1.08-0.35c-0.36-0.13-0.71-0.26-1.06-0.4c-0.35-0.14-0.69-0.29-1.03-0.44c-0.34-0.16-0.68-0.32-1.01-0.48
				c-0.33-0.17-0.65-0.34-0.97-0.52c-0.32-0.18-0.64-0.37-0.95-0.56s-0.61-0.39-0.91-0.6c-0.3-0.2-0.59-0.41-0.87-0.63
				c-0.29-0.22-0.57-0.44-0.84-0.67c-0.27-0.23-0.54-0.46-0.8-0.71c-0.25-0.24-0.51-0.48-0.75-0.74c-0.24-0.25-0.48-0.51-0.71-0.77
				c-0.12-0.14-0.24-0.29-0.36-0.43c0.26,0.2,0.54,0.39,0.81,0.57c0.33,0.22,0.67,0.43,1.02,0.64c0.34,0.21,0.7,0.41,1.06,0.6
				c0.36,0.19,0.73,0.37,1.1,0.55c0.37,0.18,0.75,0.35,1.14,0.51c0.39,0.16,0.78,0.32,1.18,0.47c0.39,0.14,0.8,0.28,1.2,0.41
				c0.41,0.13,0.82,0.26,1.24,0.37c0.42,0.12,0.84,0.22,1.26,0.32c0.43,0.1,0.85,0.19,1.29,0.27c0.43,0.08,0.86,0.15,1.3,0.21
				c0.47,0.07,0.94,0.13,1.41,0.18c0.47,0.05,0.94,0.09,1.41,0.13c0.47,0.03,0.94,0.05,1.41,0.07c0.47,0.01,0.94,0.02,1.41,0.02
				c0.47,0,0.94-0.01,1.4-0.03c0.47-0.02,0.94-0.05,1.4-0.09c0.47-0.03,0.93-0.08,1.39-0.13c0.46-0.06,0.92-0.12,1.38-0.19
				c0.46-0.07,0.92-0.15,1.37-0.23c0.45-0.09,0.9-0.19,1.35-0.29c0.45-0.1,0.89-0.22,1.33-0.34c0.45-0.12,0.88-0.24,1.32-0.38
				c0.43-0.14,0.87-0.28,1.29-0.43c0.43-0.16,0.85-0.32,1.27-0.48c0.42-0.17,0.84-0.35,1.25-0.53c0.4-0.19,0.81-0.38,1.21-0.58
				c0.37-0.19,0.74-0.38,1.11-0.58c0.36-0.2,0.72-0.41,1.07-0.63c0.35-0.21,0.69-0.43,1.03-0.66c0.33-0.23,0.66-0.46,0.98-0.7
				c0.33-0.24,0.64-0.48,0.95-0.73c0.3-0.25,0.6-0.51,0.89-0.77c0.29-0.26,0.58-0.52,0.85-0.79c0.27-0.27,0.54-0.55,0.79-0.83
				C526.76,44.671,526.95,44.461,527.13,44.251z"/>
			<linearGradient id="SVGID_3_" gradientUnits="userSpaceOnUse" x1="470.53" y1="31.8912" x2="537.3342" y2="31.8912">
				<stop  offset="0" style="stop-color:#8ED8F8"/>
				<stop  offset="0.0621" style="stop-color:#8AD2F5"/>
				<stop  offset="0.1252" style="stop-color:#7EC7EF"/>
				<stop  offset="0.1889" style="stop-color:#69B7E6"/>
				<stop  offset="0.2529" style="stop-color:#4CA2D9"/>
				<stop  offset="0.3167" style="stop-color:#158ACB"/>
				<stop  offset="0.3368" style="stop-color:#0082C6"/>
				<stop  offset="0.4472" style="stop-color:#0077BF"/>
				<stop  offset="0.5518" style="stop-color:#006CB7"/>
				<stop  offset="0.6668" style="stop-color:#0079C0"/>
				<stop  offset="0.7615" style="stop-color:#0082C6"/>
				<stop  offset="0.7885" style="stop-color:#3293D1"/>
				<stop  offset="0.8255" style="stop-color:#57A9DE"/>
				<stop  offset="0.8641" style="stop-color:#6FBBE8"/>
				<stop  offset="0.9045" style="stop-color:#80CAF0"/>
				<stop  offset="0.948" style="stop-color:#8BD3F5"/>
				<stop  offset="1" style="stop-color:#8ED8F8"/>
			</linearGradient>
			<path class="st4" d="M537.25,28.481c-0.03-0.41-0.08-0.81-0.15-1.22c-0.06-0.4-0.14-0.8-0.22-1.2c-0.09-0.4-0.19-0.8-0.3-1.19
				c-0.12-0.39-0.24-0.78-0.38-1.17c-0.13-0.39-0.28-0.77-0.44-1.15c-0.16-0.38-0.33-0.75-0.52-1.12c-0.18-0.37-0.37-0.73-0.58-1.09
				c-0.2-0.36-0.42-0.71-0.64-1.06c-0.23-0.34-0.47-0.68-0.71-1.01c-0.25-0.33-0.51-0.66-0.78-0.97c-0.26-0.32-0.54-0.63-0.83-0.93
				c-0.3-0.32-0.61-0.63-0.93-0.93c-0.32-0.31-0.65-0.6-0.99-0.89c-0.34-0.29-0.68-0.56-1.04-0.84c-0.36-0.27-0.72-0.53-1.09-0.78
				c-0.38-0.26-0.76-0.5-1.14-0.74c-0.39-0.24-0.79-0.47-1.19-0.69c-0.4-0.22-0.81-0.44-1.23-0.64c-0.41-0.21-0.84-0.4-1.26-0.59
				c-0.43-0.19-0.87-0.37-1.31-0.54c-0.44-0.17-0.88-0.33-1.33-0.48c-0.45-0.15-0.9-0.3-1.36-0.43c-0.46-0.14-0.92-0.26-1.39-0.38
				c-0.47-0.12-0.94-0.23-1.41-0.33c-0.47-0.09-0.95-0.18-1.43-0.27c-0.995-0.166-1.991-0.35-2.988-0.497
				c-0.931-0.137-1.874-0.183-2.811-0.272c-0.037-0.004-0.074-0.007-0.111-0.011c-1-0.09-2.02-0.15-3.04-0.17
				c-1.01-0.01-2.03,0-3.05,0.06c-1.01,0.06-2.03,0.15-3.04,0.28s-2.01,0.29-3.01,0.49c-0.99,0.2-1.98,0.44-2.95,0.7
				c-0.97,0.27-1.93,0.57-2.87,0.9c-0.95,0.34-1.87,0.7-2.78,1.1c-0.91,0.4-1.79,0.83-2.65,1.28c-0.87,0.46-1.7,0.95-2.51,1.47
				c-0.81,0.51-1.6,1.06-2.35,1.64c-0.75,0.57-1.47,1.17-2.15,1.8c-0.69,0.63-1.34,1.29-1.95,1.97c-0.61,0.68-1.18,1.38-1.71,2.12
				c-0.53,0.73-1.01,1.48-1.45,2.26s-0.84,1.58-1.18,2.41c-0.16,0.39-0.31,0.78-0.45,1.18c-0.13,0.39-0.25,0.79-0.36,1.2
				c-0.11,0.4-0.2,0.81-0.29,1.22c-0.08,0.41-0.15,0.83-0.2,1.24c-0.05,0.42-0.1,0.84-0.12,1.26c-0.03,0.41-0.05,0.83-0.05,1.25
				s0.01,0.85,0.03,1.27c0.03,0.42,0.07,0.84,0.12,1.25c0.05,0.42,0.11,0.84,0.18,1.26c0.08,0.41,0.17,0.83,0.27,1.24
				c0.1,0.41,0.21,0.82,0.34,1.22c0.13,0.41,0.27,0.81,0.42,1.2c0.15,0.4,0.31,0.79,0.49,1.18s0.36,0.77,0.57,1.15
				c0.2,0.37,0.41,0.74,0.64,1.11c0.22,0.36,0.46,0.72,0.71,1.07c0.28,0.38,0.56,0.76,0.86,1.12c0.31,0.37,0.62,0.73,0.94,1.08
				c0.33,0.35,0.67,0.69,1.02,1.03c0.35,0.33,0.71,0.66,1.08,0.98s0.75,0.63,1.15,0.93c0.39,0.3,0.79,0.6,1.21,0.88
				c0.41,0.29,0.83,0.57,1.27,0.84c0.43,0.27,0.87,0.53,1.32,0.78c0.45,0.25,0.91,0.49,1.38,0.73c0.46,0.23,0.94,0.45,1.42,0.67
				c0.48,0.22,0.97,0.42,1.47,0.62c0.49,0.2,1,0.38,1.51,0.56c0.5,0.18,1.02,0.35,1.54,0.51c0.52,0.16,1.05,0.31,1.58,0.45
				c0.53,0.14,1.07,0.27,1.61,0.39c0.54,0.12,1.09,0.23,1.64,0.33c0.58,0.07,1.16,0.13,1.75,0.17c0.58,0.05,1.17,0.09,1.75,0.11
				c0.59,0.03,1.17,0.04,1.76,0.04c0.58,0.01,1.17,0,1.76-0.02c0.58-0.01,1.17-0.04,1.75-0.08c0.58-0.04,1.16-0.09,1.75-0.15
				c0.58-0.06,1.15-0.14,1.73-0.22c0.58-0.08,1.15-0.17,1.73-0.28c0.57-0.1,1.14-0.21,1.7-0.34c0.57-0.12,1.13-0.25,1.69-0.4
				s1.11-0.3,1.66-0.47c0.55-0.16,1.1-0.34,1.64-0.53c0.54-0.18,1.08-0.38,1.61-0.59c0.53-0.2,1.06-0.42,1.58-0.65
				c0.52-0.23,1.03-0.47,1.54-0.71c0.51-0.25,1.01-0.51,1.5-0.78c0.46-0.25,0.91-0.51,1.35-0.78c0.44-0.26,0.88-0.54,1.3-0.82
				c0.43-0.29,0.85-0.58,1.26-0.88c0.41-0.3,0.82-0.61,1.21-0.92c0.4-0.32,0.78-0.64,1.16-0.97c0.37-0.33,0.74-0.66,1.1-1.01
				c0.36-0.34,0.7-0.69,1.04-1.04c0.34-0.35,0.66-0.71,0.98-1.08c0.32-0.37,0.62-0.74,0.91-1.11c0.3-0.38,0.58-0.76,0.85-1.15
				c0.27-0.38,0.53-0.77,0.77-1.17c0.25-0.39,0.48-0.79,0.7-1.19c0.22-0.4,0.42-0.81,0.62-1.22c0.19-0.41,0.37-0.82,0.53-1.24
				c0.17-0.41,0.32-0.83,0.46-1.25c0.13-0.42,0.25-0.85,0.36-1.27c0.1-0.4,0.19-0.8,0.26-1.21c0.07-0.4,0.13-0.81,0.17-1.21
				c0.04-0.41,0.07-0.82,0.09-1.22c0.01-0.41,0.02-0.82,0.01-1.23C537.31,29.291,537.29,28.891,537.25,28.481z M534.35,30.921
				c-0.02,0.39-0.06,0.77-0.11,1.15c-0.04,0.39-0.1,0.77-0.17,1.15s-0.16,0.76-0.25,1.13c-0.09,0.38-0.2,0.75-0.32,1.12
				c-0.26,0.79-0.57,1.56-0.93,2.31s-0.77,1.48-1.22,2.19c-0.44,0.71-0.93,1.41-1.46,2.07c-0.53,0.67-1.1,1.32-1.71,1.95
				c-0.6,0.62-1.24,1.22-1.92,1.8c-0.67,0.57-1.37,1.13-2.1,1.65c-0.74,0.53-1.5,1.03-2.28,1.5c-0.79,0.47-1.6,0.91-2.43,1.33
				s-1.68,0.8-2.55,1.16c-0.87,0.36-1.76,0.68-2.66,0.98c-0.9,0.29-1.82,0.55-2.74,0.78c-0.93,0.23-1.86,0.43-2.81,0.59
				c-0.94,0.16-1.89,0.29-2.84,0.38c-0.95,0.09-1.91,0.15-2.86,0.16c-0.95,0.02-1.91,0-2.86-0.06s-1.89-0.15-2.83-0.29
				c-0.46-0.07-0.91-0.15-1.36-0.23c-0.45-0.09-0.9-0.19-1.35-0.29c-0.45-0.1-0.89-0.22-1.33-0.34s-0.88-0.25-1.31-0.39
				s-0.86-0.28-1.28-0.44c-0.43-0.15-0.85-0.31-1.26-0.49c-0.42-0.17-0.82-0.35-1.23-0.53c-0.4-0.19-0.8-0.39-1.19-0.59
				c-0.39-0.2-0.78-0.41-1.16-0.63c-0.38-0.22-0.75-0.45-1.12-0.68c-0.36-0.24-0.72-0.48-1.07-0.73c-0.36-0.24-0.7-0.5-1.04-0.76
				c-0.33-0.27-0.66-0.54-0.98-0.81c-0.32-0.28-0.63-0.57-0.93-0.86c-0.3-0.29-0.59-0.59-0.87-0.89c-0.28-0.31-0.56-0.62-0.82-0.94
				c-0.24-0.3-0.48-0.61-0.7-0.92c-0.23-0.31-0.44-0.63-0.64-0.96c-0.21-0.32-0.4-0.66-0.59-0.99c-0.18-0.34-0.35-0.68-0.52-1.03
				c-0.16-0.34-0.31-0.69-0.46-1.05c-0.14-0.35-0.27-0.71-0.39-1.07s-0.23-0.73-0.33-1.1c-0.1-0.36-0.19-0.73-0.27-1.1
				c-0.08-0.38-0.15-0.75-0.2-1.13c-0.06-0.37-0.1-0.75-0.14-1.12c-0.03-0.38-0.05-0.76-0.06-1.14c-0.02-0.38-0.01-0.75,0-1.13
				c0.01-0.38,0.03-0.75,0.07-1.13c0.03-0.38,0.08-0.75,0.14-1.12c0.06-0.38,0.13-0.75,0.21-1.11c0.08-0.37,0.17-0.74,0.28-1.1
				c0.24-0.79,0.53-1.56,0.86-2.31c0.34-0.76,0.72-1.5,1.14-2.22c0.43-0.71,0.9-1.42,1.41-2.1s1.06-1.34,1.64-1.97
				c0.59-0.64,1.21-1.26,1.87-1.85c0.66-0.6,1.35-1.17,2.07-1.72c0.72-0.54,1.47-1.06,2.25-1.56c0.78-0.5,1.58-0.97,2.41-1.41
				s1.68-0.85,2.55-1.24c0.87-0.39,1.76-0.74,2.67-1.07c0.91-0.32,1.84-0.62,2.77-0.88c0.94-0.27,1.9-0.5,2.86-0.7
				c0.96-0.19,1.93-0.36,2.91-0.49s1.96-0.22,2.95-0.28s1.98-0.08,2.97-0.06c0.98,0.01,1.94,0.07,2.92,0.16
				c0.47,0.08,1,0.17,1.47,0.27c0.47,0.1,0.93,0.21,1.39,0.33c0.47,0.12,0.92,0.24,1.38,0.38c0.45,0.14,0.9,0.28,1.35,0.43
				c0.44,0.16,0.88,0.32,1.32,0.49c0.43,0.17,0.86,0.35,1.28,0.54c0.43,0.19,0.85,0.38,1.26,0.59c0.41,0.2,0.81,0.41,1.21,0.63
				c0.4,0.22,0.79,0.45,1.18,0.69c0.38,0.23,0.76,0.48,1.13,0.73s0.73,0.51,1.08,0.78c0.35,0.26,0.7,0.54,1.03,0.82
				c0.34,0.28,0.67,0.57,0.98,0.87c0.32,0.29,0.63,0.6,0.93,0.91c0.29,0.31,0.58,0.62,0.86,0.95c0.28,0.32,0.54,0.65,0.8,0.99
				c0.24,0.31,0.48,0.62,0.7,0.94c0.22,0.32,0.43,0.65,0.64,0.98c0.2,0.33,0.39,0.67,0.57,1.02c0.18,0.34,0.34,0.69,0.5,1.05
				c0.16,0.35,0.31,0.71,0.44,1.07c0.14,0.37,0.26,0.74,0.38,1.11c0.11,0.37,0.21,0.74,0.3,1.12c0.1,0.37,0.18,0.75,0.25,1.14
				c0.06,0.38,0.12,0.76,0.17,1.14c0.04,0.39,0.08,0.77,0.1,1.16c0.02,0.39,0.04,0.77,0.04,1.16S534.37,30.531,534.35,30.921z"/>
			<linearGradient id="SVGID_4_" gradientUnits="userSpaceOnUse" x1="464.0378" y1="33.3073" x2="544.2835" y2="33.3073">
				<stop  offset="0" style="stop-color:#FFF78F"/>
				<stop  offset="0.0543" style="stop-color:#FFF38B"/>
				<stop  offset="0.1096" style="stop-color:#FFEB7F"/>
				<stop  offset="0.1653" style="stop-color:#FFE16C"/>
				<stop  offset="0.221" style="stop-color:#FFD24D"/>
				<stop  offset="0.24" style="stop-color:#FFCC40"/>
				<stop  offset="0.3417" style="stop-color:#FEBE2D"/>
				<stop  offset="0.463" style="stop-color:#FCB31C"/>
				<stop  offset="0.5626" style="stop-color:#FCAF17"/>
				<stop  offset="0.8368" style="stop-color:#FFCC40"/>
				<stop  offset="0.858" style="stop-color:#FFD758"/>
				<stop  offset="0.8893" style="stop-color:#FFE471"/>
				<stop  offset="0.9222" style="stop-color:#FFED82"/>
				<stop  offset="0.9577" style="stop-color:#FFF38C"/>
				<stop  offset="1" style="stop-color:#FFF78F"/>
			</linearGradient>
			<path class="st5" d="M520.27,3.991c-1.89-0.51-3.87-0.98-5.8-1.29c-2.63-0.42-5.21-0.6-7.88-0.61c-2.68-0.01-5.36,0.2-8.01,0.61
				c-4.87,0.76-9.62,2.21-13.96,4.25c-2.25,1.05-4.38,2.27-6.37,3.63c-1.85,1.26-3.58,2.66-5.14,4.17c-0.89,0.85-1.72,1.74-2.5,2.67
				c3.08-2.98,6.68-5.56,10.63-7.67c1.4-0.91,2.89-1.76,4.43-2.52c1.69-0.83,3.44-1.57,5.26-2.2c2.57-0.9,5.25-1.61,8-2.08
				c3.93-0.68,7.95-0.76,11.98-0.46c1.3,0.1,2.61,0.21,3.89,0.48c1.74,0.36,3.47,0.72,5.21,1.09c0.2,0.06,0.4,0.12,0.59,0.19
				c0.74,0.18,1.46,0.36,2.18,0.57c0.2,0.05,0.39,0.11,0.58,0.18C522.35,4.621,521.32,4.291,520.27,3.991z M544.26,30.111
				c-0.08-1.83-0.37-3.64-0.86-5.41c-0.33-1.19-0.74-2.35-1.24-3.48v-0.01c-0.32-0.73-0.67-1.45-1.06-2.15
				c-0.09-0.17-0.19-0.34-0.29-0.5c-0.01,0-0.01-0.01-0.01-0.01c-0.93-1.59-2.04-3.1-3.3-4.48c-1.45-1.58-3.09-3.01-4.89-4.29
				c-1.8-1.28-3.75-2.4-5.82-3.37c-0.11-0.05-0.22-0.1-0.33-0.15c-1-0.46-2.04-0.89-3.1-1.26c-0.19-0.07-0.38-0.13-0.58-0.18
				c-0.72-0.21-1.44-0.39-2.18-0.57c0.09,0.03,0.18,0.06,0.27,0.09c0.12,0.04,0.23,0.07,0.34,0.11c0.33,0.11,0.65,0.22,0.96,0.34
				c0.09,0.03,0.17,0.06,0.26,0.1h0.01c1.3,0.48,2.55,1.03,3.76,1.64c1.95,0.98,3.78,2.12,5.44,3.39c1.66,1.28,3.16,2.7,4.46,4.25
				c0.59,0.71,1.14,1.45,1.64,2.22v0.01c0.45,0.71,0.86,1.42,1.23,2.17v0.01c0.04,0.09,0.09,0.17,0.13,0.26
				c0.8,1.67,1.39,3.44,1.76,5.24c0.24,1.16,0.39,2.34,0.43,3.51c0.03,0.66,0.03,1.32,0,1.98c0,0.07-0.01,0.13-0.01,0.2v0.01
				c-0.1,1.76-0.43,3.5-0.98,5.19c-0.25,0.76-0.55,1.51-0.88,2.24c-0.25,0.56-0.53,1.1-0.83,1.64c-1.02,1.89-2.31,3.67-3.81,5.32
				c-0.31,0.34-0.63,0.67-0.95,0.99c-0.03,0.03-0.07,0.07-0.1,0.1c-3,3-6.72,5.54-10.87,7.49c-4.14,1.94-8.71,3.31-13.4,3.99
				c-1.77,0.25-3.56,0.41-5.35,0.46h-0.05c-1.3,0.03-2.6,0.01-3.9-0.06h-0.06c-0.04,0-0.08-0.01-0.12-0.01
				c-1.57-0.1-3.14-0.28-4.68-0.56c-2.25-0.3-4.46-0.77-6.6-1.4c-2.13-0.63-4.18-1.42-6.11-2.36c-1.08-0.53-2.13-1.11-3.13-1.74
				c-0.78-0.48-1.54-1-2.26-1.55c-0.02-0.02-0.05-0.04-0.07-0.06c-1.34-1.01-2.57-2.12-3.66-3.33c-0.23-0.25-0.45-0.5-0.67-0.76
				c-0.58-0.69-1.11-1.41-1.59-2.16c-0.53-0.8-0.99-1.63-1.4-2.48c-0.43-0.9-0.8-1.81-1.1-2.75c0-0.01,0-0.01,0-0.01
				c-0.25-0.79-0.46-1.59-0.62-2.4c-0.12-0.6-0.22-1.2-0.27-1.81c0,0-0.01-0.01,0-0.01c-0.15-1.19-0.19-2.38-0.12-3.57
				c0.06-1.22,0.23-2.44,0.52-3.63c0.13-0.57,0.29-1.13,0.48-1.68c0.39-1.18,0.89-2.33,1.47-3.45v-0.01
				c1.26-2.39,2.92-4.62,4.91-6.65c1.8-1.84,3.88-3.52,6.16-5.01c1.4-0.91,2.89-1.76,4.43-2.52c1.69-0.83,3.44-1.57,5.26-2.2
				c-2.65,0.78-5.22,1.74-7.66,2.87c-1.74,0.81-3.42,1.7-5.02,2.68c-1.85,1.26-3.58,2.66-5.14,4.17c-0.89,0.85-1.72,1.74-2.5,2.67
				c-2.07,2.47-3.75,5.2-4.91,8.15c-0.1,0.27-0.2,0.53-0.3,0.8v0.01c-0.58,1.68-0.97,3.41-1.19,5.17c-0.01,0.06-0.01,0.11-0.02,0.17
				c-0.22,1.99-0.2,4.02,0.05,6.01c0.02,0.18,0.04,0.34,0.08,0.52v0.01c0.22,1.59,0.6,3.15,1.12,4.68c0.09,0.28,0.2,0.56,0.3,0.84
				c0.54,1.41,1.2,2.78,1.98,4.09c0.31,0.51,0.64,1.01,0.98,1.5c0.46,0.66,0.96,1.3,1.48,1.92c0.96,1.13,2.01,2.21,3.14,3.22
				c0.02,0.02,0.04,0.04,0.06,0.06c0.82,0.72,1.68,1.42,2.58,2.06c1.07,0.79,2.18,1.52,3.35,2.2c2.16,1.26,4.48,2.34,6.93,3.24
				c2.44,0.89,5.01,1.6,7.66,2.1c2.77,0.32,5.57,0.42,8.36,0.31c2.79-0.12,5.56-0.45,8.29-0.99c2.72-0.53,5.4-1.28,7.99-2.22
				c2.58-0.94,5.08-2.08,7.46-3.4c2.22-1.25,4.31-2.68,6.21-4.24c1.87-1.54,3.57-3.21,5.05-4.99c0.03-0.03,0.06-0.07,0.09-0.1
				c0.36-0.43,0.7-0.86,1.03-1.3c1.08-1.42,2.03-2.9,2.84-4.42c0.15-0.29,0.3-0.58,0.43-0.87c0.35-0.69,0.65-1.39,0.92-2.09
				c0.42-1.05,0.76-2.12,1.03-3.19c0.33-1.31,0.54-2.62,0.63-3.95v-0.01c0.05-0.68,0.06-1.37,0.05-2.05
				C544.28,30.481,544.27,30.291,544.26,30.111z"/>
			<linearGradient id="SVGID_5_" gradientUnits="userSpaceOnUse" x1="459.7232" y1="39.002" x2="550.0614" y2="39.002">
				<stop  offset="0" style="stop-color:#8ED8F8"/>
				<stop  offset="0.0621" style="stop-color:#8AD2F5"/>
				<stop  offset="0.1252" style="stop-color:#7EC7EF"/>
				<stop  offset="0.1889" style="stop-color:#69B7E6"/>
				<stop  offset="0.2529" style="stop-color:#4CA2D9"/>
				<stop  offset="0.3167" style="stop-color:#158ACB"/>
				<stop  offset="0.3368" style="stop-color:#0082C6"/>
				<stop  offset="0.4472" style="stop-color:#0077BF"/>
				<stop  offset="0.5518" style="stop-color:#006CB7"/>
				<stop  offset="0.6668" style="stop-color:#0079C0"/>
				<stop  offset="0.7615" style="stop-color:#0082C6"/>
				<stop  offset="0.7885" style="stop-color:#3293D1"/>
				<stop  offset="0.8255" style="stop-color:#57A9DE"/>
				<stop  offset="0.8641" style="stop-color:#6FBBE8"/>
				<stop  offset="0.9045" style="stop-color:#80CAF0"/>
				<stop  offset="0.948" style="stop-color:#8BD3F5"/>
				<stop  offset="1" style="stop-color:#8ED8F8"/>
			</linearGradient>
			<path class="st6" d="M523.36,5.001c-0.19-0.07-0.38-0.13-0.58-0.18c-0.72-0.21-1.44-0.39-2.18-0.57
				c0.09,0.03,0.18,0.06,0.27,0.09c0.12,0.04,0.23,0.07,0.34,0.11c0.33,0.1,0.65,0.21,0.96,0.34c0.09,0.03,0.17,0.06,0.26,0.1h0.01
				c0.2,0.05,0.39,0.11,0.58,0.17c1.17,0.36,2.31,0.76,3.44,1.2C525.46,5.801,524.42,5.371,523.36,5.001z M549.5,30.851
				c-0.09-0.44-0.2-0.88-0.31-1.32c-0.18-0.67-0.39-1.36-0.6-2.02c-0.01-0.02-0.01-0.03-0.02-0.04c-0.47-0.83-0.97-1.63-1.52-2.41
				c-0.22-0.31-0.44-0.62-0.67-0.92c0.33,0.93,0.61,1.88,0.84,2.84c0,0,0,0,0,0.01c0.01,0.06,0.03,0.11,0.04,0.17
				c0.47,2.05,0.68,4.16,0.61,6.25c-0.01,0.26-0.02,0.53-0.04,0.79c-0.06,0.93-0.18,1.86-0.36,2.78c-0.17,0.87-0.39,1.74-0.67,2.59
				c-0.38,1.19-0.84,2.37-1.4,3.51c-0.36,0.76-0.77,1.52-1.21,2.25c-0.09,0.15-0.18,0.3-0.27,0.45c-0.92,1.47-1.97,2.89-3.16,4.24
				c-0.4,0.47-0.83,0.93-1.27,1.39c-0.06,0.06-0.11,0.11-0.17,0.16c-1.66,1.69-3.53,3.27-5.56,4.69c-2.09,1.47-4.36,2.79-6.76,3.91
				c-2.5,1.18-5.13,2.15-7.83,2.92s-5.48,1.33-8.3,1.68c-2.81,0.35-5.65,0.49-8.48,0.41c-2.83-0.08-5.64-0.38-8.39-0.91
				c-2.68-0.32-5.29-0.86-7.81-1.58c-2.52-0.73-4.93-1.64-7.19-2.74c-1.25-0.61-2.45-1.27-3.6-2c-0.94-0.57-1.83-1.19-2.69-1.84
				c-0.07-0.05-0.13-0.1-0.2-0.15c-1.14-0.88-2.21-1.81-3.19-2.8c-0.61-0.61-1.18-1.24-1.72-1.89c-0.36-0.43-0.71-0.88-1.04-1.34
				c-0.92-1.27-1.7-2.63-2.35-4.04c-0.04-0.08-0.07-0.15-0.1-0.23c0,0,0,0,0-0.01c-0.65-1.44-1.15-2.92-1.5-4.44
				c-0.1-0.43-0.19-0.86-0.27-1.29c-0.26-1.41-0.39-2.85-0.39-4.27c0-0.65,0.02-1.29,0.07-1.93c0.07-0.98,0.21-1.95,0.4-2.92
				c-0.7,1.25-1.31,2.54-1.82,3.87c-0.09,0.24-0.18,0.47-0.26,0.71c-0.16,0.78-0.27,1.56-0.36,2.34c-0.13,1.19-0.18,2.38-0.16,3.58
				c0,0.01,0,0.01,0,0.01c0.01,1.17,0.1,2.33,0.24,3.5c0.1,0.74,0.22,1.47,0.37,2.2c0.33,1.6,0.79,3.18,1.38,4.71
				c0.08,0.22,0.17,0.43,0.27,0.64c0,0,0,0,0,0.01c0.59,1.47,1.31,2.88,2.15,4.23c0.3,0.5,0.63,0.99,0.97,1.47
				c0.66,0.92,1.38,1.82,2.15,2.68c0.86,0.99,1.79,1.93,2.78,2.83c0.14,0.13,0.28,0.25,0.42,0.38c1.08,0.95,2.21,1.85,3.41,2.69
				c1.05,0.76,2.16,1.47,3.3,2.14c2.43,1.43,5.04,2.66,7.78,3.68c2.4,0.89,4.89,1.62,7.46,2.17c0.01,0,0.02,0,0.03,0.01
				c0.35,0.08,0.71,0.15,1.07,0.22c0.41,0.05,0.83,0.1,1.25,0.13h0.01c2.66,0.27,5.35,0.34,8.03,0.24c3.11-0.13,6.2-0.5,9.25-1.11
				c3.04-0.6,6.03-1.44,8.92-2.51c2.9-1.06,5.69-2.35,8.34-3.85c2.5-1.43,4.85-3.05,7.01-4.84c1.98-1.65,3.8-3.43,5.42-5.32
				c0.14-0.16,0.28-0.33,0.42-0.49c0.5-0.6,0.98-1.22,1.44-1.84c1.12-1.52,2.12-3.1,2.98-4.72c0.02-0.04,0.05-0.09,0.07-0.13
				c0.49-0.95,0.93-1.91,1.32-2.88c0.55-1.34,1-2.7,1.34-4.08c0.16-0.69,0.3-1.38,0.4-2.07v-0.01c0.18-1.11,0.29-2.22,0.33-3.34
				c0.02-0.52,0.03-1.05,0.02-1.57C550.12,34.591,549.9,32.701,549.5,30.851z M463.32,27.001c0.42-0.7,0.69-1.19,0.88-1.52
				c0.02-0.05,0.05-0.11,0.07-0.16C463.94,25.871,463.62,26.431,463.32,27.001z M522.17,4.791c-0.31-0.12-0.63-0.23-0.96-0.34
				c-0.11-0.04-0.22-0.07-0.34-0.11c-0.11-0.03-0.23-0.06-0.34-0.09c-1.39-0.34-2.8-0.54-4.21-0.78c-1.47-0.26-2.96-0.43-4.44-0.56
				c-1.47-0.12-2.94-0.18-4.41-0.19c-1.49-0.01-2.98,0.04-4.46,0.14c-1.47,0.1-2.93,0.26-4.39,0.48c-2.62,0.39-5.19,0.96-7.69,1.69
				c-1.82,0.63-3.57,1.37-5.26,2.2c-1.54,0.76-3.03,1.61-4.43,2.52c0.46-0.26,0.93-0.5,1.41-0.74c4.87-2.45,10.22-4.22,15.74-5.21
				c1.28-0.23,2.56-0.42,3.85-0.56c1.51-0.17,3.03-0.28,4.54-0.33c1.52-0.05,3.03,0.03,4.54,0.11c0.75,0.04,1.5,0.08,2.25,0.18
				c0.77,0.1,1.54,0.2,2.3,0.31c1.49,0.19,2.97,0.44,4.42,0.79c0.37,0.09,0.73,0.18,1.09,0.28c0.34,0.1,0.72,0.17,1.05,0.31
				C522.34,4.851,522.26,4.821,522.17,4.791z M464.28,25.311c0.01-0.02,0.03-0.05,0.05-0.07c0.02-0.05,0.05-0.09,0.07-0.13
				c0.06-0.12,0.1-0.21,0.12-0.27C464.43,24.991,464.35,25.151,464.28,25.311z M483.27,7.901c-1.74,0.81-3.42,1.7-5.02,2.68
				c-1.85,1.26-3.58,2.66-5.14,4.17c-0.89,0.85-1.72,1.74-2.5,2.67c3.08-2.98,6.68-5.56,10.63-7.67c1.4-0.91,2.89-1.76,4.43-2.52
				c1.69-0.83,3.44-1.57,5.26-2.2C488.28,5.811,485.71,6.771,483.27,7.901z M523.36,5.001c-0.19-0.07-0.38-0.13-0.58-0.18
				c-0.72-0.21-1.44-0.39-2.18-0.57c0.09,0.03,0.18,0.06,0.27,0.09c0.12,0.04,0.23,0.07,0.34,0.11c0.33,0.1,0.65,0.21,0.96,0.34
				c0.09,0.03,0.17,0.06,0.26,0.1h0.01c0.2,0.05,0.39,0.11,0.58,0.17c1.17,0.36,2.31,0.76,3.44,1.2
				C525.46,5.801,524.42,5.371,523.36,5.001z"/>
			<linearGradient id="SVGID_6_" gradientUnits="userSpaceOnUse" x1="460.34" y1="22.9809" x2="478.25" y2="22.9809">
				<stop  offset="0" style="stop-color:#8ED8F8"/>
				<stop  offset="0.0621" style="stop-color:#8AD2F5"/>
				<stop  offset="0.1252" style="stop-color:#7EC7EF"/>
				<stop  offset="0.1889" style="stop-color:#69B7E6"/>
				<stop  offset="0.2529" style="stop-color:#4CA2D9"/>
				<stop  offset="0.3167" style="stop-color:#158ACB"/>
				<stop  offset="0.3368" style="stop-color:#0082C6"/>
				<stop  offset="0.4472" style="stop-color:#0077BF"/>
				<stop  offset="0.5518" style="stop-color:#006CB7"/>
				<stop  offset="0.6668" style="stop-color:#0079C0"/>
				<stop  offset="0.7615" style="stop-color:#0082C6"/>
				<stop  offset="0.7885" style="stop-color:#3293D1"/>
				<stop  offset="0.8255" style="stop-color:#57A9DE"/>
				<stop  offset="0.8641" style="stop-color:#6FBBE8"/>
				<stop  offset="0.9045" style="stop-color:#80CAF0"/>
				<stop  offset="0.948" style="stop-color:#8BD3F5"/>
				<stop  offset="1" style="stop-color:#8ED8F8"/>
			</linearGradient>
			<path class="st7" d="M478.25,10.581c-1.85,1.26-3.58,2.66-5.14,4.17c-0.89,0.85-1.72,1.74-2.5,2.67
				c-0.29,0.27-0.57,0.55-0.85,0.83c-1.744,1.782-3.349,3.717-4.708,5.81c-0.389,0.599-0.66,1.279-0.962,1.926
				c-0.255,0.544-0.51,1.089-0.765,1.633c-0.008,0.017-0.018,0.034-0.024,0.052c-0.37,1.02-0.66,2.06-0.88,3.13
				c-0.7,1.25-1.31,2.54-1.82,3.87c-0.09,0.24-0.18,0.47-0.26,0.71c0.29-1.53,0.71-3.05,1.26-4.51
				c0.454-1.205,0.977-2.371,1.547-3.525c0.571-1.158,0.882-1.93,1.488-3.07c1.169-2.204,3.04-4.605,4.726-6.453
				c0.494-0.542,1.006-1.069,1.53-1.581C473.05,14.131,475.53,12.241,478.25,10.581z"/>
			<linearGradient id="SVGID_7_" gradientUnits="userSpaceOnUse" x1="523.36" y1="16.2359" x2="548.57" y2="16.2359">
				<stop  offset="0" style="stop-color:#8ED8F8"/>
				<stop  offset="0.0621" style="stop-color:#8AD2F5"/>
				<stop  offset="0.1252" style="stop-color:#7EC7EF"/>
				<stop  offset="0.1889" style="stop-color:#69B7E6"/>
				<stop  offset="0.2529" style="stop-color:#4CA2D9"/>
				<stop  offset="0.3167" style="stop-color:#158ACB"/>
				<stop  offset="0.3368" style="stop-color:#0082C6"/>
				<stop  offset="0.4472" style="stop-color:#0077BF"/>
				<stop  offset="0.5518" style="stop-color:#006CB7"/>
				<stop  offset="0.6668" style="stop-color:#0079C0"/>
				<stop  offset="0.7615" style="stop-color:#0082C6"/>
				<stop  offset="0.7885" style="stop-color:#3293D1"/>
				<stop  offset="0.8255" style="stop-color:#57A9DE"/>
				<stop  offset="0.8641" style="stop-color:#6FBBE8"/>
				<stop  offset="0.9045" style="stop-color:#80CAF0"/>
				<stop  offset="0.948" style="stop-color:#8BD3F5"/>
				<stop  offset="1" style="stop-color:#8ED8F8"/>
			</linearGradient>
			<path class="st8" d="M548.57,27.471c-0.47-0.83-0.97-1.63-1.52-2.41c-0.22-0.31-0.44-0.62-0.67-0.92c-0.36-1-0.79-1.99-1.28-2.95
				c-0.266-0.521-0.547-1.034-0.847-1.537c-0.311-0.521-0.635-1.014-1.014-1.487c-0.409-0.51-0.826-1.015-1.245-1.517
				c-0.45-0.539-0.99-1.073-1.499-1.558c-1.12-1.07-2.204-2.091-3.454-3.031c-2.05-1.53-4.27-2.88-6.62-4.05
				c-1.28-0.64-2.61-1.22-3.96-1.75c-1-0.46-2.04-0.89-3.1-1.26c2.28,0.66,4.48,1.49,6.55,2.47c2.26,1.06,4.38,2.3,6.33,3.7
				c1.148,0.835,2.252,1.732,3.292,2.699c0.512,0.476,1.009,0.969,1.489,1.479c0.683,0.726,1.304,1.507,1.955,2.261
				c0.301,0.349,0.592,0.704,0.874,1.069c0.435,0.561,0.849,1.138,1.243,1.729c0.554,0.832,1.068,1.691,1.538,2.573
				C547.39,24.421,548.04,25.931,548.57,27.471z"/>
			<linearGradient id="SVGID_8_" gradientUnits="userSpaceOnUse" x1="458.7383" y1="46.98" x2="552.9625" y2="46.98">
				<stop  offset="0" style="stop-color:#FFF78F"/>
				<stop  offset="0.0543" style="stop-color:#FFF38B"/>
				<stop  offset="0.1096" style="stop-color:#FFEB7F"/>
				<stop  offset="0.1653" style="stop-color:#FFE16C"/>
				<stop  offset="0.221" style="stop-color:#FFD24D"/>
				<stop  offset="0.24" style="stop-color:#FFCC40"/>
				<stop  offset="0.3417" style="stop-color:#FEBE2D"/>
				<stop  offset="0.463" style="stop-color:#FCB31C"/>
				<stop  offset="0.5626" style="stop-color:#FCAF17"/>
				<stop  offset="0.8368" style="stop-color:#FFCC40"/>
				<stop  offset="0.858" style="stop-color:#FFD758"/>
				<stop  offset="0.8893" style="stop-color:#FFE471"/>
				<stop  offset="0.9222" style="stop-color:#FFED82"/>
				<stop  offset="0.9577" style="stop-color:#FFF38C"/>
				<stop  offset="1" style="stop-color:#FFF78F"/>
			</linearGradient>
			<path class="st9" d="M552.96,45.091c0.01,0.76-0.01,1.52-0.07,2.28c-0.03,0.48-0.07,0.95-0.13,1.43c-0.1,0.9-0.25,1.79-0.43,2.7
				c-0.07,0.33-0.15,0.64-0.23,0.97c-0.33,1.28-0.73,2.54-1.22,3.78c-0.09,0.24-0.19,0.48-0.29,0.73c-0.42,0.99-0.89,1.96-1.41,2.93
				c-0.19,0.36-0.39,0.71-0.59,1.07c-0.48,0.83-0.99,1.65-1.54,2.45c-0.54,0.79-1.11,1.56-1.72,2.33c-0.26,0.35-0.54,0.68-0.82,1.02
				c-0.91,1.09-1.88,2.14-2.91,3.15c-0.03,0.03-0.05,0.05-0.08,0.08c-1,0.98-2.06,1.93-3.16,2.84c-1.13,0.93-2.32,1.81-3.55,2.65
				c-1.22,0.84-2.5,1.63-3.81,2.37c-1.38,0.78-2.79,1.49-4.23,2.15s-2.91,1.26-4.4,1.8c-1.5,0.54-3.02,1.02-4.56,1.44
				c-1.53,0.42-3.09,0.79-4.66,1.09c-1.57,0.3-3.15,0.53-4.74,0.71c-1.59,0.18-3.18,0.29-4.78,0.35c-1.59,0.05-3.19,0.04-4.78-0.03
				c-0.94-0.04-1.87-0.11-2.82-0.2c-0.64-0.06-1.29-0.13-1.93-0.21c-0.55-0.11-1.08-0.22-1.63-0.34c-0.02-0.01-0.03-0.01-0.04-0.01
				c-0.94-0.21-1.88-0.44-2.81-0.69c-1.47-0.41-2.92-0.87-4.33-1.4c-1.42-0.52-2.8-1.09-4.15-1.72c-0.81-0.38-1.61-0.78-2.4-1.21
				c-0.52-0.27-1.01-0.55-1.51-0.84c-1.27-0.74-2.48-1.52-3.65-2.36c-0.81-0.58-1.59-1.18-2.36-1.82c-0.33-0.27-0.65-0.54-0.97-0.82
				c-0.55-0.49-1.09-0.99-1.61-1.51c-0.47-0.45-0.92-0.92-1.36-1.4c-0.93-1.02-1.79-2.08-2.58-3.18c-0.13-0.18-0.26-0.36-0.38-0.55
				c-0.59-0.87-1.13-1.76-1.63-2.68c-0.14-0.27-0.29-0.53-0.43-0.81c-0.43-0.85-0.82-1.72-1.17-2.61c-0.38-0.95-0.71-1.91-0.99-2.89
				c0-0.01-0.01-0.02-0.01-0.03c-0.06-0.21-0.12-0.43-0.18-0.65c-0.33-1.21-0.58-2.43-0.76-3.67c-0.18-1.23-0.29-2.47-0.33-3.72
				c0,0-0.3-5.51,0.25-8.84c0.11-1.12,0.3-2.24,0.55-3.33c0.19-0.85,0.44-1.68,0.72-2.51c0.08-0.24,0.17-0.47,0.26-0.71
				c0.51-1.33,1.12-2.62,1.83-3.9c0.49-0.9,1.04-1.75,1.63-2.6c0.42-0.61,0.87-1.2,1.34-1.8c1.1-1.38,2.31-2.69,3.63-3.92
				c0.37-0.35,0.75-0.7,1.14-1.04c1.57-1.37,3.27-2.65,5.08-3.82c1.84-1.2,3.79-2.29,5.84-3.26c0.45-0.23,0.91-0.44,1.38-0.65
				c2.55-1.13,5.23-2.09,7.99-2.87c0.91-0.25,1.82-0.49,2.75-0.69c1.89-0.45,3.81-0.8,5.75-1.06c2.89-0.38,5.83-0.57,8.76-0.54
				c2.94,0.03,5.88,0.27,8.78,0.75c-2.91-0.31-5.86-0.39-8.8-0.25c-2.95,0.15-5.89,0.51-8.78,1.08c-2.89,0.57-5.74,1.34-8.51,2.31
				c-1.9,0.66-3.74,1.41-5.55,2.25c-0.82,0.37-1.63,0.77-2.43,1.19c-2.55,1.32-4.98,2.82-7.23,4.47c-0.22,0.16-0.43,0.32-0.65,0.5
				c-2.01,1.51-3.88,3.17-5.58,4.93c-0.25,0.26-0.5,0.53-0.75,0.8c-1.49,1.64-2.85,3.36-4.03,5.17c-0.07,0.1-0.13,0.21-0.2,0.31
				c-0.75,1.17-1.43,2.38-2.04,3.62c-0.54,1.12-1.03,2.26-1.45,3.42c-0.26,0.74-0.49,1.48-0.68,2.24c-0.13,0.45-0.23,0.9-0.33,1.35
				c-0.597,2.685-0.369,5.236,0.32,7.92c0.06,0.24,0.13,0.47,0.2,0.71c0.31,1.09,0.7,2.16,1.15,3.21c0.17,0.38,0.35,0.76,0.54,1.14
				c0.31,0.65,0.66,1.28,1.03,1.9c0.35,0.58,0.72,1.14,1.12,1.7c0.27,0.38,0.55,0.76,0.85,1.13c0.78,0.97,1.61,1.9,2.51,2.78
				c0.02,0.02,0.03,0.03,0.05,0.05c0.85,0.83,1.74,1.61,2.69,2.36c0.08,0.07,0.17,0.13,0.25,0.2c1.04,0.8,2.13,1.56,3.27,2.27
				c0.21,0.13,0.42,0.26,0.63,0.37c0.95,0.58,1.93,1.11,2.94,1.61c1.23,0.61,2.51,1.17,3.82,1.67c1.32,0.51,2.67,0.96,4.05,1.36
				c1.38,0.4,2.79,0.74,4.22,1.03c1.11,0.22,2.24,0.41,3.37,0.57c0.01,0,0.02,0,0.03,0.01c0.32,0.04,0.65,0.08,0.97,0.12
				c0.45,0.08,0.9,0.16,1.36,0.23c1.09,0.18,2.18,0.33,3.28,0.45c1.56,0.17,3.12,0.27,4.69,0.32c1.56,0.04,3.13,0.03,4.69-0.04
				s3.12-0.21,4.67-0.4c1.54-0.19,3.08-0.44,4.6-0.74c1.52-0.31,3.03-0.68,4.51-1.1c1.49-0.42,2.95-0.9,4.38-1.44
				c1.44-0.54,2.85-1.13,4.22-1.78c1.3-0.61,2.56-1.28,3.79-1.99c1.22-0.72,2.4-1.48,3.53-2.29c1.13-0.8,2.22-1.65,3.25-2.54
				c0.7-0.61,1.38-1.24,2.03-1.89c0.3-0.29,0.6-0.59,0.89-0.89c0.5-0.53,0.99-1.07,1.45-1.62c0.38-0.45,0.75-0.91,1.11-1.37
				c0.75-0.96,1.43-1.96,2.05-2.98c0.04-0.06,0.07-0.12,0.11-0.18c0.56-0.93,1.07-1.88,1.52-2.85c0.07-0.15,0.14-0.31,0.21-0.46
				c0.5-1.13,0.92-2.28,1.26-3.44c0.15-0.48,0.27-0.97,0.38-1.45c0.15-0.62,0.26-1.24,0.35-1.86c0.08-0.51,0.14-1.02,0.18-1.54
				c0.06-0.61,0.08-1.22,0.09-1.83c0.02-1.238-0.065-2.51-0.274-3.741c-0.212-1.251-0.596-2.434-1.045-3.617
				c-0.374-0.983-0.8-1.947-1.281-2.882c-0.02-0.04-0.04-0.08-0.06-0.12c-0.56-1.11-1.19-2.2-1.88-3.24
				c-0.11-0.17-0.22-0.34-0.34-0.51c-0.6-0.87-1.24-1.71-1.92-2.51c-0.85-1-1.76-1.96-2.72-2.87c-0.14-0.13-0.28-0.26-0.42-0.39
				c-0.84-0.78-1.71-1.52-2.63-2.22c-0.19-0.14-0.37-0.29-0.56-0.42c-0.89-0.68-1.81-1.32-2.76-1.92c-1.16-0.74-2.35-1.43-3.58-2.07
				c-1.24-0.64-2.5-1.23-3.8-1.78c-1.17-0.49-2.37-0.93-3.59-1.34c-0.13-0.05-0.26-0.1-0.39-0.14c-1.35-0.44-2.72-0.84-4.12-1.18
				c-0.25-0.06-0.5-0.12-0.76-0.17c-1.14-0.27-2.3-0.5-3.47-0.7c0.89,0.09,1.77,0.21,2.65,0.35c0.52,0.08,1.03,0.16,1.54,0.26
				c0.8,0.14,1.57,0.31,2.36,0.49c0.58,0.13,1.16,0.28,1.73,0.43c1.33,0.35,2.65,0.76,3.93,1.22c1.28,0.45,2.54,0.96,3.75,1.51
				c1.22,0.56,2.4,1.16,3.53,1.8c0.6,0.34,1.18,0.69,1.75,1.07c0.52,0.32,1.03,0.66,1.53,1.01c0.52,0.37,1.03,0.75,1.54,1.15
				c0.49,0.39,0.97,0.79,1.44,1.2c0.94,0.83,1.83,1.7,2.65,2.61c0.52,0.57,1.01,1.16,1.48,1.77c0.23,0.3,0.45,0.61,0.67,0.92
				c0.55,0.78,1.05,1.58,1.52,2.41c0.01,0.01,0.01,0.02,0.02,0.04c0.09,0.15,0.18,0.31,0.26,0.47c0.54,1.01,1.01,2.06,1.42,3.12
				c0.949,2.452,1.506,5.054,1.996,7.631C552.667,40.843,552.96,42.936,552.96,45.091z"/>
			<linearGradient id="SVGID_9_" gradientUnits="userSpaceOnUse" x1="459.6669" y1="55.1861" x2="553.0703" y2="55.1861">
				<stop  offset="0" style="stop-color:#8ED8F8"/>
				<stop  offset="0.0621" style="stop-color:#8AD2F5"/>
				<stop  offset="0.1252" style="stop-color:#7EC7EF"/>
				<stop  offset="0.1889" style="stop-color:#69B7E6"/>
				<stop  offset="0.2529" style="stop-color:#4CA2D9"/>
				<stop  offset="0.3167" style="stop-color:#158ACB"/>
				<stop  offset="0.3368" style="stop-color:#0082C6"/>
				<stop  offset="0.4472" style="stop-color:#0077BF"/>
				<stop  offset="0.5518" style="stop-color:#006CB7"/>
				<stop  offset="0.6668" style="stop-color:#0079C0"/>
				<stop  offset="0.7615" style="stop-color:#0082C6"/>
				<stop  offset="0.7885" style="stop-color:#3293D1"/>
				<stop  offset="0.8255" style="stop-color:#57A9DE"/>
				<stop  offset="0.8641" style="stop-color:#6FBBE8"/>
				<stop  offset="0.9045" style="stop-color:#80CAF0"/>
				<stop  offset="0.948" style="stop-color:#8BD3F5"/>
				<stop  offset="1" style="stop-color:#8ED8F8"/>
			</linearGradient>
			<path class="st10" d="M517.3,18.671c-0.12-0.01-0.22-0.02-0.34-0.03h-0.01c-5.62-0.53-11.33-0.17-16.87,0.97
				c-3.57,0.73-7.06,1.79-10.39,3.13c-1.94,0.78-3.82,1.66-5.64,2.63c-1.54,0.82-3.03,1.71-4.46,2.68c0,0-0.01,0-0.01,0.01
				c-1.72,1.11-3.35,2.35-4.88,3.68c-1.28,1.08-2.48,2.23-3.61,3.44c-0.12,0.13-0.24,0.26-0.36,0.39c-0.7,0.78-1.38,1.58-2.02,2.4
				c0,0,0,0,0,0.01c-1.23,1.58-2.33,3.23-3.27,4.96c-0.48,0.88-0.93,1.79-1.33,2.71c0,0.01,0,0.01,0,0.01
				c-0.38,0.86-0.71,1.73-1.01,2.61c-0.44,1.34-0.78,2.7-1.02,4.09c0,0,0,0,0,0.01c-0.17,0.97-0.29,1.95-0.36,2.93
				c-0.01,0.11-0.02,0.22-0.02,0.34c-0.14,2.27-0.02,4.57,0.35,6.83c0.06,0.39,0.13,0.77,0.21,1.16l0.01,0.01
				c0.18,0.91,0.4,1.81,0.67,2.7c-0.45-0.82-0.85-1.67-1.2-2.53c-0.75-1.84-1.3-3.74-1.64-5.68c0-0.01-0.01-0.02-0.01-0.03
				c-0.05-0.32-0.1-0.64-0.15-0.96c-0.31-2.17-0.36-4.38-0.13-6.56c0-0.01,0-0.01,0-0.02c0.01-0.09,0.02-0.18,0.03-0.27
				c0.13-1.1,0.32-2.2,0.59-3.28c0.28-1.14,0.63-2.25,1.07-3.34c0.33-0.83,0.7-1.65,1.11-2.46c0.51-1.01,1.08-1.99,1.71-2.95v-0.01
				c1.02-1.57,2.19-3.07,3.5-4.49c0,0,0,0,0-0.01c0.71-0.78,1.47-1.54,2.26-2.27c0.18-0.17,0.36-0.33,0.54-0.47
				c1.47-1.34,3.06-2.57,4.74-3.7c2.53-1.72,5.28-3.22,8.19-4.5c0.41-0.18,0.81-0.35,1.23-0.51c3.88-1.6,8.02-2.8,12.29-3.54h0.01
				c0.95-0.17,1.9-0.32,2.87-0.44c5.58-0.71,11.32-0.65,16.91,0.28c0.01,0,0.02,0,0.03,0.01
				C517.03,18.621,517.16,18.641,517.3,18.671z M550.51,61.491c-0.38,0.78-0.79,1.56-1.23,2.32c-0.38,0.66-0.79,1.32-1.23,1.96
				c-1.01,1.49-2.16,2.93-3.42,4.31c-0.04,0.04-0.07,0.08-0.12,0.12c-1.62,1.74-3.42,3.38-5.39,4.89c-0.2,0.15-0.41,0.31-0.62,0.46
				c-2.25,1.66-4.7,3.15-7.3,4.42c-2.77,1.38-5.69,2.51-8.71,3.41c-3.01,0.9-6.11,1.55-9.26,1.97c-3.15,0.41-6.35,0.58-9.54,0.5
				c-2.56-0.06-5.12-0.28-7.65-0.67c-0.01,0-0.01,0-0.01,0c-0.61-0.09-1.22-0.2-1.83-0.31c-0.58-0.07-1.16-0.15-1.73-0.24
				c-0.02-0.01-0.03-0.01-0.04-0.01c-2.38-0.37-4.7-0.91-6.95-1.59c-1.91-0.57-3.76-1.25-5.53-2.04c-0.83-0.35-1.63-0.74-2.42-1.14
				c-1.99-1.02-3.87-2.18-5.6-3.45c-0.43-0.32-0.86-0.65-1.27-0.98c-0.4-0.32-0.8-0.66-1.18-1c-1.59-1.4-3.03-2.91-4.28-4.55
				c-0.08-0.11-0.17-0.22-0.25-0.34c-0.75-1.02-1.42-2.08-2.01-3.19c0.31,1.04,0.67,2.07,1.09,3.08c0.93,2.24,2.12,4.38,3.57,6.35
				c0.68,0.92,1.4,1.8,2.18,2.65c0,0.01,0.01,0.02,0.02,0.03c1,1.09,2.06,2.13,3.2,3.11c1.34,1.16,2.77,2.23,4.28,3.21
				c0.79,0.53,1.6,1.03,2.43,1.5c0.23,0.13,0.47,0.26,0.7,0.38c2.22,1.22,4.57,2.26,7,3.13c1.42,0.5,2.87,0.94,4.34,1.32
				c0.05,0.01,0.1,0.02,0.14,0.03c1.28,0.33,2.59,0.61,3.91,0.84c1.12,0.16,2.24,0.29,3.37,0.37c1.88,0.16,3.77,0.22,5.66,0.18
				c3.03-0.06,6.06-0.36,9.04-0.89c2.99-0.53,5.94-1.29,8.79-2.29c2.85-0.99,5.61-2.22,8.24-3.67c2.52-1.4,4.9-3.01,7.08-4.78
				c0.48-0.39,0.95-0.79,1.41-1.2c1.64-1.44,3.16-2.97,4.53-4.59c0.27-0.32,0.54-0.65,0.8-0.98c1.44-1.79,2.7-3.67,3.76-5.61
				c0.21-0.38,0.41-0.76,0.6-1.15c0.98-1.94,1.75-3.94,2.32-5.99c0.42-1.54,0.71-3.1,0.87-4.67c-0.02,0.09-0.05,0.18-0.07,0.27
				C551.78,58.511,551.21,60.011,550.51,61.491z M552.89,47.371c-0.15-1.32-0.39-2.62-0.73-3.9c-0.05-0.18-0.1-0.36-0.15-0.54
				c0,0,0,0,0-0.01c-0.47-1.67-1.1-3.3-1.88-4.87c-0.16-0.32-0.33-0.64-0.5-0.96c-0.54-1-1.15-1.97-1.8-2.89
				c-0.69-0.96-1.43-1.87-2.23-2.73c-0.43-0.46-0.88-0.92-1.34-1.36c-0.93-0.88-1.92-1.73-2.97-2.52c-0.45-0.34-0.91-0.68-1.38-1
				c-1.1-0.76-2.26-1.48-3.46-2.13c-1.08-0.61-2.2-1.17-3.35-1.68h-0.01c-2.42-1.08-4.98-1.97-7.63-2.66
				c-1.56-0.41-3.16-0.74-4.77-0.99c-1.12-0.2-2.25-0.35-3.39-0.46c1.52,0.27,3.03,0.61,4.51,1c1.25,0.33,2.47,0.7,3.68,1.11
				c2.64,0.9,5.18,2,7.57,3.29c0.19,0.1,0.37,0.2,0.56,0.32c1.15,0.62,2.26,1.31,3.33,2.04c0.97,0.64,1.91,1.33,2.81,2.06
				c0.52,0.42,1.03,0.85,1.52,1.28v0.01c1.04,0.93,2.02,1.9,2.95,2.93v0.01c0.37,0.41,0.72,0.83,1.07,1.25
				c0.78,0.96,1.51,1.96,2.17,3.01c0.65,1.02,1.24,2.08,1.76,3.16c0.2,0.41,0.39,0.83,0.57,1.25c0,0,0.01,0,0,0.01
				c0.7,1.59,1.27,3.24,1.68,4.92c0.06,0.23,0.12,0.45,0.17,0.68c0.34,1.48,0.56,2.97,0.68,4.48c0,0,0,0.01,0,0.02
				c0.07,0.89,0.1,1.79,0.09,2.69c-0.01,0.84-0.06,1.67-0.15,2.51c0.55-2.12,0.81-4.29,0.8-6.47
				C553.06,49.281,553,48.321,552.89,47.371z"/>
			<linearGradient id="SVGID_10_" gradientUnits="userSpaceOnUse" x1="478.84" y1="87.3914" x2="539.95" y2="87.3914">
				<stop  offset="0" style="stop-color:#FFF78F"/>
				<stop  offset="0.0543" style="stop-color:#FFF38B"/>
				<stop  offset="0.1096" style="stop-color:#FFEB7F"/>
				<stop  offset="0.1653" style="stop-color:#FFE16C"/>
				<stop  offset="0.221" style="stop-color:#FFD24D"/>
				<stop  offset="0.24" style="stop-color:#FFCC40"/>
				<stop  offset="0.3417" style="stop-color:#FEBE2D"/>
				<stop  offset="0.463" style="stop-color:#FCB31C"/>
				<stop  offset="0.5626" style="stop-color:#FCAF17"/>
				<stop  offset="0.8368" style="stop-color:#FFCC40"/>
				<stop  offset="0.858" style="stop-color:#FFD758"/>
				<stop  offset="0.8893" style="stop-color:#FFE471"/>
				<stop  offset="0.9222" style="stop-color:#FFED82"/>
				<stop  offset="0.9577" style="stop-color:#FFF38C"/>
				<stop  offset="1" style="stop-color:#FFF78F"/>
			</linearGradient>
			<path class="st11" d="M530.6,86.771c3.46-1.78,6.62-3.97,9.35-6.44c-3.15,3.28-7.02,6.11-11.31,8.34
				c-9.17,4.78-20.29,6.9-30.74,5.2c-5.1-0.8-9.98-2.42-14.28-4.76c-1.69-0.92-3.29-1.95-4.78-3.09c0.47,0.28,0.96,0.56,1.45,0.82
				c4.66,2.5,10.01,4.23,15.61,5.03c5.95,1.05,12.05,1.1,17.95,0.22C519.75,91.221,525.45,89.421,530.6,86.771z"/>
			<linearGradient id="SVGID_11_" gradientUnits="userSpaceOnUse" x1="463.7389" y1="57.0444" x2="550.6598" y2="57.0444">
				<stop  offset="0" style="stop-color:#FFF78F"/>
				<stop  offset="0.0543" style="stop-color:#FFF38B"/>
				<stop  offset="0.1096" style="stop-color:#FFEB7F"/>
				<stop  offset="0.1653" style="stop-color:#FFE16C"/>
				<stop  offset="0.221" style="stop-color:#FFD24D"/>
				<stop  offset="0.24" style="stop-color:#FFCC40"/>
				<stop  offset="0.3417" style="stop-color:#FEBE2D"/>
				<stop  offset="0.463" style="stop-color:#FCB31C"/>
				<stop  offset="0.5626" style="stop-color:#FCAF17"/>
				<stop  offset="0.8368" style="stop-color:#FFCC40"/>
				<stop  offset="0.858" style="stop-color:#FFD758"/>
				<stop  offset="0.8893" style="stop-color:#FFE471"/>
				<stop  offset="0.9222" style="stop-color:#FFED82"/>
				<stop  offset="0.9577" style="stop-color:#FFF38C"/>
				<stop  offset="1" style="stop-color:#FFF78F"/>
			</linearGradient>
			<path class="st12" d="M549.9,64.771c-1.15,4.45-3.55,8.7-6.88,12.46c-0.95,1.08-1.97,2.11-3.07,3.1
				c3.59-3.72,6.27-8.03,7.65-12.76c1.2-4.15,1.3-8.57,0.41-12.82s-2.76-8.33-5.51-11.78c-2.9-3.65-6.67-6.73-11-9.11
				c-2.155-1.184-4.404-2.189-6.724-3.005c-2.378-0.837-4.862-1.569-7.367-1.892c-0.561-0.072-1.126-0.109-1.69-0.156
				c-1.242-0.104-2.46-0.189-3.709-0.183c-1.236,0.006-2.471,0.057-3.703,0.152c-2.461,0.189-4.908,0.55-7.319,1.074
				c-2.392,0.52-4.75,1.2-7.051,2.035c-2.263,0.822-4.472,1.795-6.601,2.92c-0.116,0.061-0.231,0.123-0.346,0.185
				c-8.92,4.8-15.89,12.03-18.59,20.68c-1.3,4.1-1.53,8.47-0.76,12.69c0.76,4.21,2.51,8.26,5.16,11.71c1.7,2.22,3.74,4.21,6.04,5.95
				c-4.05-2.38-7.49-5.36-10.04-8.85c-2.65-3.6-4.28-7.83-4.84-12.15c-0.56-4.33-0.06-8.75,1.54-12.75
				c3.45-8.6,11.13-15.4,20.56-19.58c2.197-0.97,4.461-1.787,6.768-2.453c2.345-0.677,4.734-1.197,7.147-1.559
				c2.432-0.365,4.888-0.569,7.347-0.605c2.461-0.036,4.925,0.097,7.366,0.41c2.616,0.335,5.245,0.689,7.825,1.245
				c2.466,0.531,4.891,1.252,7.241,2.17c0.692,0.27,1.377,0.559,2.056,0.863c4.49,2.01,8.49,4.71,11.69,8.01
				c2.95,3.2,5.1,7.12,6.24,11.29C550.87,56.221,551,60.621,549.9,64.771z"/>
			<linearGradient id="SVGID_12_" gradientUnits="userSpaceOnUse" x1="469.9151" y1="65.5252" x2="545.403" y2="65.5252">
				<stop  offset="0" style="stop-color:#8ED8F8"/>
				<stop  offset="0.0621" style="stop-color:#8AD2F5"/>
				<stop  offset="0.1252" style="stop-color:#7EC7EF"/>
				<stop  offset="0.1889" style="stop-color:#69B7E6"/>
				<stop  offset="0.2529" style="stop-color:#4CA2D9"/>
				<stop  offset="0.3167" style="stop-color:#158ACB"/>
				<stop  offset="0.3368" style="stop-color:#0082C6"/>
				<stop  offset="0.4472" style="stop-color:#0077BF"/>
				<stop  offset="0.5518" style="stop-color:#006CB7"/>
				<stop  offset="0.6668" style="stop-color:#0079C0"/>
				<stop  offset="0.7615" style="stop-color:#0082C6"/>
				<stop  offset="0.7885" style="stop-color:#3293D1"/>
				<stop  offset="0.8255" style="stop-color:#57A9DE"/>
				<stop  offset="0.8641" style="stop-color:#6FBBE8"/>
				<stop  offset="0.9045" style="stop-color:#80CAF0"/>
				<stop  offset="0.948" style="stop-color:#8BD3F5"/>
				<stop  offset="1" style="stop-color:#8ED8F8"/>
			</linearGradient>
			<path class="st13" d="M544.56,57.881c-1.01-3.68-2.91-7.16-5.56-10.01c-2.75-2.95-6.23-5.35-10.11-7.14
				c-7.776-3.588-17.189-4.794-25.661-3.771c-2.426,0.293-4.829,0.774-7.181,1.435c-2.273,0.639-4.5,1.446-6.648,2.426
				c-8.18,3.73-14.85,9.75-17.9,17.35c-1.4,3.6-1.87,7.55-1.42,11.4c0.45,3.85,1.82,7.6,4.12,10.8c2.5,3.5,5.95,6.48,10.01,8.78
				c4.07,2.3,8.74,3.92,13.69,4.72c5.2,0.8,10.55,0.75,15.71-0.1c5.17-0.85,10.14-2.5,14.59-4.9c4.2-2.25,7.85-5.2,10.7-8.57
				c2.85-3.38,4.9-7.18,5.9-11.13C545.7,65.471,545.57,61.571,544.56,57.881z M541.6,69.771c-2.35,7.35-8.47,13.37-16.17,17.15
				c-7.7,3.77-16.98,5.3-25.63,3.65c-4.2-0.55-8.27-1.8-11.89-3.65c-3.61-1.85-6.76-4.3-9.11-7.25c-2.25-2.8-3.75-6.13-4.44-9.59
				c-0.68-3.46-0.56-7.06,0.44-10.41c2.2-7.3,8.08-13.4,15.65-17.42c3.196-1.697,6.602-2.99,10.112-3.869
				c3.794-0.951,7.722-1.435,11.635-1.353c3.852,0.081,7.69,0.811,11.303,2.151c0.376,0.139,0.744,0.302,1.116,0.453
				c1.315,0.534,2.601,1.142,3.844,1.827c3.66,2.01,6.84,4.61,9.24,7.71c2.25,2.9,3.78,6.32,4.46,9.89
				C542.85,62.621,542.7,66.321,541.6,69.771z"/>
		</g>
	</g>
</g>
<g id="Layer_2">
</g>
</svg>
