<svg width="40" height="40" viewBox="0 0 40 40" fill="none" xmlns="http://www.w3.org/2000/svg">
<path d="M0 8.03579C0 5.44082 1.98518 3.27714 4.57056 3.05426L34.5706 0.468056C37.4906 0.216328 40 2.51871 40 5.44958V34.8246C40 37.6536 37.655 39.9191 34.8277 39.8216L4.82769 38.7872C2.13493 38.6943 0 36.4845 0 33.7901V8.03579Z" fill="#0B82C6"/>
<path d="M23.3526 12.9717C23.3526 14.8195 21.8491 16.3237 20.0006 16.3237C18.1522 16.3237 16.6487 14.8195 16.6487 12.9717C16.6487 11.1233 18.1522 9.61914 20.0006 9.61914C21.8491 9.61914 23.3526 11.1233 23.3526 12.9717Z" fill="white"/>
<path d="M27.2001 7.6742C25.4878 5.49014 22.7991 4.18555 20.0009 4.18555C17.2028 4.18555 14.514 5.49014 12.8017 7.6742C10.8706 10.1373 10.525 13.1058 11.54 16.0065C12.5158 18.7953 14.588 21.1205 16.2823 23.5171C17.0865 24.6552 18.4607 26.5986 19.2942 27.7784C19.6392 28.2663 20.3626 28.2663 20.7076 27.7784C21.541 26.5987 22.9153 24.6552 23.7195 23.5171C25.4138 21.1204 27.486 18.7953 28.4618 16.0065C29.4768 13.1058 29.1313 10.1374 27.2001 7.6742ZM20.0009 18.1881C17.1244 18.1881 14.7844 15.848 14.7844 12.9716C14.7844 10.0952 17.1244 7.75439 20.0009 7.75439C22.8774 7.75439 25.2175 10.0951 25.2175 12.9716C25.2175 15.8481 22.8774 18.1881 20.0009 18.1881Z" fill="white"/>
<path d="M29.2861 29.8034C29.2861 30.1234 29.122 30.4206 28.8517 30.5915L20.4983 35.8683C20.3461 35.9646 20.1733 36.0125 20.0005 36.0125C19.8277 36.0125 19.6549 35.9646 19.5026 35.8683L11.1492 30.5915C10.8788 30.4205 10.7147 30.1234 10.7147 29.8034C10.7147 29.4833 10.8788 29.1862 11.1492 29.0153L15.8051 26.0742L17.771 28.855C18.2819 29.5772 19.1154 30.0091 20.0005 30.0091C20.8855 30.0091 21.719 29.5772 22.2299 28.855L23.4972 27.0618L24.1952 26.0742L28.8518 29.0153C29.1221 29.1862 29.2861 29.4832 29.2861 29.8034Z" fill="white"/>
</svg>
