<svg width="32" height="32" viewBox="0 0 32 32" fill="none" xmlns="http://www.w3.org/2000/svg">
<path d="M32 16C32 7.17789 24.8221 0 16 0C7.17789 0 0 7.17789 0 16C0 20.6598 2.00378 24.8599 5.19331 27.7865L5.17818 27.7999L5.69716 28.2374C5.73091 28.2659 5.76756 28.2892 5.80131 28.3171C6.07709 28.5457 6.36276 28.7628 6.65367 28.9728C6.74793 29.0409 6.84218 29.1089 6.93818 29.1753C7.24887 29.3894 7.56771 29.5924 7.89353 29.785C7.96451 29.8269 8.03607 29.8676 8.10764 29.9084C8.46429 30.1114 8.82851 30.3028 9.20145 30.4785C9.2288 30.4913 9.25673 30.503 9.28407 30.5158C10.4995 31.0807 11.7969 31.4956 13.1537 31.7405C13.1892 31.7469 13.2247 31.7533 13.2608 31.7597C13.682 31.8324 14.1079 31.8906 14.5391 31.9296C14.5914 31.9343 14.6438 31.9372 14.6967 31.9418C15.1261 31.9773 15.5601 32 16 32C16.4358 32 16.8657 31.9773 17.2928 31.943C17.3469 31.9383 17.401 31.9354 17.4551 31.9308C17.8828 31.8918 18.3052 31.8353 18.7223 31.7638C18.7584 31.7574 18.7951 31.751 18.8311 31.744C20.1676 31.5043 21.4464 31.0988 22.6461 30.5484C22.6903 30.528 22.7351 30.5088 22.7793 30.4879C23.1383 30.3191 23.4892 30.137 23.833 29.9433C23.9185 29.895 24.0035 29.8461 24.0884 29.7961C24.4015 29.6116 24.7092 29.4191 25.0083 29.2143C25.1159 29.1409 25.2212 29.0636 25.3277 28.9868C25.5831 28.8029 25.8339 28.6132 26.0777 28.4148C26.1318 28.3712 26.19 28.3334 26.2429 28.2886L26.7753 27.8441L26.7596 27.8307C29.977 24.903 32 20.6836 32 16ZM1.16364 16C1.16364 7.81905 7.81905 1.16364 16 1.16364C24.1809 1.16364 30.8364 7.81905 30.8364 16C30.8364 20.4084 28.9018 24.3718 25.8391 27.0912C25.6681 26.9731 25.4959 26.8672 25.3196 26.7788L20.3933 24.3159C19.9511 24.0948 19.6765 23.6503 19.6765 23.1564V21.4359C19.7905 21.2951 19.911 21.1357 20.0355 20.9606C20.6732 20.0599 21.1846 19.058 21.5575 17.9799C22.2947 17.6297 22.7706 16.8954 22.7706 16.0663V14.0038C22.7706 13.4993 22.5856 13.01 22.2545 12.6255V9.91011C22.2848 9.60815 22.3919 7.904 21.159 6.49833C20.0867 5.27418 18.3511 4.65455 16 4.65455C13.6489 4.65455 11.9133 5.27418 10.841 6.49775C9.60814 7.90342 9.7152 9.60756 9.74545 9.90953V12.6249C9.41498 13.0095 9.22938 13.4988 9.22938 14.0032V16.0657C9.22938 16.7063 9.5168 17.3039 10.009 17.7071C10.4803 19.5532 11.4502 20.9507 11.8086 21.4243V23.1081C11.8086 23.5828 11.5497 24.0192 11.1325 24.2473L6.53207 26.7567C6.38545 26.8364 6.24 26.9295 6.09455 27.0336C3.06967 24.3153 1.16364 20.3764 1.16364 16Z" fill="#0B82C6"/>
</svg>
