<svg width="40" height="40" viewBox="0 0 40 40" fill="none" xmlns="http://www.w3.org/2000/svg">
<path d="M0 8.03579C0 5.44082 1.98518 3.27714 4.57056 3.05426L34.5706 0.468056C37.4906 0.216328 40 2.51871 40 5.44958V34.8246C40 37.6536 37.655 39.9191 34.8277 39.8216L4.82769 38.7872C2.13493 38.6943 0 36.4845 0 33.7901V8.03579Z" fill="#0B82C6"/>
<path d="M15.9259 30.2559C13.7133 30.2565 11.9424 29.1765 11.469 26.8518C10.9264 24.1882 10.6641 21.3862 11.8805 18.7617C12.3139 17.8261 13.0642 17.2056 13.8635 16.6867C14.7141 16.1342 15.2539 15.4757 15.063 14.3058C14.9972 13.8994 15.1463 13.4546 15.094 13.0434C15.0681 12.839 14.8081 12.6695 14.6538 12.4841C14.5289 12.6768 14.2795 12.8843 14.2975 13.0593C14.4776 14.8179 13.5078 15.7021 12.2165 16.3043C11.4887 16.6439 10.7244 16.9198 9.95264 17.112C9.22146 17.2943 8.49928 17.0967 7.90094 16.587C6.65584 15.5265 6.72283 13.5072 8.13397 12.5263C9.09143 11.8605 10.175 11.3814 11.2456 10.9427C14.0037 9.81124 16.9054 9.41044 19.8216 9.34191C21.5908 9.3003 23.3706 9.59096 25.1397 9.79962C27.4712 10.075 29.6676 10.8943 31.7519 12.0276C32.321 12.3366 32.9002 12.8506 33.2182 13.4356C34.2055 15.2499 33.015 17.2668 31.0027 17.1389C29.5015 17.0435 28.1118 16.4389 26.9809 15.2909C26.4636 14.7659 26.2025 14.1216 26.2931 13.3334C26.3111 13.1762 26.337 12.9748 26.2672 12.8604C26.1693 12.6995 25.9959 12.5355 25.8326 12.5024C25.7499 12.4859 25.5675 12.735 25.5214 12.8947C25.4685 13.0764 25.5112 13.2936 25.5231 13.4944C25.5416 13.8162 25.6458 14.1583 25.5799 14.4563C25.3334 15.5559 25.8889 16.1121 26.6567 16.6194C27.7532 17.3433 28.669 18.2636 29.1396 19.6233C29.5313 20.7535 29.5758 25.814 29.1722 26.9216C28.4529 28.8944 26.9798 30.3373 24.6726 30.2596C23.9301 30.2339 17.3557 30.2553 15.9259 30.2559ZM20.2731 24.8123C21.9628 24.7254 23.4595 24.2175 24.6258 22.8817C25.7978 21.5386 25.8901 20.0076 24.9579 18.4711C24.4119 17.5721 23.6262 17.0404 22.7334 16.6396C20.4599 15.6177 17.7136 16.125 16.1004 17.8818C14.6808 19.4281 14.6476 21.4358 16.0678 22.9839C17.229 24.2494 18.7066 24.7211 20.2731 24.8123ZM20.3294 11.9713C20.3294 11.9725 20.3294 11.9737 20.3294 11.975C19.57 11.975 18.8107 11.9903 18.0519 11.9695C17.5746 11.9566 17.368 12.1867 17.3793 12.6891C17.3827 12.8298 17.3534 12.9742 17.3742 13.1107C17.4046 13.3151 17.466 13.5139 17.5144 13.7153C17.6951 13.6412 17.8966 13.6027 18.0525 13.4882C19.2064 12.6426 21.4112 12.653 22.5556 13.509C22.7092 13.6247 22.9119 13.6651 23.0914 13.7403C23.1398 13.5201 23.2012 13.3016 23.2304 13.0783C23.2485 12.9418 23.2124 12.798 23.2079 12.6573C23.1933 12.1537 22.9586 11.9505 22.4953 11.9652C21.7743 11.9878 21.0527 11.9713 20.3294 11.9713Z" fill="white"/>
<path d="M20.5897 22.4035C19.522 22.3441 18.7739 22.1526 18.153 21.5737C17.137 20.6252 17.1449 19.2949 18.1654 18.3465C19.2692 17.3197 21.2449 17.2866 22.3521 18.2761C23.5713 19.3659 23.4604 21.0456 22.0667 21.8595C21.5421 22.1654 20.9252 22.2841 20.5897 22.4035Z" fill="white"/>
</svg>
