<svg width="26" height="23" viewBox="0 0 26 23" fill="none"
    xmlns="http://www.w3.org/2000/svg">
    <path d="M25.7739 4.58394C25.5715 4.3338 25.261 4.18761 24.9322 4.18761H4.60301L4.30082 0.93847C4.2514 0.40713 3.79001 0 3.2373 0H1.06779C0.478067 0 0 0.461407 0 1.03058C0 1.59976 0.478067 2.06117 1.06779 2.06117H2.26108L3.43148 14.646C3.43174 14.6609 3.43098 14.6754 3.43184 14.6903C3.43423 14.7299 3.43957 14.7686 3.44638 14.8067L3.4892 15.2668C3.49001 15.2755 3.49092 15.2842 3.49199 15.2927C3.62176 16.3778 4.19628 17.3179 5.02707 17.9531C4.5966 18.4837 4.33901 19.1509 4.33901 19.8755C4.33901 21.5984 5.79126 23 7.57625 23C9.3613 23 10.8136 21.5984 10.8136 19.8755C10.8136 19.5023 10.7452 19.1443 10.6203 18.8122H16.4645C16.3395 19.1443 16.2712 19.5023 16.2712 19.8755C16.2712 21.5984 17.7235 23 19.5085 23C21.2935 23 22.7458 21.5984 22.7458 19.8755C22.7458 18.1527 21.2935 16.751 19.5085 16.751H7.58348C6.77236 16.751 6.06553 16.2787 5.76045 15.5906L22.8252 14.6226C23.2911 14.5962 23.6853 14.2808 23.7985 13.8438L25.9681 5.46809C26.0478 5.16028 25.9762 4.83413 25.7739 4.58394Z" fill="#0b82c6"/>
</svg>
