<svg width="26" height="26" viewBox="0 0 26 26" fill="#fcaf17" xmlns="http://www.w3.org/2000/svg">
<path d="M2.59998 20.7155H5.19997V25.9993L11.8312 20.7155H18.1999C19.6338 20.7155 20.7999 19.5541 20.7999 18.126V7.76818C20.7999 6.34009 19.6338 5.17871 18.1999 5.17871H2.59998C1.16609 5.17871 0 6.34009 0 7.76818V18.126C0 19.5541 1.16609 20.7155 2.59998 20.7155Z" fill="#fcaf17"/>
<path d="M23.4001 0H7.80018C6.36629 0 5.2002 1.16138 5.2002 2.58947H20.8001C22.234 2.58947 23.4001 3.75084 23.4001 5.17893V15.5368C24.834 15.5368 26.0001 14.3754 26.0001 12.9473V2.58947C26.0001 1.16138 24.834 0 23.4001 0Z" fill="#fcaf17"/>
</svg>
