<svg width="30" height="34" viewBox="0 0 30 34" fill="none" xmlns="http://www.w3.org/2000/svg">
<path d="M9.82776 14.7809V26.8502C9.82776 27.3869 9.48239 27.8642 8.96689 28.041C8.23747 28.2923 7.35727 28.4248 6.42036 28.4248C3.72563 28.4248 0.827273 27.3414 0.827273 24.9624V9.51899C0.766703 8.45829 1.1443 6.58437 2.95754 5.57038C3.79908 5.09938 8.21814 2.31502 10.4373 0.908318C10.833 0.657032 11.3382 0.639353 11.7531 0.859071C12.1681 1.08131 12.4258 1.50686 12.4258 1.96903V3.79748C12.4258 4.49452 11.8485 5.06023 11.1371 5.06023C10.583 5.06023 10.11 4.71803 9.92829 4.23566C7.92302 5.49841 4.96925 7.35212 4.23596 7.76251C3.57613 8.1325 3.43309 8.81186 3.40473 9.18058C3.40473 9.59476 3.49623 9.92055 3.66119 10.0986C4.11869 10.5873 5.64326 10.283 7.30701 9.30433C8.90503 8.36484 16.7869 3.22293 16.8655 3.17116C17.2637 2.9123 17.7715 2.88831 18.1878 3.10929C18.6079 3.32901 18.8695 3.75708 18.8695 4.22303V4.36698C18.8695 4.78874 18.6543 5.18272 18.2973 5.41759C18.2973 5.41759 12.8254 8.99622 12.3408 9.30054C10.4863 10.4698 9.82776 11.9043 9.82776 14.7809ZM29.1793 8.68684V25.0798C29.1793 25.513 28.9512 25.917 28.5762 26.1481C28.5762 26.1481 21.0629 31.8658 19.5383 32.7738C18.7368 33.2523 17.7161 33.5049 16.5884 33.5049C13.9092 33.5049 11.1371 32.0843 11.1371 29.7091V14.4096V14.0396C11.1371 14.0346 11.141 14.0295 11.141 14.0232C11.1668 13.0989 11.3871 11.7793 13.1411 10.5115C14.1927 9.75134 20.4559 5.56659 20.7214 5.38981C21.117 5.12716 21.6287 5.09938 22.0488 5.31657C22.4715 5.53503 22.7357 5.96436 22.7357 6.43284V8.2613C22.7357 8.95833 22.1596 9.52404 21.447 9.52404C20.9147 9.52404 20.4572 9.20836 20.2613 8.75629C18.2625 10.0961 15.3281 12.0697 14.6708 12.5433C13.8409 13.1443 13.73 13.5408 13.7159 14.0497C13.7184 14.4273 13.8228 14.7152 14.0342 14.9046C14.6914 15.4943 16.4609 15.2468 18.2058 14.2215C19.4971 13.4613 25.0618 9.25129 27.0955 7.69306C27.4859 7.39758 28.0117 7.34328 28.4551 7.55416C28.8984 7.76504 29.1793 8.20321 29.1793 8.68684ZM26.6019 14.3136L20.1582 19.2118V21.7373L26.6019 16.8391V14.3136Z" fill="white"/>
</svg>
