<svg width="44" height="46" viewBox="0 0 44 46" fill="none" xmlns="http://www.w3.org/2000/svg">
<path d="M35.5309 29.6282C33.6324 32.094 30.5571 33.6999 27.0922 33.6999H22.2304C20.551 33.6999 19.1207 32.6916 18.5792 31.2803C17.9107 31.0918 17.2551 30.847 16.6154 30.5464C15.2607 29.9099 14.0306 29.0475 12.9478 27.9792C5.9239 29.4385 0.666992 35.357 0.666992 42.4375V43.363C0.666992 44.6352 1.75765 45.6666 3.10298 45.6666H40.8977C42.243 45.6666 43.3337 44.6352 43.3337 43.363V42.4375C43.3336 36.9677 40.1962 32.1913 35.5309 29.6282Z" fill="white"/>
<path d="M10.3587 23.2312C11.4057 23.2312 12.317 22.6825 12.7891 21.8727C12.8015 21.9047 12.8141 21.9366 12.8268 21.9685C12.8306 21.978 12.8344 21.9876 12.8381 21.9972C13.9457 24.754 16.1007 27.0651 18.9424 28.0749C19.6296 27.0423 20.8449 26.3555 22.2306 26.3555H27.0923C27.5773 26.3555 28.0287 26.2261 28.4243 26.0169C29.0889 25.6655 29.6864 24.7741 29.995 24.3016C30.4888 23.5454 30.8715 22.7445 31.2107 21.8713C31.4014 22.1987 31.6635 22.4836 31.9777 22.7067V23.8341C31.9777 26.3815 29.7861 28.454 27.0922 28.454H22.2305C21.3114 28.454 20.5662 29.1587 20.5662 30.0278C20.5662 30.8971 21.3114 31.6016 22.2305 31.6016H27.0922C31.6214 31.6016 35.3062 28.1171 35.3062 23.8341V22.7067C35.9799 22.2281 36.4157 21.4664 36.4157 20.6083V15.8627V14.0429C36.4157 13.1671 35.9615 12.3923 35.2641 11.9158C34.7233 5.44357 28.9811 0.333374 22.0003 0.333374C15.0194 0.333374 9.27736 5.44357 8.73652 11.9157C8.03914 12.3922 7.58496 13.1671 7.58496 14.0428V20.6081C7.58496 22.0609 8.83299 23.2312 10.3587 23.2312ZM22.0003 3.48109C27.1681 3.48109 31.4305 7.2157 31.9287 11.9808C31.6016 12.2241 31.3337 12.5351 31.1491 12.8919C29.5787 9.01743 26.0731 6.31992 22.0002 6.31992C17.8395 6.31992 14.3901 9.11013 12.8575 12.8764C12.8554 12.8815 12.8534 12.8868 12.8514 12.892C12.6668 12.5352 12.3988 12.2242 12.0718 11.9809C12.5703 7.2157 16.8326 3.48109 22.0003 3.48109Z" fill="white"/>
</svg>
