<?xml version="1.0" encoding="utf-8"?>
<!-- Generator: Adobe Illustrator 25.0.1, SVG Export Plug-In . SVG Version: 6.00 Build 0)  -->
<svg version="1.1" id="Layer_1"
	xmlns="http://www.w3.org/2000/svg"
	xmlns:xlink="http://www.w3.org/1999/xlink" x="0px" y="0px" viewBox="0 0 672 514" style="enable-background:new 0 0 672 514;" xml:space="preserve">
	<style type="text/css">
	.st0{fill:none;stroke:#0B82C6;stroke-width:5;}
	.st1{fill:#FFFFFF;}
	.st2{fill:#473DA2;}
	.st3{fill:url(#SVGID_1_);}
	.st4{fill:url(#SVGID_2_);}
	.st5{fill:#E5E2FF;}
	.st6{fill:url(#SVGID_3_);}
	.st7{opacity:0.62;fill:url(#SVGID_4_);enable-background:new    ;}
	.st8{opacity:0.62;fill:url(#SVGID_5_);enable-background:new    ;}
	.st9{opacity:0.5;fill:url(#SVGID_6_);enable-background:new    ;}
	.st10{fill:url(#SVGID_7_);}
	.st11{opacity:0.5;fill:url(#SVGID_8_);enable-background:new    ;}
	.st12{opacity:0.5;fill:url(#SVGID_9_);enable-background:new    ;}
	.st13{fill:url(#SVGID_10_);}
	.st14{fill:url(#SVGID_11_);}
	.st15{opacity:0.76;fill:url(#SVGID_12_);enable-background:new    ;}
	.st16{opacity:0.76;fill:url(#SVGID_13_);enable-background:new    ;}
	.st17{opacity:0.76;fill:url(#SVGID_14_);enable-background:new    ;}
	.st18{fill:url(#SVGID_15_);}
	.st19{opacity:0.5;fill:url(#SVGID_16_);enable-background:new    ;}
	.st20{fill:url(#SVGID_17_);}
	.st21{opacity:0.5;fill:url(#SVGID_18_);enable-background:new    ;}
	.st22{fill:url(#SVGID_19_);}
	.st23{fill:url(#SVGID_20_);}
	.st24{fill:#CB4D7A;}
	.st25{fill:#EE8183;}
	.st26{fill:url(#SVGID_21_);}
	.st27{opacity:0.6;fill:url(#SVGID_22_);enable-background:new    ;}
	.st28{fill:url(#SVGID_23_);}
	.st29{fill:#E28183;}
	.st30{opacity:0.91;fill:url(#SVGID_24_);enable-background:new    ;}
	.st31{fill:url(#SVGID_25_);}
	.st32{opacity:0.6;fill:url(#SVGID_26_);enable-background:new    ;}
	.st33{fill:url(#SVGID_27_);}
	.st34{fill:url(#SVGID_28_);}
	.st35{opacity:0.91;fill:url(#SVGID_29_);enable-background:new    ;}
	.st36{opacity:0.5;fill:url(#SVGID_30_);enable-background:new    ;}
	.st37{opacity:0.5;fill:url(#SVGID_31_);enable-background:new    ;}
	.st38{opacity:0.5;fill:url(#SVGID_32_);enable-background:new    ;}
	.st39{opacity:0.5;fill:url(#SVGID_33_);enable-background:new    ;}
	.st40{opacity:0.5;fill:url(#SVGID_34_);enable-background:new    ;}
	.st41{opacity:0.5;fill:url(#SVGID_35_);enable-background:new    ;}
	.st42{opacity:0.5;fill:url(#SVGID_36_);enable-background:new    ;}
	.st43{opacity:0.5;fill:url(#SVGID_37_);enable-background:new    ;}
	.st44{opacity:0.5;fill:url(#SVGID_38_);enable-background:new    ;}
	.st45{opacity:0.76;fill:url(#SVGID_39_);enable-background:new    ;}
	.st46{opacity:0.5;fill:url(#SVGID_40_);enable-background:new    ;}
	.st47{opacity:0.3;fill:url(#SVGID_41_);enable-background:new    ;}
	.st48{opacity:0.5;fill:url(#SVGID_42_);enable-background:new    ;}
	.st49{opacity:0.5;fill:url(#SVGID_43_);enable-background:new    ;}
	.st50{opacity:0.5;fill:url(#SVGID_44_);enable-background:new    ;}
	.st51{opacity:0.5;fill:url(#SVGID_45_);enable-background:new    ;}
	.st52{opacity:0.5;fill:url(#SVGID_46_);enable-background:new    ;}
	.st53{opacity:0.3;fill:url(#SVGID_47_);enable-background:new    ;}
	.st54{opacity:0.5;fill:url(#SVGID_48_);enable-background:new    ;}
	.st55{opacity:0.5;fill:url(#SVGID_49_);enable-background:new    ;}
	.st56{opacity:0.5;fill:url(#SVGID_50_);enable-background:new    ;}
	.st57{opacity:0.5;fill:#7A4AC0;enable-background:new    ;}
	.st58{fill:#34C7FF;}
	.st59{fill:#FFBCAF;}
	.st60{opacity:0.87;fill:#36D1F7;enable-background:new    ;}
	.st61{fill:#744CA2;}
	.st62{opacity:0.6;fill:url(#SVGID_51_);enable-background:new    ;}
	.st63{opacity:0.3;fill:url(#SVGID_52_);enable-background:new    ;}
	.st64{opacity:0.3;fill:url(#SVGID_53_);enable-background:new    ;}
	.st65{opacity:0.3;fill:url(#SVGID_54_);enable-background:new    ;}
	.st66{fill:#D1D4FB;}
	.st67{fill:#E0FFFF;}
	.st68{fill:url(#SVGID_55_);}
	.st69{fill:url(#SVGID_56_);}
	.st70{opacity:0.81;fill:url(#SVGID_57_);enable-background:new    ;}
	.st71{fill:url(#SVGID_58_);}
	.st72{fill:url(#SVGID_59_);}
	.st73{fill:url(#SVGID_60_);}
	.st74{fill:url(#SVGID_61_);}
	.st75{fill-rule:evenodd;clip-rule:evenodd;fill:url(#SVGID_62_);}
	.st76{fill-rule:evenodd;clip-rule:evenodd;fill:url(#SVGID_63_);}
	.st77{fill-rule:evenodd;clip-rule:evenodd;fill:url(#SVGID_64_);}
	.st78{opacity:0.5;fill-rule:evenodd;clip-rule:evenodd;fill:#601734;enable-background:new    ;}
	.st79{fill-rule:evenodd;clip-rule:evenodd;fill:#B3D9FF;}
	.st80{fill:#6877FF;}
	.st81{fill:#4F31E0;}
	.st82{fill:url(#SVGID_65_);}
	.st83{fill:url(#SVGID_66_);}
	.st84{fill:url(#SVGID_67_);}
	.st85{fill:url(#SVGID_68_);}
	.st86{fill:#E87A8D;}
	.st87{fill:url(#SVGID_69_);}
	.st88{fill:#77485E;}
	.st89{fill:url(#SVGID_70_);}
	.st90{fill:url(#SVGID_71_);}
	.st91{fill:url(#SVGID_72_);}
	.st92{fill:url(#SVGID_73_);}
	.st93{fill:url(#SVGID_74_);}
	.st94{fill:url(#SVGID_75_);}
	.st95{fill:url(#SVGID_76_);}
	.st96{fill:#E37E7F;}
	.st97{fill:url(#SVGID_77_);}
	.st98{fill:url(#SVGID_78_);}
	.st99{fill:#9F4A8B;}
	.st100{fill:url(#SVGID_79_);}
	.st101{fill:url(#SVGID_80_);}
	.st102{opacity:0.83;fill:url(#SVGID_81_);enable-background:new    ;}
	.st103{fill:url(#SVGID_82_);}
	.st104{opacity:0.84;fill:url(#SVGID_83_);enable-background:new    ;}
	.st105{opacity:0.84;fill:url(#SVGID_84_);enable-background:new    ;}
	.st106{opacity:0.84;fill:url(#SVGID_85_);enable-background:new    ;}
	.st107{opacity:0.62;fill:url(#SVGID_86_);enable-background:new    ;}
	.st108{fill:url(#SVGID_87_);}
	.st109{fill:url(#SVGID_88_);}
	.st110{fill:url(#SVGID_89_);}
	.st111{fill:url(#SVGID_90_);}
	.st112{fill:url(#SVGID_91_);}
	.st113{fill:url(#SVGID_92_);}
	.st114{fill:url(#SVGID_93_);}
	.st115{fill:#D7E2FF;}
	.st116{fill:#D7D9FF;}
	.st117{opacity:0.39;fill:#D7D9FF;enable-background:new    ;}
	.st118{fill:url(#SVGID_94_);}
	.st119{fill:url(#SVGID_95_);}
	.st120{fill:url(#SVGID_96_);}
	.st121{fill:url(#SVGID_97_);}
	.st122{fill:url(#SVGID_98_);}
	.st123{fill-rule:evenodd;clip-rule:evenodd;fill:#00678C;}
	.st124{fill-rule:evenodd;clip-rule:evenodd;fill:#CE8B2C;}
	.st125{fill:#00B7FF;}
	.st126{fill:none;}
	.st127{fill-rule:evenodd;clip-rule:evenodd;fill:url(#SVGID_99_);}
	.st128{fill-rule:evenodd;clip-rule:evenodd;fill:url(#SVGID_100_);}
	.st129{opacity:0.73;fill:url(#SVGID_101_);enable-background:new    ;}
	.st130{fill:#953DA2;}
	.st131{opacity:0.73;fill:url(#SVGID_102_);enable-background:new    ;}

	.fading {
		animation: fading 3s infinite ease-in-out;
		animation-delay: -3s
	}

	.fading-2 {
		animation: fading 3s infinite ease-in-out;
		animation-delay: -2.5s
	}

	.fading-3 {
		animation: fading 3s infinite ease-in-out;
		animation-delay: -2s
	}

	.fading-4 {
		animation: fading 3s infinite ease-in-out;
		animation-delay: -1.5s
	}

	@keyframes fading {
		0% {
			opacity: 0
		}

		50% {
			opacity: 100%
		}

		100% {
			opacity: 0%
		}
	}

	</style>
	<g id="Layer_1_1_">
		<path class="st0" d="M2.5,55c0-7.1,5.5-13,12.6-13.5l593-38c7.8-0.5,14.4,5.7,14.4,13.5v481c0,7.5-6,13.5-13.5,13.5H16
		c-7.5,0-13.5-6-13.5-13.5V55z"/>
		<rect x="617" y="151" class="st1" width="11" height="139"/>
		<g>
			<path class="st2" d="M458.6,154.1h-89.3c-4.1,0-7.5-3.3-7.6-7.4L360,73.5c-0.1-2,0.7-4,2.1-5.5c1.5-1.5,3.3-2.3,5.4-2.3h93
			c2,0,4,0.8,5.5,2.3c1.4,1.5,2.2,3.4,2.1,5.5l-2,73.3C466,150.9,462.7,154.1,458.6,154.1z M367.6,66.3c-1.9,0-3.7,0.7-5.1,2.1
			s-2,3.2-2,5.1l1.7,73.3c0.1,3.8,3.2,6.9,7.1,6.9h89.3c3.9,0,6.9-3,7.1-6.9l2-73.3c0.1-1.9-0.6-3.8-2-5.2c-1.4-1.4-3.1-2.1-5.1-2.1
			L367.6,66.3L367.6,66.3z"/>

			<linearGradient id="SVGID_1_" gradientUnits="userSpaceOnUse" x1="191.9894" y1="868.7955" x2="152.5053" y2="784.2863" gradientTransform="matrix(1 0 0 1 0 -564)">
				<stop offset="0" style="stop-color:#DBCCFF"/>
				<stop offset="1" style="stop-color:#D1BBFF"/>
			</linearGradient>
			<path class="st3" d="M174.9,228.4c-5-8.7-13.9-12.2-13.9-12.2l-3.1,1.4l6.9,12.6c-0.9,4.8-4.2,7.5-4.2,7.5s-4.2,0.8-8.5-1.6
			l-5.2-13.4l-3.1,1.4c0,0-2.9,9,0.4,18.4c0,0,1.3,3,1.6,3.3c1.2,1.4,4.5,3,10.6,2.8l21.2,40.5c-1.8,3-2.1,6.8-0.5,10.2
			c2.6,5.5,9.2,8,14.8,5.4c5.5-2.6,8-9.2,5.4-14.8c-1.6-3.4-4.7-5.6-8.1-6.3l-17.4-42.2c4.2-4.3,5-7.9,4.7-9.8
			C176.4,231.3,174.9,228.4,174.9,228.4z M192.4,298.3l-5.6,2.6l-5.1-3.5l0.5-6.2l5.6-2.6l5.1,3.5L192.4,298.3z"/>

			<linearGradient id="SVGID_2_" gradientUnits="userSpaceOnUse" x1="193.5437" y1="872.0828" x2="154.071" y2="787.5987" gradientTransform="matrix(1 0 0 1 0 -564)">
				<stop offset="0" style="stop-color:#B5A6E7"/>
				<stop offset="1" style="stop-color:#7760BF"/>
			</linearGradient>
			<path class="st4" d="M176.5,231.7c-5-8.7-13.9-12.2-13.9-12.2l-3.1,1.4l6.9,12.6c-0.9,4.8-4.2,7.5-4.2,7.5s-4.2,0.8-8.5-1.6
			l-5.2-13.4l-3.1,1.4c0,0-2.9,9,0.4,18.4c0,0,4.9,6.4,12.1,6l21.2,40.5c-1.8,3-2.1,6.8-0.5,10.2c2.6,5.5,9.2,8,14.8,5.4
			c5.5-2.6,8-9.2,5.4-14.8c-1.6-3.4-4.7-5.6-8.1-6.3l-17.4-42.2C178.3,239.5,176.5,231.7,176.5,231.7z M193.9,301.5l-5.6,2.6
			l-5.1-3.5l0.5-6.2l5.6-2.6l5.1,3.5L193.9,301.5z"/>
			<path class="st5" d="M147,222.9l-3.1,1.4l1.6,3.3l3.1-1.4L147,222.9z"/>
			<path class="st5" d="M161.2,216.3l-3.1,1.4l1.6,3.3l3.1-1.4L161.2,216.3z"/>
			<path class="st5" d="M192.4,298.3l-5.6,2.6l1.6,3.3l5.6-2.6L192.4,298.3z"/>

			<linearGradient id="SVGID_3_" gradientUnits="userSpaceOnUse" x1="183.8268" y1="851.067" x2="167.1814" y2="815.4401" gradientTransform="matrix(1 0 0 1 0 -564)">
				<stop offset="0" style="stop-color:#B5A6E7"/>
				<stop offset="1" style="stop-color:#7760BF"/>
			</linearGradient>
			<path class="st6" d="M162.6,255l17.2,32.9c4.5,0.3,6.9-3.3,6.9-3.3l-13.9-34.5C166.4,250,162.6,255,162.6,255z M185.3,285
			c-0.5,0.4-1.3,1-2.2,1.4c-0.8,0.4-1.6,0.5-2.4,0.7l-17.2-32.2c0.8-0.8,2.2-1.8,4.1-2.8c1.4-0.7,2.8-1,4.2-1.3L185.3,285z"/>
			<path class="st5" d="M185.3,285l1.3-0.3c0,0-2,3.5-6.9,3.3l1-0.8C180.7,287.1,183.2,286.9,185.3,285z"/>

			<linearGradient id="SVGID_4_" gradientUnits="userSpaceOnUse" x1="162.4033" y1="818.6079" x2="172.5083" y2="813.8869" gradientTransform="matrix(1 0 0 1 0 -564)">
				<stop offset="0" style="stop-color:#8B8BE0"/>
				<stop offset="1" style="stop-color:#A177B7"/>
			</linearGradient>
			<path class="st7" d="M162.6,255l1-0.1c0,0,2.9-3,8.4-3.9l0.8-0.7c0,0-2.2-0.4-5.6,1.2C163.7,253,162.6,255,162.6,255z"/>

			<linearGradient id="SVGID_5_" gradientUnits="userSpaceOnUse" x1="168.4827" y1="818.5135" x2="165.6227" y2="812.3915" gradientTransform="matrix(1 0 0 1 0 -564)">
				<stop offset="0" style="stop-color:#FFFFFF"/>
				<stop offset="1" style="stop-color:#A177B7"/>
			</linearGradient>
			<path class="st8" d="M158,252c0,0,8.3-1.4,15.3-7.1l2.2,5.4c0,0-2.5-2.5-8.1-0.3c-6.4,2.6-6.2,7.9-6.2,7.9L158,252z"/>

			<linearGradient id="SVGID_6_" gradientUnits="userSpaceOnUse" x1="190.8223" y1="852.2045" x2="172.4695" y2="812.9235" gradientTransform="matrix(1 0 0 1 0 -564)">
				<stop offset="0" style="stop-color:#000000"/>
				<stop offset="1" style="stop-color:#FFFFFF"/>
			</linearGradient>
			<path class="st9" d="M175.6,250.3c-1.6-1.2-3.4-1.2-3.4-1.2l16.6,40.1l2-2.1L175.6,250.3z"/>
			<path class="st1" d="M175.6,250.3c0,0-1.7,5.4,3.3,7.9L175.6,250.3z"/>

			<linearGradient id="SVGID_7_" gradientUnits="userSpaceOnUse" x1="339.086" y1="1073.4" x2="339.086" y2="956.4" gradientTransform="matrix(1 0 0 1 0 -564)">
				<stop offset="0" style="stop-color:#6456C0"/>
				<stop offset="1" style="stop-color:#5F2C95"/>
			</linearGradient>
			<path class="st10" d="M425.4,509.4h-61.6c-6.4-35.8-21.5-82.4-21.5-82.4c-3.7-2.1-10.7,0.5-10.7,0.5l-22.4,81.9H253
			c-3-50.6,24.6-107.9,24.6-107.9c-0.1-0.1-0.9-2-0.8-3.1c0.1-0.5,1-1.4,2.1-2.5c1.6-1.4,3.3-2.8,3.3-2.8l105-0.7c0,0,1,0.5,2.4,1.3
			c2.4,1.4,5.4,3.5,5.4,5.1c0,2.1-0.8,3.5-1,3.9C416.4,445.3,425.4,509.4,425.4,509.4z"/>

			<radialGradient id="SVGID_8_" cx="-1188.9249" cy="4.4401" r="1.0012" gradientTransform="matrix(22.8922 5.282 -13.6472 59.1469 27559.8164 6484.7485)" gradientUnits="userSpaceOnUse">
				<stop offset="0" style="stop-color:#4B474B"/>
				<stop offset="1" style="stop-color:#000000"/>
			</radialGradient>
			<path class="st11" d="M305,472.7c-7.6,32.6-23.9,56.8-36.6,53.9c-12.7-2.9-16.8-31.7-9.3-64.4c7.6-32.6,23.9-56.8,36.6-53.9
			C308.4,411.1,312.6,440,305,472.7z"/>

			<radialGradient id="SVGID_9_" cx="-1201.418" cy="14.4845" r="1.0007" gradientTransform="matrix(22.624 -6.3415 16.3837 58.4504 27334.6719 -7998.7139)" gradientUnits="userSpaceOnUse">
				<stop offset="0" style="stop-color:#4B474B"/>
				<stop offset="1" style="stop-color:#000000"/>
			</radialGradient>
			<path class="st12" d="M413.8,460.4c9,32.2,6.3,61.3-6.3,64.8c-12.5,3.5-30-19.8-39.1-52.2c-9-32.2-6.3-61.3,6.3-64.8
			C387.3,404.8,404.7,428.2,413.8,460.4z"/>

			<linearGradient id="SVGID_10_" gradientUnits="userSpaceOnUse" x1="301.203" y1="1032.25" x2="331.903" y2="1032.25" gradientTransform="matrix(1 0 0 1 0 -564)">
				<stop offset="0" style="stop-color:#9E8CEF"/>
				<stop offset="1" style="stop-color:#CAAFEE"/>
			</linearGradient>
			<path class="st13" d="M301.8,509.4l-0.7-0.1c7.2-42.2,25.3-77.6,25.6-78l0.1-0.1l4.6-4.1l0.4,0.5l-4.6,4.1
			C326.5,433.4,308.9,468.1,301.8,509.4z"/>

			<linearGradient id="SVGID_11_" gradientUnits="userSpaceOnUse" x1="372.863" y1="1032.3" x2="342.163" y2="1032.3" gradientTransform="matrix(1 0 0 1 0 -564)">
				<stop offset="0" style="stop-color:#9E8CEF"/>
				<stop offset="1" style="stop-color:#CAAFEE"/>
			</linearGradient>
			<path class="st14" d="M372.2,509.4c-7.1-41.3-25.2-76.5-26-78l-4.1-3.7l0.4-0.5l4.2,3.8c0.1,0.4,18.9,36,26.1,78.3L372.2,509.4z" />

			<linearGradient id="SVGID_12_" gradientUnits="userSpaceOnUse" x1="335.1" y1="1073.3999" x2="335.1" y2="956.3999" gradientTransform="matrix(1 0 0 1 0 -564)">
				<stop offset="0" style="stop-color:#CCCCFF"/>
				<stop offset="1" style="stop-color:#755CBB"/>
			</linearGradient>
			<path class="st15" d="M395,398.9c0,2.1-0.8,3.5-1,3.9c-21.9,5-38.5,25.3-38.5,25.3c11.9,22.9,31.7,81.3,31.7,81.3h-23.3
			c-6.4-35.8-21.5-82.4-21.5-82.4c-3.7-2.1-10.7,0.5-10.7,0.5l-22.4,81.9h-14.5c5.2-34.3,20.6-76.2,20.6-76.2
			c-15.2-17.7-37.6-31.7-37.6-31.7l-2.6-1.7l2-1.4c9.7,9.3,41.2,21.5,42.1,21.9l-40-24.4c1.6-1.4,3.3-2.8,3.3-2.8l105-0.7
			c0,0,1,0.5,2.4,1.3l-28.7,15.7L395,398.9z"/>

			<linearGradient id="SVGID_13_" gradientUnits="userSpaceOnUse" x1="348.6" y1="1014.966" x2="348.6" y2="983.066" gradientTransform="matrix(1 0 0 1 0 -564)">
				<stop offset="0" style="stop-color:#CCCCFF"/>
				<stop offset="1" style="stop-color:#755CBB"/>
			</linearGradient>
			<path class="st16" d="M342.5,427l12.2-7.9l-2.9,7.9l-2.1,24L342.5,427z"/>

			<linearGradient id="SVGID_14_" gradientUnits="userSpaceOnUse" x1="311.65" y1="1003.235" x2="311.65" y2="971.986" gradientTransform="matrix(1 0 0 1 0 -564)">
				<stop offset="0" style="stop-color:#CCCCFF"/>
				<stop offset="1" style="stop-color:#755CBB"/>
			</linearGradient>
			<path class="st17" d="M331.7,427.5l-12.8-7.2L291.6,408l34.7,23.1l2.1,8.3L331.7,427.5z"/>

			<linearGradient id="SVGID_15_" gradientUnits="userSpaceOnUse" x1="343.4704" y1="780.403" x2="343.4704" y2="733.74" gradientTransform="matrix(1 0 0 1 0 -564)">
				<stop offset="0" style="stop-color:#D5CDF8"/>
				<stop offset="1" style="stop-color:#F3EDFB"/>
			</linearGradient>
			<path class="st18" d="M358.3,211.6c-1.8,1.7-3.8,3.3-6.3,4.6l-0.1,0.1c0,0,0,0-0.1-0.1c-0.7-0.4-2.9-1.8-6-4.1
			c-8-6-21.4-18.2-25.3-34.7c0,0,0,0,0-0.1c-0.4-2-0.8-3.9-0.9-6c0-0.5-0.1-1-0.1-1.6c0,0,2.6,6.3,7.2,13c5.4,8,13.6,16.6,23.3,16.6
			c8.4,0,12.7-5.8,14.9-11c0.9-2.2,1.4-4.5,1.8-6c0.1-0.5,0.1-0.9,0.3-1.2c0-0.1,0-0.4,0-0.5c0.1-0.5,0.1-0.9,0.1-0.9
			S370.1,199.8,358.3,211.6z"/>

			<linearGradient id="SVGID_16_" gradientUnits="userSpaceOnUse" x1="319.3" y1="756.95" x2="367.3678" y2="756.95" gradientTransform="matrix(1 0 0 1 0 -564)">
				<stop offset="0" style="stop-color:#CCCCFF"/>
				<stop offset="1" style="stop-color:#755CBB"/>
			</linearGradient>
			<path class="st19" d="M358.3,211.6c-1.8,1.7-3.8,3.3-6.3,4.6h-0.3h-0.1c-0.7-0.4-2.9-1.8-6-4.1c-8-6-21.4-18.2-25.3-34.7
			c0,0,0,0,0-0.1c-0.4-2-0.8-3.9-0.9-6c0-0.5-0.1-1-0.1-1.6c0,0,2.6,6.3,7.2,13c0,0,5.2,14.6,16.8,21.8c5.8,3.7,10.1,3.1,13.2,0.9
			c3.1-2.1,5.2-5.8,6.6-8.5c1.2-2.8,1.6-5.4,1.7-7.3c0-0.4,0-0.8,0-1.2c0.9-2.2,1.4-4.5,1.8-6c0.1-0.5,0.1-0.9,0.3-1.2
			c0-0.1,0-0.4,0-0.5c0.1-0.5,0.1-0.9,0.1-0.9S370.1,199.8,358.3,211.6z"/>

			<linearGradient id="SVGID_17_" gradientUnits="userSpaceOnUse" x1="329.7334" y1="967.0248" x2="329.7334" y2="731.7" gradientTransform="matrix(1 0 0 1 0 -564)">
				<stop offset="0" style="stop-color:#6E55DE"/>
				<stop offset="1" style="stop-color:#CAAFEE"/>
			</linearGradient>
			<path class="st20" d="M431.8,330.5c-0.1,0-0.3,0.1-0.3,0.1c-1,0.1-4.5-0.7-8.8-4.5c-3.7-3.3-8.1-8.5-12.5-17.3
			c-8.8-17.6-11.3-29.2-11.7-31.3v-0.3l-5.1,8.1c-3.4,10.5-10.1,53.7-10,55.6s5.9,10.9,5.8,12.1s-2.8,3.7-3.4,6.3
			c-0.5,1.8,3,7.5,5.4,11.7c1.3,2.2,2.2,4.1,2.2,4.7c0,2-6.2,11.7-6.2,11.7v5.2l-0.1,0.1L387,393l-0.3,0.1c-2.4,1.8-12.3,8-43.6,9.7
			c-37,2-61.7-10-61.7-10l1.8-5.1c0,0-1.7-1.4-1.8-2.2c-0.1-0.8,1.3-2.5,1.3-2.5s-3.7-2-3.7-4.5s7.5-10.2,7.2-16.8
			c-0.3-6.6-6-12.5-6.7-16.1c-0.8-3.7,9.7-13,9.7-13c-8.9-28.3-10.6-66.3-10.6-66.3l-1.7-2c0,0-10.6,24.4-20.3,36.3
			c-1.2,1.4-2.4,2.8-3.7,4.2c-2.8,2.9-5.5,5.6-8.4,8c-6.7,5.9-12.8,9.7-14.3,9.4c-2.5-0.5-12.5-20.2-11.9-40.2
			c0.3-9.6,6-20.3,11.9-28.8c0.7-0.9,1.3-1.8,2-2.8c4.2-5.8,8.4-10.4,10.2-12.3c0.8-0.8,1.2-1.2,1.2-1.2s-1.3-4.5-2.4-8.3
			c0-0.1,0-0.1-0.1-0.3v-0.1c0-0.1,0-0.1,0-0.1c-0.5-2.4-0.9-4.3-0.5-4.9c0.8-1.3,5.6-2.8,6.4-3.8c0.8-1,4.3-17.7,6.9-19.5
			c2.5-1.7,7.1-3,21.9-8.9c0.8-0.3,1.4-0.5,2.2-0.9c16.8-6.7,33.2-14.7,33.2-14.7l6.3-7.7h2.8l-0.9,2v0.1c0.4,2,0.9,3.9,1.6,5.8v0.1
			c8.7,27.3,30.9,36,30.9,36c15.5-11.4,15.2-29.5,15.2-29.5v-2.5l2.9,0.9l2,4.7c0,0,3.4,5.2,16.6,11c2.4,1,4.7,2.2,7.3,3.8
			c12.2,6.9,25.7,17.6,26.7,19.8c0.1,0.3,0.3,0.7,0.4,1.2c1.4,5.6,4.3,26.6,7.1,34.1c1.7,4.7,4.5,7.2,6.4,8.7c1.4,1,2.5,1.3,2.5,1.3
			c0.3,1.2,0.4,2.4,0.7,3.4C445.1,304.4,434.3,328.8,431.8,330.5z"/>

			<linearGradient id="SVGID_18_" gradientUnits="userSpaceOnUse" x1="231.9" y1="820.45" x2="289.2" y2="820.45" gradientTransform="matrix(1 0 0 1 0 -564)">
				<stop offset="0" style="stop-color:#CCCCFF"/>
				<stop offset="1" style="stop-color:#755CBB"/>
			</linearGradient>
			<path class="st21" d="M289.2,262.7l-10.7,3.7l-1.7-2c0,0-10.6,24.4-20.3,36.3c-1.2,1.4-2.4,2.8-3.7,4.2c-2.8,2.9-5.5,5.6-8.4,8
			l-8.3-35.5l-4.2-27c4.2-5.8,8.4-10.4,10.2-12.3c0.8-0.8,1.2-1.2,1.2-1.2s-1.3-4.5-2.4-8.3c0-0.1,0-0.1-0.1-0.3v-0.1
			c0-0.1,0-0.1,0-0.1c-0.5-2.4-0.9-4.3-0.5-4.8c0.8-1.3,5.6-2.8,6.4-3.8c0.8-1,4.3-17.7,6.9-19.5c0,0-1.7,16,7.5,36.4l4.5,6.3
			l13.1,10.5C278.9,253,283.9,259.7,289.2,262.7z"/>

			<linearGradient id="SVGID_19_" gradientUnits="userSpaceOnUse" x1="230.185" y1="886.1" x2="230.185" y2="776.113" gradientTransform="matrix(1 0 0 1 0 -564)">
				<stop offset="0" style="stop-color:#9E8CEF"/>
				<stop offset="1" style="stop-color:#DAC7F3"/>
			</linearGradient>
			<path class="st22" d="M257.9,291.7c-2.4,17.2-27.9,30.4-27.9,30.4c-5.8,0-12.1-10-17.8-22.2c-5.8-12.3-6.2-47.4-6.4-49.7
			c-0.3-2.2-3.5-6.6-3.8-8.4c-0.1-1.8,5.2-5.8,5.2-5.8l0,0v-0.1c-0.5-1.2-3.8-8-3.5-9.3s6.3-4.3,6.3-4.3l0.4,6.7
			c0,0,14.2-2.6,18.9-13.6l0.8-3.4l2.4,1.6V228c0,0,0.5,2.2,1.2,2.2s6.3-2.8,7.3-2.4c1.2,0.4,2.4,8.1,3.8,9c1.6,1,5.6,3.8,6.3,5.2
			c0.3,0.7,0.3,2.9,0.3,5.4c0,3.1,0.1,6.9,0.5,9C252.8,260.8,260.3,274.5,257.9,291.7z"/>

			<linearGradient id="SVGID_20_" gradientUnits="userSpaceOnUse" x1="419.304" y1="854.5475" x2="493.2141" y2="854.5475" gradientTransform="matrix(1 0 0 1 0 -564)">
				<stop offset="0" style="stop-color:#A999F1"/>
				<stop offset="1" style="stop-color:#DAC7F3"/>
			</linearGradient>
			<path class="st23" d="M492.5,277c-1.2,1.8-6.9,5.6-8.4,7.1c-1.4,1.4,0,6.4,0,6.4c-24.4,25.8-49.7,38.8-52.3,40
			c-0.1,0-0.3,0.1-0.3,0.1c-15.3-10.2-14-27.3-8.9-41.4c4.9-13.6,13.1-24.9,13.5-25.4c0.3-0.1,4.6-2,7.7-2.1c1-0.1,2,0.3,2.9,0.9
			c1.8,1.2,3.4,3,5,2.2c2.2-1.2,7.2-13,10.6-13.2c2.4-0.3,5.6,2.2,7.9,3.5c0.9,0.7,1.7,1,2.1,0.9c1.3-0.3,5.5-5.4,5.8-5.5
			s2.2,1.3,2.2,1.3l-1.3,1.7c2.1,11.9,8.9,19.9,8.9,19.9l4.6-6.7C492.5,266.7,493.7,275.2,492.5,277z"/>
			<path class="st24" d="M366.8,180.8c0,0.1,0,0.4,0,0.5c0,0.4-0.1,0.7-0.3,1c-1.6,5.8-7.9,11.7-15.9,8.9
			c-8.7-3.1-25.2-38.1-25.2-38.1l1.7-7.5l39.3,32l0.4,3V180.8z"/>
			<path class="st25" d="M236.1,174.4c0,0-2.4-13.2-1.3-23.1c1-9.8-0.3-20.8-0.3-20.8s-2.4-1-4.1,0c-1.7,1-5.8,11.1-3.9,19.3
			s0.4,27.5,0.4,27.5h-2.8l-6-8.1l-2.9-0.8c0,0-16.6,15.7-16.4,25l2.2,8.4l20.6-0.7l13.4-15.3L236.1,174.4z"/>

			<linearGradient id="SVGID_21_" gradientUnits="userSpaceOnUse" x1="206.2" y1="761.204" x2="206.2" y2="732.2278" gradientTransform="matrix(1 0 0 1 0 -564)">
				<stop offset="1.600000e-02" style="stop-color:#FFC2A9"/>
				<stop offset="1" style="stop-color:#FF9595"/>
			</linearGradient>
			<path class="st26" d="M215.3,168.2c0,0,0.4,10.5,2.8,19.4c0,0-0.4,3.7-4.7,3.9l-1-1.2c0,0-0.8,4.2-4.6,4.5l-3.7-3.7l0.9,3
			c0,0-1.3,3.1-4.7,3c0,0-5.8-4.5-6-10.4l5.6-4.7v-3.7l6.7-4.7l0.1-2.6C206.8,171.1,210.7,168.1,215.3,168.2z"/>

			<linearGradient id="SVGID_22_" gradientUnits="userSpaceOnUse" x1="224.15" y1="760.545" x2="224.15" y2="712.545" gradientTransform="matrix(1 0 0 1 0 -564)">
				<stop offset="0" style="stop-color:#FFEADB"/>
				<stop offset="0.9944" style="stop-color:#C27CB6"/>
			</linearGradient>
			<path class="st27" d="M235,148.6c0,0-1,2.5-2.5,3.5c-1.4,1-5.5,1.7-5.5,1.7l-0.1,23.5h-2.8l-6-8.1c0,0,3,4.7,3.1,8.1l-2.4,1.2
			l-2.1-7.1l-0.9,5.1l0.9,6.3c0,0,3.5-3,10-3.1l0.9,1.7c0,0-11.5,9.6-14.3,15.2c0,0,5.8-7.2,18.7-15.2l1.2-3.8l1.7-9.2
			C235.2,168.2,233.7,155,235,148.6z"/>

			<linearGradient id="SVGID_23_" gradientUnits="userSpaceOnUse" x1="222.9217" y1="793.182" x2="222.9217" y2="719.176" gradientTransform="matrix(1 0 0 1 0 -564)">
				<stop offset="1.600000e-02" style="stop-color:#FFC2A9"/>
				<stop offset="1" style="stop-color:#FF9595"/>
			</linearGradient>
			<path class="st28" d="M244.8,189.3c-1,3.3-12.3,16.6-13.6,19.5c-1.2,2.9-2,6.7-2,6.7c-5.5,11.9-18.9,13.6-18.9,13.6l-0.7-10.7
			c0,0-7.2-4.2-8.4-6.4l-0.1-0.4c-0.4-2.1,0-10,0-10l12.6-5.1c5.5-7.1,18.7-15.2,18.7-15.2l0.7-3.7c-9.6-4.7-8-18.9-6.3-20.6
			c1.6-1.7,4.6-1.7,4.6-1.7s3.5,11.4,5.8,16.8C239.2,177.3,245.9,186.1,244.8,189.3z"/>
			<path class="st29" d="M206.8,171.1c0,0,1.4,13,5.5,19.3c0,0-5.2-6.6-5.6-16.5L206.8,171.1z"/>
			<path class="st29" d="M200,178.5c0,0,1.3,10.5,7.9,16.4c0,0-5.8-2.9-7.9-12.7V178.5z"/>

			<linearGradient id="SVGID_24_" gradientUnits="userSpaceOnUse" x1="209.634" y1="781.6" x2="232.9" y2="781.6" gradientTransform="matrix(1 0 0 1 0 -564)">
				<stop offset="1.600000e-02" style="stop-color:#D1A1D6"/>
				<stop offset="0.9944" style="stop-color:#BD89C4"/>
			</linearGradient>
			<path class="st30" d="M232.9,206.1c0,0-14.2,13.8-23.3,12.3l0.7,10.7c0,0,14.9-1.3,19.8-16.9C230,212.3,231.7,207.7,232.9,206.1z" />

			<linearGradient id="SVGID_25_" gradientUnits="userSpaceOnUse" x1="494.6778" y1="838.3" x2="494.6778" y2="739.422" gradientTransform="matrix(1 0 0 1 0 -564)">
				<stop offset="1.600000e-02" style="stop-color:#FFC2A9"/>
				<stop offset="1" style="stop-color:#FF9595"/>
			</linearGradient>
			<path class="st31" d="M533.2,224.9c0,0-13.1,23.9-28.3,31.2h-5.2l-12.1,18.2c0,0-7.7-4.8-8.4-21c0,0,2.8-2.9,3.4-6
			c0,0-4.3-3.4-5.5-5.9s-1.6-10-2.4-13s-7.9-9.4-9.4-10.2c-1.6-0.8-8.7-1.2-8.7-1.2s-1-2.6,0-3.8s12.1-5.5,18.1-1.4
			c0,0,0.4,3.1,1,4.9c0.7,1.7,5.9,7.5,6.8,7.5s4.5-3,5.9-5.2s9.6-19.5,11.4-25.3c0-0.1,0-0.1,0-0.1c0-0.1,0-0.1,0.1-0.3
			c0-0.1,0-0.1,0-0.1s0,0,0-0.1c1.4-5.1,10.2-14.7,14.8-17.4c0,0,2-0.5,3,2c0,0-3.7,10.6-7.6,16.9c-0.7,1-1.3,2.4-2.1,3.7
			c-3.3,6-7.1,14-7.6,15.2v0.1l2.1,1l5.6-5.4l5.8-5.4l13.1,13.9l-1.3,1.7l-4.1,5.2l2.1,0.4l4.8-5.4L533.2,224.9z"/>

			<linearGradient id="SVGID_26_" gradientUnits="userSpaceOnUse" x1="506.25" y1="806.565" x2="506.25" y2="757.398" gradientTransform="matrix(1 0 0 1 0 -564)">
				<stop offset="0" style="stop-color:#FFEADB"/>
				<stop offset="0.9944" style="stop-color:#C27CB6"/>
			</linearGradient>
			<path class="st32" d="M530,230l-4.2,6.2c0,0-22.9-17.7-27.8-19.1c-5-1.4-6.8-0.5-6.8-0.5l-5.1,6.6c0,0,9.4,8.4,10.2,19.7
			c0,0-3.1-14.3-13.8-18.5c0.8,0,4.5-3,5.9-5.2s9.6-19.5,11.4-25.3c-0.3,1-0.7,2.9,0.3,4.5c1.2,2.1,7.7,0.1,8.1,0l-7.6,15.2v0.1
			l2.1,1l5.6-5.4l-2.8,6.6l20.4,3.7l-4.1,5.2l2.1,0.4L530,230z"/>

			<linearGradient id="SVGID_27_" gradientUnits="userSpaceOnUse" x1="516.2499" y1="789.58" x2="516.2499" y2="767.552" gradientTransform="matrix(1 0 0 1 0 -564)">
				<stop offset="0" style="stop-color:#FFB0B0"/>
				<stop offset="0.984" style="stop-color:#FFC2A9"/>
			</linearGradient>
			<path class="st33" d="M514.2,203.6c0,0,3.9-0.5,6.6,4.6l-0.5,1.7c0,0,3.9,0.8,7.6,7.1c0,0-3.3,6-11.5,8.8c0,0-3.8-1-4.5-4.3
			l0.8-2.1l-3,2.2c0,0-3.5,1-5.1-4.2L514.2,203.6z"/>

			<linearGradient id="SVGID_28_" gradientUnits="userSpaceOnUse" x1="528.7315" y1="792.987" x2="528.7315" y2="780.901" gradientTransform="matrix(1 0 0 1 0 -564)">
				<stop offset="0" style="stop-color:#FFB0B0"/>
				<stop offset="0.984" style="stop-color:#FFC2A9"/>
			</linearGradient>
			<path class="st34" d="M534.3,223.2c0,0,0.8-3.8-3.3-6.3l-7.9,8.7c0,0,0.3,2.8,3.7,3.4C526.9,229.1,532.3,227.2,534.3,223.2z"/>

			<linearGradient id="SVGID_29_" gradientUnits="userSpaceOnUse" x1="477.1" y1="817.1" x2="499.58" y2="817.1" gradientTransform="matrix(1 0 0 1 0 -564)">
				<stop offset="1.600000e-02" style="stop-color:#D1A1D6"/>
				<stop offset="0.9944" style="stop-color:#BD89C4"/>
			</linearGradient>
			<path class="st35" d="M477.1,241.4c0,0,9.2,10.2,22.4,14.6l-5.8,8.8l-12.1-15.2l0.8-2.2C482.6,247.3,477.7,243.6,477.1,241.4z"/>
			<path class="st29" d="M520.1,209.8c0,0-3.8,6.3-7.6,9.4l-0.8,2.1c0,0,7.3-5,10.1-10.7C521.9,210.6,521,209.9,520.1,209.8z"/>

			<linearGradient id="SVGID_30_" gradientUnits="userSpaceOnUse" x1="445.7206" y1="894.6204" x2="445.7206" y2="783.8" gradientTransform="matrix(1 0 0 1 0 -564)">
				<stop offset="0" style="stop-color:#CCCCFF"/>
				<stop offset="1" style="stop-color:#755CBB"/>
			</linearGradient>
			<path class="st36" d="M492.5,277c-1.2,1.8-6.9,5.6-8.4,7.1c-1.4,1.4,0,6.4,0,6.4c-24.4,25.8-49.7,38.8-52.3,40
			c-0.1,0-0.3,0.1-0.3,0.1c-2,0.3-11.7-2.5-21.4-21.9c-8.8-17.6-11.3-29.2-11.7-31.3v-0.3l2.1-2.9l3.1-35.8l2.2,7.2
			c8.4-10.2,16.4-25.8,16.4-25.8l0.4,1.2c1.4,5.6,4.3,26.6,7.1,34.1c1.7,4.7,4.5,7.2,6.4,8.7c-7.7,7.1-11.7,17.3-13.5,25.4
			c-1.7,7.5-1.8,13.1-1.8,13.1s2.1-10.1,8.9-22.3c2.5-4.5,6-8.4,9.6-11.7c2.6-2.5,5.4-4.5,7.5-6c1.8,1.2,3.4,3,5,2.2
			c-10.2,15.3-10,45.7-0.4,40c9.6-5.8,11.8-18.1,11.8-18.1c-2.2-14.9-1.6-31.9,0.3-35.1c2.2,0.1,8.5,4.5,8.9,4.5
			c-0.5,17.7,7.7,29.5,7.7,29.5l5.5-8.4c-8-13.4-7.3-26.5-7.3-26.5c0.3-0.1,2.2,1.3,2.2,1.3l-1.3,1.7c2.1,11.9,8.9,19.9,8.9,19.9
			l4.6-6.7C492.5,266.7,493.7,275.2,492.5,277z"/>

			<linearGradient id="SVGID_31_" gradientUnits="userSpaceOnUse" x1="202.1" y1="872.2625" x2="387.2" y2="872.2625" gradientTransform="matrix(1 0 0 1 0 -564)">
				<stop offset="0" style="stop-color:#CCCCFF"/>
				<stop offset="1" style="stop-color:#755CBB"/>
			</linearGradient>
			<path class="st37" d="M387.2,387.3v5.2l-0.1,0.1l-0.3,0.3l-0.3,0.1c-2.4,1.8-12.3,8-43.6,9.7c-37,2-61.7-10-61.7-10l1.8-5.1
			c0,0-1.7-1.4-1.8-2.2c-0.1-0.8,1.3-2.5,1.3-2.5s-3.7-2-3.7-4.5c0-2.2,6-8.8,7.1-14.8c0.1-0.7,0.1-1.3,0.1-2
			c-0.3-6.6-5.9-12.3-6.7-16.1c-0.8-3.7,9.7-13,9.7-13c-8.9-28.3-10.6-66.3-10.6-66.3l-1.7-2c0,0-10.6,24.4-20.3,36.3
			c-9.7,11.9-23.9,22.2-26.3,21.6c-5.8,0-12.1-10-17.8-22.2c-5.8-12.3-6.2-47.5-6.4-49.7c-0.3-2.2-3.5-6.6-3.8-8.4
			c6.2,10.6,16.1,7.6,16.1,7.6c-7.2,0.1-10.9-13.2-10.9-13.2v-0.1V236l-3.5-9.3c0.4,0.4,8.7,9.6,16.5,3.9c8.1-5.8,12.3-17,12.3-17
			V228c0,0,0.5,2.2,1.2,2.2c-0.5,6.7-1.8,14.7-3.5,22.7c-3.7,17.2-8.8,33.8-8.8,33.8s13.6-7.5,18.5-26.3c2.4-9,2.6-16.9,2.5-22.5
			c-0.1-4.9-0.8-8.3-1-9.4c0-0.1,0-0.1-0.1-0.3v-0.1c0,0,0,0,0-0.1l1.3,2.8l2.5,6.3c2.9,24.2-3.1,60.7-3.1,60.7
			c8.8-10.9,10.6-35.1,10.2-41c-0.1-2.8-0.4-6.3-0.5-9c-0.1-3.1-0.3-5.4-0.3-5.4l18,10.7l-3.3-10.5L279,253c0,0,11.8,14.2,23.9,15.9
			c12.1,1.7,56.5,0.7,56.5,0.7s-38.5,2.5-49.8,5.8s-13.4,7.1-13.4,7.1c8.1,41.4,53.2,55.3,54.7,55.8c-40.9-6.2-59.9-40.9-59.9-40.9
			s-0.7,19.5,2.5,27c3.1,7.5,21.8,25.7,45.5,29.5c2,0.3,3.9,0.5,5.9,0.7c20.1,0.9,36.7-9.3,38.4-10.5c0.1,0,0.1-0.1,0.1-0.1
			c-0.7,1-8.9,12.6-42.2,13.9c-2,0.1-3.9,0-5.9,0c-30.8-1.3-46.5-21.9-46.5-21.9s-11.4,6.2-4.1,15.2c0.1,0.1,0.1,0.1,0.3,0.3
			c2.1,2.5,6.8,5.5,12.5,8.7c0.1,0.1,0.3,0.1,0.5,0.3c6.8,3.8,14.7,7.6,20.8,10.7c0,0,0,0,0.1,0c3.8,2,6.8,3.7,8.5,4.9
			c1.7,1.3,2.1,2.1,0.4,2.2c-8.7,1-41.2-6.2-42.6-4.2c-1.3,2,1.6,7.1,1.6,7.1c29.9,14.8,94,7.5,95.9,7.3c-53.9,14-97.8-3.4-97.8-3.4
			l1.4,5.1c0,0,23.9,8.3,52,8.9c28.2,0.7,45.7-6.6,45.7-6.6L387.2,387.3z"/>

			<linearGradient id="SVGID_32_" gradientUnits="userSpaceOnUse" x1="365.261" y1="841.3004" x2="400.661" y2="841.3004" gradientTransform="matrix(1 0 0 1 0 -564)">
				<stop offset="0" style="stop-color:#CCEDFF"/>
				<stop offset="1" style="stop-color:#755CBB"/>
			</linearGradient>
			<path class="st38" d="M365.3,269.4c0,0,21.4,1.2,35.4,4.8l-7.2,11C393.4,285.3,382.4,275.7,365.3,269.4z"/>

			<linearGradient id="SVGID_33_" gradientUnits="userSpaceOnUse" x1="333.147" y1="903.4389" x2="385.147" y2="903.4389" gradientTransform="matrix(1 0 0 1 0 -564)">
				<stop offset="0" style="stop-color:#CCEDFF"/>
				<stop offset="1" style="stop-color:#755CBB"/>
			</linearGradient>
			<path class="st39" d="M385.2,328.1c0,0-13.2,11.1-26.3,16.3s-25.7,5.6-25.7,5.6s7.5,2.2,26.1-0.8c18.5-3,24.9-13,24.9-13
			L385.2,328.1z"/>

			<linearGradient id="SVGID_34_" gradientUnits="userSpaceOnUse" x1="335.5991" y1="927.0229" x2="391.2" y2="927.0229" gradientTransform="matrix(1 0 0 1 0 -564)">
				<stop offset="0" style="stop-color:#CCEDFF"/>
				<stop offset="1" style="stop-color:#755CBB"/>
			</linearGradient>
			<path class="st40" d="M391.2,370.9c-24.6,6.4-55.8-2.8-55.6-3.9c0.3-1.2,8.5,0.5,27.8-3.4c18.6-3.8,25.4-10.4,25.8-10.7
			c-0.1,1.2-2.8,3.7-3.4,6.3C385.2,361,388.7,366.7,391.2,370.9z"/>

			<linearGradient id="SVGID_35_" gradientUnits="userSpaceOnUse" x1="287.65" y1="868.8" x2="287.65" y2="806.394" gradientTransform="matrix(1 0 0 1 0 -564)">
				<stop offset="0" style="stop-color:#CCEDFF"/>
				<stop offset="1" style="stop-color:#755CBB"/>
			</linearGradient>
			<path class="st41" d="M324.2,272.7c-21,2.1-26.7,8-26.7,8c-5.9,0.8-19.1-14.4-19.1-14.4l-1.7-2c0,0-10.6,24.4-20.3,36.3
			c-1.2,1.4-2.4,2.8-3.7,4.2l1.4-3.1c0,0,2.2-1,2.9-13c0.7-11.8-5-29.5-5-31.9s-0.9-14.6-0.9-14.6l18,10.7l-3.3-10.5l13.1,10.5
			c0,0,5.1,7.7,18.1,14.2C309.2,273.2,322.8,272.8,324.2,272.7z"/>

			<linearGradient id="SVGID_36_" gradientUnits="userSpaceOnUse" x1="292.75" y1="874.005" x2="292.75" y2="826.699" gradientTransform="matrix(1 0 0 1 0 -564)">
				<stop offset="0" style="stop-color:#CCEDFF"/>
				<stop offset="1" style="stop-color:#755CBB"/>
			</linearGradient>
			<path class="st42" d="M276.7,264.3l12.6-1.6c0,0,5,3.3,15.1,7.3l-8.4,12.3c0,0,3.3,17.6,12.8,27.5c0,0-25.3-14-28.8-26
			L276.7,264.3z"/>

			<linearGradient id="SVGID_37_" gradientUnits="userSpaceOnUse" x1="217.85" y1="813.5093" x2="217.85" y2="777.7683" gradientTransform="matrix(1 0 0 1 0 -564)">
				<stop offset="0" style="stop-color:#CCEDFF"/>
				<stop offset="1" style="stop-color:#755CBB"/>
			</linearGradient>
			<path class="st43" d="M203.5,226.8l3.5,9.4c0,0,3.7,12.7,10.9,13.2s14.3-21.4,14.3-21.4v-14.4c0,0-7.7,16.5-16,18.4
			C208,234,203.5,226.8,203.5,226.8z"/>

			<linearGradient id="SVGID_38_" gradientUnits="userSpaceOnUse" x1="246.9" y1="782.0985" x2="261.318" y2="782.0985" gradientTransform="matrix(1 0 0 1 0 -564)">
				<stop offset="0" style="stop-color:#CCEDFF"/>
				<stop offset="1" style="stop-color:#755CBB"/>
			</linearGradient>
			<path class="st44" d="M246.9,219.4c0,0,6.4,13,14.4,16.9c0,0-9.4-22.9-7.5-36.4C253.8,199.8,250.3,202.1,246.9,219.4z"/>

			<linearGradient id="SVGID_39_" gradientUnits="userSpaceOnUse" x1="403.35" y1="868.8" x2="403.35" y2="802.5" gradientTransform="matrix(1 0 0 1 0 -564)">
				<stop offset="0" style="stop-color:#CCCCFF"/>
				<stop offset="1" style="stop-color:#755CBB"/>
			</linearGradient>
			<path class="st45" d="M403.8,238.5l2.2,7.2l2.2,59.1c0,0-5.8-11.3-9.7-27.3l2.1-3.1C400.7,274.3,404.2,252,403.8,238.5z"/>

			<linearGradient id="SVGID_40_" gradientUnits="userSpaceOnUse" x1="477.9812" y1="854.5" x2="477.9812" y2="819.9" gradientTransform="matrix(1 0 0 1 0 -564)">
				<stop offset="0" style="stop-color:#CCCCFF"/>
				<stop offset="1" style="stop-color:#755CBB"/>
			</linearGradient>
			<path class="st46" d="M472.5,255.9c0,0-1.3,29,11,31.5l0.7,3.1C484.1,290.5,468.2,289.9,472.5,255.9z"/>

			<linearGradient id="SVGID_41_" gradientUnits="userSpaceOnUse" x1="438.65" y1="852.953" x2="438.65" y2="826.453" gradientTransform="matrix(1 0 0 1 0 -564)">
				<stop offset="0" style="stop-color:#CCCCFF"/>
				<stop offset="1" style="stop-color:#755CBB"/>
			</linearGradient>
			<path class="st47" d="M451.9,264.7c0,0-0.5,1-5-2.2c0,0-15.5,11-21.5,26.5c0,0,9.6-14.3,14.7-15.7s6.3,4.2,6.3,4.2
			S448.5,269.3,451.9,264.7z"/>

			<linearGradient id="SVGID_42_" gradientUnits="userSpaceOnUse" x1="210.4863" y1="815.816" x2="210.4863" y2="805.988" gradientTransform="matrix(1 0 0 1 0 -564)">
				<stop offset="0" style="stop-color:#CCEDFF"/>
				<stop offset="1" style="stop-color:#755CBB"/>
			</linearGradient>
			<path class="st48" d="M201.9,242c0,0,6,11,17.2,7.6c0,0-6.7,4.5-13.4,0.8C205.6,250.4,201.5,243.2,201.9,242z"/>

			<linearGradient id="SVGID_43_" gradientUnits="userSpaceOnUse" x1="236.7004" y1="845.8" x2="236.7004" y2="792.1" gradientTransform="matrix(1 0 0 1 0 -564)">
				<stop offset="0" style="stop-color:#CCCCFF"/>
				<stop offset="1" style="stop-color:#755CBB"/>
			</linearGradient>
			<path class="st49" d="M241,228.1c0,0,8.3,30.7-13.2,53.7c0,0,13.9-7.1,17-23.6C247.9,241.6,241,228.1,241,228.1z"/>

			<linearGradient id="SVGID_44_" gradientUnits="userSpaceOnUse" x1="374.8258" y1="807.967" x2="374.8258" y2="767.595" gradientTransform="matrix(1 0 0 1 0 -564)">
				<stop offset="0" style="stop-color:#CCEDFF"/>
				<stop offset="1" style="stop-color:#755CBB"/>
			</linearGradient>
			<path class="st50" d="M387.9,203.5c0,0-0.9,13.9-7.6,23.7c-6.7,10-19.8,16.6-19.8,16.6s16.5-6,24.1-14.7
			C392.3,220.8,387.9,203.5,387.9,203.5z"/>

			<linearGradient id="SVGID_45_" gradientUnits="userSpaceOnUse" x1="321.9129" y1="802.5" x2="321.9129" y2="746.713" gradientTransform="matrix(1 0 0 1 0 -564)">
				<stop offset="0" style="stop-color:#CCEDFF"/>
				<stop offset="1" style="stop-color:#755CBB"/>
			</linearGradient>
			<path class="st51" d="M303.5,182.8c0,0,0,11.5,3.7,23.3s36,32.4,36,32.4s-33.3-13.9-39.8-26.3
			C297.1,199.8,303.5,182.8,303.5,182.8z"/>

			<linearGradient id="SVGID_46_" gradientUnits="userSpaceOnUse" x1="311.127" y1="758.9" x2="371.815" y2="758.9" gradientTransform="matrix(1 0 0 1 0 -564)">
				<stop offset="0" style="stop-color:#CCCCFF"/>
				<stop offset="1" style="stop-color:#755CBB"/>
			</linearGradient>
			<path class="st52" d="M371.8,185.3c-1,12.2-4.7,20.7-8.7,26.3c-5.5,7.9-11.4,10.6-11.4,10.6c-5.9-2.6-11-5.8-15.5-9.3
			c-18.7-14.9-24.8-35.7-25.2-37.4c7.9,19,19.5,30.7,28.3,37.1c7.1,5.2,12.3,7.2,12.3,7.2v-6c-1.4-0.5-2.8-1.2-4.1-1.8
			c-15.5-7.7-23.6-24.1-27.4-34.6c0,0,0,0,0-0.1c-2.1-5.6-2.9-9.7-2.9-9.7h2.8l-0.9,2v0.1c0.4,2,0.9,3.9,1.6,5.8v0.1
			c8.7,27.3,30.9,36,30.9,36c15.5-11.4,15.2-29.5,15.2-29.5v-2.5l2.9,0.9L371.8,185.3z"/>

			<linearGradient id="SVGID_47_" gradientUnits="userSpaceOnUse" x1="466.9706" y1="850.6" x2="466.9706" y2="815.5" gradientTransform="matrix(1 0 0 1 0 -564)">
				<stop offset="0" style="stop-color:#CCCCFF"/>
				<stop offset="1" style="stop-color:#755CBB"/>
			</linearGradient>
			<path class="st53" d="M463.6,251.5c0,0-4.2,13.8-0.3,35.1c0,0,2-27,3.4-29.4s5.6-1.2,5.6-1.2S465.9,252.3,463.6,251.5z"/>

			<linearGradient id="SVGID_48_" gradientUnits="userSpaceOnUse" x1="417.5" y1="890.2" x2="417.5" y2="784.1" gradientTransform="matrix(1 0 0 1 0 -564)">
				<stop offset="0" style="stop-color:#CCCCFF"/>
				<stop offset="1" style="stop-color:#755CBB"/>
			</linearGradient>
			<path class="st54" d="M422.8,326.2c-3.7-3.3-8.1-8.5-12.5-17.3c-8.8-17.6-11.3-29.2-11.7-31.3l2.1-3.1l2.8-27l2.6-1.6
			c0,0,9.3-10.4,16.4-25.8c0.1,0.3,0.3,0.7,0.4,1.2c1.4,5.6,4.3,26.6,7.1,34.1c1.7,4.7,4.5,7.2,6.4,8.7c0,0-16.1,24-16.9,41
			C418.6,320.3,422.1,325.4,422.8,326.2z"/>

			<linearGradient id="SVGID_49_" gradientUnits="userSpaceOnUse" x1="303.25" y1="940.068" x2="303.25" y2="909.606" gradientTransform="matrix(1 0 0 1 0 -564)">
				<stop offset="0" style="stop-color:#CCCCFF"/>
				<stop offset="1" style="stop-color:#755CBB"/>
			</linearGradient>
			<path class="st55" d="M327,376.1c0,0-29.1-4.7-40.9-12.5c0.1-0.7,0.1-1.3,0.1-2c-0.3-6.6-5.9-12.3-6.7-16.1c0.1,0.4,1,2.4,5.1,5.9
			c2.6,2.2,6.6,5.1,12.5,8.7c0.1,0.1,0.3,0.1,0.5,0.3c8.4,5,15.6,8.3,20.8,10.7c0,0,0,0,0.1,0C323.1,373.4,326.2,374.8,327,376.1
			C327,376,327,376.1,327,376.1z"/>

			<linearGradient id="SVGID_50_" gradientUnits="userSpaceOnUse" x1="362.3" y1="931.699" x2="362.3" y2="916.9011" gradientTransform="matrix(1 0 0 1 0 -564)">
				<stop offset="0" style="stop-color:#CCCCFF"/>
				<stop offset="1" style="stop-color:#755CBB"/>
			</linearGradient>
			<path class="st56" d="M389.1,352.9c-0.1,1.2-2.8,3.7-3.4,6.3c0,0-10.6,11.3-50.2,7.9c0.3-1.2,8.5,0.5,27.8-3.4
			C382,360,388.7,353.3,389.1,352.9z"/>
			<path class="st57" d="M395.8,200.1l-25.3,8.1l-7.3,3.4h-4.9h-6.6l-4.1,0.3l-2.1,0.1l-6.2,0.5l-3.1,0.3l-30.3-11l-5.4-2l-24.9-9
			c0.8-0.3,1.4-0.5,2.2-0.9c16.8-6.7,33.2-14.7,33.2-14.7l6.3-7.7h2.8c2.5-5.5,4.2-10.6,5.2-14.7l1.7-7.5c0.1-0.8,0.1-1,0.1-1
			l8.9,4.7l21,31.1c0,1.6,9.2-3.9,9.3-2.8l0.4,3c0.1-0.5,0.1-0.9,0.1-0.9l2.9,0.9l2,4.7c0,0,3.4,5.2,16.6,11
			C390.7,197.3,393.2,198.6,395.8,200.1z"/>
			<path class="st58" d="M395.8,200.1c0,0,22.5,16.5,25.6,22.2c2.9,5.6,4.1,23.5,8.1,31.2c0,0-2.8-12.6-4.6-22.4
			c-2-9.8-1.4-10-2.5-12.5C421.2,216.1,404.3,204.3,395.8,200.1z"/>
			<path class="st58" d="M391.7,291.8c0,0-10.9,46.5-10.4,49.7c0.5,3.1,7.6,9.6,7.9,11.3c0,0-5.4,7.2-5.1,8.8
			c0.3,1.6,9.4,11.7,9.2,14.8c0,0.9-6,10.7-6,10.7s6.7-9.7,7.1-11.1s-8.3-14.4-8.5-15.7c-0.7-3.4,4.3-5.9,4.5-8.1
			c0.1-2.2-6.7-7.7-6.7-11.3C383.5,337.2,391.7,291.8,391.7,291.8z"/>
			<path class="st58" d="M394,402.9c0,0,23.6,53.2,31.6,106.6C425.4,509.4,424.1,457.4,394,402.9z"/>
			<path class="st59" d="M244.8,189.3c0,0-6-1.3-8.7-6.6c-2.5-5.4-0.9-13-0.9-13s4.7,9.2,7.1,12.3
			C244.8,185.1,245.5,188.7,244.8,189.3z"/>
			<path class="st60" d="M432.6,161.5l4.2,120.3c0.1,4.7,4.1,8.5,8.9,8.5H653c4.8,0,8.8-3.8,8.9-8.7l2.9-121.8c0.1-5-3.9-9-8.9-9
			l-214.4,1.4C436.4,152.4,432.4,156.6,432.6,161.5z"/>
			<path class="st61" d="M653,290.8H445.6c-5,0-9-3.9-9.2-8.9l-4.2-120.3c-0.1-2.5,0.8-4.8,2.6-6.7c1.7-1.8,4.1-2.9,6.6-2.9
			l214.4-1.4c2.5,0,4.9,0.9,6.6,2.8c1.7,1.8,2.8,4.2,2.6,6.7l-2.9,121.8C662,286.9,658,290.8,653,290.8z M655.9,151.3
			C655.9,151.3,655.7,151.3,655.9,151.3l-214.4,1.4c-2.4,0-4.5,0.9-6.2,2.6c-1.7,1.7-2.5,3.9-2.4,6.2l4.2,120.3
			c0.1,4.6,3.9,8.3,8.5,8.3h207.2c4.6,0,8.4-3.8,8.5-8.4l2.9-121.8c0-2.4-0.8-4.5-2.5-6.2C660.3,152.2,658.2,151.3,655.9,151.3z"/>

			<linearGradient id="SVGID_51_" gradientUnits="userSpaceOnUse" x1="432.8" y1="723.447" x2="664.9142" y2="723.447" gradientTransform="matrix(1 0 0 1 0 -564)">
				<stop offset="0" style="stop-color:#9D68C2"/>
				<stop offset="1" style="stop-color:#AEC2FF"/>
			</linearGradient>
			<path class="st62" d="M432.9,167.7h231.6l0.4-6.3c0.3-5.6-4.2-10.4-9.8-10.2l-214.3,1.7c-4.5,0-8,3.7-8,8.1L432.9,167.7z"/>

			<linearGradient id="SVGID_52_" gradientUnits="userSpaceOnUse" x1="599.3" y1="776.9" x2="599.3" y2="746.1" gradientTransform="matrix(1 0 0 1 0 -564)">
				<stop offset="0" style="stop-color:#CCEDFF"/>
				<stop offset="1" style="stop-color:#9D68C2"/>
			</linearGradient>
			<path class="st63" d="M614.7,182.1h-30.8v30.8h30.8V182.1z"/>

			<linearGradient id="SVGID_53_" gradientUnits="userSpaceOnUse" x1="635.7" y1="776.9" x2="635.7" y2="746.1" gradientTransform="matrix(1 0 0 1 0 -564)">
				<stop offset="0" style="stop-color:#CCEDFF"/>
				<stop offset="1" style="stop-color:#9D68C2"/>
			</linearGradient>
			<path class="st64" d="M651.1,182.1h-30.8v30.8h30.8V182.1z"/>

			<linearGradient id="SVGID_54_" gradientUnits="userSpaceOnUse" x1="562.3" y1="776.9" x2="562.3" y2="746.1" gradientTransform="matrix(1 0 0 1 0 -564)">
				<stop offset="0" style="stop-color:#CCEDFF"/>
				<stop offset="1" style="stop-color:#9D68C2"/>
			</linearGradient>
			<path class="st65" d="M577.7,182.1h-30.8v30.8h30.8V182.1z"/>
			<path class="st66" d="M651,230.9h-78.8v7.3H651V230.9z"/>
			<path class="st66" d="M651.1,242.2h-98.6v2.2h98.6V242.2z"/>
			<path class="st66" d="M572.4,216.9h-18.9v2.2h18.9V216.9z"/>
			<path class="st66" d="M608.8,216.9h-18.9v2.2h18.9V216.9z"/>
			<path class="st66" d="M645.1,216.9h-18.9v2.2h18.9V216.9z"/>
			<path class="st66" d="M578.7,245.8H547v2.2h31.7V245.8z"/>
			<path class="st66" d="M651.1,249.5h-98.6v2.2h98.6V249.5z"/>
			<path class="st66" d="M651.1,253.2H546.9v2.2h104.2L651.1,253.2L651.1,253.2z"/>
			<path class="st66" d="M651.1,256.8H546.9v2.2h104.2L651.1,256.8L651.1,256.8z"/>
			<path class="st66" d="M651.1,271.7h-98.6v2.2h98.6V271.7z"/>
			<path class="st66" d="M651.1,275.3H546.9v2.2h104.2L651.1,275.3L651.1,275.3z"/>
			<path class="st66" d="M651.1,279H546.9v2.2h104.2L651.1,279L651.1,279z"/>
			<path class="st66" d="M646.9,260.5h-100v2.2h100V260.5z"/>
			<path class="st66" d="M651.1,264.2h-98.6v2.2h98.6V264.2z"/>
			<path class="st66" d="M631.3,267.9h-84.4v2.2h84.4V267.9z"/>
			<path class="st67" d="M464.4,233.1c-11.1,0-20.2-9-20.2-20.2c0-11.1,9-20.2,20.2-20.2c11.1,0,20.2,9,20.2,20.2
			C484.5,224.1,475.5,233.1,464.4,233.1z M464.4,194.1c-10.4,0-18.9,8.4-18.9,18.9c0,10.4,8.5,18.9,18.9,18.9s18.9-8.4,18.9-18.9
			C483.2,202.6,474.8,194.1,464.4,194.1z"/>
			<path class="st1" d="M464.4,223.9c6.1,0,11-4.9,11-11s-4.9-11-11-11s-11,4.9-11,11C453.3,219,458.3,223.9,464.4,223.9z"/>
			<path class="st67" d="M515.5,197.2c-11.1,0-20.2-9-20.2-20.2c0-11.1,9-20.2,20.2-20.2c11.1,0,20.2,9,20.2,20.2
			C535.5,188.2,526.5,197.2,515.5,197.2z M515.5,158.1c-10.4,0-18.9,8.4-18.9,18.9c0,10.4,8.5,18.9,18.9,18.9
			c10.4,0,18.9-8.4,18.9-18.9C534.2,166.7,525.8,158.1,515.5,158.1z"/>
			<path class="st1" d="M515.3,187.4c5.7,0,10.4-4.6,10.4-10.4c0-5.7-4.6-10.4-10.4-10.4S505,171.3,505,177S509.6,187.4,515.3,187.4z
			"/>
			<path class="st1" d="M441,158.3l1.4-2.2l8,6.9l-1.2,1.7L441,158.3z"/>
			<path class="st1" d="M450.6,158.3l-1.4-2.2l-8,6.9l1.3,1.7L450.6,158.3z"/>

			<linearGradient id="SVGID_55_" gradientUnits="userSpaceOnUse" x1="230.75" y1="701.167" x2="230.75" y2="668.922" gradientTransform="matrix(1 0 0 1 0 -564)">
				<stop offset="0" style="stop-color:#D93DE3"/>
				<stop offset="1" style="stop-color:#FF6DBA"/>
			</linearGradient>
			<path class="st68" d="M212,105.8v31.1l37,0.3l0.5-32.2L212,105.8z"/>

			<linearGradient id="SVGID_56_" gradientUnits="userSpaceOnUse" x1="250.45" y1="701.167" x2="250.45" y2="668.922" gradientTransform="matrix(1 0 0 1 0 -564)">
				<stop offset="0" style="stop-color:#A242EA"/>
				<stop offset="1" style="stop-color:#FE117E"/>
			</linearGradient>
			<path class="st69" d="M249.5,104.9l2.4,4.1l-1.2,28.2H249L249.5,104.9z"/>
			<path class="st1" d="M218.6,116.3l3.4-5l18.5,15.6l-2.9,3.7L218.6,116.3z"/>
			<path class="st1" d="M241,116.3l-3.4-5l-18.5,15.6l2.8,3.7L241,116.3z"/>

			<linearGradient id="SVGID_57_" gradientUnits="userSpaceOnUse" x1="225.1714" y1="1041.197" x2="242.6098" y2="902.3462" gradientTransform="matrix(1 0 0 1 0 -564)">
				<stop offset="0" style="stop-color:#FFFFFF"/>
				<stop offset="1" style="stop-color:#DBDBDB"/>
			</linearGradient>
			<path class="st70" d="M298.4,470.4H171.7c-5.6,0-10.2-4.5-10.4-10.1l-2.4-103.9c-0.1-5.8,4.6-10.6,10.4-10.6h132
			c5.9,0,10.5,4.9,10.4,10.6l-2.9,103.9C308.6,465.9,304,470.4,298.4,470.4z"/>
			<path class="st2" d="M298.4,470.6H171.7c-5.8,0-10.6-4.7-10.7-10.5l-2.4-103.9c-0.1-2.9,1-5.6,3-7.7c2.1-2.1,4.7-3.3,7.6-3.3h132
			c2.9,0,5.6,1.2,7.7,3.3c2,2.1,3.1,4.9,3,7.7L309,460.1C308.9,466,304.2,470.6,298.4,470.6z M169.3,346c-2.8,0-5.2,1-7.2,3
			s-2.9,4.6-2.9,7.2l2.4,103.9c0.1,5.4,4.6,9.8,10.1,9.8h126.8c5.5,0,9.8-4.3,10.1-9.8l2.9-103.9c0.1-2.8-0.9-5.4-2.9-7.3
			s-4.5-3-7.2-3L169.3,346L169.3,346L169.3,346z"/>

			<linearGradient id="SVGID_58_" gradientUnits="userSpaceOnUse" x1="82" y1="834.917" x2="82" y2="820.341" gradientTransform="matrix(1 0 0 1 0 -564)">
				<stop offset="0" style="stop-color:#459FFF"/>
				<stop offset="1" style="stop-color:#A96DFF"/>
			</linearGradient>
			<path class="st71" d="M89.3,263.7c0,4.1-3.3,7.3-7.3,7.3s-7.3-3.3-7.3-7.3c0-4.1,3.3-7.3,7.3-7.3S89.3,259.6,89.3,263.7z"/>

			<linearGradient id="SVGID_59_" gradientUnits="userSpaceOnUse" x1="272.1" y1="736.204" x2="272.1" y2="727.919" gradientTransform="matrix(1 0 0 1 0 -564)">
				<stop offset="0" style="stop-color:#B31A8F"/>
				<stop offset="1" style="stop-color:#FE117E"/>
			</linearGradient>
			<path class="st72" d="M272.1,172.3c2.3,0,4.2-1.9,4.2-4.2s-1.9-4.2-4.2-4.2c-2.3,0-4.2,1.9-4.2,4.2
			C267.9,170.4,269.8,172.3,272.1,172.3z"/>

			<linearGradient id="SVGID_60_" gradientUnits="userSpaceOnUse" x1="549.6" y1="918.964" x2="549.6" y2="910.679" gradientTransform="matrix(1 0 0 1 0 -564)">
				<stop offset="0" style="stop-color:#8642A0"/>
				<stop offset="1" style="stop-color:#6456C0"/>
			</linearGradient>
			<path class="st73" d="M549.6,355c2.3,0,4.2-1.9,4.2-4.2c0-2.3-1.9-4.2-4.2-4.2s-4.2,1.9-4.2,4.2C545.4,353.1,547.2,355,549.6,355z
			"/>

			<linearGradient id="SVGID_61_" gradientUnits="userSpaceOnUse" x1="118.8" y1="959.821" x2="118.8" y2="952.421" gradientTransform="matrix(1 0 0 1 0 -564)">
				<stop offset="0" style="stop-color:#8642A0"/>
				<stop offset="1" style="stop-color:#6456C0"/>
			</linearGradient>
			<path class="st74" d="M118.8,395.8c2,0,3.7-1.6,3.7-3.7c0-2-1.6-3.7-3.7-3.7s-3.7,1.6-3.7,3.7
			C115.2,394.1,116.8,395.8,118.8,395.8z"/>

			<linearGradient id="SVGID_62_" gradientUnits="userSpaceOnUse" x1="473.0043" y1="963.5914" x2="481.2613" y2="907.8405" gradientTransform="matrix(1 0 0 1 0 -564)">
				<stop offset="0" style="stop-color:#1852A0"/>
				<stop offset="1" style="stop-color:#067ED3"/>
			</linearGradient>
			<path class="st75" d="M481,360.5l-3.8,11C479.3,365.4,482.3,361.6,481,360.5z M477.2,371.5l-3.8,11
			C474.3,382.2,475,377.6,477.2,371.5z M481,360.5l-3.8,11C479.3,365.4,482.3,361.6,481,360.5z M477.2,371.5l-3.8,11
			C474.3,382.2,475,377.6,477.2,371.5z M488.2,381l3.7,2.1l4.1-11l-4.3-0.7c0.1-0.4,0.1-0.8,0.3-1.2c0.3-1.8,0.4-3.7,0.4-5.5
			l4.5-2.8l-2.1-9.7l-4.3,4.1c-0.7-1.2-1.3-2.4-2.2-3.3c-0.3-0.3-0.5-0.5-0.8-0.7l2.6-6l-7.1-2.2l-1.7,6.2c-1.6,0-3.1,0.4-4.7,1.2
			l-0.8-5.8l-7.7,5.9l1.8,5.1c-1.4,1.6-2.6,3.4-3.8,5.5l-3.7-2.1l-4.1,11l4.3,0.7c-0.5,2.4-0.7,4.6-0.5,6.7l-4.5,2.8l2.1,9.7
			l4.3-4.1c0.8,1.6,1.7,2.9,2.9,3.9l-2.6,6l6.9,2.6l1-3.9l0.7-2.6c1.6,0,3.1-0.4,4.7-1l0.8,5.8l7.7-5.9l-1.8-5.1
			c1-1.3,2.1-2.6,3-4.2C487.7,381.9,487.9,381.4,488.2,381z M477.2,371.5c-2.1,6,0,12.3-3.8,11s-5.2-7.3-3.1-13.4
			c2.1-6,6.9-9.8,10.7-8.5C484.8,361.8,479.3,365.4,477.2,371.5z M481,360.5l-3.8,11C479.3,365.4,482.3,361.6,481,360.5z
			 M477.2,371.5l-3.8,11C474.3,382.2,475,377.6,477.2,371.5z"/>

			<linearGradient id="SVGID_63_" gradientUnits="userSpaceOnUse" x1="466.9007" y1="962.2155" x2="481.8229" y2="906.7949" gradientTransform="matrix(1 0 0 1 0 -564)">
				<stop offset="0" style="stop-color:#1852A0"/>
				<stop offset="1" style="stop-color:#067ED3"/>
			</linearGradient>
			<path class="st76" d="M491.9,383.1l4.1-11l-4.1-2l-0.7-0.3l0.4-6l4.6-2.2l-1.4-9.3L485,349l1.8,4.3l3.4-7.1l-7.1-2.2l-2.9-0.9
			l-6.9-2.6l-1.3,4.7l-6-2.9l-7.7,5.9l2.4,6.3l-7.2,20.1l-3.5,13l6.8,0.8l-2.2,5.1l6.9,2.6l9.8,3.3l-1.6-3.1l-1-2l3.7,1.2l6.3,2
			l7.7-5.9l-4.7-5.6l6-3.7L491.9,383.1z M470.3,369c2.1-6,6.9-9.8,10.7-8.5l-3.8,11l-3.8,11C469.5,381.1,468,375.1,470.3,369z"/>

			<linearGradient id="SVGID_64_" gradientUnits="userSpaceOnUse" x1="462.8581" y1="960.2444" x2="471.6513" y2="904.1961" gradientTransform="matrix(1 0 0 1 0 -564)">
				<stop offset="0" style="stop-color:#188DC1"/>
				<stop offset="1" style="stop-color:#06BFE7"/>
			</linearGradient>
			<path class="st77" d="M482,379.8l4.1-11l-4.3-0.7c0.5-2.4,0.7-4.6,0.5-6.7l4.5-2.8l-2.1-9.7l-4.3,4.1c-0.8-1.6-1.7-2.9-2.9-3.9
			l2.6-6l-6.9-2.6l-1.8,6.6c-1.6,0-3.1,0.4-4.7,1l-0.8-5.8l-7.7,5.9l1.8,5.1c-1.4,1.6-2.6,3.4-3.8,5.5l-3.7-2.1l-4.1,11l4.3,0.7
			c-0.5,2.4-0.7,4.6-0.5,6.7l-4.5,2.8l2.1,9.7l4.3-4.1c0.8,1.6,1.7,2.9,2.9,3.9l-2.6,6l6.9,2.6l1.8-6.6c1.6,0,3.1-0.4,4.7-1l0.8,5.8
			l7.7-5.9l-1.8-5.1c1.4-1.6,2.6-3.4,3.8-5.5L482,379.8z M463.4,379.1c-3.8-1.3-5.2-7.3-3.1-13.4c2.1-6,6.9-9.8,10.7-8.5
			c3.8,1.3,5.2,7.3,3.1,13.4C472.1,376.8,467.2,380.6,463.4,379.1z"/>
			<path class="st78" d="M496.7,362l-10-3.3l-4.5,2.9l9.8,3.1L496.7,362z"/>
			<path class="st79" d="M486.2,391.6l-10-3.3l-1.7-5.1l9.8,3.3L486.2,391.6z"/>
			<path class="st78" d="M477.5,349.2l5.5,1.6l1.8-1.8l3.5,1.2l1.7-3.8l-10-3.3L477.5,349.2z"/>
			<path class="st78" d="M463,389.5l5.2,2.1l-0.4-3.3C467.9,388.4,465,389.9,463,389.5z"/>
			<path class="st78" d="M463.8,359.9l8.7,4.6c0,0,1.3-1.7,2.2-2.4C474.8,362.1,472.6,352.5,463.8,359.9z"/>
			<path class="st80" d="M74.3,425.9l7.9,8.5l3-3.5l-7.3-8L74.3,425.9z"/>
			<path class="st81" d="M519,93.3l-7.9,4.7l-3.1-6l8.7-5L519,93.3z"/>
			<path class="st81" d="M508.5,437.5l-11.3,8l-3.1-6l10.9-6.3L508.5,437.5z"/>
			<path class="st61" d="M504.7,445.7l-8.4,11.5l0.5,0.4l8.4-11.5L504.7,445.7z"/>
			<path class="st61" d="M417.2,351.1l-9-11.4l0.5-0.4l9,11.4L417.2,351.1z"/>
			<path class="st61" d="M136.3,430.6l-18.2-13.2l0.4-0.5l18.2,13.2L136.3,430.6z"/>
			<path class="st61" d="M133.9,414.7l-13.6,17.8l0.5,0.4l13.6-17.8L133.9,414.7z"/>
			<path class="st61" d="M95.4,230.5l-0.3,0.6l11.7,6.2l0.3-0.6L95.4,230.5z"/>
			<path class="st61" d="M213.6,321.7l-15.6,13l0.4,0.5l15.6-13L213.6,321.7z"/>

			<linearGradient id="SVGID_65_" gradientUnits="userSpaceOnUse" x1="343.9745" y1="767.8441" x2="343.9745" y2="705" gradientTransform="matrix(1 0 0 1 0 -564)">
				<stop offset="1.600000e-02" style="stop-color:#FFC2A9"/>
				<stop offset="1" style="stop-color:#FF9595"/>
			</linearGradient>
			<path class="st82" d="M366.4,177.5c0,0-6.2-5.1-6.2-20.2L326.7,141c0,0,0.8,5.9-2,14.8c-0.9,2.9-7.2,11.9-7.2,11.9
			s27.4,39.6,42.1,35.9c14.7-3.7,10.2-23.2,10.2-23.2S368.9,180.8,366.4,177.5z"/>

			<linearGradient id="SVGID_66_" gradientUnits="userSpaceOnUse" x1="344.8687" y1="721.3957" x2="344.8687" y2="621.5196" gradientTransform="matrix(1 0 0 1 0 -564)">
				<stop offset="1.598750e-02" style="stop-color:#FFC2A9"/>
				<stop offset="1" style="stop-color:#FF9595"/>
			</linearGradient>
			<path class="st83" d="M373.1,153.9L373,154c-0.5,0.5-0.9,1-1.4,1.3c-7.5,3.8-27.3,2.9-38.1-6.6c-4.1-3.5-7.2-7.9-9.6-12.3
			c-3.9-7.1-6.2-14.6-8.3-19.7c-3.4-8.3-6.3-22.2-5.6-30.1c0.7-7.5,2.1-13.8,12.3-22.3c10.1-8.7,34.9-9.2,41.3-0.5
			c6.3,8.7,6.2,28.1,7.6,32.2c1.4,4.3,6.8,9.4,8.3,15.2C380.6,116.6,379.2,146.3,373.1,153.9z"/>

			<linearGradient id="SVGID_67_" gradientUnits="userSpaceOnUse" x1="342.3914" y1="700.119" x2="342.3914" y2="621.3529" gradientTransform="matrix(1 0 0 1 0 -564)">
				<stop offset="1.598750e-02" style="stop-color:#FFA58B"/>
				<stop offset="1" style="stop-color:#FF898E"/>
			</linearGradient>
			<path class="st84" d="M373.1,100.2c0,0-0.3,5.1-4.3,5.5c-3.1,0.3-5.1-4.3-5.1-4.3s-0.5-12.6,1-18.9l1.4-5c0,0-4.3-4.6-10.7-3.9
			c-6.4,0.5-8.8,7.5-8.8,7.5s5.8,16.4,4.8,24.4c0,0-4.3,4.2-11.7,3.7c-8.4-0.5-12.7-5.6-12.7-5.6s-4.6,5.4-5.5,10
			c-1,5.5,0.8,22.7,0.8,22.7s-5.8-18.7-7.3-24.1c-1.6-5.5-4.5-29.8-2.8-33.8c1.7-4.2,6.8-17.6,28.3-20.3c21.5-2.6,25.6,4.6,25.6,4.6
			l2.2,10.6v5.5c0,0,1.4,14.2,2.1,16.5C371,97.5,373.1,100.2,373.1,100.2z"/>

			<linearGradient id="SVGID_68_" gradientUnits="userSpaceOnUse" x1="341.7742" y1="681.6781" x2="329.9784" y2="607.198" gradientTransform="matrix(1 0 0 1 0 -564)">
				<stop offset="0" style="stop-color:#D49092"/>
				<stop offset="0.1274" style="stop-color:#D18E92"/>
				<stop offset="0.2036" style="stop-color:#C98991"/>
				<stop offset="0.2664" style="stop-color:#BB7F90"/>
				<stop offset="0.3218" style="stop-color:#A7718F"/>
				<stop offset="0.3725" style="stop-color:#8C5F8D"/>
				<stop offset="0.4196" style="stop-color:#6C498A"/>
				<stop offset="0.4631" style="stop-color:#472F88"/>
				<stop offset="0.4721" style="stop-color:#3E2987"/>
				<stop offset="0.6068" style="stop-color:#352278"/>
				<stop offset="0.8455" style="stop-color:#291762"/>
				<stop offset="1" style="stop-color:#24135A"/>
			</linearGradient>
			<path class="st85" d="M368.5,79c0,0-0.5-7.3-4.7-14.5c0,0-4.6,4.8-12.1,7.5c0,0,3.4-3.1,5.1-5.6c-0.3,0.3-5,3.8-11.4,6.6
			c0,0,1.8-2.9,1.8-4.1s-4.7-6.7-10.2-6.6c-5.5,0.1-15.9,3.7-21.1,13.6c-5.2,10,0,10.9,2.9,13.5c0,0-1.4,12.3-1.2,22.7
			c0.1,3,0.4,6,0.9,8.3c0.1,0.4,0.1,0.8,0.3,1l-7.5-6.8c0,0-0.1-4.6-2.9-11.1c-0.3-0.8-0.7-1.6-1-2.4V101c-0.1-0.3-0.3-0.7-0.5-0.9
			c-1.8-3.3-7.2-9.6-6.4-15.9c0.8-6,11.7-11.1,14.3-15.1c0,0-8.3,2.6-12.3,6.7c0,0,0.7-3.8,3.7-5.9c3.1-2.1,5.6-0.8,10.2-2.6
			c4.5-1.8,10.6-16.9,17.7-22.5c7.2-5.8,23.7-4.6,29.1,0c1.3,1.2,2.4,2.6,3.1,4.1c2.2,4.2,2.2,8.8,2.2,8.8S371.7,70.3,368.5,79z"/>
			<path class="st86" d="M335.5,99.7c0,0-0.8,2.5-0.4,4.8c0.4,2.4,8.7,4.6,12.6,1C351.6,102,335.5,99.7,335.5,99.7z"/>
			<path class="st86" d="M364.5,102.2c0,0,1.3,2.1,4.3,1.6c3-0.7,2.8-5.8,2.1-7.6C370.4,94.3,364.6,100.5,364.5,102.2z"/>

			<linearGradient id="SVGID_69_" gradientUnits="userSpaceOnUse" x1="336.5544" y1="658.5665" x2="336.5544" y2="642.4665" gradientTransform="matrix(1 0 0 1 0 -564)">
				<stop offset="0" style="stop-color:#1C257B"/>
				<stop offset="1" style="stop-color:#482C83"/>
			</linearGradient>
			<path class="st87" d="M327,94.6c0,0,0.7-4.1,4.6-8c2.8-2.9,8.3-5.9,12.1-7.3c0,0,0.5,1.2,0.5,3.5c0,0,0.7-2.2,1.2-4.3
			c0,0,0.8,2.1,0.7,6.2c0,0-3.3,1.2-8.8,2.6C330.3,89.1,327,94.6,327,94.6z"/>
			<path class="st88" d="M363.7,99.7c0,0,0-10.5,3-11c2.5-0.5,3.8,5.4,3.8,5.4L363.7,99.7z"/>
			<path class="st88" d="M335,102.7c0,0-0.1-7.3,5.9-10c6-2.6,8.1,5.9,8.1,5.9L335,102.7z"/>

			<linearGradient id="SVGID_70_" gradientUnits="userSpaceOnUse" x1="342.3637" y1="670.909" x2="342.3637" y2="658.0391" gradientTransform="matrix(1 0 0 1 0 -564)">
				<stop offset="0" style="stop-color:#D0C7F8"/>
				<stop offset="1" style="stop-color:#FFFFFF"/>
			</linearGradient>
			<path class="st89" d="M349.7,102.7c-0.1,1.6-2.2,4.3-6.7,4.3c-3.9,0-8-2-8-4.3c0-0.8,0.3-1.7,0.5-2.5c0.8-2,2.4-3.8,4.3-5
			c1.3-0.8,2.8-1.2,4.3-1C349.1,94.6,349.9,101.1,349.7,102.7z"/>

			<linearGradient id="SVGID_71_" gradientUnits="userSpaceOnUse" x1="367.3024" y1="667.383" x2="367.3024" y2="654.5172" gradientTransform="matrix(1 0 0 1 0 -564)">
				<stop offset="0" style="stop-color:#D0C7F8"/>
				<stop offset="1" style="stop-color:#FFFFFF"/>
			</linearGradient>
			<path class="st90" d="M371,97.5c0.1,3.4-1.4,6-4.1,5.9c-1,0-1.7-0.3-2.2-0.8c-0.4-0.4-0.7-1-0.8-1.8c-0.1-0.3-0.1-0.7-0.3-1
			c0,0,0.3-3.3,1.2-5.9c0.3-0.5,0.4-1,0.7-1.6c0.4-0.8,0.9-1.4,1.6-1.7C369.1,89.8,371,94,371,97.5z"/>

			<radialGradient id="SVGID_72_" cx="-999.862" cy="111.414" r="1" gradientTransform="matrix(5.0622 0 0 5.0622 5402.4463 -461.6879)" gradientUnits="userSpaceOnUse">
				<stop offset="0" style="stop-color:#CF95FF"/>
				<stop offset="1" style="stop-color:#8161FF"/>
			</radialGradient>
			<path class="st91" d="M346,100.2c0,2.9-2.4,5.1-5.1,5.1c-2.9,0-5.1-2.4-5.1-5.1v-0.1c0.8-2,2.4-3.8,4.3-5c0.3,0,0.5-0.1,0.8-0.1
			C343.6,95.1,346,97.3,346,100.2z"/>

			<linearGradient id="SVGID_73_" gradientUnits="userSpaceOnUse" x1="340.9" y1="667.803" x2="340.9" y2="660.6382" gradientTransform="matrix(1 0 0 1 0 -564)">
				<stop offset="0" style="stop-color:#8642A0"/>
				<stop offset="1" style="stop-color:#4E37B7"/>
			</linearGradient>
			<path class="st92" d="M344.4,100.2c0,2-1.6,3.5-3.5,3.5c-2,0-3.5-1.6-3.5-3.5c0-2,1.6-3.5,3.5-3.5
			C342.7,96.7,344.4,98.2,344.4,100.2z"/>

			<radialGradient id="SVGID_74_" cx="-878.9362" cy="166.1509" r="1" gradientTransform="matrix(3.3945 0 0 3.3945 3349.9111 -464.4814)" gradientUnits="userSpaceOnUse">
				<stop offset="0" style="stop-color:#CF95FF"/>
				<stop offset="1" style="stop-color:#8161FF"/>
			</radialGradient>
			<path class="st93" d="M368.8,97.5c0,2.9-1.6,5.1-3.5,5.1c-0.1,0-0.4,0-0.5,0c-0.4-0.4-0.7-1-0.8-1.8c-0.1-0.3-0.1-0.7-0.3-1
			c0,0,0.3-3.3,1.2-5.9c0.3-0.5,0.4-1,0.7-1.6C367.4,92.3,368.8,94.7,368.8,97.5z"/>

			<linearGradient id="SVGID_75_" gradientUnits="userSpaceOnUse" x1="365.55" y1="665" x2="365.55" y2="657.8302" gradientTransform="matrix(1 0 0 1 0 -564)">
				<stop offset="0" style="stop-color:#8642A0"/>
				<stop offset="1" style="stop-color:#4E37B7"/>
			</linearGradient>
			<path class="st94" d="M367.4,97.5c0,2-1,3.5-2.5,3.5c-0.3,0-0.7-0.1-0.9-0.3c-0.1-0.3-0.1-0.7-0.3-1c0,0,0.3-3.3,1.2-5.9h0.1
			C366.3,93.8,367.4,95.5,367.4,97.5z"/>
			<path class="st86" d="M365,79.1c0,0-2.8,14.7-1.2,22.3c0,0-0.9-11.3,2.5-19.4L365,79.1z"/>

			<linearGradient id="SVGID_76_" gradientUnits="userSpaceOnUse" x1="367.0267" y1="648.6371" x2="367.0267" y2="637.5554" gradientTransform="matrix(1 0 0 1 0 -564)">
				<stop offset="0" style="stop-color:#1C257B"/>
				<stop offset="1" style="stop-color:#482C83"/>
			</linearGradient>
			<path class="st95" d="M364.5,84.6c0,0,0.4-5,1-9.2l0.5,1.7l1.4-3.7c0,0,3.7,2.2,1.4,7.1C368.9,80.7,366.4,80.4,364.5,84.6z"/>
			<path class="st86" d="M349.9,120.7c0,0,0.3,3.4,6.6,5.2c6.2,2,11.5,0.8,13.5-1.4c0,0-2,2.4-5.6,3c-3.7,0.7-9.2-0.3-11.8-2.2
			c-2.9-2.2-3.4-4.2-3.4-4.2L349.9,120.7z"/>
			<path class="st96" d="M347.3,122.1c0,0,3-1.6,5.8-2c0,0-2.9-0.5-4.2-0.3C347.6,120.3,347.3,122.1,347.3,122.1z"/>

			<linearGradient id="SVGID_77_" gradientUnits="userSpaceOnUse" x1="360.4783" y1="682.7352" x2="363.5284" y2="673.4092" gradientTransform="matrix(1 0 0 1 0 -564)">
				<stop offset="0" style="stop-color:#FF8883"/>
				<stop offset="1" style="stop-color:#E8868D"/>
			</linearGradient>
			<path class="st97" d="M353.7,112.9c0,0,4.3,0,8.3,0.3c3.9,0.3,7.6-0.3,9-1.3c0,0,0.3,4.6-4.7,7.5c0,0-2,0.8-4.1,0
			c0,0-2-2.1-5.5-2.8C356.9,116.6,353.5,115.5,353.7,112.9z"/>

			<linearGradient id="SVGID_78_" gradientUnits="userSpaceOnUse" x1="362.4" y1="678.605" x2="362.4" y2="669.338" gradientTransform="matrix(1 0 0 1 0 -564)">
				<stop offset="0" style="stop-color:#FF8883"/>
				<stop offset="1" style="stop-color:#FFB1A4"/>
			</linearGradient>
			<path class="st98" d="M361.6,105.4c-5.1,0.7-7.9,7.6-7.9,7.6l9.7,1.7c4.3-0.3,7.7-2.8,7.7-2.8S366.7,104.7,361.6,105.4z"/>
			<path class="st99" d="M356.5,116.5c0,0,0.5-0.4,2.1-0.4c1.6,0.1,3.1,2.6,3.1,2.6S360,117.2,356.5,116.5z"/>

			<linearGradient id="SVGID_79_" gradientUnits="userSpaceOnUse" x1="315.3239" y1="705.2781" x2="310.1471" y2="677.5118" gradientTransform="matrix(1 0 0 1 0 -564)">
				<stop offset="1.598750e-02" style="stop-color:#FFAC8B"/>
				<stop offset="1" style="stop-color:#FF9595"/>
			</linearGradient>
			<path class="st100" d="M318.2,118.8c0,0-8.3-8.1-13.1-3.5c-5.8,5.5-1.7,17.6,4.7,22.8c5.6,4.6,11.7,3.3,12.8-2.1
			C322.7,136,324.4,123.8,318.2,118.8z"/>
			<path class="st86" d="M317.9,126.5c0,0-4.9-5.6-8.8-4.2s-2.9,7.9-2.9,7.9s0-4.6,2.6-5.4c2.6-0.7,4.2,2.6,4.2,2.6s-1.4,0.1-1.3,4.1
			c0,3.9,4.6,7.6,6.4,4.9C320,133.5,317.9,126.5,317.9,126.5z"/>
			<path class="st1" d="M346.8,100.5c0,0.5-0.4,0.9-0.9,0.9s-0.9-0.4-0.9-0.9s0.4-0.9,0.9-0.9C346.4,99.7,346.8,100.1,346.8,100.5z" />
			<path class="st1" d="M370,97.5c0,0.5-0.4,0.9-0.9,0.9s-0.9-0.4-0.9-0.9s0.4-0.9,0.9-0.9C369.6,96.7,370,97.1,370,97.5z"/>

			<linearGradient id="SVGID_80_" gradientUnits="userSpaceOnUse" x1="326.6" y1="720.7686" x2="362" y2="720.7686" gradientTransform="matrix(1 0 0 1 0 -564)">
				<stop offset="0" style="stop-color:#CF6074"/>
				<stop offset="1" style="stop-color:#FF817F"/>
			</linearGradient>
			<path class="st101" d="M326.6,149.6c0,0,12.8,25,35.4,22.8c0,0-2-8.8-1.8-15.1c0,0-10.5-0.3-18.2-3.5
			c-8.8-3.7-15.3-12.8-15.3-12.8v8.6H326.6z"/>

			<linearGradient id="SVGID_81_" gradientUnits="userSpaceOnUse" x1="314.05" y1="742.7" x2="314.05" y2="742.399" gradientTransform="matrix(1 0 0 1 0 -564)">
				<stop offset="0" style="stop-color:#9D68C2"/>
				<stop offset="1" style="stop-color:#CCEDFF"/>
			</linearGradient>
			<path class="st102" d="M314,178.5c0,0.1,0,0.1,0.1,0.3C314,178.6,314,178.5,314,178.5z"/>

			<linearGradient id="SVGID_82_" gradientUnits="userSpaceOnUse" x1="313.7666" y1="658.9643" x2="309.7877" y2="633.8376" gradientTransform="matrix(1 0 0 1 0 -564)">
				<stop offset="0" style="stop-color:#5E3187"/>
				<stop offset="0.3777" style="stop-color:#422271"/>
				<stop offset="0.7555" style="stop-color:#2C1760"/>
				<stop offset="1" style="stop-color:#24135A"/>
			</linearGradient>
			<path class="st103" d="M308.1,74.9c0,0-8.4,4.8-8.5,11.1c-0.3,6.3,5.1,10.4,5.1,10.4l0.8-3.4c0,0,4.1,0.7,8-0.8
			c3.8-1.4,5.6-3,5.6-3s-4.8-2.9-5-7.6c-0.1-4.8,8.4-13.4,8.4-13.4l-7.6,0.9C314.7,69,309.8,72.9,308.1,74.9z"/>

			<linearGradient id="SVGID_83_" gradientUnits="userSpaceOnUse" x1="352.0319" y1="632.746" x2="352.0319" y2="610.0697" gradientTransform="matrix(1 0 0 1 0 -564)">
				<stop offset="0" style="stop-color:#8B8BE0"/>
				<stop offset="1" style="stop-color:#A177B7"/>
			</linearGradient>
			<path class="st104" d="M347.3,68.7c0,0,7.6-8.3,9.2-14s-4.6-8.7-4.6-8.7s2.2,2.4,1.7,8C353.2,59.6,347.3,68.7,347.3,68.7z"/>

			<linearGradient id="SVGID_84_" gradientUnits="userSpaceOnUse" x1="335.5635" y1="632.7461" x2="335.5635" y2="617.3485" gradientTransform="matrix(1 0 0 1 0 -564)">
				<stop offset="0" style="stop-color:#8B8BE0"/>
				<stop offset="1" style="stop-color:#A177B7"/>
			</linearGradient>
			<path class="st105" d="M323.6,67.2c0,0,7.7-13.6,15.1-13.8c7.3-0.1,9.4,13.2,8.7,15.3c0,0-0.3-5.4-9.3-5.6
			C329.1,62.8,323.6,67.2,323.6,67.2z"/>

			<linearGradient id="SVGID_85_" gradientUnits="userSpaceOnUse" x1="366.7574" y1="631.5" x2="366.7574" y2="621.554" gradientTransform="matrix(1 0 0 1 0 -564)">
				<stop offset="0" style="stop-color:#8B8BE0"/>
				<stop offset="1" style="stop-color:#A177B7"/>
			</linearGradient>
			<path class="st106" d="M363.8,64.5c0,0,3.9-5.1,4.7-6.9c0,0,1,4.5,1.2,7.7c0,0,0.5,1.4-4.3,2.2L363.8,64.5z"/>

			<linearGradient id="SVGID_86_" gradientUnits="userSpaceOnUse" x1="337.35" y1="680.321" x2="337.35" y2="654.0251" gradientTransform="matrix(1 0 0 1 0 -564)">
				<stop offset="0" style="stop-color:#F2C7CC"/>
				<stop offset="1" style="stop-color:#A177B7"/>
			</linearGradient>
			<path class="st107" d="M311.5,114.5l13.2-11c0,0,0.5,10.5,9.7,12.3s16-1.2,18.6-6.9c2.5-5.8,3-13.9,3-13.9s0.7-0.9,3.5-0.9
			c2.9,0,4.2,1.2,4.2,1.2v-5c0,0-6-0.9-8.8,1.2c0,0,0.9,16.1-4.9,20.1c-5.8,3.9-10.6,4.5-16.8,1.4c-4.7-2.4-6.8-10.1-5.2-14.5
			l-4.5,0.9L311,114.2L311.5,114.5z"/>

			<linearGradient id="SVGID_87_" gradientUnits="userSpaceOnUse" x1="340.071" y1="677.6063" x2="343.1334" y2="652.1353" gradientTransform="matrix(1 0 0 1 0 -564)">
				<stop offset="0" style="stop-color:#1C257B"/>
				<stop offset="1" style="stop-color:#482C83"/>
			</linearGradient>
			<path class="st108" d="M354,90.4c-2.5-3.4-20.1-0.1-24.9,5.2c-4.9,5.4,1.4,16.1,9.2,17.7c9,1.8,13.4-1.2,15.9-5
			C356.7,104.3,356.2,93.4,354,90.4z M353.9,106.5c-2.1,5.6-9.6,7.6-15.9,5.9c-3.9-1-10.6-7.1-9-13.9c1.4-6.8,21.8-9.8,24.1-7.2
			C355,93.3,355.8,100.7,353.9,106.5z"/>

			<linearGradient id="SVGID_88_" gradientUnits="userSpaceOnUse" x1="340.5133" y1="677.5651" x2="343.5757" y2="652.0945" gradientTransform="matrix(1 0 0 1 0 -564)">
				<stop offset="0" style="stop-color:#1C257B"/>
				<stop offset="1" style="stop-color:#65459C"/>
			</linearGradient>
			<path class="st109" d="M354.4,90.2c-2.5-3.4-20.1-0.1-24.9,5.2c-4.9,5.4,1.4,16.1,9.2,17.7c9,1.8,13.4-1.2,15.9-5
			C357.3,104.3,356.7,93.4,354.4,90.2z M354.3,106.4c-2.1,5.6-9.6,7.6-15.9,5.9c-3.9-1-10.6-7.1-9-13.9c1.4-6.8,21.8-9.8,24.1-7.2
			C355.4,93.3,356.4,100.7,354.3,106.4z"/>

			<linearGradient id="SVGID_89_" gradientUnits="userSpaceOnUse" x1="368.2784" y1="672.4583" x2="370.8674" y2="650.9155" gradientTransform="matrix(1 0 0 1 0 -564)">
				<stop offset="0" style="stop-color:#1C257B"/>
				<stop offset="1" style="stop-color:#482C83"/>
			</linearGradient>
			<path class="st110" d="M376,88.5c-1.4-2.5-10-1.6-12.1,0c-1.3,1-0.7,12.8,3.1,18c2.4,3.1,5.8,2.4,6.8,1.7
			C376.7,106.2,377.5,91,376,88.5z M374.8,104.8c-1.2,3.3-4.1,3.9-6.9,1.3c-2.5-2.4-4.9-13.9-3.1-16.4c1.4-2.1,8.4-2.8,10.4-0.5
			C377.1,91.4,376.1,101.1,374.8,104.8z"/>

			<linearGradient id="SVGID_90_" gradientUnits="userSpaceOnUse" x1="368.7777" y1="672.458" x2="371.3678" y2="650.9153" gradientTransform="matrix(1 0 0 1 0 -564)">
				<stop offset="0" style="stop-color:#1C257B"/>
				<stop offset="1" style="stop-color:#65459C"/>
			</linearGradient>
			<path class="st111" d="M376.5,88.5c-1.4-2.5-10-1.6-12.1,0c-1.3,1-0.7,12.8,3.1,18c2.4,3.1,5.8,2.4,6.8,1.7
			C377.2,106.2,378,91,376.5,88.5z M375.4,104.8c-1.2,3.3-4.1,3.9-6.9,1.3c-2.5-2.4-4.9-13.9-3.1-16.4c1.4-2.1,8.4-2.8,10.4-0.5
			C377.6,91.4,376.7,101.1,375.4,104.8z"/>

			<linearGradient id="SVGID_91_" gradientUnits="userSpaceOnUse" x1="358.8557" y1="656.4191" x2="359.2896" y2="652.8138" gradientTransform="matrix(1 0 0 1 0 -564)">
				<stop offset="0" style="stop-color:#1C257B"/>
				<stop offset="1" style="stop-color:#65459C"/>
			</linearGradient>
			<path class="st112" d="M355.3,91.9c0,0,3.8-2.9,8.5-0.8c0,0-0.1-1,0.3-1.7c0,0-3.4-1-9.8,0.5C354.1,90,355,91.4,355.3,91.9z"/>

			<linearGradient id="SVGID_92_" gradientUnits="userSpaceOnUse" x1="317.3357" y1="679.0374" x2="319.6302" y2="659.9459" gradientTransform="matrix(1 0 0 1 0 -564)">
				<stop offset="0" style="stop-color:#1C257B"/>
				<stop offset="1" style="stop-color:#65459C"/>
			</linearGradient>
			<path class="st113" d="M328,96.9l-4.5,1.4L309,113.8c0,0,0.5-0.1,1.8,0.4l13-13.8c0,0,2.1-1.2,3.7-0.8
			C327.6,99.7,327.5,97.8,328,96.9z"/>

			<linearGradient id="SVGID_93_" gradientUnits="userSpaceOnUse" x1="320.5" y1="669.606" x2="320.5" y2="664.221" gradientTransform="matrix(1 0 0 1 0 -564)">
				<stop offset="0" style="stop-color:#8642A0"/>
				<stop offset="1" style="stop-color:#6456C0"/>
			</linearGradient>
			<path class="st114" d="M321.9,100.2l0.1,2.2l-2.9,3.1l-0.1-2.2L321.9,100.2z"/>
			<path class="st115" d="M355.3,89.7l0.8,0.8c0,0,2.2-0.5,4.5-0.5c2.1,0,2.8,0.3,2.8,0.3l0.5-0.9C363.7,89.3,359.9,88.5,355.3,89.7z
			"/>
			<path class="st115" d="M365.7,88l0.5,0.7c0,0,3-1.8,8-0.7l-0.1-0.7C374,87.2,369.9,86.6,365.7,88z"/>
			<path class="st115" d="M346.8,89.8l0.3-0.7c0,0,5.6-0.5,7.1,0.9c1.4,1.4,2,4.8,2,4.8l-0.7,0.1c0,0-0.5-3.5-2.2-4.6
			C351.4,89.5,346.8,89.8,346.8,89.8z"/>
			<path class="st116" d="M334.5,110.2c0,0,2.9,3.7,9.7,3.1c6.7-0.5,9.6-5.5,9.6-5.5s-3.1,5-9.7,5.1
			C337.5,113,334.5,110.2,334.5,110.2z"/>
			<path class="st116" d="M368.4,106.2c0,0,1.8,2.1,3.9,1.7c2.1-0.3,2.8-2.6,2.8-2.6s-1.2,2.4-3.4,2.2
			C369.6,107.4,368.4,106.2,368.4,106.2z"/>
			<path class="st116" d="M341.5,112.9c0,0,0.5,0.4,2,0.4c1.4,0,3-0.8,3-0.8S343.6,113.1,341.5,112.9z"/>
			<path class="st116" d="M370,107.4c0,0,1.6,0.5,2.9,0s1.6-1,1.6-1s0,1.4-1.6,1.7C371.3,108.2,370,107.4,370,107.4z"/>
			<path class="st117" d="M336.4,111.7c0,0-0.3-5.4,6.2-9.2c6.4-3.8,12.2-0.5,12.2-0.5s0.3,4.7-3.3,7.9
			C348.2,113.2,340.8,113.3,336.4,111.7z"/>
			<path class="st117" d="M367.1,104.1c0,0,4.3-5.5,9.2-7.2c0,0-0.1,7.3-1.8,9.3C372.7,108.3,369.6,108.9,367.1,104.1z"/>

			<linearGradient id="SVGID_94_" gradientUnits="userSpaceOnUse" x1="332.3" y1="670.757" x2="332.3" y2="658.8946" gradientTransform="matrix(1 0 0 1 0 -564)">
				<stop offset="0" style="stop-color:#000000"/>
				<stop offset="1" style="stop-color:#E1D1F5"/>
			</linearGradient>
			<path class="st118" d="M329.5,100.1c0,0,0.7,4.3,3.1,6.7l2.5-0.7c0,0-2-7.5-2-11.3C333.1,94.8,330,96.8,329.5,100.1z"/>

			<linearGradient id="SVGID_95_" gradientUnits="userSpaceOnUse" x1="348.45" y1="721.41" x2="348.45" y2="700.4402" gradientTransform="matrix(1 0 0 1 0 -564)">
				<stop offset="1.598750e-02" style="stop-color:#FFA58B"/>
				<stop offset="1" style="stop-color:#FF898E"/>
			</linearGradient>
			<path class="st119" d="M373,154.1c-0.5,0.5-0.9,1-1.4,1.3c-7.5,3.8-27.3,2.9-38.1-6.6c-4.1-3.5-7.2-7.9-9.6-12.3
			c0.5,0.7,6,10.1,19,15.2C356.5,157.1,372.1,155.4,373,154.1z"/>
			<g transform="matrix(.569 0 0 .569 199.451 -82.735)">

				<linearGradient id="SVGID_96_" gradientUnits="userSpaceOnUse" x1="30503.0664" y1="3060.5422" x2="30583.9453" y2="3108.3323" gradientTransform="matrix(3.995211e-02 0 0 -3.995211e-02 -872.2382 512.218)">
					<stop offset="0" style="stop-color:#909CA9"/>
					<stop offset="1" style="stop-color:#EDEDEE"/>
				</linearGradient>
				<path class="st120" d="M405.2,330.1l-27.6,9l-24,10.6l-6.7,1.8c-1.7,1.6-3.5,3.3-5.4,4.9c-2.1,1.8-4.1,3.5-5.6,4.7
				c-1.7,1.3-4.2,3.8-5.5,5.4c-1.9,2.4-3.4,4.9-4,6.8c-1.1,3.5-0.6,7.1,1.6,10.3c2.8,4.2,8.5,8.4,15.1,11.3c3.4,1.5,9,3.4,13.3,4.4
				c7.1,1.8,20.8,3.7,28.3,4c1.5,0.1,3.6,0.1,3.7,0c0.2-0.1,1.3-2.3,2.7-5.1c4.6-9.5,8-18.3,9.8-25.9c1.1-4.6,1.9-10.7,2.5-17.9
				c0.1-2,0.2-8.8,0.1-11.1c-0.2-3.8-0.5-6.8-1-9.8c-0.1-0.4-0.1-0.8-0.1-0.9c0.1-0.1,0.3-0.1,3.7-1.1L405.2,330.1L405.2,330.1
				L405.2,330.1L405.2,330.1z M398.9,333.8c0.3,0,0.9,6.4,1.1,10.5c0,0.9,0,1.4,0,1.4c-0.2,0-3.5-2-5.9-3.5
				c-2.1-1.3-6.1-3.9-6.7-4.4c-0.2-0.1-0.2-0.2,1.5-0.8C391.8,336.1,398.7,333.8,398.9,333.8z M384.8,338.5c0.2,0,0.7,0.3,1.8,1
				c4.3,2.7,10.1,5.9,12.6,7c0.8,0.3,0.9,0.2-0.9,1.4c-3.8,2.6-8.5,5.1-14.3,7.7c-1,0.5-1.9,0.8-1.9,0.8s0.1-0.5,0.2-1.1
				c1.4-5.2,2.2-10.5,2.2-14.7C384.6,338.5,384.6,338.5,384.8,338.5L384.8,338.5L384.8,338.5z M381.9,339.6c0.1,0.1,0,4.8-0.1,6.1
				c-0.4,3-1,5.9-1.9,9.1c-0.2,0.8-0.4,1.4-0.5,1.5s-2.9-2.7-3.9-3.8c-1.6-1.9-2.9-3.8-3.8-5.6c-0.5-0.9-1.2-2.8-1.2-2.8
				C370.9,343.8,381.8,339.5,381.9,339.6L381.9,339.6z M368.3,344.9L368.3,344.9c0.1,0.1,0.3,0.4,0.4,0.8c0.7,1.8,2.2,4.5,3.5,6.2
				c1.4,1.9,3.3,3.9,4.8,5.2c0.5,0.4,1,0.8,1,0.9c0.1,0.1,0.2,0.1-3.2,1.4c-3.9,1.5-8.2,3-13.2,4.6c-1.2,0.4-2.4,0.8-3.5,1.1
				c-0.2,0.1-0.1,0,0.4-0.9c2.4-3.8,6.2-11.3,8.2-16.6c0.4-0.9,0.7-1.8,0.8-2c0.1-0.3,0.2-0.4,0.5-0.5
				C368.1,345,368.2,344.9,368.3,344.9L368.3,344.9z M364.1,346.7c0.1,0-1,2.3-2,4.3c-2,3.9-4.2,7.8-7.2,12.5c-0.5,0.8-1,1.6-1,1.6
				c-0.1,0.1-0.1,0.1-0.5-0.5c-0.7-1.4-1.3-3.2-1.6-4.8c-0.3-1.6-0.3-4.5,0.1-6.2c0.3-1.3,0.3-1.3,0.9-1.6
				C355.4,350.6,364,346.6,364.1,346.7L364.1,346.7z M400.1,348.1v0.9c0,4.7-0.5,11-1.2,15.7c-0.1,0.8-0.2,1.5-0.3,1.5
				c0,0-0.6-0.2-1.3-0.4c-3.1-1-6.5-2.4-9.6-4.1c-2-1.1-5-2.9-4.9-3c0,0,0.9-0.5,1.9-1c4.1-2.1,8-4.4,11.4-6.7
				c1.3-0.9,3.2-2.2,3.6-2.6L400.1,348.1L400.1,348.1z M348.4,354.3c0.1,0,0.1,0.2-0.1,0.9c-0.1,0.5-0.2,1.5-0.2,2.2
				c-0.2,3,0.3,5.3,1.8,8.4c0.4,0.9,0.8,1.6,0.7,1.6c-0.1,0.1-14,4.2-18.3,5.4c-1.3,0.4-2.4,0.7-2.5,0.7s-0.2,0-0.1-0.3
				c0.5-3.1,2.8-7.1,6.1-10.5c2.2-2.3,3.9-3.6,6.9-5.3C344.8,356.2,348.1,354.4,348.4,354.3C348.3,354.3,348.3,354.3,348.4,354.3
				L348.4,354.3z M380.9,360.1c0,0,0.5,0.3,1.1,0.6c4.5,2.6,10.7,5,16,6.2l0.5,0.1l-0.7,0.4c-2.8,1.5-11.9,5.3-21.2,8.8
				c-1.4,0.5-2.7,1-2.9,1.1c-0.3,0.1-0.5,0.2-0.5,0.1c0,0,0.4-0.8,0.9-1.6c2.6-4.9,5.2-10.8,6.6-15
				C380.8,360.5,380.9,360.1,380.9,360.1L380.9,360.1z M377.6,361.2c0,0-0.1,0.5-0.4,1c-1.8,4.4-4.2,9.2-7.2,14.6
				c-0.8,1.4-1.4,2.5-1.4,2.5s-0.6-0.4-1.4-0.8c-4.4-2.7-8.3-6.1-10.9-9.3l-0.4-0.5l1.9-0.5c6.8-1.9,12.6-3.9,18.3-6.3
				C376.9,361.5,377.6,361.2,377.6,361.2z M398.2,368.4L398.2,368.4c0,0.5-1,4.8-1.9,7.9c-0.7,2.6-1.4,4.7-2.5,8.3
				c-0.5,1.6-0.9,2.9-1,2.9c0,0-0.1,0-0.3-0.1c-6.2-1.1-11.7-2.7-17-4.8c-1.5-0.6-3.5-1.5-3.7-1.6c0,0,1.2-0.6,2.8-1.3
				c9.5-4.2,19.3-8.9,22.7-10.9C397.8,368.5,398.1,368.4,398.2,368.4L398.2,368.4z M350.6,370c0,0-2.6,3.9-6.3,9.1
				c-1.3,1.8-2.8,3.9-3.4,4.7c-0.6,0.8-1.4,2-1.9,2.8l-0.9,1.4l-0.9-0.8c-1.1-0.9-3-2.9-3.9-4c-1.8-2.2-3-4.6-3.5-6.7
				c-0.2-1-0.2-1.5,0-1.6c0.3-0.1,5.9-1.4,11.1-2.6c2.9-0.7,6.3-1.5,7.5-1.8C349.6,370.3,350.6,370,350.6,370L350.6,370z
				 M353.3,371.1l0.7,0.8c3,3.4,6.1,5.8,9.8,8c0.7,0.4,1.2,0.7,1.1,0.7c-0.1,0.1-12.9,4.6-18.8,6.7c-3.3,1.2-6.1,2.1-6.1,2.1
				s-0.2-0.1-0.4-0.3l-0.4-0.3l0.6-0.9c2-2.8,4.4-5.9,9.8-12.4L353.3,371.1L353.3,371.1z M369.9,383c0,0,0.9,0.3,2.1,0.7
				c2.7,1,4.9,1.7,7.7,2.4c3.5,0.9,8.7,1.8,11.7,2c0.5,0,0.7,0.1,0.6,0.1c-0.1,0.1-3.2,1.1-5.5,1.8c-3.6,1.1-14.5,4.4-23.5,6.9
				c-1.6,0.5-3.1,0.9-3.2,0.9c-0.2,0-0.9-0.1-0.9-0.2c0,0,0.5-0.7,1.1-1.4c3-3.6,6-7.6,8.5-11.4C369.4,383.8,369.9,383,369.9,383
				L369.9,383z M366.3,383.1c0,0-1.5,2.4-4,6.5c-1.1,1.7-2.3,3.7-2.8,4.4c-0.4,0.7-1,1.7-1.4,2.3l-0.6,1.1l-0.3-0.1
				c-0.8-0.2-6-2.1-7.4-2.6c-1.7-0.7-3.5-1.5-4.9-2.2c-1.7-0.9-3.8-2.2-3.6-2.3c0,0,2.9-0.8,6.3-1.7c9.1-2.5,14.2-3.9,17.5-5
				C365.7,383.2,366.2,383.1,366.3,383.1L366.3,383.1z M392.2,389.2L392.2,389.2c0.1,0.2-3.3,9.6-4.5,12.6c-0.3,0.7-0.4,0.8-0.5,0.8
				c-0.4,0-5.3-0.7-8.2-1.1c-5.2-0.8-13.9-2.3-16.1-2.8l-0.5-0.1l3.1-0.7c6.7-1.5,9.9-2.3,13.1-3.3c4.1-1.3,8.2-2.8,12.3-4.7
				C391.5,389.4,392.1,389.2,392.2,389.2L392.2,389.2z"/>

				<linearGradient id="SVGID_97_" gradientUnits="userSpaceOnUse" x1="30509.9844" y1="5843.73" x2="30575.0625" y2="5843.73" gradientTransform="matrix(3.995211e-02 0 0 -3.995211e-02 -872.2382 512.218)">
					<stop offset="0" style="stop-color:#939FAB"/>
					<stop offset="1" style="stop-color:#DCDEE1"/>
				</linearGradient>
				<path class="st121" d="M376.7,265.8c-0.5-0.1-7.9,2.6-12.6,4.5c-6.4,2.6-11.5,5.1-14.5,7.3c-1.1,0.8-2.6,2.3-2.8,2.8
				c-0.1,0.2-0.1,0.5-0.1,0.7l2.8,2.6l6.7,2.1l15.8,2.8l18.1,3.1l0.2-1.6c-0.1,0-0.1,0-0.2,0l-2.4-0.4l-0.5-0.9
				c-2.5-4.3-5.2-9.7-6.8-13.4c-1.2-2.8-2.4-6.1-3-8.4C377,265.9,377,265.8,376.7,265.8L376.7,265.8L376.7,265.8L376.7,265.8z
				 M376.4,266.9L376.4,266.9c0,0,0.1,0.6,0.2,1.3c0.4,2.9,1,5.7,2,8.8c0.8,2.3,0.8,2.2-0.1,1.9c-2.1-0.6-11.7-2.2-18.6-3.2
				c-1.1-0.1-2-0.3-2-0.3c-0.1-0.1,5-2.7,7.2-3.8C368,270.3,375.8,267,376.4,266.9z M356.3,276.2l0.8,0.3c4.4,1.5,15.5,3.6,21.7,4.1
				c0.7,0.1,1.3,0.1,1.3,0.1s-0.6,0.3-1.3,0.7c-3,1.5-6.2,3.3-8.5,4.7c-0.7,0.4-1.3,0.8-1.4,0.8s-0.5-0.1-1-0.1l-0.8-0.1l-2.1-2
				c-3.7-3.6-6.6-6.3-7.7-7.4L356.3,276.2z M355.5,276.9l2.9,3.7c1.6,2,3.2,4,3.6,4.4s0.6,0.8,0.6,0.8c-0.1,0.1-4.3-0.8-6.5-1.3
				c-2.3-0.5-3.2-0.8-4.6-1.2l-1.1-0.4v-0.3c0-1.4,1.8-3.5,4.8-5.6L355.5,276.9L355.5,276.9z M380.4,281.9c0.1,0,0.2,0.2,0.4,0.8
				c0.7,1.6,2.9,5.8,3.5,6.6c0.2,0.3,0.5,0.3-2.5-0.2c-7.1-1.1-9.3-1.5-9.3-1.6c0,0,0.2-0.2,0.5-0.3c2.2-1.2,4.4-2.8,6.4-4.4
				C379.8,282.4,380.3,282,380.4,281.9L380.4,281.9L380.4,281.9z"/>

				<radialGradient id="SVGID_98_" cx="-84873.4219" cy="26912.6836" r="86.4023" gradientTransform="matrix(-3.836568e-02 -5.762946e-03 -1.165540e-02 7.675810e-02 -2555.3425 -2238.6743)" gradientUnits="userSpaceOnUse">
					<stop offset="0" style="stop-color:#EE352C"/>
					<stop offset="1" style="stop-color:#A91D22"/>
				</radialGradient>
				<path class="st122" d="M346.9,280.2c0,0-0.5,0.7,0,1.8c0.3,0.7,1.1,1.5,2,2.3c0,0,9.3,9.1,10.4,10.3c5.1,5.9,7.4,11.8,7.6,19.8
				c0.1,5.2-0.9,9.7-3.3,15c-4.3,9.5-13.5,19.9-27.6,31.5l2.1-0.7c1.3-1,3.2-2.1,7.4-4.4c9.8-5.4,20.9-10.3,34.4-15.4
				c19.5-7.3,51.6-15.9,69.9-18.7l1.9-0.3l-0.3-0.5c-1.7-2.6-2.8-4.2-4.2-5.9c-4-5-8.9-9-14.8-12.3c-8.2-4.6-18.8-8.1-32.1-10.8
				c-2.5-0.5-8.1-1.5-12.6-2.1c-9.6-1.5-15.7-2.5-22.5-3.7c-2.4-0.4-6.1-1-8.5-1.6c-1.3-0.3-3.7-0.8-5.5-1.5
				C349.5,282.5,347.3,282,346.9,280.2L346.9,280.2z M352.3,285.4c0,0,0.4,0.1,0.8,0.3c0.8,0.3,1.8,0.6,3,0.9
				c0.9,0.3,1.8,0.5,2.8,0.7c1.3,0.3,2.3,0.6,2.3,0.6c0.1,0.1,2.3,6.9,3,9.5c0.3,1,0.5,1.8,0.5,1.8s-0.3-0.3-0.5-0.8
				c-2.4-4.3-6.3-8.7-10.8-12.2C352.7,285.8,352.3,285.4,352.3,285.4L352.3,285.4z M362.5,288.2c0.1,0,0.6,0.1,1.1,0.2
				c3.5,0.8,9.9,2,14,2.7c0.7,0.1,1.2,0.2,1.2,0.3c0,0-0.3,0.2-0.6,0.4c-0.7,0.4-3.5,2-4.4,2.6c-2.3,1.5-4.4,3.2-5.9,4.7
				c-0.6,0.6-1.1,1.1-1.1,1.1s-0.1-0.4-0.2-0.8c-0.8-2.9-2.3-7.2-3.7-10.2C362.7,288.7,362.5,288.3,362.5,288.2
				C362.5,288.3,362.5,288.2,362.5,288.2L362.5,288.2z M380.6,291.7c0.1,0,0.3,0.8,0.8,2.3c0.8,3,1.1,6.4,1,9.6
				c0,0.9-0.1,1.7-0.1,1.8l-0.1,0.2l-1.1-0.4c-2.2-0.7-5.9-1.8-9-2.6c-1.8-0.5-3.2-0.9-3.2-1s2.6-2.7,3.7-3.7
				C374.7,296,380.4,291.6,380.6,291.7L380.6,291.7z M382,291.9c0.1-0.1,8.6,1.4,12.5,2.2c2.9,0.6,7.1,1.4,7.4,1.5
				c0.1,0-0.3,0.3-1.7,0.9c-5.5,2.5-9.6,4.7-13.7,7.4c-1.1,0.7-2,1.3-2,1.3s0-0.6,0-1.3c0-4-0.8-8-2.3-11.3
				C382.1,292.2,382,291.9,382,291.9z M404.2,296.3c0.1,0.1-0.2,1.8-0.5,2.8c-0.8,3.1-2.8,7.7-5.3,12.1c-0.4,0.8-0.8,1.4-0.9,1.4
				c0,0-0.6-0.3-1.3-0.7c-2.4-1.4-5.2-2.8-8.2-4c-0.8-0.4-1.6-0.6-1.6-0.7c-0.1-0.1,6.6-4.6,10.1-6.7
				C399.5,298.7,404.1,296.2,404.2,296.3L404.2,296.3z M405.8,296.5c0.2,0,4,1,6,1.6c4.9,1.5,10.5,3.5,14.2,5.2l1.5,0.7l-1.1,0.3
				c-9,2.1-16.6,4.4-24.1,7.4c-0.6,0.3-1.1,0.5-1.2,0.5c0,0,0.2-0.5,0.4-1.1c2.2-4.7,3.7-9.7,4-13.9
				C405.7,296.8,405.7,296.5,405.8,296.5L405.8,296.5z M368,305.2c0.1-0.1,3,0.6,4.5,1.1c2.4,0.7,7.4,2.4,7.4,2.5
				c0,0-0.6,0.5-1.2,1.1c-2.7,2.3-5.4,4.7-8.5,7.7c-0.9,0.9-1.7,1.6-1.8,1.6c0,0-0.1-0.1,0-0.3c0.5-3.5,0.4-8-0.3-12.6
				C368,305.7,368,305.2,368,305.2z M428.9,305.3c0,0-1.3,2.2-2.2,3.4c-1.3,1.8-3.1,4.2-7.2,9.4c-2.2,2.8-4.7,5.9-5.5,6.9
				s-1.5,1.9-1.5,1.9s-0.3-0.4-0.6-0.8c-2.3-3.5-5.1-6.6-8.4-9.3c-0.6-0.5-1.3-1.1-1.5-1.3c-0.2-0.2-0.4-0.3-0.4-0.4
				s3.5-1.6,6.2-2.7c4.7-1.9,11.1-4.2,16-5.7C426.2,306,428.9,305.2,428.9,305.3L428.9,305.3z M430.5,305.7c0.1,0,0.6,0.2,1.2,0.6
				c5.1,2.9,10,6.6,14,10.5c1.1,1.1,3.8,3.9,3.8,3.9s-1,0.1-2.1,0.2c-8.8,0.7-20,2.5-30.8,5.1c-0.7,0.2-1.4,0.3-1.4,0.3
				s0.8-0.8,1.8-1.8c6.3-6.1,9.2-10,12.7-16.9C430.1,306.6,430.5,305.7,430.5,305.7L430.5,305.7L430.5,305.7z M384.1,310.4
				c0.3,0.1,3,1.3,5,2.4c1.9,0.9,4.7,2.4,4.8,2.6c0,0-1,0.5-2.2,1.1c-3.9,2-7.3,3.8-10.8,5.9c-1,0.6-1.8,1.1-1.9,1.1
				s-0.1-0.1,0.5-1.1c1.9-3.4,3.4-7.5,4.2-11.5C383.9,310.6,384,310.4,384.1,310.4L384.1,310.4z M381.4,310.9c0.1,0.1-0.6,2.6-1.1,4
				c-0.9,2.6-2.3,6-3.7,8.5c-0.3,0.6-0.8,1.4-1.1,1.9l-0.5,0.8l-1.2-1.1c-1.4-1.3-2.5-2.1-3.9-2.9c-0.6-0.3-1-0.5-1-0.6
				c0-0.2,3.6-3.4,6.3-5.7C377.2,314.2,381.3,310.9,381.4,310.9L381.4,310.9z M398,317.8l1,0.7c2.3,1.5,5.1,3.5,7.2,5.3
				c1.2,1,3.5,3,3.9,3.5l0.2,0.3l-1.7,0.5c-9.6,2.6-16.9,5-25.6,8.2c-1,0.4-1.8,0.6-1.8,0.6c-0.1,0-0.2,0.1,1.9-1.9
				c5.5-5.1,10.4-10.7,14-16.1L398,317.8L398,317.8z M393.6,318.8c0,0-2.8,4.1-4.5,6.3c-2,2.7-5.7,7.3-8.2,10.2
				c-1,1.2-1.9,2.3-2,2.3s-0.1-0.3-0.1-0.8c0-2.5-0.6-5.2-1.8-7.5c-0.5-1-0.6-1.2-0.5-1.3c0.4-0.4,6.5-3.8,10.3-5.9
				C389.5,320.8,393.5,318.8,393.6,318.8L393.6,318.8z M367.2,325.3c0.1,0,0.5,0.3,1.1,0.5c1.3,0.7,2.5,1.5,3.6,2.4
				c0,0-0.5,0.5-1.2,1c-2,1.4-5,3.7-6.7,5.1c-1.8,1.5-1.9,1.5-1.7,1.2c1.4-2.1,2.1-3.3,2.8-4.8c0.6-1.4,1.3-3,1.8-4.4
				C367,325.8,367.2,325.3,367.2,325.3L367.2,325.3z M374.3,330.8c0.1,0,0.2,0.2,0.8,1c1.2,1.8,2.1,4.2,2.3,6.1v0.4l-2.9,1.1
				c-5.1,2-9.8,3.9-13,5.4c-0.9,0.4-2.5,1.2-3.5,1.7s-1.9,0.9-1.9,0.9s0.6-0.5,1.4-1.1c6.2-4.5,11.6-9.5,15.7-14.5
				C373.8,331.3,374.2,330.8,374.3,330.8L374.3,330.8L374.3,330.8z M371,331.6c0.1,0.1-2.3,2.8-3.9,4.4c-4,4.1-8,7.3-13,10.5
				c-0.6,0.4-1.2,0.8-1.3,0.8c-0.1,0.1,0-0.1,2.2-2.5c1.4-1.5,2.4-2.7,3.6-4.3c0.8-1,0.9-1.2,2.1-2
				C363.9,336.3,370.9,331.5,371,331.6z"/>
			</g>
			<g>
				<path class="st123" d="M448.5,280.6h2.9V269l4.6,10.2c0.5,1.2,1.3,1.7,2.7,1.7c1.4,0,2.1-0.5,2.7-1.7L466,269v11.7h3V269
				c0-1.1-0.5-1.7-1.4-2c-2.2-0.7-3.7-0.1-4.4,1.4l-4.5,10l-4.3-10c-0.7-1.5-2.2-2.1-4.4-1.4c-0.9,0.3-1.4,0.8-1.4,2L448.5,280.6
				L448.5,280.6L448.5,280.6z M471.4,271.2h3v6.4c0,0.4,0.1,1.2,1.7,1.2c0.8,0,6.4,0,6.4,0v-7.6h3v10.5c0,2.6-3.2,3.1-4.7,3.2h-9.3
				v-2h9.3c1.9-0.2,1.7-1.2,1.7-1.5v-0.8h-6.3c-2.9,0-4.8-1.3-4.8-2.8C471.4,277.6,471.5,271.2,471.4,271.2L471.4,271.2z M535,263.7
				c-1.8,0-3.2,0.1-4.4,0.6c-0.3,0.1-0.9,0.1-0.9,0.6c0.2,0.2,0.2,0.5,0.4,0.7c0.3,0.5,0.7,1.1,1.2,1.4c0.5,0.4,1,0.7,1.4,1
				c0.9,0.5,1.9,0.9,2.7,1.4c0.5,0.3,1,0.7,1.5,1.1c0.2,0.2,0.4,0.5,0.7,0.6V271c-0.2-0.2-0.2-0.5-0.4-0.7s-0.5-0.4-0.7-0.7
				c-0.7-0.9-1.5-1.7-2.4-2.3c-0.7-0.5-2.3-1.2-2.6-2l0,0c0.5,0,1.1-0.2,1.6-0.4c0.8-0.2,1.5-0.2,2.3-0.4c0.4-0.1,0.7-0.2,1.1-0.3
				V264c-0.4-0.4-0.7-1-1.1-1.3c-1.2-1-2.4-2-3.7-2.8c-0.7-0.5-1.6-0.7-2.4-1.1c-0.3-0.1-0.7-0.2-0.9-0.4c-0.4-0.5-0.6-1.2-0.9-1.7
				c-0.7-1.2-1.3-2.6-1.9-3.9c-0.4-0.9-0.7-1.8-1.2-2.6c-2.3-3.8-4.9-6.2-8.8-8.5c-0.8-0.5-1.8-0.7-2.9-0.9c-0.6,0-1.1-0.1-1.7-0.1
				c-0.4-0.2-0.7-0.6-1-0.8c-1.3-0.8-4.6-2.6-5.6-0.2c-0.6,1.5,0.9,2.9,1.4,3.7c0.4,0.5,0.9,1.1,1.2,1.7c0.2,0.4,0.2,0.8,0.4,1.2
				c0.4,1,0.7,2.1,1.2,3c0.2,0.5,0.5,1,0.8,1.4c0.2,0.2,0.5,0.4,0.6,0.8c-0.3,0.5-0.3,1.1-0.5,1.7c-0.8,2.6-0.5,5.7,0.7,7.6
				c0.4,0.6,1.2,1.8,2.4,1.3c1-0.4,0.8-1.7,1.1-2.8c0.1-0.3,0-0.5,0.2-0.6l0,0c0.3,0.6,0.6,1.2,0.9,1.9c0.7,1.1,1.9,2.3,2.9,3
				c0.5,0.4,1,1.1,1.7,1.4v-0.1l0,0c-0.1-0.2-0.3-0.3-0.5-0.5c-0.4-0.4-0.9-0.9-1.2-1.4c-0.9-1.3-1.8-2.7-2.5-4.1
				c-0.4-0.7-0.7-1.5-1-2.2c-0.1-0.3-0.1-0.7-0.4-0.8c-0.3,0.5-0.8,0.9-1.1,1.5c-0.4,1-0.5,2.2-0.6,3.4c-0.1,0,0,0-0.1,0
				c-0.7-0.2-1-0.9-1.2-1.6c-0.7-1.6-0.8-4.2-0.2-6c0.2-0.5,0.8-2,0.6-2.4c-0.1-0.4-0.6-0.7-0.8-1c-0.3-0.4-0.6-1-0.8-1.4
				c-0.5-1.3-0.8-2.7-1.4-3.9c-0.3-0.6-0.7-1.2-1.1-1.7c-0.4-0.6-0.9-1-1.2-1.8c-0.1-0.2-0.3-0.7-0.1-0.9c0-0.2,0.1-0.2,0.3-0.3
				c0.3-0.2,1.1,0.1,1.4,0.2c0.8,0.3,1.5,0.7,2.2,1.1c0.3,0.2,0.7,0.7,1.1,0.8h0.5c0.7,0.2,1.5,0,2.2,0.2c1.2,0.4,2.3,1,3.3,1.6
				c3,1.9,5.4,4.5,7.1,7.7c0.3,0.5,0.4,1,0.6,1.5c0.5,1.1,1.1,2.2,1.5,3.3c0.5,1.1,0.9,2.1,1.6,3c0.3,0.5,1.7,0.7,2.3,1
				c0.5,0.2,1.2,0.4,1.6,0.6c0.8,0.5,1.5,1,2.3,1.5C533.8,262.7,534.9,263.3,535,263.7L535,263.7z"/>
				<path class="st124" d="M487.8,280.6h8.5c1,0,1.9-0.2,2.7-0.6c1.3-0.6,1.9-1.4,1.9-2.4v-2.2c0-0.8-0.7-1.6-2.1-2.2
				c-0.7-0.3-1.6-0.4-2.5-0.4h-3.6c-1.2,0-1.8-0.4-1.9-1.2c0-0.1,0-0.2,0-0.3V270c0-0.1,0-0.2,0-0.2c0.2-0.6,0.5-0.8,1.5-0.9h8.7v-2
				h-8.3c-1.2,0-1.8,0.1-2.4,0.2c-1.7,0.5-2.5,1.4-2.5,2.9v1.7c0,1.3,1.5,2.5,4,2.7c0.3,0,0.6,0,0.9,0h3.1c0.1,0,0.2,0,0.3,0
				c0.9,0.1,1.3,0.2,1.6,0.6c0.2,0.2,0.2,0.3,0.2,0.5v1.7c0,0.2-0.1,0.5-0.4,0.7s-0.7,0.4-1.3,0.4c-0.1,0-0.2,0-0.3,0h-8.2
				L487.8,280.6L487.8,280.6z M519.3,277.2c0,2,1.5,3.1,4.5,3.4c0.3,0,0.6,0,0.9,0h7.7v-2h-7.8c-1.7,0-2.4-0.4-2.4-1.5V267h-3
				L519.3,277.2L519.3,277.2L519.3,277.2z M502.8,277.3v-7c0-1.8,1.3-2.9,3.7-3.2c0.3,0,0.5,0,0.8,0h5.6c0.3,0,0.5,0,0.8,0
				c2.5,0.3,3.7,1.4,3.7,3.2v7c0,1.4-0.5,2.2-1.7,2.7l2.9,2.6h-3.4l-2.4-2.1l-2.4,0.1h-3.2c-0.5,0-1.1-0.1-1.7-0.2
				C503.7,279.9,502.8,278.9,502.8,277.3L502.8,277.3z M505.9,277.2c0,0.1,0,0.2,0.1,0.3c0.2,0.8,0.9,1.3,2.1,1.3h2.7l-2.4-2.2h3.4
				l2.1,1.9c0.4-0.2,0.7-0.5,0.7-1c0-0.1,0-0.2,0-0.3v-6.7c0-0.1,0-0.2,0-0.3c-0.2-0.8-0.9-1.2-2.1-1.2H508c-1.3,0-2.2,0.6-2.2,1.5
				L505.9,277.2L505.9,277.2z M533.8,280.7h0.4V279h0.6v-0.3h-1.6v0.3h0.6V280.7L533.8,280.7z M537,280.7h0.4v-2h-0.6l-0.5,1.4
				l-0.5-1.4h-0.6v2h0.4v-1.5l0,0l0.6,1.5h0.3l0.6-1.5L537,280.7L537,280.7L537,280.7z"/>
			</g>
			<g>
				<polygon class="st125" points="227.4,404.2 227.4,361.2 176.1,367.6 176.1,404.2 			"/>
				<polygon class="st125" points="234.7,404.2 293.4,404.2 293.4,352.9 234.7,360.3 			"/>
				<polygon class="st125" points="234.7,411.6 234.7,455.6 293.4,462.9 293.4,411.6 			"/>
				<polygon class="st125" points="227.4,411.6 176.1,411.6 176.1,448.2 227.4,454.6 			"/>
			</g>
		</g>
		<rect x="439" y="224" class="st126" width="111" height="74"/>
	</g>
	<g id="Layer_4">
		<g class="fading-2">

			<linearGradient id="SVGID_99_" gradientUnits="userSpaceOnUse" x1="105.3675" y1="737.8487" x2="95.235" y2="700.2181" gradientTransform="matrix(1 0 0 1 0 -564)">
				<stop offset="0" style="stop-color:#188DC1"/>
				<stop offset="1" style="stop-color:#06BFE7"/>
			</linearGradient>
			<path class="st127" d="M118,170.5l1.3-30.1H79.9l1.6,30L118,170.5z"/>

			<linearGradient id="SVGID_100_" gradientUnits="userSpaceOnUse" x1="122.8184" y1="733.5027" x2="115.2616" y2="705.4374" gradientTransform="matrix(1 0 0 1 0 -564)">
				<stop offset="0" style="stop-color:#1852A0"/>
				<stop offset="1" style="stop-color:#067ED3"/>
			</linearGradient>
			<path class="st128" d="M119.3,140.3l1.2,1.8l-1.2,28.3H118L119.3,140.3z"/>
			<path class="st1" d="M104.2,146.3c0,0,4.3-0.1,5.1,0.1c0.8,0.4-0.3,7.3-0.3,7.3l1.7,1.6l-1.6,1.6c0,0,0.1,7.1-0.9,7.7
			c-1,0.5-4.5,0-4.5,0v-1.8c0,0,2.9,0.1,3.3-0.1c0.5-0.4,0.4-6.6,0.4-6.6l0.8-0.8l-0.8-0.9c0,0,0.1-4.5,0-5.6c0-0.8-3.4-0.8-3.4-0.8
			L104.2,146.3z"/>
			<path class="st1" d="M94.2,146.3c0,0-4.3-0.1-5.1,0.1c-0.8,0.4,0.3,7.3,0.3,7.3l-1.7,1.6l1.6,1.6c0,0-0.1,7.1,0.9,7.7
			c1,0.7,4.5,0,4.5,0v-1.8c0,0-2.9,0.1-3.3-0.1c-0.4-0.3-0.4-6.6-0.4-6.6l-0.8-0.8l0.8-0.9c0,0-0.1-4.5,0-5.6c0-0.8,3.4-0.8,3.4-0.8
			L94.2,146.3z"/>
		</g>
	</g>
	<g id="Layer_2_1_">
		<g class="fading">

			<linearGradient id="SVGID_101_" gradientUnits="userSpaceOnUse" x1="592" y1="1008.358" x2="592" y2="931.849" gradientTransform="matrix(1 0 0 1 0 -564)">
				<stop offset="0" style="stop-color:#D906E3"/>
				<stop offset="1" style="stop-color:#FF6DF9"/>
			</linearGradient>
			<path class="st129" d="M632.1,444.4h-80c-6.4,0-11.7-5.1-11.9-11.5l-1.8-52.6c-0.3-6.7,5.2-12.3,11.9-12.3h83.4
			c6.7,0,12.2,5.5,11.9,12.3l-1.6,52.6C643.9,439.3,638.7,444.4,632.1,444.4z"/>
			<path class="st130" d="M632.1,444.8h-80c-6.7,0-12.1-5.2-12.3-11.8l-1.8-52.6c-0.1-3.4,1.2-6.6,3.4-8.9c2.2-2.4,5.5-3.8,8.8-3.8
			h83.5c3.3,0,6.4,1.3,8.8,3.7c2.4,2.4,3.5,5.5,3.4,8.9l-1.6,52.7C644.2,439.6,638.8,444.8,632.1,444.8z M550.3,368.3
			c-3.1,0-6.2,1.3-8.4,3.5s-3.4,5.2-3.3,8.5l1.8,52.6c0.3,6.3,5.2,11.3,11.7,11.3h80c6.3,0,11.4-5,11.7-11.3l1.6-52.6
			c0.1-3.1-1-6.2-3.3-8.4c-2.2-2.2-5.1-3.5-8.4-3.5h-83.4L550.3,368.3L550.3,368.3z"/>
			<path class="st66" d="M627.7,376.4h-73.3v43.5h73.3V376.4z"/>
			<path class="st1" d="M584.5,387.1v22l18.7-11.9L584.5,387.1z"/>
			<path class="st66" d="M627.7,427.9h-73.3v3.9h73.3V427.9z"/>
			<path class="st1" d="M573.4,427.9h-19v3.9h19V427.9z"/>
		</g>
	</g>
	<g id="Layer_3">
		<g class="fading-4">

			<linearGradient id="SVGID_102_" gradientUnits="userSpaceOnUse" x1="120.15" y1="929.6" x2="120.15" y2="868.426" gradientTransform="matrix(1 0 0 1 0 -564)">
				<stop offset="0" style="stop-color:#D906E3"/>
				<stop offset="1" style="stop-color:#FF6DF9"/>
			</linearGradient>
			<path class="st131" d="M152.2,365.6h-64c-5.1,0-9.4-4.1-9.6-9.2l-1.4-42.1c-0.1-5.4,4.2-9.8,9.6-9.8h66.7c5.4,0,9.7,4.5,9.6,9.8
			l-1.3,42.1C161.6,361.4,157.4,365.6,152.2,365.6z"/>
			<path class="st130" d="M152.2,365.9h-64c-5.4,0-9.7-4.2-9.8-9.6L77,314.2c-0.1-2.8,0.9-5.2,2.8-7.2c1.8-2,4.5-3,7.1-3h66.7
			c2.8,0,5.2,1,7.1,3c1.8,2,2.9,4.5,2.8,7.2l-1.3,42.1C161.9,361.7,157.6,365.9,152.2,365.9z M86.8,304.8c-2.5,0-4.8,1-6.7,2.8
			c-1.8,1.7-2.6,4.2-2.6,6.7l1.4,42.1c0.1,5,4.2,8.9,9.2,8.9h64c5,0,9-3.9,9.2-8.9l1.3-42.1c0.1-2.5-0.8-4.9-2.6-6.7
			c-1.7-1.8-4.1-2.8-6.7-2.8H86.8z"/>
			<path class="st1" d="M105.3,319.5l-15.7,18.4l16,13.6v-7.1l-9.3-8l8.7-9.8L105.3,319.5z"/>
			<path class="st1" d="M133.1,320.4l15.7,18.2l-16.1,13.6v-7.1l9.3-8l-10.4-10.9L133.1,320.4z"/>
			<path class="st1" d="M108.7,351.4l13.8-30.3h6.4l-15.5,30.3H108.7z"/>
		</g>
	</g>
</svg>
