<?xml version="1.0" encoding="utf-8"?>
<!-- Generator: Adobe Illustrator 25.0.1, SVG Export Plug-In . SVG Version: 6.00 Build 0)  -->
<svg version="1.1"
	xmlns="http://www.w3.org/2000/svg"
	xmlns:xlink="http://www.w3.org/1999/xlink" x="0px" y="0px" viewBox="0 0 675.3 514" style="enable-background:new 0 0 675.3 514;" xml:space="preserve">
	<style type="text/css">
	.st0{fill:#6965AB;}
	.st1{fill:#FFFFFF;}
	.st2{fill:#FFCD6E;}
	.st3{fill:#D5D4EB;}
	.st4{fill:#3DA0B8;}
	.st5{fill:#FF5E63;}
	.st6{fill:none;stroke:#38356E;stroke-width:0.5;stroke-linejoin:round;}
	.st7{fill:none;stroke:#38356E;stroke-width:0.5;stroke-linejoin:round;stroke-dasharray:2.9721,2.9721;}
	.st8{fill:none;stroke:#38356E;stroke-width:0.5;stroke-linejoin:round;stroke-dasharray:3.0296,3.0296;}
	.st9{fill:#38356E;}
	.st10{fill:#C9C6FA;}
	.st11{fill:none;stroke:#C9C6FA;stroke-miterlimit:10;}
	.st12{fill:none;stroke:#0B82C6;stroke-width:3;}
	.st13{fill:#B3B0EB;}
	.st14{fill:#222042;}
	.st15{fill:#6D68B0;}
	.st16{fill:#CBCAE0;}
	.st17{fill:#E7E6FF;}
	.st18{fill:#8A84E0;}
	.st19{fill:none;stroke:#38356E;stroke-width:0.5;stroke-linejoin:round;stroke-dasharray:3.0408,3.0408;}
	.st20{fill:none;stroke:#38356E;stroke-width:0.5;stroke-linejoin:round;stroke-dasharray:3.1604,3.1604;}
	.st21{fill:none;stroke:#FFFFFF;stroke-width:2;stroke-linecap:round;stroke-linejoin:round;stroke-miterlimit:10;}
	.st22{fill:#0239B2;}
	.st23{fill:none;stroke:#38356E;stroke-miterlimit:10;}
	.st24{fill:#0D6E92;}
	.st25{fill:#4F403F;}
	.st26{fill:none;stroke:#38356E;stroke-width:0.5;stroke-linejoin:round;stroke-dasharray:3.0225,3.0225;}
	.st27{fill:none;stroke:#38356E;stroke-width:0.5;stroke-linejoin:round;stroke-dasharray:2.9051,2.9051;}

	.moving {
		animation: moving 3s infinite;
		animation-delay: 1s;
	}

	.scaling-play {
		animation: scaling 4s infinite;
		transform-origin: center;
		transform-box: fill-box;
	}

	.moving-1 {
		animation: moving-block-1 8s infinite;
		transform-origin: center;
		transform-box: fill-box;
	}

	.moving-2 {
		animation: moving-block-2 4s infinite;
		transform-origin: center;
		transform-box: fill-box;
	}

	.moving-3 {
		animation: moving-block-3 8s infinite;
		transform-origin: center;
		transform-box: fill-box;
	}

	@keyframes moving {
		0% {
			transform: translate3d(0px, 0px, 0px);
			opacity: 1;
		}

		50% {
			transform: translate3d(30px, 30px, 30px);
			opacity: 0;
		}

		100% {
			transform: translate3d(0px, 0px, 0px);
			opacity: 1;
		}
	}

	@keyframes scaling {
		0% {
			transform: scale(1);
			opacity: 1			
		}

		50% {
			transform: scale(0.5);
			opacity: 0			
		}

		100% {
			transform: scale(1);	
			opacity: 1			
		}
	}

	@keyframes moving-block-1 {
		0% {
			transform: translateY(0);
		}

		50% {
			transform: translateY(67px);			
		}

		100% {
			transform: translateY(0);			
		}
	}

	@keyframes moving-block-2 {
		0% {
			transform: translateY(0);
		}

		50% {
			transform: translateY(-33px);			
		}

		100% {
			transform: translateY(0);			
		}
	}

	@keyframes moving-block-3 {
		0% {
			transform: translateY(0);
		}

		25% {
			transform: translateY(-33px);			
		}

		50% {
			transform: translateY(-67px);			
		}

		75% {
			transform: translateY(-33px);			
		}

		100% {
			transform: translateY(0);			
		}
	}
	</style>
	<g id="Layer_3" class="scaling">
		<g>
			<g>
				<path class="st0" d="M224.5,195.1H27.8c-2.2,0-4-1.8-4-4V69.3c0-2.2,1.8-4,4-4h196.7c2.2,0,4,1.8,4,4v121.8
				C228.4,193.3,226.7,195.1,224.5,195.1z"/>
				<path class="st1" d="M26.6,188.6V79c0-1.7,1.4-3.1,3.1-3.1h192.7c1.7,0,3.1,1.4,3.1,3.1v109.6c0,1.7-1.4,3.1-3.1,3.1H29.7
				C28,191.8,26.6,190.4,26.6,188.6z"/>
				<g>
					<circle class="st1" cx="221.7" cy="70.6" r="2.6"/>
					<circle class="st1" cx="213.1" cy="70.6" r="2.6"/>
					<path class="st1" d="M207.2,70.6c0,1.4-1.2,2.6-2.6,2.6s-2.6-1.2-2.6-2.6c0-1.4,1.2-2.6,2.6-2.6S207.2,69.2,207.2,70.6z"/>
				</g>
			</g>

			<g>
				<g class="moving-1">
					<path class="st2" d="M54.7,96.6c0,5.8-4.7,10.5-10.5,10.5c-5.8,0-10.5-4.7-10.5-10.5c0-5.8,4.7-10.5,10.5-10.5
					S54.7,90.9,54.7,96.6z"/>
					<g>
						<rect x="59.5" y="86.2" class="st3" width="156.3" height="5"/>
						<rect x="59.5" y="94.2" class="st3" width="106.3" height="5"/>
						<rect x="59.5" y="102.6" class="st3" width="55.3" height="5"/>
					</g>
				</g>
				<g class="moving-2">
					<path class="st4" d="M54.7,130c0,5.8-4.7,10.5-10.5,10.5c-5.8,0-10.5-4.7-10.5-10.5c0-5.8,4.7-10.5,10.5-10.5
					C50,119.5,54.7,124.2,54.7,130z"/>
					<g>
						<rect x="59.5" y="119.6" class="st3" width="156.3" height="5"/>
						<rect x="59.5" y="127.5" class="st3" width="106.3" height="5"/>
						<rect x="59.5" y="135.9" class="st3" width="55.3" height="5"/>
					</g>
				</g>
				<g class="moving-3">
					<path class="st5" d="M54.7,163.4c0,5.8-4.7,10.5-10.5,10.5c-5.8,0-10.5-4.7-10.5-10.5c0-5.8,4.7-10.5,10.5-10.5
					C50,152.9,54.7,157.6,54.7,163.4z"/>
					<g>
						<rect x="59.5" y="153" class="st3" width="156.3" height="5"/>
						<rect x="59.5" y="160.9" class="st3" width="106.3" height="5"/>
						<rect x="59.5" y="169.3" class="st3" width="55.3" height="5"/>
					</g>
				</g>
			</g>

			<g>
				<g>
					<polyline class="st6" points="238.1,204.7 238.1,207.5 235.4,207.5 				"/>
					<line class="st7" x1="230.1" y1="207.5" x2="17.9" y2="207.5"/>
					<polyline class="st6" points="15.2,207.5 12.5,207.5 12.5,204.7 				"/>
					<line class="st8" x1="12.5" y1="199.3" x2="12.5" y2="59.7"/>
					<polyline class="st6" points="12.5,56.9 12.5,54.2 15.2,54.2 				"/>
					<line class="st7" x1="20.6" y1="54.2" x2="232.8" y2="54.2"/>
					<polyline class="st6" points="235.4,54.2 238.1,54.2 238.1,56.9 				"/>
					<line class="st8" x1="238.1" y1="62.4" x2="238.1" y2="202"/>
				</g>
			</g>
			<rect x="8.1" y="49.8" class="st9" width="8.8" height="8.8"/>
			<rect x="8.1" y="203" class="st9" width="8.8" height="8.8"/>
			<rect x="233.7" y="49.8" class="st9" width="8.8" height="8.8"/>
			<rect x="233.7" y="203" class="st9" width="8.8" height="8.8"/>
		</g>
	</g>
	<g id="Layer_1">
		<g>
			<g>
				<polygon class="st10" points="307.4,56.8 304.7,67.1 301.9,77.4 294.3,69.8 286.8,62.3 297.1,59.5 			"/>
				<polygon class="st10" points="259,446.1 256.2,456.4 253.4,466.7 245.9,459.2 238.3,451.6 248.7,448.9 			"/>
				<path class="st11" d="M432.6,404.2c32.4,0,58.6,26.3,58.6,58.6c0,19.7-10.5,38.2-26,48.7c0,0-26.5,0.4-31.4,0.4
				c-4.7,0-34.8-1-34.8-1c-15.1-10.6-25.5-28.9-25.2-48.1C374.4,434.3,398.3,404.2,432.6,404.2z"/>
				<g>
					<path class="st10" d="M608,530.9L608,530.9"/>
				</g>
			</g>
			<path class="st12" d="M2.5,55c0-7.1,5.5-13,12.6-13.5l593-38c7.8-0.5,14.4,5.7,14.4,13.5V498c0,7.5-6,13.5-13.5,13.5H16
			c-7.5,0-13.5-6-13.5-13.5V55z"/>
			<g>
				<g>
					<path class="st13" d="M493,50.2c0-8.2,6.6-14.8,14.8-14.8c8.2,0,14.8,6.6,14.8,14.8c0,8.2-6.6,14.8-14.8,14.8
					C499.6,65.1,493,58.4,493,50.2z"/>
				</g>
				<g>
					<rect x="323.3" y="417.8" class="st9" width="79.1" height="88.8"/>
					<rect x="323.3" y="417.8" class="st14" width="79.1" height="30.9"/>
					<path class="st14" d="M437,509.9H288.6v-9.8c0-8.3,6.7-15,15-15H422c8.3,0,15,6.7,15,15L437,509.9L437,509.9z"/>
					<path class="st9" d="M567.8,428.1H157.8c-8,0-14.5-6.5-14.5-14.5V155.9c0-8,6.5-14.5,14.5-14.5h410.1c8,0,14.5,6.5,14.5,14.5
					v257.6C582.3,421.6,575.8,428.1,567.8,428.1z"/>
					<path class="st1" d="M154.9,410.6V158.9c0-3.2,2.6-5.8,5.8-5.8h404.1c3.2,0,5.8,2.6,5.8,5.8v251.7c0,3.2-2.6,5.8-5.8,5.8H160.8
					C157.5,416.5,154.9,413.8,154.9,410.6z"/>
				</g>
				<g class="envelope">
					<path class="st15" d="M635.3,181.9h-74.7c-1.5,0-2.6-1.2-2.6-2.6v-53.4c0-1.5,1.2-2.6,2.6-2.6H591c0.7,0,1.4,0.3,1.9,0.8
					l4.9,4.9c0.5,0.5,1.2,0.8,1.9,0.8h35.7c1.5,0,2.6,1.2,2.6,2.6v46.9C638,180.7,636.8,181.9,635.3,181.9z"/>
					<g>
						<polygon class="st3" points="628.5,91.9 628.5,159.1 565.1,159.1 565.1,81.9 618.5,81.9 					"/>
						<polygon class="st16" points="618.5,91.9 618.5,81.9 628.5,91.9 					"/>
					</g>
					<polygon class="st17" points="632.5,95.4 632.5,162.7 569,162.7 569,85.4 622.5,85.4 				"/>
					<path class="st18" d="M638.1,181.9h-74.7c-1.5,0-2.6-1.2-2.6-2.6v-45.8c0-1.5,1.2-2.6,2.6-2.6h30.4c0.7,0,1.4,0.3,1.9,0.8
					l4.9,4.9c0.5,0.5,1.2,0.8,1.9,0.8h35.7c1.5,0,2.6,1.2,2.6,2.6v39.3C640.8,180.7,639.6,181.9,638.1,181.9z"/>
					<polygon class="st16" points="622.5,95.4 622.5,85.4 632.5,95.4 				"/>
					<rect x="571.7" y="89.8" class="st16" width="48" height="2.6"/>
					<rect x="571.9" y="99.7" class="st16" width="57.7" height="1.6"/>
					<rect x="571.9" y="104.3" class="st16" width="57.7" height="1.6"/>
					<rect x="571.9" y="109" class="st16" width="47.4" height="1.6"/>
					<rect x="571.9" y="113.6" class="st16" width="47.4" height="1.6"/>
					<rect x="571.9" y="118.3" class="st16" width="32.1" height="1.6"/>
					<rect x="571.9" y="123" class="st16" width="32.1" height="1.6"/>
				</g>
				<g>
					<path class="st5" d="M594.6,334.7c1.1-1.8,2.5-5,4-10.3v-22c0-2.5,2.1-4.6,4.6-4.6H661c2.5,0,4.6,2.1,4.6,4.6v23.4
					c0,2.5-2.1,4.6-4.6,4.6h-54.7c-1.7,1.9-4.9,4.7-10.4,6.1C594.8,336.7,594,335.6,594.6,334.7z"/>
					<path class="st1" d="M643.9,305.6c2.4-1.2,5.9-0.3,7,2.2c1.1-2.5,4.6-3.4,7-2.2c2.4,1.2,3.7,4.1,3.5,6.8c-0.2,2.7-1.8,5.2-3.8,7
					c-1.9,1.7-4.3,2.9-6.7,4c-2.4-1-4.8-2.2-6.7-4c-2-1.8-3.6-4.3-3.8-7C640.1,309.8,641.4,306.9,643.9,305.6z"/>
					<g>
						<path class="st1" d="M610.5,307.6V321h-3.8v-10.5h-2.5v-2.9H610.5z"/>
						<path class="st1" d="M615.4,320.5c-0.9-0.5-1.6-1.4-2.1-2.4c-0.5-1-0.8-2.3-0.8-3.8s0.3-2.7,0.8-3.8c0.5-1,1.2-1.9,2.1-2.4
						c0.9-0.5,1.9-0.8,3.1-0.8c1.1,0,2.2,0.3,3.1,0.8s1.6,1.4,2.1,2.4c0.5,1,0.8,2.3,0.8,3.8s-0.3,2.7-0.8,3.8
						c-0.5,1-1.2,1.9-2.1,2.4c-0.9,0.5-1.9,0.8-3.1,0.8C617.3,321.3,616.3,321,615.4,320.5z M620,317.3c0.4-0.6,0.6-1.6,0.6-2.9
						s-0.2-2.3-0.6-2.9c-0.4-0.6-0.9-0.9-1.5-0.9c-0.7,0-1.2,0.3-1.6,0.9c-0.4,0.6-0.6,1.6-0.6,2.9s0.2,2.3,0.6,2.9s0.9,0.9,1.6,0.9
						C619.1,318.2,619.6,317.9,620,317.3z"/>
						<path class="st1" d="M628.5,320.5c-0.9-0.5-1.6-1.4-2.1-2.4c-0.5-1-0.8-2.3-0.8-3.8s0.3-2.7,0.8-3.8c0.5-1,1.2-1.9,2.1-2.4
						c0.9-0.5,1.9-0.8,3.1-0.8c1.1,0,2.2,0.3,3.1,0.8c0.9,0.6,1.6,1.4,2.1,2.4c0.5,1,0.8,2.3,0.8,3.8s-0.3,2.7-0.8,3.8
						c-0.5,1-1.2,1.9-2.1,2.4c-0.9,0.5-1.9,0.8-3.1,0.8C630.4,321.3,629.4,321,628.5,320.5z M633.1,317.3c0.4-0.6,0.6-1.6,0.6-2.9
						s-0.2-2.3-0.6-2.9c-0.4-0.6-0.9-0.9-1.5-0.9c-0.7,0-1.2,0.3-1.6,0.9c-0.4,0.6-0.6,1.6-0.6,2.9s0.2,2.3,0.6,2.9s0.9,0.9,1.6,0.9
						C632.2,318.2,632.7,317.9,633.1,317.3z"/>
					</g>
				</g>
				<g>
					<g>
						<path class="st18" d="M547.7,397.6H177.9c-4.6,0-8.3-3.7-8.3-8.3V180.2c0-4.6,3.7-8.3,8.3-8.3h369.9c4.6,0,8.3,3.7,8.3,8.3
						v209.1C556,393.9,552.3,397.6,547.7,397.6z"/>
						<path class="st1" d="M174.9,386.4V196.8c0-2.7,2.2-5,5-5h365.8c2.7,0,5,2.2,5,5v189.6c0,2.7-2.2,5-5,5H179.9
						C177.2,391.4,174.9,389.2,174.9,386.4z"/>
						<g>
							<path class="st1 red" d="M548.2,181.9c0,2.7-2.2,4.9-4.9,4.9s-4.9-2.2-4.9-4.9c0-2.7,2.2-4.9,4.9-4.9
							C546,177,548.2,179.2,548.2,181.9z"/>
							<path class="st1 green" d="M532,181.9c0,2.7-2.2,4.9-4.9,4.9s-4.9-2.2-4.9-4.9c0-2.7,2.2-4.9,4.9-4.9S532,179.2,532,181.9z"/>
							<path class="st1 yellow" d="M515.9,181.9c0,2.7-2.2,4.9-4.9,4.9c-2.7,0-4.9-2.2-4.9-4.9c0-2.7,2.2-4.9,4.9-4.9
							C513.7,177,515.9,179.2,515.9,181.9z"/>
						</g>
					</g>
					<g>
						<g>
							<polyline class="st6" points="327.4,302.8 327.4,305.5 324.7,305.5 						"/>
							<line class="st19" x1="319.2" y1="305.5" x2="190.1" y2="305.5"/>
							<polyline class="st6" points="187.4,305.5 184.6,305.5 184.6,302.8 						"/>
							<line class="st20" x1="184.6" y1="297.1" x2="184.6" y2="208.6"/>
							<polyline class="st6" points="184.6,205.7 184.6,203 187.4,203 						"/>
							<line class="st19" x1="192.8" y1="203" x2="322" y2="203"/>
							<polyline class="st6" points="324.7,203 327.4,203 327.4,205.7 						"/>
							<line class="st20" x1="327.4" y1="211.4" x2="327.4" y2="299.9"/>
						</g>
					</g>
					<g>
						<rect x="201.3" y="219.5" class="st18" width="142.8" height="102.5"/>
						<g>
							<polygon class="st21" points="334.9,313.8 210.3,313.8 249.6,239.7 279.1,290.6 299.1,269.5 						"/>
							<circle class="st21" cx="284.9" cy="243.8" r="12.2"/>
						</g>
					</g>
					<rect x="360.5" y="238.4" class="st3" width="67.4" height="5.5"/>
					<rect x="435.4" y="238.4" class="st3" width="26.2" height="5.5"/>
					<rect x="467.6" y="238.4" class="st3" width="26.2" height="5.5"/>
					<rect x="497.9" y="238.4" class="st3" width="33.3" height="5.5"/>
					<rect x="360.5" y="252" class="st3" width="18.8" height="5.5"/>
					<rect x="448.5" y="252" class="st3" width="33.7" height="5.5"/>
					<rect x="383.6" y="252" class="st3" width="59.3" height="5.5"/>
					<rect x="360.5" y="265.6" class="st3" width="42.5" height="5.5"/>
					<rect x="410.3" y="265.6" class="st3" width="14.3" height="5.5"/>
					<rect x="431.2" y="265.6" class="st3" width="28" height="5.5"/>
					<rect x="360.5" y="279.2" class="st3" width="16.3" height="5.5"/>
					<rect x="382.9" y="279.2" class="st3" width="35.7" height="5.5"/>
					<rect x="184.6" y="332.9" class="st3" width="159.5" height="47.4"/>
					<g>
						<rect x="188.9" y="336.1" class="st1" width="30.3" height="28.2"/>
						<rect x="188.9" y="368.5" class="st1" width="30.3" height="8.4"/>
					</g>
					<g>
						<rect x="227.4" y="348.7" class="st1" width="30.3" height="28.2"/>
						<rect x="227.4" y="336.1" class="st1" width="30.3" height="8.4"/>
					</g>
					<g>
						<rect x="269" y="336.1" class="st1" width="30.3" height="28.2"/>
						<rect x="269" y="368.5" class="st1" width="30.3" height="8.4"/>
					</g>
					<g>
						<rect x="307.6" y="348.7" class="st1" width="30.3" height="28.2"/>
						<rect x="307.6" y="336.1" class="st1" width="30.3" height="8.4"/>
					</g>
					<g>
						<g>
							<g>
								<g>
									<path class="st18" d="M543.8,304.3H364.2v-6.1c0-2.1,1.7-3.7,3.7-3.7H540c2.1,0,3.7,1.7,3.7,3.7L543.8,304.3L543.8,304.3z" />
								</g>
							</g>
							<g>
								<path class="st18" d="M542,302.4v74.3c0,1.7-1.4,3.1-3.1,3.1H369.2c-1.7,0-3.1-1.4-3.1-3.1v-74.3H542 M543.8,300.6H364.2
								v76.1c0,2.7,2.2,4.9,4.9,4.9h169.7c2.7,0,4.9-2.2,4.9-4.9L543.8,300.6L543.8,300.6z"/>
							</g>
						</g>
						<g>
							<rect x="370.5" y="310.3" class="st3" width="22.6" height="65.2"/>
						</g>
						<g>
							<rect x="426.8" y="310.3" class="st3" width="109.1" height="65.2"/>
						</g>
						<g>
							<rect x="432.6" y="313.8" class="st1" width="98" height="6.6"/>
						</g>
						<g>
							<rect x="432.6" y="324.4" class="st1" width="98" height="3.3"/>
						</g>
						<g>
							<rect x="397.8" y="324.4" class="st3" width="22.6" height="7.8"/>
						</g>
						<g>
							<rect x="432.6" y="330.8" class="st1" width="21.1" height="39.9"/>
						</g>
						<g>
							<rect x="484.3" y="330.8" class="st1" width="21.1" height="39.9"/>
						</g>
						<g>
							<path class="st1" d="M481.2,371.5h-22.9v-41.7h22.9V371.5z M460.1,369.7h19.3v-38.1h-19.3V369.7z"/>
						</g>
						<g>
							<path class="st1" d="M531.5,371.5h-22.9v-41.7h22.9V371.5z M510.4,369.7h19.3v-38.1h-19.3V369.7z"/>
						</g>
						<g>
							<rect x="397.8" y="338.5" class="st3" width="22.6" height="7.8"/>
						</g>
						<g>
							<rect x="397.8" y="352.6" class="st3" width="22.6" height="7.8"/>
						</g>
						<g>
							<rect x="397.8" y="366.7" class="st3" width="22.6" height="7.8"/>
						</g>
					</g>
				</g>
				<g>
					<path class="st4" d="M369.5,91.4h-65.2c-8.7,0-15.7,7-15.7,15.7l0,0c0,2.6,0.7,5.1,1.8,7.3l-5.1,9.3c-1.3,2.3,1.1,5,3.5,3.9
					l12.2-5.2c1,0.2,2.2,0.3,3.3,0.3h65.2c8.7,0,15.7-7,15.7-15.7l0,0C385.1,98.4,378.1,91.4,369.5,91.4z"/>
					<g>
						<path class="st1" d="M312.7,107.1c0,3.1-2.5,5.5-5.5,5.5s-5.5-2.5-5.5-5.5c0-3.1,2.5-5.5,5.5-5.5S312.7,104.1,312.7,107.1z"/>
						<path class="st1" d="M332.9,107.1c0,3.1-2.5,5.5-5.5,5.5c-3.1,0-5.5-2.5-5.5-5.5c0-3.1,2.5-5.5,5.5-5.5
						C330.4,101.6,332.9,104.1,332.9,107.1z"/>
						<path class="st1" d="M353.1,107.1c0,3.1-2.5,5.5-5.5,5.5c-3.1,0-5.5-2.5-5.5-5.5c0-3.1,2.5-5.5,5.5-5.5
						C350.7,101.6,353.1,104.1,353.1,107.1z"/>
						<path class="st1" d="M373.4,107.1c0,3.1-2.5,5.5-5.5,5.5c-3.1,0-5.5-2.5-5.5-5.5c0-3.1,2.5-5.5,5.5-5.5
						C370.9,101.6,373.4,104.1,373.4,107.1z"/>
					</g>
				</g>
				<g>
					<path class="st2 dots" d="M611.7,250.1h-65.2c-8.7,0-15.7,7-15.7,15.7l0,0c0,2.6,0.7,5.1,1.8,7.3l-5.1,9.3c-1.3,2.3,1.1,5,3.5,3.9
					l12.2-5.2c1,0.2,2.2,0.3,3.3,0.3h65.2c8.7,0,15.7-7,15.7-15.7l0,0C627.3,257.2,620.3,250.1,611.7,250.1z"/>
					<g>
						<path class="st1" d="M554.9,265.9c0,3.1-2.5,5.5-5.5,5.5c-3.1,0-5.5-2.5-5.5-5.5c0-3.1,2.5-5.5,5.5-5.5
						C552.4,260.4,554.9,262.9,554.9,265.9z"/>
						<path class="st1" d="M575.1,265.9c0,3.1-2.5,5.5-5.5,5.5c-3.1,0-5.5-2.5-5.5-5.5c0-3.1,2.5-5.5,5.5-5.5
						C572.6,260.4,575.1,262.9,575.1,265.9z"/>
						<path class="st1" d="M595.4,265.9c0,3.1-2.5,5.5-5.5,5.5c-3.1,0-5.5-2.5-5.5-5.5c0-3.1,2.5-5.5,5.5-5.5
						C592.9,260.4,595.4,262.9,595.4,265.9z"/>
						<path class="st1" d="M615.6,265.9c0,3.1-2.5,5.5-5.5,5.5c-3.1,0-5.5-2.5-5.5-5.5c0-3.1,2.5-5.5,5.5-5.5
						C613.1,260.4,615.6,262.9,615.6,265.9z"/>
					</g>
				</g>
				<g>
					<path class="st22" d="M214.1,375.3l-2.6,2.2c-8.7,7.4-19.1,12.6-30.2,15.2l-3.8,0.9c-7.3-9.7-19-15.9-32-15.9
					c-22.2,0-40.2,18-40.2,40.2c0,22.2,18,40.2,40.2,40.2s40.2-18,40.2-40.2c0-0.6,0-1.2-0.1-1.9l3.7-2.5
					c12.8-8.9,22.4-21.7,27.3-36.4C217.1,375.5,215.3,374.3,214.1,375.3z"/>
				</g>
				<g>
					<rect x="56.5" y="271.1" class="st18 www" width="105" height="27.1"/>
					<g>
						<path class="st1" d="M93.4,275.5l-6.5,18h-5l-4-11.2l-4.2,11.2h-5l-6.5-18H67l4.3,12.2l4.4-12.2h4.4l4.3,12.2l4.4-12.2H93.4z" />
						<path class="st1" d="M124.4,275.5l-6.5,18h-5l-4-11.2l-4.2,11.2h-5l-6.5-18H98l4.3,12.2l4.4-12.2h4.4l4.3,12.2l4.4-12.2H124.4z
						"/>
						<path class="st1" d="M155.4,275.5l-6.5,18h-5l-4-11.2l-4.2,11.2h-5l-6.5-18h4.9l4.3,12.2l4.4-12.2h4.4l4.3,12.2l4.4-12.2H155.4
						z"/>
					</g>
					<g>
						<line class="st23" x1="51" y1="271.1" x2="62.1" y2="271.1"/>
						<line class="st23" x1="51" y1="298.3" x2="62.1" y2="298.3"/>
						<line class="st23" x1="56.5" y1="271.1" x2="56.5" y2="298.3"/>
					</g>
				</g>
				<polygon class="st14 moving" points="348.5,272.2 339.3,269.8 330.1,267.3 332.6,276.5 335.1,285.7 340.1,280.7 350.6,291.2 354,287.8 
				343.5,277.3 			"/>
			</g>
		</g>
		<g>
			<path class="st1" d="M145.1,382.3c-19.6,0-35.6,16-35.6,35.6c0,19.6,16,35.6,35.6,35.6c19.6,0,35.6-16,35.6-35.6
			C180.7,398.2,164.7,382.3,145.1,382.3z M113.1,417.8c0-4.6,1-9,2.8-13l15.3,41.8C120.5,441.4,113.1,430.5,113.1,417.8z
			 M145.1,449.8c-3.1,0-6.2-0.5-9-1.3l9.6-27.9l9.8,26.9c0.1,0.2,0.1,0.3,0.2,0.4C152.4,449.2,148.8,449.8,145.1,449.8z
			 M149.5,402.9c1.9-0.1,3.7-0.3,3.7-0.3c1.7-0.2,1.5-2.7-0.2-2.6c0,0-5.2,0.4-8.5,0.4c-3.1,0-8.4-0.4-8.4-0.4
			c-1.7-0.1-1.9,2.5-0.2,2.6c0,0,1.6,0.2,3.4,0.3l5,13.6l-7,21l-11.6-34.6c1.9-0.1,3.7-0.3,3.7-0.3c1.7-0.2,1.5-2.7-0.2-2.6
			c0,0-5.2,0.4-8.5,0.4c-0.6,0-1.3,0-2.1,0c5.7-8.7,15.5-14.4,26.7-14.4c8.3,0,15.9,3.2,21.6,8.4c-0.1,0-0.3,0-0.4,0
			c-3.1,0-5.4,2.7-5.4,5.7c0,2.6,1.5,4.9,3.1,7.5c1.2,2.1,2.6,4.9,2.6,8.8c0,2.7-1.1,5.9-2.4,10.3l-3.2,10.7L149.5,402.9z
			 M161.2,445.5l9.8-28.2c1.8-4.6,2.4-8.2,2.4-11.5c0-1.2-0.1-2.3-0.2-3.3c2.5,4.6,3.9,9.8,3.9,15.3
			C177.1,429.6,170.7,439.9,161.2,445.5z"/>
		</g>
		<g>
			<path class="st24" d="M400.5,207.1c-1.9,0.3-2.2,0.5-3.1,2.8c-0.7,1.7-2.4,6.8-4.8,14.4h-1c-1.6-4.4-3.5-9.6-5-13.4h-0.1
			c-1.6,4.7-3.2,9.1-4.7,13.4h-1c-1.5-4.9-3.1-9.7-4.7-14.5c-0.7-2.3-1.2-2.6-2.9-2.8v-0.8h7.2v0.8c-2.1,0.2-2.1,0.5-1.7,1.9
			c1.1,3.6,2.2,7.2,3.5,11h0.1c1.5-4.5,3.1-9,4.6-13.5h1c1.6,4.5,3.3,8.9,5,13.5h0.1c1.2-3.7,2.8-9,3.2-10.7c0.4-1.6,0.3-2-2-2.2
			v-0.8h6.4V207.1z"/>
			<path class="st24" d="M409.9,209.5c4,0,7.6,2.9,7.6,7.2c0,4.7-3.6,7.6-7.9,7.6c-4.3,0-7.7-3.1-7.7-7.3
			C401.9,213.1,404.9,209.5,409.9,209.5L409.9,209.5z M409.4,210.3c-2.6,0-5,2-5,6.2c0,4,2.4,7.1,5.7,7.1c2.6,0,4.9-2,4.9-6.2
			C415,212.7,412.4,210.3,409.4,210.3L409.4,210.3z"/>
			<path class="st24" d="M433,224.2c-0.3,0-0.5,0-0.8,0c-1.8-0.1-2.8-0.6-3.8-2c-0.8-1.1-1.5-2.4-2.2-3.4c-0.4-0.6-0.8-0.9-2-0.9
			h-0.6v3.4c0,1.8,0.2,2,2,2.2v0.6h-6.2v-0.6c1.8-0.1,2.1-0.3,2.1-2.2v-8.7c0-1.9-0.2-2-2-2.1v-0.7h5.8c1.7,0,2.8,0.2,3.7,0.8
			c0.9,0.6,1.5,1.5,1.5,2.9c0,1.9-1.2,3-2.9,3.7c0.4,0.7,1.3,2.2,2,3.2c0.8,1.2,1.3,1.8,1.8,2.3c0.6,0.6,1.1,0.9,1.6,1L433,224.2z
			 M424.5,217.1c1.1,0,1.9-0.2,2.5-0.6c0.9-0.7,1.2-1.5,1.2-2.7c0-2.3-1.6-3.2-3.3-3.2c-0.7,0-1.1,0.1-1.2,0.2
			c-0.2,0.1-0.2,0.4-0.2,0.9v5.4H424.5z"/>
			<path class="st24" d="M440.6,209.8c2.9,0,5.1,0.6,6.6,1.9c1.1,1.1,2,2.7,2,4.7c0,2.6-1.1,4.5-2.9,5.8c-1.8,1.2-4.1,1.8-6.9,1.8
			h-5.7v-0.6c2-0.1,2.1-0.3,2.1-2.1v-8.7c0-1.9-0.2-2-2-2.1v-0.7H440.6z M438,221.1c0,1.7,0.8,2.1,2.5,2.1c4.3,0,6.3-3,6.3-6.5
			c0-2.3-0.9-4.1-2.6-5.1c-1.1-0.7-2.4-1-4.1-1c-1,0-1.6,0.1-1.8,0.3c-0.2,0.1-0.3,0.4-0.3,1.3V221.1z"/>
			<path class="st25" d="M458.8,206.3c2,0,3.7,0.3,4.8,1.1c1.1,0.8,1.9,2.1,1.9,3.9c0,3.6-2.8,5.3-5.6,5.6c-0.4,0.1-1,0.1-1.3,0
			l-2.1-0.5v4.2c0,2.3,0.2,2.5,2.8,2.7v0.8h-8v-0.8c2.3-0.2,2.5-0.4,2.5-2.7v-10.8c0-2.4-0.2-2.6-2.4-2.7v-0.8H458.8z M456.4,215.5
			c0.4,0.1,1.1,0.3,2,0.3c1.8,0,4-0.9,4-4.4c0-3-1.9-4.2-4.2-4.2c-0.8,0-1.4,0.1-1.6,0.3s-0.3,0.5-0.3,1.3V215.5z"/>
			<path class="st25" d="M480.9,224.2c-0.3,0-0.5,0-0.8,0c-1.8-0.1-2.8-0.6-3.8-2c-0.8-1.1-1.5-2.4-2.2-3.4c-0.4-0.6-0.8-0.9-2-0.9
			h-0.6v3.4c0,1.8,0.2,2,2,2.2v0.6h-6.2v-0.6c1.8-0.1,2.1-0.3,2.1-2.2v-8.7c0-1.9-0.2-2-2-2.1v-0.7h5.8c1.7,0,2.8,0.2,3.7,0.8
			c0.9,0.6,1.5,1.5,1.5,2.9c0,1.9-1.2,3-2.9,3.7c0.4,0.7,1.3,2.2,2,3.2c0.8,1.2,1.3,1.8,1.8,2.3c0.6,0.6,1.1,0.9,1.6,1L480.9,224.2z
			 M472.5,217.1c1.1,0,1.9-0.2,2.5-0.6c0.9-0.7,1.2-1.5,1.2-2.7c0-2.3-1.6-3.2-3.3-3.2c-0.7,0-1.1,0.1-1.2,0.2
			c-0.2,0.1-0.2,0.4-0.2,0.9v5.4H472.5z"/>
			<path class="st25" d="M493.5,220.5c-0.2,0.8-0.6,2.8-0.8,3.5h-11.2v-0.6c2.1-0.1,2.3-0.4,2.3-2.2v-8.6c0-2-0.2-2.1-2-2.2v-0.7
			h10.3c0,0.6,0.1,2,0.2,3.2l-0.7,0.1c-0.2-0.9-0.5-1.4-0.7-1.9c-0.3-0.5-1-0.6-2.5-0.6h-1.7c-0.7,0-0.8,0.1-0.8,0.7v4.9h2.1
			c2,0,2.2-0.2,2.5-1.7h0.7v4.3h-0.7c-0.3-1.6-0.5-1.7-2.5-1.7h-2.1v4c0,1,0.1,1.5,0.5,1.8c0.4,0.3,1.3,0.3,2.3,0.3
			c1.7,0,2.3-0.1,2.9-0.7c0.4-0.5,0.8-1.2,1.2-2.1L493.5,220.5z"/>
			<path class="st25" d="M502.8,213.2c-0.4-1.4-1.1-3-3-3c-1.7,0-2.5,1.2-2.5,2.4c0,1.5,1.1,2.3,2.9,3.2c1.9,0.9,3.9,2,3.9,4.4
			c0,2.3-2,4.2-5.2,4.2c-0.9,0-1.7-0.2-2.3-0.4c-0.6-0.2-0.9-0.4-1.1-0.5c-0.2-0.4-0.5-2.4-0.6-3.5l0.7-0.2c0.4,1.4,1.5,3.7,3.8,3.7
			c1.7,0,2.6-1,2.6-2.6c0-1.6-1.2-2.3-3-3.2c-1.6-0.8-3.8-1.9-3.8-4.3c0-2.2,1.8-4,4.8-4c1.1,0,2.1,0.3,3,0.5
			c0.1,0.8,0.2,1.7,0.4,3.1L502.8,213.2z"/>
			<path class="st25" d="M513.7,213.2c-0.4-1.4-1.1-3-3-3c-1.7,0-2.5,1.2-2.5,2.4c0,1.5,1.1,2.3,2.9,3.2c1.9,0.9,3.9,2,3.9,4.4
			c0,2.3-2,4.2-5.2,4.2c-0.9,0-1.7-0.2-2.3-0.4c-0.6-0.2-0.9-0.4-1.1-0.5c-0.2-0.4-0.5-2.4-0.6-3.5l0.7-0.2c0.4,1.4,1.5,3.7,3.8,3.7
			c1.7,0,2.6-1,2.6-2.6c0-1.6-1.2-2.3-3-3.2c-1.6-0.8-3.8-1.9-3.8-4.3c0-2.2,1.8-4,4.8-4c1.1,0,2.1,0.3,3,0.5
			c0.1,0.8,0.2,1.7,0.4,3.1L513.7,213.2z"/>
		</g>
	</g>
	<g id="Layer_2" class="scaling-play">
		<g>
			<g>
				<g>
					<path class="st0" d="M657.3,479.5H507.4c-2.2,0-4-1.8-4-4V373.9c0-2.2,1.8-4,4-4h149.9c2.2,0,4,1.8,4,4v101.7
					C661.3,477.8,659.5,479.5,657.3,479.5z"/>
					<path class="st1" d="M505.8,474.3v-92.9c0-1.4,1.1-2.5,2.5-2.5h148c1.4,0,2.5,1.1,2.5,2.5v92.9c0,1.4-1.1,2.5-2.5,2.5h-148
					C506.9,476.8,505.8,475.6,505.8,474.3z"/>
					<g>
						<path class="st1" d="M657.8,374.4c0,1.2-1,2.2-2.2,2.2c-1.2,0-2.2-1-2.2-2.2c0-1.2,1-2.2,2.2-2.2
						C656.8,372.2,657.8,373.2,657.8,374.4z"/>
						<path class="st1" d="M650.5,374.4c0,1.2-1,2.2-2.2,2.2c-1.2,0-2.2-1-2.2-2.2c0-1.2,1-2.2,2.2-2.2
						C649.5,372.2,650.5,373.2,650.5,374.4z"/>
						<path class="st1" d="M643.3,374.4c0,1.2-1,2.2-2.2,2.2c-1.2,0-2.2-1-2.2-2.2c0-1.2,1-2.2,2.2-2.2S643.3,373.2,643.3,374.4z"/>
					</g>
				</g>
				<g>
					<ellipse transform="matrix(0.246 -0.9693 0.9693 0.246 24.4579 887.0392)" class="st18" cx="582.4" cy="427.8" rx="22.7" ry="22.7"/>
					<polygon class="st1" points="595.6,427.8 585.1,433.9 574.6,440 574.6,427.8 574.6,415.7 585.1,421.7 				"/>
				</g>
				<g>
					<rect x="505.8" y="466.5" class="st3" width="153.1" height="3"/>
					<rect x="505.8" y="466.5" class="st5" width="34.5" height="3"/>
					<circle class="st5" cx="540.3" cy="468" r="2.3"/>
				</g>
			</g>
			<g>
				<g>
					<polyline class="st6" points="669.7,486.1 669.7,488.8 667,488.8 				"/>
					<line class="st26" x1="661.5" y1="488.8" x2="500.4" y2="488.8"/>
					<polyline class="st6" points="497.7,488.8 495,488.8 495,486.1 				"/>
					<line class="st27" x1="495" y1="480.8" x2="495" y2="368"/>
					<polyline class="st6" points="495,365.4 495,362.6 497.7,362.6 				"/>
					<line class="st26" x1="503.1" y1="362.6" x2="664.3" y2="362.6"/>
					<polyline class="st6" points="667,362.6 669.7,362.6 669.7,365.4 				"/>
					<line class="st27" x1="669.7" y1="370.6" x2="669.7" y2="483.5"/>
				</g>
			</g>
			<rect x="491.5" y="359.2" class="st9" width="6.8" height="6.8"/>
			<rect x="491.5" y="485.4" class="st9" width="6.8" height="6.8"/>
			<rect x="666.3" y="359.2" class="st9" width="6.8" height="6.8"/>
			<rect x="666.3" y="485.4" class="st9" width="6.8" height="6.8"/>
		</g>
	</g>
</svg>
