<svg xmlns="http://www.w3.org/2000/svg" id="Layer_1" width="54.934" height="54.934" data-name="Layer 1" viewBox="0 0 54.934 54.934">
    <defs>
        <style>
           #Layer_1 .hosteshteraki{fill:#2b41a1}
        </style>
    </defs>
    <g id="Group_584" data-name="Group 584" transform="translate(2.818 1.305)">
        <path id="Path_1482" fill="#d5d9e2" d="M13.175 13.9v-.591H4.77l2.8-8.4a2.4 2.4 0 0 1 2.286-1.642h4.962c.154-.354.319-.709.5-1.057l35.665.467L55.7 13.9z" data-name="Path 1482" transform="translate(-4.77 -2.21)"/>
    </g>
    <path id="Path_1477" d="M51.537 3.131A4.572 4.572 0 0 0 47.19 0H7.9a4.761 4.761 0 0 0-4.521 3.255L0 13v10.4a4.826 4.826 0 0 0 4.826 4.826h45.282a4.826 4.826 0 0 0 4.826-4.826V13zM5.617 4A2.4 2.4 0 0 1 7.9 2.363h39.13A2.4 2.4 0 0 1 49.316 4l2.8 8.4H2.818zm46.954 19.4a2.463 2.463 0 0 1-2.463 2.463H4.826A2.463 2.463 0 0 1 2.363 23.4v-8.63h50.208z" class="hosteshteraki" data-name="Path 1477"/>
    <rect id="Rectangle_1366" width="28.353" height="1.181" class="hosteshteraki" data-name="Rectangle 1366" rx=".591" transform="translate(8.27 4.749)"/>
    <rect id="Rectangle_1367" width="7.679" height="1.181" class="hosteshteraki" data-name="Rectangle 1367" rx=".591" transform="translate(38.985 4.749)"/>
    <path id="Path_1478" d="M46.948 33.921a.591.591 0 0 1-.591.591H31.591a.591.591 0 1 1 0-1.181h14.767a.591.591 0 0 1 .59.59z" class="hosteshteraki" data-name="Path 1478" transform="translate(-12.689 -13.642)"/>
    <path id="Path_1479" d="M12.181 30.421v4.135a.591.591 0 0 1-1.181 0v-4.135a.591.591 0 0 1 1.181 0z" class="hosteshteraki" data-name="Path 1479" transform="translate(-4.502 -12.21)"/>
    <path id="Path_1480" d="M18.181 30.421v4.135a.591.591 0 0 1-1.181 0v-4.135a.591.591 0 0 1 1.181 0z" class="hosteshteraki" data-name="Path 1480" transform="translate(-6.958 -12.21)"/>
    <path id="Path_1481" d="M24.181 30.421v4.135a.591.591 0 0 1-1.181 0v-4.135a.591.591 0 1 1 1.181 0z" class="hosteshteraki" data-name="Path 1481" transform="translate(-9.414 -12.21)"/>
    <circle id="Ellipse_77" cx="1.477" cy="1.477" r="1.477" class="hosteshteraki" data-name="Ellipse 77" transform="translate(37.213 18.802)"/>
    <circle id="Ellipse_78" cx="1.477" cy="1.477" r="1.477" class="hosteshteraki" data-name="Ellipse 78" transform="translate(41.348 18.802)"/>
    <circle id="Ellipse_79" cx="1.477" cy="1.477" r="1.477" class="hosteshteraki" data-name="Ellipse 79" transform="translate(45.483 18.802)"/>
    <path id="Path_1483" d="M11.814 68.363a1.772 1.772 0 0 1 1.772 1.772v7.679a1.772 1.772 0 0 1-1.772 1.772H4.135a1.772 1.772 0 0 1-1.772-1.772v-7.679a1.772 1.772 0 0 1 1.772-1.772h7.679m0-2.363H4.135A4.135 4.135 0 0 0 0 70.135v7.679a4.135 4.135 0 0 0 4.135 4.135h7.679a4.135 4.135 0 0 0 4.135-4.135v-7.679A4.135 4.135 0 0 0 11.814 66z" class="hosteshteraki" data-name="Path 1483" transform="translate(0 -27.015)"/>
    <path id="Path_1484" d="M44.814 68.363a1.772 1.772 0 0 1 1.772 1.772v7.679a1.772 1.772 0 0 1-1.772 1.772h-7.679a1.772 1.772 0 0 1-1.772-1.772v-7.679a1.772 1.772 0 0 1 1.772-1.772h7.679m0-2.363h-7.679A4.135 4.135 0 0 0 33 70.135v7.679a4.135 4.135 0 0 0 4.135 4.135h7.679a4.135 4.135 0 0 0 4.135-4.135v-7.679A4.135 4.135 0 0 0 44.814 66z" class="hosteshteraki" data-name="Path 1484" transform="translate(-13.507 -27.015)"/>
    <path id="Path_1485" d="M77.814 68.363a1.772 1.772 0 0 1 1.772 1.772v7.679a1.772 1.772 0 0 1-1.772 1.772h-7.679a1.772 1.772 0 0 1-1.772-1.772v-7.679a1.772 1.772 0 0 1 1.772-1.772h7.679m0-2.363h-7.679A4.135 4.135 0 0 0 66 70.135v7.679a4.135 4.135 0 0 0 4.135 4.135h7.679a4.135 4.135 0 0 0 4.135-4.135v-7.679A4.135 4.135 0 0 0 77.814 66z" class="hosteshteraki" data-name="Path 1485" transform="translate(-27.015 -27.015)"/>
    <path id="Rectangle_1368" d="M0 0H2.363V12.995H0z" class="hosteshteraki" data-name="Rectangle 1368" transform="translate(25.99 27.195)"/>
    <path id="Path_1486" d="M13.363 62.679H11v-4.135A3.544 3.544 0 0 1 14.544 55h17.13v2.363h-17.13a1.181 1.181 0 0 0-1.181 1.181z" class="hosteshteraki" data-name="Path 1486" transform="translate(-4.502 -22.512)"/>
    <path id="Path_1487" d="M66.674 62.679h-2.363v-4.135a1.181 1.181 0 0 0-1.181-1.181H46V55h17.13a3.544 3.544 0 0 1 3.544 3.544z" class="hosteshteraki" data-name="Path 1487" transform="translate(-18.829 -22.512)"/>
    <rect id="Rectangle_1369" width="5.316" height="1.181" class="hosteshteraki" data-name="Rectangle 1369" rx=".591" transform="translate(24.809 44.916)"/>
    <rect id="Rectangle_1370" width="5.316" height="1.181" class="hosteshteraki" data-name="Rectangle 1370" rx=".591" transform="translate(24.809 47.869)"/>
    <rect id="Rectangle_1371" width="5.316" height="1.181" class="hosteshteraki" data-name="Rectangle 1371" rx=".591" transform="translate(5.316 44.916)"/>
    <rect id="Rectangle_1372" width="5.316" height="1.181" class="hosteshteraki" data-name="Rectangle 1372" rx=".591" transform="translate(5.316 47.869)"/>
    <rect id="Rectangle_1373" width="5.316" height="1.181" class="hosteshteraki" data-name="Rectangle 1373" rx=".591" transform="translate(44.301 44.916)"/>
    <rect id="Rectangle_1374" width="5.316" height="1.181" class="hosteshteraki" data-name="Rectangle 1374" rx=".591" transform="translate(44.301 47.869)"/>
</svg>