<svg xmlns="http://www.w3.org/2000/svg" id="Layer_1" width="54.849" height="54.719" data-name="Layer 1" viewBox="0 0 54.849 54.719">
    <defs>
        <style>
            #Layer_1 .serverekhtesasi{fill:#2b41a1}
        </style>
    </defs>
    <path id="Path_1473" fill="#d5d9e2" d="M13.163 13.882v-.59H4.77l2.8-8.387a2.4 2.4 0 0 1 2.282-1.64H14.8c.153-.354.318-.708.5-1.056l35.611.466 4.718 11.206z" data-name="Path 1473" transform="translate(-1.957 -.907)"/>
    <path id="Path_1472" d="M53.67 26.115A4.718 4.718 0 0 0 54.849 23V12.975l-3.391-9.849A4.565 4.565 0 0 0 47.117 0H7.891a4.754 4.754 0 0 0-4.517 3.25L0 12.975V23a4.718 4.718 0 0 0 1.18 3.114 4.824 4.824 0 0 0 .7.649 4.459 4.459 0 0 0-.7.661A4.718 4.718 0 0 0 0 30.539v5.9a4.718 4.718 0 0 0 1.976 3.831A4.718 4.718 0 0 0 0 44.1V50a4.718 4.718 0 0 0 4.718 4.718h45.413A4.718 4.718 0 0 0 54.849 50v-5.9a4.718 4.718 0 0 0-1.976-3.834 4.718 4.718 0 0 0 1.976-3.834v-5.9a4.718 4.718 0 0 0-1.18-3.114 4.459 4.459 0 0 0-.69-.643 4.824 4.824 0 0 0 .69-.666zM5.609 4a2.4 2.4 0 0 1 2.282-1.64h39.067A2.4 2.4 0 0 1 49.24 4l2.8 8.387H2.813zm-3.25 10.744H52.49V23a2.359 2.359 0 0 1-2.359 2.359H4.718A2.359 2.359 0 0 1 2.359 23zM52.49 50a2.359 2.359 0 0 1-2.359 2.359H4.718A2.359 2.359 0 0 1 2.359 50v-5.9a2.359 2.359 0 0 1 2.359-2.359h45.413A2.359 2.359 0 0 1 52.49 44.1zm0-13.565a2.359 2.359 0 0 1-2.359 2.365H4.718a2.359 2.359 0 0 1-2.359-2.359v-5.9a2.359 2.359 0 0 1 2.359-2.359h45.413a2.359 2.359 0 0 1 2.359 2.359z" class="serverekhtesasi" data-name="Path 1472"/>
    <rect id="Rectangle_1342" width="28.309" height="1.18" class="serverekhtesasi" data-name="Rectangle 1342" rx=".59" transform="translate(8.257 4.742)"/>
    <rect id="Rectangle_1343" width="7.667" height="1.18" class="serverekhtesasi" data-name="Rectangle 1343" rx=".59" transform="translate(38.925 4.742)"/>
    <rect id="Rectangle_1344" width="15.924" height="1.18" class="serverekhtesasi" data-name="Rectangle 1344" rx=".59" transform="translate(18.283 33.222)"/>
    <rect id="Rectangle_1345" width="5.308" height="1.18" class="serverekhtesasi" data-name="Rectangle 1345" rx=".59" transform="rotate(-90 21.477 14.989)"/>
    <rect id="Rectangle_1346" width="5.308" height="1.18" class="serverekhtesasi" data-name="Rectangle 1346" rx=".59" transform="rotate(-90 23.246 13.22)"/>
    <rect id="Rectangle_1347" width="5.308" height="1.18" class="serverekhtesasi" data-name="Rectangle 1347" rx=".59" transform="rotate(-90 25.016 11.45)"/>
    <circle id="Ellipse_62" cx="1.474" cy="1.474" r="1.474" class="serverekhtesasi" data-name="Ellipse 62" transform="translate(37.156 32.337)"/>
    <circle id="Ellipse_63" cx="1.474" cy="1.474" r="1.474" class="serverekhtesasi" data-name="Ellipse 63" transform="translate(41.284 32.337)"/>
    <circle id="Ellipse_64" cx="1.474" cy="1.474" r="1.474" class="serverekhtesasi" data-name="Ellipse 64" transform="translate(45.413 32.337)"/>
    <rect id="Rectangle_1348" width="15.924" height="1.18" class="serverekhtesasi" data-name="Rectangle 1348" rx=".59" transform="translate(18.283 46.787)"/>
    <rect id="Rectangle_1349" width="5.308" height="1.18" class="serverekhtesasi" data-name="Rectangle 1349" rx=".59" transform="rotate(-90 28.26 21.771)"/>
    <rect id="Rectangle_1350" width="5.308" height="1.18" class="serverekhtesasi" data-name="Rectangle 1350" rx=".59" transform="rotate(-90 30.029 20.003)"/>
    <rect id="Rectangle_1351" width="5.308" height="1.18" class="serverekhtesasi" data-name="Rectangle 1351" rx=".59" transform="rotate(-90 31.798 18.233)"/>
    <circle id="Ellipse_65" cx="1.474" cy="1.474" r="1.474" class="serverekhtesasi" data-name="Ellipse 65" transform="translate(37.156 45.902)"/>
    <circle id="Ellipse_66" cx="1.474" cy="1.474" r="1.474" class="serverekhtesasi" data-name="Ellipse 66" transform="translate(41.284 45.902)"/>
    <circle id="Ellipse_67" cx="1.474" cy="1.474" r="1.474" class="serverekhtesasi" data-name="Ellipse 67" transform="translate(45.413 45.902)"/>
    <rect id="Rectangle_1352" width="15.924" height="1.18" class="serverekhtesasi" data-name="Rectangle 1352" rx=".59" transform="translate(18.283 19.657)"/>
    <rect id="Rectangle_1353" width="5.308" height="1.18" class="serverekhtesasi" data-name="Rectangle 1353" rx=".59" transform="rotate(-90 14.695 8.207)"/>
    <rect id="Rectangle_1354" width="5.308" height="1.18" class="serverekhtesasi" data-name="Rectangle 1354" rx=".59" transform="rotate(-90 16.464 6.437)"/>
    <rect id="Rectangle_1355" width="5.308" height="1.18" class="serverekhtesasi" data-name="Rectangle 1355" rx=".59" transform="rotate(-90 18.233 4.668)"/>
    <circle id="Ellipse_68" cx="1.474" cy="1.474" r="1.474" class="serverekhtesasi" data-name="Ellipse 68" transform="translate(37.156 18.773)"/>
    <circle id="Ellipse_69" cx="1.474" cy="1.474" r="1.474" class="serverekhtesasi" data-name="Ellipse 69" transform="translate(41.284 18.773)"/>
    <circle id="Ellipse_70" cx="1.474" cy="1.474" r="1.474" class="serverekhtesasi" data-name="Ellipse 70" transform="translate(45.413 18.773)"/>
</svg>