<svg id="ico_pck_index_license" xmlns="http://www.w3.org/2000/svg" width="58.991" height="63.854" viewBox="0 0 58.991 63.854">
  <defs>
    <style>
      .cls-1 {
        fill: #e9ebef;
      }

      .cls-2 {
        fill: #2343a3;
      }
    </style>
  </defs>
  <g id="ico_pck_index_license-2" data-name="ico_pck_index_license">
    <path id="Path_2490" data-name="Path 2490" class="cls-1" d="M1169.115,216.771l-4.2-7.222-.959-7.075,2.8-6.411,5.307-3.905,6.705-1.769,7.223,2.137,5.453,4.717,1.768,5.821-.957,6.854-3.906,5.9-6.705,3.095-6.928.295-3.1-2.432Z" transform="translate(-1163.957 -170.842)"/>
    <g id="data_image_svg_xml_2_" data-name="data_image_svg+xml;… (2)">
      <path id="Path_2484" data-name="Path 2484" class="cls-2" d="M17.8,51.126a1.258,1.258,0,0,0-1.618.731L13.5,58.951a14.222,14.222,0,0,1-1.187-1.713,1.65,1.65,0,0,0-1.831-.757,19.173,19.173,0,0,1-2.429.462l2.5-6.6A1.255,1.255,0,0,0,8.2,49.456L4.385,59.55l1.8.014a18.437,18.437,0,0,0,4.3-.5A14.49,14.49,0,0,0,13.152,62.2l1.36,1.179,4.02-10.631a1.255,1.255,0,0,0-.73-1.618Z" transform="translate(-3.625 -1.007)"/>
      <path id="Path_2485" data-name="Path 2485" class="cls-2" d="M26.092,48.521a1.255,1.255,0,0,0-.73,1.618L28.5,58.43a19.245,19.245,0,0,1-2.433-.463,1.647,1.647,0,0,0-1.829.761,14.086,14.086,0,0,1-1.183,1.709l-1.5-3.97a1.255,1.255,0,1,0-2.348.887l2.838,7.508,1.36-1.18a14.444,14.444,0,0,0,2.661-3.134,19.281,19.281,0,0,0,4.3.5l1.8-.014L27.71,49.251A1.255,1.255,0,0,0,26.092,48.521Z" transform="translate(-3.563 -1.008)"/>
      <path id="Path_2486" data-name="Path 2486" class="cls-2" d="M4.56,40.669a2.6,2.6,0,0,0,1.478,1.466,2.7,2.7,0,0,1,1.715,2.39,2.611,2.611,0,0,0,2.926,2.482A2.7,2.7,0,0,1,13.315,48.3a2.611,2.611,0,0,0,3.753.8,2.675,2.675,0,0,1,1.242-.473,2.672,2.672,0,0,1,1.237.47,2.628,2.628,0,0,0,2.064.423A2.6,2.6,0,0,0,23.3,48.3a2.6,2.6,0,0,1,.862-.887,2.65,2.65,0,0,1,1.771-.406,2.612,2.612,0,0,0,2.929-2.482,2.674,2.674,0,0,1,1.714-2.389,2.616,2.616,0,0,0,1.4-3.572,2.65,2.65,0,0,1-.272-1.2,2.707,2.707,0,0,1,.649-1.712,2.609,2.609,0,0,0-.448-3.806A2.677,2.677,0,0,1,30.867,29.1a2.612,2.612,0,0,0-2.2-3.146,2.681,2.681,0,0,1-2.219-1.923,2.605,2.605,0,0,0-3.418-1.734,2.716,2.716,0,0,1-1.229.156,2.686,2.686,0,0,1-1.647-.811,2.558,2.558,0,0,0-3.7.007,2.674,2.674,0,0,1-1.632.8A2.706,2.706,0,0,1,13.6,22.3a2.606,2.606,0,0,0-3.424,1.726,2.677,2.677,0,0,1-2.223,1.928,2.612,2.612,0,0,0-2.2,3.145,2.678,2.678,0,0,1-1.044,2.746,2.609,2.609,0,0,0-.453,3.808,2.676,2.676,0,0,1,.379,2.918,2.624,2.624,0,0,0-.073,2.1Zm1.62-6.794a5.139,5.139,0,0,0,1.564-1.818,5.2,5.2,0,0,0,.459-3.5c-.012-.054.007-.1.078-.118a5.223,5.223,0,0,0,2.243-.861,5.067,5.067,0,0,0,.485-.376,5.22,5.22,0,0,0,1.4-1.984c.047-.116.09-.234.128-.354.019-.06.031-.122.051-.181.034-.1.19-.011.247.009q.174.06.351.107a5.142,5.142,0,0,0,1.444.175c.153,0,.306-.013.458-.029a5.6,5.6,0,0,0,3.253-1.563A5.187,5.187,0,0,0,23.9,24.647c.1-.038.126.033.127.059a5.2,5.2,0,0,0,3.988,3.68q.085.017.171.031c.079.013.256.008.227.135a5.19,5.19,0,0,0,2.022,5.323l.018.14a5.23,5.23,0,0,0-1.254,3.31,5.152,5.152,0,0,0,.525,2.338.111.111,0,0,1-.048.129A5.218,5.218,0,0,0,27,42.117a5.163,5.163,0,0,0-.619,1.943c-.013.122-.036.451-.036.451s-.257-.014-.334-.02a5.184,5.184,0,0,0-3.2.808,5.087,5.087,0,0,0-1.673,1.732L21.1,47.1l-.1-.053a5.2,5.2,0,0,0-2.591-.932l-.1-.007-.1.007a5.19,5.19,0,0,0-2.592.932.093.093,0,0,1-.145-.023A5.114,5.114,0,0,0,13.813,45.3a5.2,5.2,0,0,0-3.442-.788c-.061,0-.1-.02-.11-.088a5.122,5.122,0,0,0-.652-2.312,5.3,5.3,0,0,0-.327-.515,5.19,5.19,0,0,0-1.828-1.577c-.1-.051-.2-.1-.305-.142l-.157-.066c-.041-.017-.107-.03-.122-.078a.081.081,0,0,1,.016-.069.62.62,0,0,0,.037-.071q.038-.08.072-.161.069-.161.127-.327a5.112,5.112,0,0,0,.186-.674,5.189,5.189,0,0,0,.093-.7q.014-.209.011-.418a5.205,5.205,0,0,0-1.258-3.31.095.095,0,0,1,.025-.135Z" transform="translate(-3.628 -1.124)"/>
      <path id="Path_2487" data-name="Path 2487" class="cls-2" d="M52.093,27.813H35.352a1.255,1.255,0,0,0,0,2.511H52.093a1.255,1.255,0,1,0,0-2.511Z" transform="translate(-3.5 -1.095)"/>
      <path id="Path_2488" data-name="Path 2488" class="cls-2" d="M52.087,38.093H36.682a1.255,1.255,0,0,0,0,2.511H52.087a1.255,1.255,0,1,0,0-2.511Z" transform="translate(-3.495 -1.052)"/>
      <path id="Path_2489" data-name="Path 2489" class="cls-2" d="M61.992,15.257a1.22,1.22,0,0,0-.444-.678c-.082-.107-.152-.218-.246-.319L50.841,2.785A4.822,4.822,0,0,0,47.27,1.207H23.42a6.434,6.434,0,0,0-6.427,6.427v9.54a1.255,1.255,0,0,0,2.511,0V7.634A3.921,3.921,0,0,1,23.42,3.718H47.27a2.309,2.309,0,0,1,1.713.756L57.945,14.3H53.316A3.916,3.916,0,0,1,49.4,10.391V7.9a1.255,1.255,0,0,0-2.511,0v2.5a6.43,6.43,0,0,0,6.422,6.423h6.623a2.321,2.321,0,0,1,.113.7V47.973a3.9,3.9,0,0,1-3.9,3.9H33.13a1.255,1.255,0,0,0,0,2.511H56.156a6.414,6.414,0,0,0,6.407-6.407V17.516a4.806,4.806,0,0,0-.571-2.259Z" transform="translate(-3.572 -1.207)"/>
    </g>
  </g>
</svg>